<svg width="638" height="214" viewBox="0 0 638 214" fill="none" xmlns="http://www.w3.org/2000/svg">
<g filter="url(#filter0_d_1_24362)">
<g clip-path="url(#clip0_1_24362)">
<rect x="25" y="16" width="588" height="164" rx="24" fill="white"/>
<path d="M66.1152 36.3213L60.8467 52H57.1523L64.0586 33.5156H66.4199L66.1152 36.3213ZM70.5205 52L65.2266 36.3213L64.9092 33.5156H67.2832L74.2275 52H70.5205ZM70.2793 45.1318V47.8867H60.3643V45.1318H70.2793ZM83.2158 43.7607H78.4932L78.4678 41.2979H82.5176C83.2116 41.2979 83.7913 41.2005 84.2568 41.0059C84.7223 40.8112 85.0736 40.5277 85.3105 40.1553C85.556 39.7829 85.6787 39.3301 85.6787 38.7969C85.6787 38.2044 85.5645 37.722 85.3359 37.3496C85.1159 36.9772 84.7689 36.7064 84.2949 36.5371C83.821 36.3594 83.2201 36.2705 82.4922 36.2705H79.623V52H76.1318V33.5156H82.4922C83.5417 33.5156 84.4769 33.6172 85.2979 33.8203C86.1273 34.015 86.8298 34.3197 87.4053 34.7344C87.9808 35.1491 88.4167 35.6696 88.7129 36.2959C89.0176 36.9222 89.1699 37.667 89.1699 38.5303C89.1699 39.292 88.9922 39.9945 88.6367 40.6377C88.2897 41.2725 87.7523 41.7887 87.0244 42.1865C86.305 42.5843 85.391 42.8128 84.2822 42.8721L83.2158 43.7607ZM83.0635 52H77.4648L78.9248 49.2578H83.0635C83.7575 49.2578 84.3288 49.1436 84.7773 48.915C85.2344 48.6865 85.5729 48.3734 85.793 47.9756C86.0215 47.5693 86.1357 47.1038 86.1357 46.5791C86.1357 46.0036 86.0342 45.5042 85.8311 45.0811C85.6364 44.6579 85.3232 44.332 84.8916 44.1035C84.4684 43.875 83.9098 43.7607 83.2158 43.7607H79.585L79.6104 41.2979H84.2314L85.0312 42.25C86.0977 42.2585 86.9652 42.4701 87.6338 42.8848C88.3109 43.2995 88.8102 43.8327 89.1318 44.4844C89.4535 45.1361 89.6143 45.8385 89.6143 46.5918C89.6143 47.7767 89.3561 48.7712 88.8398 49.5752C88.332 50.3792 87.5872 50.9844 86.6055 51.3906C85.6322 51.7969 84.4515 52 83.0635 52ZM103.452 45.9189H106.943C106.85 47.1546 106.507 48.2507 105.915 49.207C105.323 50.1549 104.497 50.8997 103.439 51.4414C102.382 51.9831 101.099 52.2539 99.5928 52.2539C98.4333 52.2539 97.388 52.0508 96.457 51.6445C95.5345 51.2298 94.7432 50.6416 94.083 49.8799C93.4313 49.1097 92.932 48.1872 92.585 47.1123C92.238 46.029 92.0645 44.8145 92.0645 43.4688V42.0596C92.0645 40.7139 92.2422 39.4993 92.5977 38.416C92.9531 37.3327 93.4609 36.4102 94.1211 35.6484C94.7897 34.8783 95.5895 34.2858 96.5205 33.8711C97.46 33.4564 98.5094 33.249 99.6689 33.249C101.175 33.249 102.449 33.5283 103.49 34.0869C104.531 34.637 105.34 35.3945 105.915 36.3594C106.491 37.3242 106.838 38.4329 106.956 39.6855H103.465C103.397 38.9069 103.228 38.2467 102.957 37.7051C102.695 37.1634 102.297 36.7529 101.764 36.4736C101.239 36.1859 100.541 36.042 99.6689 36.042C98.9919 36.042 98.3952 36.1689 97.8789 36.4229C97.3711 36.6768 96.9479 37.0576 96.6094 37.5654C96.2708 38.0648 96.0169 38.6911 95.8477 39.4443C95.6784 40.1891 95.5938 41.0524 95.5938 42.0342V43.4688C95.5938 44.4082 95.6699 45.2503 95.8223 45.9951C95.9746 46.7399 96.2116 47.3704 96.5332 47.8867C96.8548 48.403 97.2695 48.7965 97.7773 49.0674C98.2852 49.3382 98.8903 49.4736 99.5928 49.4736C100.448 49.4736 101.142 49.3382 101.675 49.0674C102.216 48.7965 102.627 48.3988 102.906 47.874C103.194 47.3493 103.376 46.6976 103.452 45.9189ZM123.231 45.2588H118.471V42.5166H123.231C124.01 42.5166 124.641 42.3896 125.123 42.1357C125.614 41.8734 125.974 41.5179 126.202 41.0693C126.431 40.6123 126.545 40.0918 126.545 39.5078C126.545 38.9408 126.431 38.4118 126.202 37.9209C125.974 37.43 125.614 37.0322 125.123 36.7275C124.641 36.4229 124.01 36.2705 123.231 36.2705H119.613V52H116.122V33.5156H123.231C124.67 33.5156 125.897 33.7738 126.913 34.29C127.937 34.7979 128.716 35.5046 129.249 36.4102C129.791 37.3073 130.062 38.3314 130.062 39.4824C130.062 40.6758 129.791 41.7041 129.249 42.5674C128.716 43.4307 127.937 44.0951 126.913 44.5605C125.897 45.026 124.67 45.2588 123.231 45.2588ZM137.311 49.4609L140.51 38.2637H144.014L139.304 52H137.171L137.311 49.4609ZM134.975 38.2637L138.212 49.4863L138.326 52H136.181L131.458 38.2637H134.975ZM152.278 38.2637V40.6758H144.407V38.2637H152.278ZM146.515 34.8867H149.879V48.0391C149.879 48.4453 149.934 48.7585 150.044 48.9785C150.154 49.1986 150.319 49.3467 150.539 49.4229C150.759 49.499 151.021 49.5371 151.326 49.5371C151.546 49.5371 151.749 49.5244 151.936 49.499C152.122 49.4736 152.278 49.4482 152.405 49.4229L152.418 51.9365C152.139 52.0296 151.821 52.1058 151.466 52.165C151.119 52.2243 150.725 52.2539 150.285 52.2539C149.532 52.2539 148.872 52.127 148.305 51.873C147.738 51.6107 147.298 51.1917 146.984 50.6162C146.671 50.0322 146.515 49.262 146.515 48.3057V34.8867ZM164.542 32.5V52H161.178V32.5H164.542ZM174.241 38.2637V40.6758H166.37V38.2637H174.241ZM168.478 34.8867H171.842V48.0391C171.842 48.4453 171.897 48.7585 172.007 48.9785C172.117 49.1986 172.282 49.3467 172.502 49.4229C172.722 49.499 172.984 49.5371 173.289 49.5371C173.509 49.5371 173.712 49.5244 173.898 49.499C174.085 49.4736 174.241 49.4482 174.368 49.4229L174.381 51.9365C174.102 52.0296 173.784 52.1058 173.429 52.165C173.082 52.2243 172.688 52.2539 172.248 52.2539C171.495 52.2539 170.835 52.127 170.268 51.873C169.701 51.6107 169.26 51.1917 168.947 50.6162C168.634 50.0322 168.478 49.262 168.478 48.3057V34.8867ZM184.715 49.0801V32.5H188.092V52H185.045L184.715 49.0801ZM175.892 45.2969V45.0303C175.892 43.9808 176.01 43.0286 176.247 42.1738C176.493 41.3105 176.848 40.57 177.313 39.9521C177.779 39.3343 178.342 38.8561 179.002 38.5176C179.671 38.179 180.428 38.0098 181.274 38.0098C182.095 38.0098 182.811 38.1748 183.42 38.5049C184.038 38.835 184.562 39.3047 184.994 39.9141C185.434 40.5234 185.785 41.2471 186.048 42.085C186.31 42.9144 186.501 43.8285 186.619 44.8271V45.5508C186.501 46.5241 186.31 47.417 186.048 48.2295C185.785 49.042 185.434 49.7529 184.994 50.3623C184.562 50.9632 184.038 51.4287 183.42 51.7588C182.802 52.0889 182.078 52.2539 181.249 52.2539C180.411 52.2539 179.658 52.0804 178.989 51.7334C178.329 51.3864 177.766 50.8997 177.301 50.2734C176.844 49.6471 176.493 48.9108 176.247 48.0645C176.01 47.2181 175.892 46.2956 175.892 45.2969ZM179.256 45.0303V45.2969C179.256 45.8893 179.307 46.4437 179.408 46.96C179.51 47.4762 179.675 47.9333 179.903 48.3311C180.132 48.7204 180.424 49.0251 180.779 49.2451C181.143 49.4652 181.583 49.5752 182.1 49.5752C182.76 49.5752 183.301 49.4313 183.725 49.1436C184.156 48.8473 184.491 48.4453 184.728 47.9375C184.965 47.4212 185.117 46.8415 185.185 46.1982V44.2051C185.151 43.6973 185.062 43.2275 184.918 42.7959C184.783 42.3643 184.588 41.9919 184.334 41.6787C184.089 41.3656 183.784 41.1201 183.42 40.9424C183.056 40.7646 182.624 40.6758 182.125 40.6758C181.609 40.6758 181.169 40.79 180.805 41.0186C180.441 41.2386 180.145 41.5475 179.916 41.9453C179.688 42.3431 179.518 42.8044 179.408 43.3291C179.307 43.8538 179.256 44.4209 179.256 45.0303Z" fill="#676B89"/>
<path d="M390 41.2852V44.1035C390 45.6185 389.864 46.8965 389.593 47.9375C389.322 48.9785 388.933 49.8164 388.425 50.4512C387.917 51.0859 387.304 51.5472 386.584 51.835C385.874 52.1143 385.069 52.2539 384.172 52.2539C383.461 52.2539 382.806 52.165 382.205 51.9873C381.604 51.8096 381.062 51.526 380.58 51.1367C380.106 50.7389 379.699 50.2227 379.361 49.5879C379.022 48.9531 378.764 48.1829 378.586 47.2773C378.409 46.3717 378.32 45.3138 378.32 44.1035V41.2852C378.32 39.7702 378.455 38.5007 378.726 37.4766C379.005 36.4525 379.399 35.6315 379.907 35.0137C380.415 34.3874 381.024 33.9388 381.735 33.668C382.454 33.3971 383.258 33.2617 384.147 33.2617C384.866 33.2617 385.527 33.3506 386.127 33.5283C386.737 33.6976 387.278 33.9727 387.752 34.3535C388.226 34.7259 388.628 35.2253 388.958 35.8516C389.297 36.4694 389.555 37.2269 389.733 38.124C389.911 39.0212 390 40.0749 390 41.2852ZM387.638 44.4844V40.8916C387.638 40.0622 387.587 39.3343 387.486 38.708C387.393 38.0732 387.253 37.5316 387.067 37.083C386.881 36.6344 386.644 36.2705 386.356 35.9912C386.077 35.7119 385.751 35.5088 385.378 35.3818C385.014 35.2464 384.604 35.1787 384.147 35.1787C383.588 35.1787 383.093 35.2845 382.662 35.4961C382.23 35.6992 381.866 36.0251 381.57 36.4736C381.282 36.9222 381.062 37.5104 380.91 38.2383C380.757 38.9661 380.681 39.8506 380.681 40.8916V44.4844C380.681 45.3138 380.728 46.0459 380.821 46.6807C380.922 47.3154 381.07 47.8656 381.265 48.3311C381.46 48.7881 381.697 49.1647 381.976 49.4609C382.255 49.7572 382.577 49.9772 382.941 50.1211C383.313 50.2565 383.724 50.3242 384.172 50.3242C384.748 50.3242 385.251 50.2142 385.683 49.9941C386.115 49.7741 386.474 49.4313 386.762 48.9658C387.058 48.4919 387.278 47.8867 387.422 47.1504C387.566 46.4056 387.638 45.5169 387.638 44.4844ZM405.132 50.0703V52H393.034V50.3115L399.089 43.5703C399.834 42.7409 400.41 42.0384 400.816 41.4629C401.231 40.8789 401.518 40.3584 401.679 39.9014C401.848 39.4359 401.933 38.9619 401.933 38.4795C401.933 37.8701 401.806 37.32 401.552 36.8291C401.307 36.3298 400.943 35.932 400.46 35.6357C399.978 35.3395 399.394 35.1914 398.708 35.1914C397.888 35.1914 397.202 35.3522 396.652 35.6738C396.11 35.987 395.704 36.4271 395.433 36.9941C395.162 37.5612 395.027 38.2129 395.027 38.9492H392.678C392.678 37.9082 392.907 36.9561 393.364 36.0928C393.821 35.2295 394.498 34.5439 395.395 34.0361C396.292 33.5199 397.397 33.2617 398.708 33.2617C399.876 33.2617 400.875 33.4691 401.705 33.8838C402.534 34.29 403.169 34.8656 403.609 35.6104C404.057 36.3467 404.282 37.21 404.282 38.2002C404.282 38.7419 404.189 39.292 404.002 39.8506C403.825 40.4007 403.575 40.9508 403.253 41.501C402.94 42.0511 402.572 42.5928 402.149 43.126C401.734 43.6592 401.29 44.1839 400.816 44.7002L395.865 50.0703H405.132ZM422.461 46.6045V33.5156H424.899V46.6045C424.899 47.8232 424.649 48.8516 424.15 49.6895C423.651 50.5273 422.961 51.1663 422.081 51.6064C421.209 52.0381 420.206 52.2539 419.072 52.2539C417.938 52.2539 416.931 52.0592 416.05 51.6699C415.17 51.2806 414.48 50.6882 413.981 49.8926C413.482 49.097 413.232 48.0941 413.232 46.8838H415.682C415.682 47.6624 415.826 48.3014 416.114 48.8008C416.402 49.3001 416.799 49.6683 417.307 49.9053C417.823 50.1423 418.412 50.2607 419.072 50.2607C419.715 50.2607 420.291 50.1253 420.798 49.8545C421.315 49.5752 421.721 49.1647 422.017 48.623C422.313 48.0729 422.461 47.4001 422.461 46.6045ZM437.099 48.8262V38.2637H439.46V52H437.213L437.099 48.8262ZM437.543 45.9316L438.521 45.9062C438.521 46.8203 438.424 47.6667 438.229 48.4453C438.043 49.2155 437.738 49.8841 437.315 50.4512C436.892 51.0182 436.337 51.4626 435.652 51.7842C434.966 52.0973 434.133 52.2539 433.151 52.2539C432.482 52.2539 431.869 52.1566 431.31 51.9619C430.76 51.7673 430.286 51.4668 429.888 51.0605C429.49 50.6543 429.181 50.1253 428.961 49.4736C428.75 48.8219 428.644 48.0391 428.644 47.125V38.2637H430.993V47.1504C430.993 47.7682 431.06 48.2803 431.196 48.6865C431.34 49.0843 431.53 49.4017 431.767 49.6387C432.013 49.8672 432.283 50.028 432.58 50.1211C432.884 50.2142 433.197 50.2607 433.519 50.2607C434.518 50.2607 435.309 50.0703 435.893 49.6895C436.477 49.3001 436.896 48.7796 437.15 48.1279C437.412 47.4678 437.543 46.7357 437.543 45.9316ZM445.592 32.5V52H443.231V32.5H445.592ZM453.222 50.5781L457.043 38.2637H459.557L454.047 54.1201C453.92 54.4587 453.751 54.8226 453.54 55.2119C453.336 55.6097 453.074 55.9863 452.752 56.3418C452.431 56.6973 452.042 56.985 451.584 57.2051C451.136 57.4336 450.598 57.5479 449.972 57.5479C449.786 57.5479 449.549 57.5225 449.261 57.4717C448.973 57.4209 448.77 57.3786 448.652 57.3447L448.639 55.4404C448.707 55.4489 448.813 55.4574 448.957 55.4658C449.109 55.4827 449.215 55.4912 449.274 55.4912C449.807 55.4912 450.26 55.4193 450.632 55.2754C451.005 55.14 451.318 54.9072 451.572 54.5771C451.834 54.2555 452.058 53.8112 452.245 53.2441L453.222 50.5781ZM450.417 38.2637L453.984 48.9277L454.593 51.4033L452.905 52.2666L447.852 38.2637H450.417ZM462.439 49.207V51.0986C462.439 51.8688 462.244 52.6813 461.855 53.5361C461.466 54.3994 460.92 55.1188 460.217 55.6943L458.884 54.7676C459.155 54.3952 459.384 54.0143 459.57 53.625C459.756 53.2441 459.896 52.8464 459.989 52.4316C460.09 52.0254 460.141 51.5938 460.141 51.1367V49.207H462.439ZM483.234 41.2852V44.1035C483.234 45.6185 483.098 46.8965 482.828 47.9375C482.557 48.9785 482.167 49.8164 481.66 50.4512C481.152 51.0859 480.538 51.5472 479.819 51.835C479.108 52.1143 478.304 52.2539 477.407 52.2539C476.696 52.2539 476.04 52.165 475.439 51.9873C474.838 51.8096 474.296 51.526 473.814 51.1367C473.34 50.7389 472.934 50.2227 472.595 49.5879C472.257 48.9531 471.999 48.1829 471.821 47.2773C471.643 46.3717 471.554 45.3138 471.554 44.1035V41.2852C471.554 39.7702 471.69 38.5007 471.96 37.4766C472.24 36.4525 472.633 35.6315 473.141 35.0137C473.649 34.3874 474.258 33.9388 474.969 33.668C475.689 33.3971 476.493 33.2617 477.381 33.2617C478.101 33.2617 478.761 33.3506 479.362 33.5283C479.971 33.6976 480.513 33.9727 480.987 34.3535C481.461 34.7259 481.863 35.2253 482.193 35.8516C482.531 36.4694 482.79 37.2269 482.967 38.124C483.145 39.0212 483.234 40.0749 483.234 41.2852ZM480.873 44.4844V40.8916C480.873 40.0622 480.822 39.3343 480.72 38.708C480.627 38.0732 480.487 37.5316 480.301 37.083C480.115 36.6344 479.878 36.2705 479.59 35.9912C479.311 35.7119 478.985 35.5088 478.613 35.3818C478.249 35.2464 477.838 35.1787 477.381 35.1787C476.823 35.1787 476.328 35.2845 475.896 35.4961C475.464 35.6992 475.1 36.0251 474.804 36.4736C474.516 36.9222 474.296 37.5104 474.144 38.2383C473.992 38.9661 473.916 39.8506 473.916 40.8916V44.4844C473.916 45.3138 473.962 46.0459 474.055 46.6807C474.157 47.3154 474.305 47.8656 474.5 48.3311C474.694 48.7881 474.931 49.1647 475.21 49.4609C475.49 49.7572 475.811 49.9772 476.175 50.1211C476.548 50.2565 476.958 50.3242 477.407 50.3242C477.982 50.3242 478.486 50.2142 478.917 49.9941C479.349 49.7741 479.709 49.4313 479.997 48.9658C480.293 48.4919 480.513 47.8867 480.657 47.1504C480.801 46.4056 480.873 45.5169 480.873 44.4844ZM498.202 33.5156V34.8359L490.546 52H488.071L495.713 35.4453H485.709V33.5156H498.202ZM501.033 50.7559C501.033 50.3581 501.155 50.0238 501.401 49.7529C501.655 49.4736 502.019 49.334 502.493 49.334C502.967 49.334 503.326 49.4736 503.572 49.7529C503.826 50.0238 503.953 50.3581 503.953 50.7559C503.953 51.1452 503.826 51.4753 503.572 51.7461C503.326 52.0169 502.967 52.1523 502.493 52.1523C502.019 52.1523 501.655 52.0169 501.401 51.7461C501.155 51.4753 501.033 51.1452 501.033 50.7559ZM501.045 39.5459C501.045 39.1481 501.168 38.8138 501.414 38.543C501.667 38.2637 502.031 38.124 502.505 38.124C502.979 38.124 503.339 38.2637 503.584 38.543C503.838 38.8138 503.965 39.1481 503.965 39.5459C503.965 39.9352 503.838 40.2653 503.584 40.5361C503.339 40.807 502.979 40.9424 502.505 40.9424C502.031 40.9424 501.667 40.807 501.414 40.5361C501.168 40.2653 501.045 39.9352 501.045 39.5459ZM519.289 50.0703V52H507.19V50.3115L513.246 43.5703C513.99 42.7409 514.566 42.0384 514.972 41.4629C515.387 40.8789 515.675 40.3584 515.835 39.9014C516.005 39.4359 516.089 38.9619 516.089 38.4795C516.089 37.8701 515.962 37.32 515.708 36.8291C515.463 36.3298 515.099 35.932 514.617 35.6357C514.134 35.3395 513.55 35.1914 512.865 35.1914C512.044 35.1914 511.358 35.3522 510.808 35.6738C510.266 35.987 509.86 36.4271 509.589 36.9941C509.319 37.5612 509.183 38.2129 509.183 38.9492H506.834C506.834 37.9082 507.063 36.9561 507.52 36.0928C507.977 35.2295 508.654 34.5439 509.551 34.0361C510.448 33.5199 511.553 33.2617 512.865 33.2617C514.033 33.2617 515.031 33.4691 515.861 33.8838C516.69 34.29 517.325 34.8656 517.765 35.6104C518.214 36.3467 518.438 37.21 518.438 38.2002C518.438 38.7419 518.345 39.292 518.159 39.8506C517.981 40.4007 517.731 40.9508 517.41 41.501C517.097 42.0511 516.728 42.5928 516.305 43.126C515.89 43.6592 515.446 44.1839 514.972 44.7002L510.021 50.0703H519.289ZM533.406 41.2852V44.1035C533.406 45.6185 533.27 46.8965 533 47.9375C532.729 48.9785 532.339 49.8164 531.832 50.4512C531.324 51.0859 530.71 51.5472 529.991 51.835C529.28 52.1143 528.476 52.2539 527.579 52.2539C526.868 52.2539 526.212 52.165 525.611 51.9873C525.01 51.8096 524.468 51.526 523.986 51.1367C523.512 50.7389 523.106 50.2227 522.767 49.5879C522.429 48.9531 522.17 48.1829 521.993 47.2773C521.815 46.3717 521.726 45.3138 521.726 44.1035V41.2852C521.726 39.7702 521.861 38.5007 522.132 37.4766C522.412 36.4525 522.805 35.6315 523.313 35.0137C523.821 34.3874 524.43 33.9388 525.141 33.668C525.861 33.3971 526.665 33.2617 527.553 33.2617C528.273 33.2617 528.933 33.3506 529.534 33.5283C530.143 33.6976 530.685 33.9727 531.159 34.3535C531.633 34.7259 532.035 35.2253 532.365 35.8516C532.703 36.4694 532.961 37.2269 533.139 38.124C533.317 39.0212 533.406 40.0749 533.406 41.2852ZM531.044 44.4844V40.8916C531.044 40.0622 530.994 39.3343 530.892 38.708C530.799 38.0732 530.659 37.5316 530.473 37.083C530.287 36.6344 530.05 36.2705 529.762 35.9912C529.483 35.7119 529.157 35.5088 528.785 35.3818C528.421 35.2464 528.01 35.1787 527.553 35.1787C526.995 35.1787 526.5 35.2845 526.068 35.4961C525.636 35.6992 525.272 36.0251 524.976 36.4736C524.688 36.9222 524.468 37.5104 524.316 38.2383C524.164 38.9661 524.087 39.8506 524.087 40.8916V44.4844C524.087 45.3138 524.134 46.0459 524.227 46.6807C524.329 47.3154 524.477 47.8656 524.671 48.3311C524.866 48.7881 525.103 49.1647 525.382 49.4609C525.662 49.7572 525.983 49.9772 526.347 50.1211C526.72 50.2565 527.13 50.3242 527.579 50.3242C528.154 50.3242 528.658 50.2142 529.089 49.9941C529.521 49.7741 529.881 49.4313 530.168 48.9658C530.465 48.4919 530.685 47.8867 530.829 47.1504C530.972 46.4056 531.044 45.5169 531.044 44.4844ZM550.303 44.751H545.365V42.7578H550.303C551.26 42.7578 552.034 42.6055 552.626 42.3008C553.219 41.9961 553.651 41.5729 553.921 41.0312C554.201 40.4896 554.34 39.8717 554.34 39.1777C554.34 38.543 554.201 37.9463 553.921 37.3877C553.651 36.8291 553.219 36.3805 552.626 36.042C552.034 35.695 551.26 35.5215 550.303 35.5215H545.936V52H543.486V33.5156H550.303C551.7 33.5156 552.88 33.7568 553.845 34.2393C554.81 34.7217 555.542 35.3903 556.042 36.2451C556.541 37.0915 556.791 38.0605 556.791 39.1523C556.791 40.3372 556.541 41.3486 556.042 42.1865C555.542 43.0244 554.81 43.6634 553.845 44.1035C552.88 44.5352 551.7 44.751 550.303 44.751ZM560.663 33.5156H563.037L569.092 48.585L575.135 33.5156H577.522L570.006 52H568.153L560.663 33.5156ZM559.888 33.5156H561.983L562.326 44.7891V52H559.888V33.5156ZM576.189 33.5156H578.284V52H575.846V44.7891L576.189 33.5156Z" fill="#676B89"/>
<mask id="path-4-inside-1_1_24362" fill="white">
<path d="M25 71H613V180H25V71Z"/>
</mask>
<path d="M25 74H613V68H25V74Z" fill="#F0F1F5" mask="url(#path-4-inside-1_1_24362)"/>
<path d="M69.4688 115.648V118.191H57.7734V115.648H69.4688ZM64.9922 110.867V123.289H62.2617V110.867H64.9922Z" fill="#979DB5"/>
<path d="M86.5078 118.109L85.9688 119.961H75.0938L75.6328 118.109H86.5078ZM81.6328 131L75.4336 123.758L75.4219 122.305H78.2812C79.1094 122.305 79.793 122.168 80.332 121.895C80.8789 121.613 81.2891 121.234 81.5625 120.758C81.8359 120.281 81.9727 119.746 81.9727 119.152C81.9727 118.488 81.8438 117.906 81.5859 117.406C81.3281 116.898 80.9219 116.504 80.3672 116.223C79.8203 115.934 79.1016 115.789 78.2109 115.789H75.1172L75.668 113.938H78.2109C79.5703 113.938 80.6914 114.145 81.5742 114.559C82.4648 114.965 83.1289 115.559 83.5664 116.34C84.0039 117.121 84.2227 118.066 84.2227 119.176C84.2227 120.129 84.0391 120.984 83.6719 121.742C83.3125 122.492 82.7148 123.082 81.8789 123.512C81.0508 123.941 79.9336 124.156 78.5273 124.156L84.293 130.859V131H81.6328ZM86.5078 113.938L85.9688 115.789H77.2031L77.7422 113.938H86.5078Z" fill="#20294C"/>
<path d="M106.764 110.956H107.379V114.996H107.03C105.267 114.996 103.742 115.27 102.457 115.816C101.186 116.363 100.14 117.115 99.3193 118.072C98.499 119.029 97.8838 120.15 97.4736 121.436C97.0771 122.707 96.8789 124.061 96.8789 125.496V130.192C96.8789 131.382 97.0088 132.435 97.2686 133.351C97.5283 134.253 97.8906 135.012 98.3555 135.627C98.834 136.229 99.3809 136.687 99.9961 137.001C100.611 137.315 101.274 137.473 101.985 137.473C102.724 137.473 103.394 137.322 103.995 137.021C104.597 136.707 105.109 136.276 105.533 135.729C105.957 135.183 106.278 134.533 106.497 133.781C106.716 133.029 106.825 132.209 106.825 131.32C106.825 130.473 106.716 129.68 106.497 128.941C106.292 128.189 105.984 127.533 105.574 126.973C105.164 126.398 104.651 125.954 104.036 125.64C103.435 125.312 102.737 125.147 101.944 125.147C100.96 125.147 100.064 125.38 99.2578 125.845C98.4648 126.31 97.8223 126.918 97.3301 127.67C96.8516 128.408 96.5918 129.194 96.5508 130.028L94.6641 129.413C94.7734 128.142 95.0537 127 95.5049 125.988C95.9697 124.977 96.5781 124.115 97.3301 123.404C98.082 122.693 98.9502 122.153 99.9346 121.784C100.933 121.401 102.026 121.21 103.216 121.21C104.665 121.21 105.923 121.483 106.989 122.03C108.056 122.577 108.938 123.322 109.635 124.266C110.346 125.195 110.872 126.262 111.214 127.465C111.569 128.654 111.747 129.898 111.747 131.197C111.747 132.633 111.528 133.973 111.091 135.217C110.653 136.447 110.011 137.527 109.163 138.457C108.329 139.387 107.311 140.111 106.107 140.631C104.918 141.15 103.564 141.41 102.047 141.41C100.447 141.41 99.0186 141.103 97.7607 140.487C96.5166 139.872 95.457 139.024 94.582 137.944C93.7207 136.864 93.0645 135.62 92.6133 134.212C92.1621 132.804 91.9365 131.313 91.9365 129.741V127.69C91.9365 125.421 92.2236 123.281 92.7979 121.271C93.3721 119.248 94.2539 117.464 95.4434 115.919C96.6465 114.374 98.1846 113.164 100.058 112.289C101.931 111.4 104.166 110.956 106.764 110.956ZM135.167 123.568V128.449C135.167 130.787 134.935 132.783 134.47 134.438C134.019 136.078 133.362 137.411 132.501 138.437C131.64 139.462 130.607 140.214 129.404 140.692C128.215 141.171 126.882 141.41 125.405 141.41C124.229 141.41 123.136 141.26 122.124 140.959C121.126 140.658 120.224 140.187 119.417 139.544C118.61 138.901 117.92 138.074 117.346 137.062C116.785 136.037 116.348 134.813 116.033 133.392C115.732 131.97 115.582 130.322 115.582 128.449V123.568C115.582 121.217 115.814 119.234 116.279 117.621C116.744 115.994 117.407 114.675 118.269 113.663C119.13 112.638 120.155 111.893 121.345 111.428C122.548 110.963 123.888 110.73 125.364 110.73C126.554 110.73 127.647 110.881 128.646 111.182C129.657 111.469 130.56 111.927 131.353 112.556C132.159 113.185 132.843 114.005 133.403 115.017C133.978 116.015 134.415 117.225 134.716 118.646C135.017 120.055 135.167 121.695 135.167 123.568ZM130.225 129.146V122.83C130.225 121.641 130.156 120.595 130.02 119.692C129.883 118.776 129.678 118.004 129.404 117.375C129.145 116.732 128.816 116.213 128.42 115.816C128.023 115.406 127.572 115.112 127.066 114.935C126.561 114.743 125.993 114.647 125.364 114.647C124.599 114.647 123.915 114.798 123.313 115.099C122.712 115.386 122.206 115.851 121.796 116.493C121.386 117.136 121.071 117.983 120.853 119.036C120.647 120.075 120.545 121.34 120.545 122.83V129.146C120.545 130.35 120.613 131.409 120.75 132.325C120.887 133.241 121.092 134.027 121.365 134.684C121.639 135.326 121.967 135.859 122.35 136.283C122.746 136.693 123.197 136.994 123.703 137.186C124.223 137.377 124.79 137.473 125.405 137.473C126.185 137.473 126.875 137.322 127.477 137.021C128.078 136.721 128.584 136.242 128.994 135.586C129.404 134.916 129.712 134.048 129.917 132.981C130.122 131.915 130.225 130.637 130.225 129.146ZM144.498 136.242L144.478 139.77C144.478 141.164 144.129 142.6 143.432 144.076C142.734 145.553 141.812 146.77 140.663 147.727L138.018 146.188C138.4 145.573 138.749 144.951 139.063 144.322C139.378 143.693 139.631 143.023 139.822 142.312C140.014 141.602 140.109 140.815 140.109 139.954V136.242H144.498ZM168.431 123.568V128.449C168.431 130.787 168.198 132.783 167.733 134.438C167.282 136.078 166.626 137.411 165.765 138.437C164.903 139.462 163.871 140.214 162.668 140.692C161.479 141.171 160.146 141.41 158.669 141.41C157.493 141.41 156.399 141.26 155.388 140.959C154.39 140.658 153.487 140.187 152.681 139.544C151.874 138.901 151.184 138.074 150.609 137.062C150.049 136.037 149.611 134.813 149.297 133.392C148.996 131.97 148.846 130.322 148.846 128.449V123.568C148.846 121.217 149.078 119.234 149.543 117.621C150.008 115.994 150.671 114.675 151.532 113.663C152.394 112.638 153.419 111.893 154.608 111.428C155.812 110.963 157.151 110.73 158.628 110.73C159.817 110.73 160.911 110.881 161.909 111.182C162.921 111.469 163.823 111.927 164.616 112.556C165.423 113.185 166.106 114.005 166.667 115.017C167.241 116.015 167.679 117.225 167.979 118.646C168.28 120.055 168.431 121.695 168.431 123.568ZM163.488 129.146V122.83C163.488 121.641 163.42 120.595 163.283 119.692C163.146 118.776 162.941 118.004 162.668 117.375C162.408 116.732 162.08 116.213 161.684 115.816C161.287 115.406 160.836 115.112 160.33 114.935C159.824 114.743 159.257 114.647 158.628 114.647C157.862 114.647 157.179 114.798 156.577 115.099C155.976 115.386 155.47 115.851 155.06 116.493C154.649 117.136 154.335 117.983 154.116 119.036C153.911 120.075 153.809 121.34 153.809 122.83V129.146C153.809 130.35 153.877 131.409 154.014 132.325C154.15 133.241 154.355 134.027 154.629 134.684C154.902 135.326 155.23 135.859 155.613 136.283C156.01 136.693 156.461 136.994 156.967 137.186C157.486 137.377 158.054 137.473 158.669 137.473C159.448 137.473 160.139 137.322 160.74 137.021C161.342 136.721 161.848 136.242 162.258 135.586C162.668 134.916 162.976 134.048 163.181 132.981C163.386 131.915 163.488 130.637 163.488 129.146ZM192.302 123.568V128.449C192.302 130.787 192.069 132.783 191.604 134.438C191.153 136.078 190.497 137.411 189.636 138.437C188.774 139.462 187.742 140.214 186.539 140.692C185.35 141.171 184.017 141.41 182.54 141.41C181.364 141.41 180.271 141.26 179.259 140.959C178.261 140.658 177.358 140.187 176.552 139.544C175.745 138.901 175.055 138.074 174.48 137.062C173.92 136.037 173.482 134.813 173.168 133.392C172.867 131.97 172.717 130.322 172.717 128.449V123.568C172.717 121.217 172.949 119.234 173.414 117.621C173.879 115.994 174.542 114.675 175.403 113.663C176.265 112.638 177.29 111.893 178.479 111.428C179.683 110.963 181.022 110.73 182.499 110.73C183.688 110.73 184.782 110.881 185.78 111.182C186.792 111.469 187.694 111.927 188.487 112.556C189.294 113.185 189.978 114.005 190.538 115.017C191.112 116.015 191.55 117.225 191.851 118.646C192.151 120.055 192.302 121.695 192.302 123.568ZM187.359 129.146V122.83C187.359 121.641 187.291 120.595 187.154 119.692C187.018 118.776 186.812 118.004 186.539 117.375C186.279 116.732 185.951 116.213 185.555 115.816C185.158 115.406 184.707 115.112 184.201 114.935C183.695 114.743 183.128 114.647 182.499 114.647C181.733 114.647 181.05 114.798 180.448 115.099C179.847 115.386 179.341 115.851 178.931 116.493C178.521 117.136 178.206 117.983 177.987 119.036C177.782 120.075 177.68 121.34 177.68 122.83V129.146C177.68 130.35 177.748 131.409 177.885 132.325C178.021 133.241 178.227 134.027 178.5 134.684C178.773 135.326 179.102 135.859 179.484 136.283C179.881 136.693 180.332 136.994 180.838 137.186C181.357 137.377 181.925 137.473 182.54 137.473C183.319 137.473 184.01 137.322 184.611 137.021C185.213 136.721 185.719 136.242 186.129 135.586C186.539 134.916 186.847 134.048 187.052 132.981C187.257 131.915 187.359 130.637 187.359 129.146ZM216.173 123.568V128.449C216.173 130.787 215.94 132.783 215.476 134.438C215.024 136.078 214.368 137.411 213.507 138.437C212.646 139.462 211.613 140.214 210.41 140.692C209.221 141.171 207.888 141.41 206.411 141.41C205.235 141.41 204.142 141.26 203.13 140.959C202.132 140.658 201.229 140.187 200.423 139.544C199.616 138.901 198.926 138.074 198.352 137.062C197.791 136.037 197.354 134.813 197.039 133.392C196.738 131.97 196.588 130.322 196.588 128.449V123.568C196.588 121.217 196.82 119.234 197.285 117.621C197.75 115.994 198.413 114.675 199.274 113.663C200.136 112.638 201.161 111.893 202.351 111.428C203.554 110.963 204.894 110.73 206.37 110.73C207.56 110.73 208.653 110.881 209.651 111.182C210.663 111.469 211.565 111.927 212.358 112.556C213.165 113.185 213.849 114.005 214.409 115.017C214.983 116.015 215.421 117.225 215.722 118.646C216.022 120.055 216.173 121.695 216.173 123.568ZM211.23 129.146V122.83C211.23 121.641 211.162 120.595 211.025 119.692C210.889 118.776 210.684 118.004 210.41 117.375C210.15 116.732 209.822 116.213 209.426 115.816C209.029 115.406 208.578 115.112 208.072 114.935C207.566 114.743 206.999 114.647 206.37 114.647C205.604 114.647 204.921 114.798 204.319 115.099C203.718 115.386 203.212 115.851 202.802 116.493C202.392 117.136 202.077 117.983 201.858 119.036C201.653 120.075 201.551 121.34 201.551 122.83V129.146C201.551 130.35 201.619 131.409 201.756 132.325C201.893 133.241 202.098 134.027 202.371 134.684C202.645 135.326 202.973 135.859 203.355 136.283C203.752 136.693 204.203 136.994 204.709 137.186C205.229 137.377 205.796 137.473 206.411 137.473C207.19 137.473 207.881 137.322 208.482 137.021C209.084 136.721 209.59 136.242 210 135.586C210.41 134.916 210.718 134.048 210.923 132.981C211.128 131.915 211.23 130.637 211.23 129.146Z" fill="#20294C"/>
<rect x="423.68" y="100.75" width="157.32" height="52.5" rx="8" fill="#F0F1F5"/>
<path fill-rule="evenodd" clip-rule="evenodd" d="M457.72 112.375C455.396 112.375 453.395 114.015 452.939 116.294L452.748 117.25H448.555C446.76 117.25 445.305 118.705 445.305 120.5V125.375C445.305 127.17 446.76 128.625 448.555 128.625H450.18C450.18 126.83 451.635 125.375 453.43 125.375C455.225 125.375 456.68 126.83 456.68 128.625H463.18C463.18 126.83 464.635 125.375 466.43 125.375C468.225 125.375 469.68 126.83 469.68 128.625H471.305C473.1 128.625 474.555 127.17 474.555 125.375V120.5C474.555 118.705 473.1 117.25 471.305 117.25H467.112L466.921 116.294C466.465 114.015 464.465 112.375 462.141 112.375H457.72ZM463.798 117.25L463.734 116.931C463.582 116.172 462.915 115.625 462.141 115.625H457.72C456.945 115.625 456.278 116.172 456.126 116.931L456.062 117.25H463.798Z" fill="#20294C"/>
<path d="M466.43 133.5C464.635 133.5 463.18 132.045 463.18 130.25H456.68C456.68 132.045 455.225 133.5 453.43 133.5C451.635 133.5 450.18 132.045 450.18 130.25H448.555C447.985 130.25 447.438 130.152 446.93 129.973V138.375C446.93 140.17 448.385 141.625 450.18 141.625H469.68C471.475 141.625 472.93 140.17 472.93 138.375V129.973C472.422 130.152 471.875 130.25 471.305 130.25H469.68C469.68 132.045 468.225 133.5 466.43 133.5Z" fill="#20294C"/>
<path d="M451.805 128.625C451.805 127.728 452.533 127 453.43 127C454.328 127 455.055 127.728 455.055 128.625V130.25C455.055 131.147 454.328 131.875 453.43 131.875C452.533 131.875 451.805 131.147 451.805 130.25V128.625Z" fill="#20294C"/>
<path d="M464.805 128.625C464.805 127.728 465.533 127 466.43 127C467.328 127 468.055 127.728 468.055 128.625V130.25C468.055 131.147 467.328 131.875 466.43 131.875C465.533 131.875 464.805 131.147 464.805 130.25V128.625Z" fill="#20294C"/>
<path d="M494.209 128.882C494.209 128.632 494.17 128.409 494.093 128.213C494.022 128.011 493.888 127.83 493.692 127.67C493.502 127.503 493.232 127.343 492.881 127.188C492.537 127.028 492.091 126.862 491.545 126.689C490.939 126.499 490.374 126.285 489.852 126.048C489.329 125.81 488.868 125.534 488.47 125.219C488.078 124.904 487.772 124.542 487.552 124.132C487.333 123.716 487.223 123.235 487.223 122.688C487.223 122.154 487.336 121.667 487.561 121.227C487.793 120.787 488.12 120.41 488.542 120.095C488.963 119.774 489.459 119.528 490.03 119.356C490.606 119.183 491.242 119.097 491.937 119.097C492.899 119.097 493.731 119.272 494.432 119.623C495.139 119.973 495.685 120.449 496.072 121.049C496.458 121.649 496.651 122.323 496.651 123.072H494.209C494.209 122.668 494.123 122.311 493.951 122.002C493.784 121.693 493.529 121.45 493.184 121.271C492.846 121.093 492.418 121.004 491.901 121.004C491.402 121.004 490.986 121.078 490.654 121.227C490.327 121.375 490.08 121.577 489.914 121.833C489.754 122.088 489.673 122.373 489.673 122.688C489.673 122.926 489.73 123.14 489.843 123.33C489.956 123.514 490.125 123.689 490.351 123.856C490.576 124.016 490.856 124.168 491.188 124.31C491.527 124.447 491.919 124.583 492.365 124.72C493.077 124.934 493.701 125.172 494.236 125.433C494.776 125.694 495.225 125.991 495.581 126.324C495.944 126.657 496.214 127.031 496.392 127.447C496.576 127.863 496.669 128.335 496.669 128.864C496.669 129.422 496.559 129.921 496.339 130.361C496.119 130.8 495.804 131.175 495.394 131.484C494.984 131.793 494.491 132.027 493.915 132.188C493.345 132.348 492.706 132.428 491.999 132.428C491.369 132.428 490.746 132.345 490.128 132.179C489.516 132.006 488.96 131.751 488.461 131.412C487.962 131.068 487.564 130.634 487.267 130.111C486.97 129.583 486.822 128.965 486.822 128.258H489.281C489.281 128.668 489.347 129.018 489.477 129.309C489.614 129.594 489.804 129.829 490.048 130.013C490.297 130.192 490.588 130.322 490.921 130.405C491.254 130.489 491.613 130.53 491.999 130.53C492.498 130.53 492.908 130.462 493.229 130.325C493.556 130.183 493.799 129.987 493.96 129.737C494.126 129.488 494.209 129.202 494.209 128.882ZM504.397 121.245L500.699 132.25H498.106L502.954 119.275H504.611L504.397 121.245ZM507.489 132.25L503.774 121.245L503.551 119.275H505.217L510.091 132.25H507.489ZM507.32 127.429V129.363H500.361V127.429H507.32ZM520.342 130.325V132.25H513.819V130.325H520.342ZM514.559 119.275V132.25H512.108V119.275H514.559ZM527.999 121.245L524.301 132.25H521.708L526.556 119.275H528.213L527.999 121.245ZM531.092 132.25L527.376 121.245L527.153 119.275H528.819L533.694 132.25H531.092ZM530.922 127.429V129.363H523.963V127.429H530.922ZM535.71 119.275H540.424C541.411 119.275 542.257 119.424 542.964 119.721C543.671 120.018 544.215 120.458 544.595 121.04C544.975 121.622 545.165 122.338 545.165 123.187C545.165 123.859 545.046 124.441 544.809 124.934C544.571 125.427 544.235 125.84 543.802 126.173C543.374 126.505 542.869 126.767 542.287 126.957L541.52 127.349H537.359L537.341 125.415H540.451C540.956 125.415 541.375 125.326 541.708 125.148C542.04 124.97 542.29 124.723 542.456 124.408C542.628 124.093 542.715 123.734 542.715 123.33C542.715 122.896 542.631 122.522 542.465 122.207C542.299 121.886 542.046 121.64 541.708 121.468C541.369 121.295 540.941 121.209 540.424 121.209H538.161V132.25H535.71V119.275ZM543.035 132.25L540.032 126.44L542.625 126.431L545.664 132.125V132.25H543.035ZM549.08 119.275L551.931 125.326L554.801 119.275H557.492L553.179 127.5V132.25H550.693V127.5L546.371 119.275H549.08Z" fill="#20294C"/>
</g>
</g>
<defs>
<filter id="filter0_d_1_24362" x="0" y="0" width="638" height="214" filterUnits="userSpaceOnUse" color-interpolation-filters="sRGB">
<feFlood flood-opacity="0" result="BackgroundImageFix"/>
<feColorMatrix in="SourceAlpha" type="matrix" values="0 0 0 0 0 0 0 0 0 0 0 0 0 0 0 0 0 0 127 0" result="hardAlpha"/>
<feOffset dy="9"/>
<feGaussianBlur stdDeviation="12.5"/>
<feComposite in2="hardAlpha" operator="out"/>
<feColorMatrix type="matrix" values="0 0 0 0 0.12549 0 0 0 0 0.160784 0 0 0 0 0.298039 0 0 0 0.12 0"/>
<feBlend mode="normal" in2="BackgroundImageFix" result="effect1_dropShadow_1_24362"/>
<feBlend mode="normal" in="SourceGraphic" in2="effect1_dropShadow_1_24362" result="shape"/>
</filter>
<clipPath id="clip0_1_24362">
<rect x="25" y="16" width="588" height="164" rx="24" fill="white"/>
</clipPath>
</defs>
</svg>
