<svg width="588" height="332" viewBox="0 0 588 332" fill="none" xmlns="http://www.w3.org/2000/svg">
<g clip-path="url(#clip0_1_24531)">
<rect width="588" height="332" rx="20" fill="#F0F1F5"/>
<rect x="78" y="48" width="1" height="236" fill="url(#paint0_linear_1_24531)"/>
<g filter="url(#filter0_dd_1_24531)">
<rect x="102" y="2" width="438" height="178" rx="16" fill="white" shape-rendering="crispEdges"/>
<mask id="path-4-inside-1_1_24531" fill="white">
<path d="M102 26H422V103H102V26Z"/>
</mask>
<path d="M422 25.5H420.5V26.5H422V25.5ZM418.5 25.5H415.5V26.5H418.5V25.5ZM413.5 25.5H410.5V26.5H413.5V25.5ZM408.5 25.5H405.5V26.5H408.5V25.5ZM403.5 25.5H400.5V26.5H403.5V25.5ZM398.5 25.5H395.5V26.5H398.5V25.5ZM393.5 25.5H390.5V26.5H393.5V25.5ZM388.5 25.5H385.5V26.5H388.5V25.5ZM383.5 25.5H380.5V26.5H383.5V25.5ZM378.5 25.5H375.5V26.5H378.5V25.5ZM373.5 25.5H370.5V26.5H373.5V25.5ZM368.5 25.5H365.5V26.5H368.5V25.5ZM363.5 25.5H360.5V26.5H363.5V25.5ZM358.5 25.5H355.5V26.5H358.5V25.5ZM353.5 25.5H350.5V26.5H353.5V25.5ZM348.5 25.5H345.5V26.5H348.5V25.5ZM343.5 25.5H340.5V26.5H343.5V25.5ZM338.5 25.5H335.5V26.5H338.5V25.5ZM333.5 25.5H330.5V26.5H333.5V25.5ZM328.5 25.5H325.5V26.5H328.5V25.5ZM323.5 25.5H320.5V26.5H323.5V25.5ZM318.5 25.5H315.5V26.5H318.5V25.5ZM313.5 25.5H310.5V26.5H313.5V25.5ZM308.5 25.5H305.5V26.5H308.5V25.5ZM303.5 25.5H300.5V26.5H303.5V25.5ZM298.5 25.5H295.5V26.5H298.5V25.5ZM293.5 25.5H290.5V26.5H293.5V25.5ZM288.5 25.5H285.5V26.5H288.5V25.5ZM283.5 25.5H280.5V26.5H283.5V25.5ZM278.5 25.5H275.5V26.5H278.5V25.5ZM273.5 25.5H270.5V26.5H273.5V25.5ZM268.5 25.5H265.5V26.5H268.5V25.5ZM263.5 25.5H260.5V26.5H263.5V25.5ZM258.5 25.5H255.5V26.5H258.5V25.5ZM253.5 25.5H250.5V26.5H253.5V25.5ZM248.5 25.5H245.5V26.5H248.5V25.5ZM243.5 25.5H240.5V26.5H243.5V25.5ZM238.5 25.5H235.5V26.5H238.5V25.5ZM233.5 25.5H230.5V26.5H233.5V25.5ZM228.5 25.5H225.5V26.5H228.5V25.5ZM223.5 25.5H220.5V26.5H223.5V25.5ZM218.5 25.5H215.5V26.5H218.5V25.5ZM213.5 25.5H210.5V26.5H213.5V25.5ZM208.5 25.5H205.5V26.5H208.5V25.5ZM203.5 25.5H200.5V26.5H203.5V25.5ZM198.5 25.5H195.5V26.5H198.5V25.5ZM193.5 25.5H190.5V26.5H193.5V25.5ZM188.5 25.5H185.5V26.5H188.5V25.5ZM183.5 25.5H180.5V26.5H183.5V25.5ZM178.5 25.5H175.5V26.5H178.5V25.5ZM173.5 25.5H170.5V26.5H173.5V25.5ZM168.5 25.5H165.5V26.5H168.5V25.5ZM163.5 25.5H160.5V26.5H163.5V25.5ZM158.5 25.5H155.5V26.5H158.5V25.5ZM153.5 25.5H150.5V26.5H153.5V25.5ZM148.5 25.5H145.5V26.5H148.5V25.5ZM143.5 25.5H140.5V26.5H143.5V25.5ZM138.5 25.5H135.5V26.5H138.5V25.5ZM133.5 25.5H130.5V26.5H133.5V25.5ZM128.5 25.5H125.5V26.5H128.5V25.5ZM123.5 25.5H120.5V26.5H123.5V25.5ZM118.5 25.5H115.5V26.5H118.5V25.5ZM113.5 25.5H110.5V26.5H113.5V25.5ZM108.5 25.5H105.5V26.5H108.5V25.5ZM103.5 25.5H102V26.5H103.5V25.5ZM422 25H420.5V27H422V25ZM418.5 25H415.5V27H418.5V25ZM413.5 25H410.5V27H413.5V25ZM408.5 25H405.5V27H408.5V25ZM403.5 25H400.5V27H403.5V25ZM398.5 25H395.5V27H398.5V25ZM393.5 25H390.5V27H393.5V25ZM388.5 25H385.5V27H388.5V25ZM383.5 25H380.5V27H383.5V25ZM378.5 25H375.5V27H378.5V25ZM373.5 25H370.5V27H373.5V25ZM368.5 25H365.5V27H368.5V25ZM363.5 25H360.5V27H363.5V25ZM358.5 25H355.5V27H358.5V25ZM353.5 25H350.5V27H353.5V25ZM348.5 25H345.5V27H348.5V25ZM343.5 25H340.5V27H343.5V25ZM338.5 25H335.5V27H338.5V25ZM333.5 25H330.5V27H333.5V25ZM328.5 25H325.5V27H328.5V25ZM323.5 25H320.5V27H323.5V25ZM318.5 25H315.5V27H318.5V25ZM313.5 25H310.5V27H313.5V25ZM308.5 25H305.5V27H308.5V25ZM303.5 25H300.5V27H303.5V25ZM298.5 25H295.5V27H298.5V25ZM293.5 25H290.5V27H293.5V25ZM288.5 25H285.5V27H288.5V25ZM283.5 25H280.5V27H283.5V25ZM278.5 25H275.5V27H278.5V25ZM273.5 25H270.5V27H273.5V25ZM268.5 25H265.5V27H268.5V25ZM263.5 25H260.5V27H263.5V25ZM258.5 25H255.5V27H258.5V25ZM253.5 25H250.5V27H253.5V25ZM248.5 25H245.5V27H248.5V25ZM243.5 25H240.5V27H243.5V25ZM238.5 25H235.5V27H238.5V25ZM233.5 25H230.5V27H233.5V25ZM228.5 25H225.5V27H228.5V25ZM223.5 25H220.5V27H223.5V25ZM218.5 25H215.5V27H218.5V25ZM213.5 25H210.5V27H213.5V25ZM208.5 25H205.5V27H208.5V25ZM203.5 25H200.5V27H203.5V25ZM198.5 25H195.5V27H198.5V25ZM193.5 25H190.5V27H193.5V25ZM188.5 25H185.5V27H188.5V25ZM183.5 25H180.5V27H183.5V25ZM178.5 25H175.5V27H178.5V25ZM173.5 25H170.5V27H173.5V25ZM168.5 25H165.5V27H168.5V25ZM163.5 25H160.5V27H163.5V25ZM158.5 25H155.5V27H158.5V25ZM153.5 25H150.5V27H153.5V25ZM148.5 25H145.5V27H148.5V25ZM143.5 25H140.5V27H143.5V25ZM138.5 25H135.5V27H138.5V25ZM133.5 25H130.5V27H133.5V25ZM128.5 25H125.5V27H128.5V25ZM123.5 25H120.5V27H123.5V25ZM118.5 25H115.5V27H118.5V25ZM113.5 25H110.5V27H113.5V25ZM108.5 25H105.5V27H108.5V25ZM103.5 25H102V27H103.5V25Z" fill="#DDDFE9" mask="url(#path-4-inside-1_1_24531)"/>
<path d="M123.719 53.6006C123.719 53.4229 123.692 53.2642 123.637 53.1245C123.586 52.9806 123.491 52.8516 123.351 52.7373C123.216 52.6188 123.023 52.5046 122.773 52.3945C122.528 52.2803 122.211 52.1618 121.821 52.0391C121.39 51.9036 120.988 51.7513 120.615 51.582C120.243 51.4128 119.915 51.216 119.631 50.9917C119.352 50.7674 119.134 50.5093 118.978 50.2173C118.821 49.9211 118.743 49.5783 118.743 49.189C118.743 48.8081 118.823 48.4611 118.984 48.1479C119.149 47.8348 119.382 47.5661 119.682 47.3418C119.983 47.1133 120.336 46.9377 120.742 46.8149C121.153 46.6922 121.605 46.6309 122.101 46.6309C122.786 46.6309 123.379 46.7557 123.878 47.0054C124.382 47.255 124.771 47.5936 125.046 48.021C125.321 48.4484 125.458 48.9287 125.458 49.4619H123.719C123.719 49.1742 123.658 48.9202 123.535 48.7002C123.417 48.4801 123.235 48.3066 122.989 48.1797C122.748 48.0527 122.443 47.9893 122.075 47.9893C121.72 47.9893 121.424 48.0422 121.187 48.1479C120.954 48.2537 120.778 48.3976 120.66 48.5796C120.545 48.7616 120.488 48.9647 120.488 49.189C120.488 49.3582 120.528 49.5106 120.609 49.646C120.689 49.7772 120.81 49.902 120.971 50.0205C121.132 50.1348 121.33 50.2427 121.567 50.3442C121.809 50.4416 122.088 50.5389 122.405 50.6362C122.913 50.7886 123.357 50.9578 123.738 51.144C124.123 51.3302 124.443 51.5418 124.697 51.7788C124.955 52.0158 125.147 52.2824 125.274 52.5786C125.406 52.8748 125.471 53.2113 125.471 53.5879C125.471 53.9857 125.393 54.3411 125.236 54.6543C125.08 54.9674 124.855 55.234 124.563 55.4541C124.271 55.6742 123.92 55.8413 123.51 55.9556C123.104 56.0698 122.649 56.127 122.145 56.127C121.696 56.127 121.252 56.0677 120.812 55.9492C120.376 55.8265 119.98 55.6445 119.625 55.4033C119.27 55.1579 118.986 54.849 118.774 54.4766C118.563 54.0999 118.457 53.6598 118.457 53.1562H120.209C120.209 53.4482 120.256 53.6979 120.349 53.9053C120.446 54.1084 120.581 54.2756 120.755 54.4067C120.933 54.5337 121.14 54.6268 121.377 54.686C121.614 54.7453 121.87 54.7749 122.145 54.7749C122.5 54.7749 122.792 54.7262 123.021 54.6289C123.254 54.5273 123.427 54.3877 123.542 54.21C123.66 54.0322 123.719 53.8291 123.719 53.6006ZM129.649 54.229L131.49 46.7578H132.487L132.55 48.332L130.582 56H129.529L129.649 54.229ZM128.488 46.7578L129.998 54.2036V56H128.85L126.755 46.7578H128.488ZM134.461 54.1719L135.946 46.7578H137.685L135.591 56H134.442L134.461 54.1719ZM132.963 46.7578L134.804 54.2544L134.912 56H133.858L131.896 48.3257L131.973 46.7578H132.963ZM141.21 46.7578V56H139.464V46.7578H141.21ZM145.401 46.7578V56H143.655V46.7578H145.401ZM149.127 50.7505V52.1279H144.944V50.7505H149.127ZM149.616 46.7578V48.1353H144.944V46.7578H149.616ZM155.457 46.7578V56H153.718V46.7578H155.457ZM158.326 46.7578V48.1353H150.88V46.7578H158.326ZM167.069 51.8804H164.708L164.695 50.6489H166.72C167.067 50.6489 167.357 50.6003 167.59 50.5029C167.823 50.4056 167.998 50.2638 168.117 50.0776C168.24 49.8914 168.301 49.665 168.301 49.3984C168.301 49.1022 168.244 48.861 168.13 48.6748C168.02 48.4886 167.846 48.3532 167.609 48.2686C167.372 48.1797 167.072 48.1353 166.708 48.1353H165.273V56H163.527V46.7578H166.708C167.232 46.7578 167.7 46.8086 168.11 46.9102C168.525 47.0075 168.876 47.1598 169.164 47.3672C169.452 47.5745 169.67 47.8348 169.818 48.1479C169.97 48.4611 170.047 48.8335 170.047 49.2651C170.047 49.646 169.958 49.9972 169.78 50.3188C169.606 50.6362 169.338 50.8944 168.974 51.0933C168.614 51.2922 168.157 51.4064 167.603 51.436L167.069 51.8804ZM166.993 56H164.194L164.924 54.6289H166.993C167.34 54.6289 167.626 54.5718 167.85 54.4575C168.079 54.3433 168.248 54.1867 168.358 53.9878C168.472 53.7847 168.529 53.5519 168.529 53.2896C168.529 53.0018 168.479 52.7521 168.377 52.5405C168.28 52.3289 168.123 52.166 167.907 52.0518C167.696 51.9375 167.416 51.8804 167.069 51.8804H165.254L165.267 50.6489H167.577L167.977 51.125C168.51 51.1292 168.944 51.235 169.278 51.4424C169.617 51.6497 169.867 51.9163 170.027 52.2422C170.188 52.568 170.269 52.9193 170.269 53.2959C170.269 53.8883 170.14 54.3856 169.881 54.7876C169.628 55.1896 169.255 55.4922 168.764 55.6953C168.278 55.8984 167.687 56 166.993 56ZM174.199 46.7578V56H172.454V46.7578H174.199ZM182.053 52.9595H183.798C183.752 53.5773 183.58 54.1253 183.284 54.6035C182.988 55.0775 182.575 55.4499 182.046 55.7207C181.517 55.9915 180.876 56.127 180.123 56.127C179.543 56.127 179.021 56.0254 178.555 55.8223C178.094 55.6149 177.698 55.3208 177.368 54.9399C177.042 54.5549 176.793 54.0936 176.619 53.5562C176.446 53.0145 176.359 52.4072 176.359 51.7344V51.0298C176.359 50.3569 176.448 49.7497 176.626 49.208C176.803 48.6663 177.057 48.2051 177.387 47.8242C177.722 47.4391 178.121 47.1429 178.587 46.9355C179.057 46.7282 179.581 46.6245 180.161 46.6245C180.914 46.6245 181.551 46.7642 182.072 47.0435C182.592 47.3185 182.996 47.6973 183.284 48.1797C183.572 48.6621 183.745 49.2165 183.805 49.8428H182.059C182.025 49.4535 181.941 49.1234 181.805 48.8525C181.674 48.5817 181.475 48.3765 181.209 48.2368C180.946 48.0929 180.597 48.021 180.161 48.021C179.823 48.021 179.524 48.0845 179.266 48.2114C179.012 48.3384 178.801 48.5288 178.631 48.7827C178.462 49.0324 178.335 49.3455 178.251 49.7222C178.166 50.0946 178.124 50.5262 178.124 51.0171V51.7344C178.124 52.2041 178.162 52.6252 178.238 52.9976C178.314 53.37 178.432 53.6852 178.593 53.9434C178.754 54.2015 178.961 54.3983 179.215 54.5337C179.469 54.6691 179.772 54.7368 180.123 54.7368C180.55 54.7368 180.897 54.6691 181.164 54.5337C181.435 54.3983 181.64 54.1994 181.78 53.937C181.924 53.6746 182.015 53.3488 182.053 52.9595Z" fill="#20294C"/>
<path d="M121.586 67.9141V80H119.303V67.9141H121.586ZM131.124 76.0239H133.406C133.345 76.8319 133.121 77.5485 132.734 78.1738C132.347 78.7936 131.807 79.2806 131.115 79.6348C130.424 79.9889 129.585 80.166 128.6 80.166C127.842 80.166 127.159 80.0332 126.55 79.7676C125.947 79.4964 125.429 79.1118 124.998 78.6138C124.571 78.1102 124.245 77.507 124.018 76.8042C123.791 76.0959 123.678 75.3018 123.678 74.4219V73.5005C123.678 72.6206 123.794 71.8265 124.026 71.1182C124.259 70.4098 124.591 69.8066 125.022 69.3086C125.46 68.805 125.983 68.4176 126.591 68.1465C127.206 67.8753 127.892 67.7397 128.65 67.7397C129.635 67.7397 130.468 67.9224 131.148 68.2876C131.829 68.6473 132.358 69.1426 132.734 69.7734C133.11 70.4043 133.337 71.1292 133.415 71.9482H131.132C131.088 71.4391 130.977 71.0075 130.8 70.6533C130.628 70.2992 130.368 70.0308 130.02 69.8481C129.676 69.66 129.22 69.5659 128.65 69.5659C128.207 69.5659 127.817 69.6489 127.479 69.8149C127.147 69.981 126.871 70.23 126.649 70.562C126.428 70.8885 126.262 71.298 126.151 71.7905C126.041 72.2775 125.985 72.842 125.985 73.4839V74.4219C125.985 75.0361 126.035 75.5868 126.135 76.0737C126.234 76.5607 126.389 76.973 126.6 77.3105C126.81 77.6481 127.081 77.9054 127.413 78.0825C127.745 78.2596 128.141 78.3481 128.6 78.3481C129.159 78.3481 129.613 78.2596 129.961 78.0825C130.316 77.9054 130.584 77.6453 130.767 77.3022C130.955 76.9591 131.074 76.533 131.124 76.0239ZM137.606 67.9141V80H135.324V67.9141H137.606ZM147.144 76.0239H149.427C149.366 76.8319 149.142 77.5485 148.754 78.1738C148.367 78.7936 147.827 79.2806 147.136 79.6348C146.444 79.9889 145.606 80.166 144.621 80.166C143.862 80.166 143.179 80.0332 142.57 79.7676C141.967 79.4964 141.45 79.1118 141.018 78.6138C140.592 78.1102 140.265 77.507 140.039 76.8042C139.812 76.0959 139.698 75.3018 139.698 74.4219V73.5005C139.698 72.6206 139.814 71.8265 140.047 71.1182C140.279 70.4098 140.611 69.8066 141.043 69.3086C141.48 68.805 142.003 68.4176 142.612 68.1465C143.226 67.8753 143.912 67.7397 144.67 67.7397C145.655 67.7397 146.488 67.9224 147.169 68.2876C147.85 68.6473 148.378 69.1426 148.754 69.7734C149.131 70.4043 149.358 71.1292 149.435 71.9482H147.152C147.108 71.4391 146.997 71.0075 146.82 70.6533C146.649 70.2992 146.389 70.0308 146.04 69.8481C145.697 69.66 145.24 69.5659 144.67 69.5659C144.228 69.5659 143.838 69.6489 143.5 69.8149C143.168 69.981 142.891 70.23 142.67 70.562C142.449 70.8885 142.283 71.298 142.172 71.7905C142.061 72.2775 142.006 72.842 142.006 73.4839V74.4219C142.006 75.0361 142.056 75.5868 142.155 76.0737C142.255 76.5607 142.41 76.973 142.62 77.3105C142.83 77.6481 143.102 77.9054 143.434 78.0825C143.766 78.2596 144.161 78.3481 144.621 78.3481C145.18 78.3481 145.633 78.2596 145.982 78.0825C146.336 77.9054 146.604 77.6453 146.787 77.3022C146.975 76.9591 147.094 76.533 147.144 76.0239ZM160.907 67.9141V80H158.616L153.478 71.6162V80H151.195V67.9141H153.478L158.632 76.3062V67.9141H160.907ZM167.863 74.6128H164.775L164.758 73.0024H167.406C167.86 73.0024 168.239 72.9388 168.543 72.8115C168.848 72.6842 169.077 72.4989 169.232 72.2554C169.393 72.0119 169.473 71.7158 169.473 71.3672C169.473 70.9798 169.398 70.6644 169.249 70.4209C169.105 70.1774 168.878 70.0003 168.568 69.8896C168.258 69.7734 167.866 69.7153 167.39 69.7153H165.514V80H163.231V67.9141H167.39C168.076 67.9141 168.687 67.9805 169.224 68.1133C169.766 68.2406 170.226 68.4398 170.602 68.7109C170.978 68.9821 171.263 69.3224 171.457 69.7319C171.656 70.1414 171.756 70.6284 171.756 71.1929C171.756 71.6909 171.64 72.1502 171.407 72.5708C171.18 72.9858 170.829 73.3234 170.353 73.5835C169.883 73.8436 169.285 73.993 168.56 74.0317L167.863 74.6128ZM167.763 80H164.103L165.057 78.207H167.763C168.217 78.207 168.59 78.1323 168.884 77.9829C169.183 77.8335 169.404 77.6287 169.548 77.3687C169.697 77.103 169.772 76.7987 169.772 76.4556C169.772 76.0793 169.706 75.7528 169.573 75.4761C169.445 75.1994 169.241 74.9863 168.958 74.8369C168.682 74.6875 168.317 74.6128 167.863 74.6128H165.489L165.505 73.0024H168.527L169.05 73.625C169.747 73.6305 170.314 73.7689 170.751 74.04C171.194 74.3112 171.521 74.6598 171.731 75.0859C171.941 75.512 172.046 75.9714 172.046 76.4639C172.046 77.2386 171.878 77.8888 171.54 78.4146C171.208 78.9403 170.721 79.3359 170.079 79.6016C169.443 79.8672 168.671 80 167.763 80ZM178.654 74.6128H175.566L175.549 73.0024H178.197C178.651 73.0024 179.03 72.9388 179.334 72.8115C179.639 72.6842 179.868 72.4989 180.023 72.2554C180.184 72.0119 180.264 71.7158 180.264 71.3672C180.264 70.9798 180.189 70.6644 180.04 70.4209C179.896 70.1774 179.669 70.0003 179.359 69.8896C179.049 69.7734 178.657 69.7153 178.181 69.7153H176.305V80H174.022V67.9141H178.181C178.867 67.9141 179.478 67.9805 180.015 68.1133C180.557 68.2406 181.017 68.4398 181.393 68.7109C181.769 68.9821 182.054 69.3224 182.248 69.7319C182.447 70.1414 182.547 70.6284 182.547 71.1929C182.547 71.6909 182.431 72.1502 182.198 72.5708C181.971 72.9858 181.62 73.3234 181.144 73.5835C180.674 73.8436 180.076 73.993 179.351 74.0317L178.654 74.6128ZM178.554 80H174.894L175.848 78.207H178.554C179.008 78.207 179.382 78.1323 179.675 77.9829C179.974 77.8335 180.195 77.6287 180.339 77.3687C180.488 77.103 180.563 76.7987 180.563 76.4556C180.563 76.0793 180.497 75.7528 180.364 75.4761C180.236 75.1994 180.032 74.9863 179.75 74.8369C179.473 74.6875 179.108 74.6128 178.654 74.6128H176.28L176.296 73.0024H179.318L179.841 73.625C180.538 73.6305 181.105 73.7689 181.542 74.04C181.985 74.3112 182.312 74.6598 182.522 75.0859C182.732 75.512 182.837 75.9714 182.837 76.4639C182.837 77.2386 182.669 77.8888 182.331 78.4146C181.999 78.9403 181.512 79.3359 180.87 79.6016C180.234 79.8672 179.462 80 178.554 80ZM191.885 76.0239H194.168C194.107 76.8319 193.883 77.5485 193.496 78.1738C193.108 78.7936 192.569 79.2806 191.877 79.6348C191.185 79.9889 190.347 80.166 189.362 80.166C188.604 80.166 187.92 80.0332 187.312 79.7676C186.708 79.4964 186.191 79.1118 185.759 78.6138C185.333 78.1102 185.007 77.507 184.78 76.8042C184.553 76.0959 184.439 75.3018 184.439 74.4219V73.5005C184.439 72.6206 184.556 71.8265 184.788 71.1182C185.021 70.4098 185.353 69.8066 185.784 69.3086C186.221 68.805 186.744 68.4176 187.353 68.1465C187.967 67.8753 188.653 67.7397 189.412 67.7397C190.397 67.7397 191.229 67.9224 191.91 68.2876C192.591 68.6473 193.119 69.1426 193.496 69.7734C193.872 70.4043 194.099 71.1292 194.176 71.9482H191.894C191.849 71.4391 191.739 71.0075 191.562 70.6533C191.39 70.2992 191.13 70.0308 190.781 69.8481C190.438 69.66 189.982 69.5659 189.412 69.5659C188.969 69.5659 188.579 69.6489 188.241 69.8149C187.909 69.981 187.632 70.23 187.411 70.562C187.19 70.8885 187.024 71.298 186.913 71.7905C186.802 72.2775 186.747 72.842 186.747 73.4839V74.4219C186.747 75.0361 186.797 75.5868 186.896 76.0737C186.996 76.5607 187.151 76.973 187.361 77.3105C187.572 77.6481 187.843 77.9054 188.175 78.0825C188.507 78.2596 188.903 78.3481 189.362 78.3481C189.921 78.3481 190.375 78.2596 190.723 78.0825C191.077 77.9054 191.346 77.6453 191.528 77.3022C191.716 76.9591 191.835 76.533 191.885 76.0239ZM200.875 67.9141V80H198.601V67.9141H200.875ZM204.627 67.9141V69.7153H194.89V67.9141H204.627ZM212.338 76.8623C212.338 76.6299 212.302 76.4224 212.23 76.2397C212.164 76.0516 212.04 75.8828 211.857 75.7334C211.68 75.5785 211.428 75.429 211.102 75.2852C210.781 75.1357 210.366 74.9808 209.856 74.8203C209.292 74.6432 208.766 74.444 208.279 74.2227C207.792 74.0013 207.363 73.744 206.993 73.4507C206.627 73.1574 206.342 72.8198 206.138 72.438C205.933 72.0506 205.831 71.6024 205.831 71.0933C205.831 70.5952 205.936 70.1414 206.146 69.7319C206.362 69.3224 206.666 68.971 207.059 68.6777C207.452 68.3789 207.914 68.1493 208.445 67.9888C208.982 67.8283 209.574 67.748 210.222 67.748C211.118 67.748 211.893 67.9113 212.546 68.2378C213.204 68.5643 213.714 69.007 214.073 69.5659C214.433 70.1248 214.613 70.7529 214.613 71.4502H212.338C212.338 71.0739 212.258 70.7419 212.098 70.4541C211.943 70.1663 211.705 69.9395 211.384 69.7734C211.068 69.6074 210.67 69.5244 210.188 69.5244C209.724 69.5244 209.336 69.5936 209.026 69.7319C208.722 69.8703 208.492 70.0584 208.337 70.2964C208.188 70.5343 208.113 70.8 208.113 71.0933C208.113 71.3146 208.166 71.5138 208.271 71.6909C208.376 71.8625 208.534 72.0257 208.744 72.1807C208.954 72.3301 209.215 72.4712 209.524 72.604C209.84 72.7313 210.205 72.8586 210.62 72.9858C211.284 73.1851 211.865 73.4064 212.363 73.6499C212.867 73.8934 213.285 74.1701 213.617 74.48C213.954 74.7899 214.206 75.1385 214.372 75.5259C214.544 75.9132 214.629 76.3532 214.629 76.8457C214.629 77.3659 214.527 77.8307 214.322 78.2402C214.118 78.6497 213.824 78.9984 213.442 79.2861C213.061 79.5739 212.601 79.7925 212.064 79.9419C211.533 80.0913 210.938 80.166 210.28 80.166C209.693 80.166 209.112 80.0885 208.537 79.9336C207.967 79.7731 207.449 79.5352 206.984 79.2197C206.52 78.8988 206.149 78.4948 205.872 78.0078C205.595 77.5153 205.457 76.9398 205.457 76.2812H207.748C207.748 76.6631 207.809 76.9896 207.931 77.2607C208.058 77.5264 208.235 77.745 208.462 77.9165C208.694 78.0825 208.965 78.2043 209.275 78.2817C209.585 78.3592 209.92 78.3979 210.28 78.3979C210.745 78.3979 211.126 78.3343 211.425 78.207C211.73 78.0742 211.957 77.8916 212.106 77.6592C212.261 77.4268 212.338 77.1611 212.338 76.8623Z" fill="#20294C"/>
<g clip-path="url(#clip1_1_24531)">
<path fill-rule="evenodd" clip-rule="evenodd" d="M394.814 67.5H398.686C398.939 67.5 399.171 67.5 399.366 67.516C399.576 67.532 399.805 67.571 400.032 67.685C400.372 67.854 400.646 68.129 400.816 68.468C400.929 68.695 400.968 68.925 400.984 69.134C401 69.329 401 69.561 401 69.814V75.686C401 75.939 401 76.171 400.984 76.366C400.968 76.576 400.929 76.805 400.816 77.032C400.647 77.3714 400.372 77.6465 400.032 77.816C399.823 77.9148 399.597 77.9719 399.366 77.984C399.17 78 398.939 78 398.686 78H394.814C394.561 78 394.329 78 394.134 77.984C393.903 77.9719 393.677 77.9148 393.468 77.816C393.129 77.6464 392.854 77.3712 392.685 77.032C392.586 76.8232 392.528 76.597 392.515 76.366C392.502 76.1396 392.497 75.9128 392.5 75.686V69.814C392.5 69.561 392.5 69.329 392.516 69.134C392.532 68.924 392.571 68.695 392.685 68.468C392.854 68.1291 393.129 67.8544 393.468 67.685C393.695 67.571 393.925 67.532 394.134 67.515C394.33 67.5 394.561 67.5 394.814 67.5ZM394.135 69.028C394.174 69.0185 394.215 69.0128 394.255 69.011C394.38 69 394.552 69 394.84 69H398.66C398.947 69 399.119 69 399.246 69.01C399.286 69.0122 399.326 69.0183 399.365 69.028C399.411 69.0518 399.448 69.0891 399.472 69.135C399.482 69.1743 399.488 69.2145 399.489 69.255C399.499 69.381 399.5 69.553 399.5 69.84V75.66C399.5 75.947 399.5 76.119 399.49 76.246C399.488 76.2862 399.482 76.326 399.472 76.365C399.448 76.4109 399.411 76.4482 399.365 76.472C399.326 76.4815 399.286 76.4872 399.245 76.489C399.119 76.499 398.947 76.5 398.66 76.5H394.84C394.553 76.5 394.381 76.5 394.254 76.49C394.214 76.4878 394.174 76.4818 394.135 76.472C394.089 76.4482 394.052 76.4109 394.028 76.365C394.019 76.3256 394.013 76.2855 394.011 76.245C394.001 76.0502 393.997 75.8551 394 75.66V69.84C394 69.553 394 69.381 394.01 69.254C394.012 69.2138 394.018 69.174 394.028 69.135C394.052 69.0891 394.089 69.0518 394.135 69.028ZM402.248 73.002C402.165 73.0001 402.083 72.9994 402 73V71.5H402.048C402.23 71.5 402.419 71.5 402.591 71.534C402.931 71.6015 403.242 71.7682 403.487 72.0129C403.732 72.2577 403.899 72.5695 403.966 72.909C404.001 73.081 404 73.27 404 73.452V79.686C404 79.939 404 80.171 403.984 80.366C403.968 80.576 403.929 80.805 403.815 81.032C403.646 81.3712 403.371 81.6464 403.032 81.816C402.823 81.9148 402.597 81.9719 402.366 81.984C402.171 82 401.939 82 401.686 82H397.814C397.561 82 397.329 82 397.134 81.984C396.903 81.9719 396.677 81.9148 396.468 81.816C396.129 81.6464 395.854 81.3712 395.685 81.032C395.586 80.8232 395.528 80.597 395.515 80.366C395.502 80.1396 395.497 79.9128 395.5 79.686V79H397V79.66C397 79.947 397 80.119 397.01 80.246C397.012 80.2861 397.018 80.326 397.028 80.365C397.052 80.4109 397.089 80.4482 397.135 80.472C397.174 80.4817 397.215 80.4874 397.255 80.489C397.381 80.499 397.553 80.5 397.84 80.5H401.66C401.947 80.5 402.119 80.5 402.246 80.49C402.286 80.4878 402.326 80.4818 402.365 80.472C402.411 80.4482 402.448 80.4109 402.472 80.365C402.482 80.3256 402.487 80.2855 402.489 80.245C402.499 80.119 402.5 79.948 402.5 79.66V73.5C402.5 73.4 402.499 73.3 402.495 73.2C402.485 73.1521 402.462 73.1081 402.427 73.0734C402.393 73.0388 402.349 73.015 402.301 73.005C402.283 73.0033 402.266 73.0023 402.248 73.002Z" fill="#20294C"/>
</g>
<mask id="path-9-inside-2_1_24531" fill="white">
<path d="M102 103H422V180H102V103Z"/>
</mask>
<path d="M422 102.5H420.5V103.5H422V102.5ZM418.5 102.5H415.5V103.5H418.5V102.5ZM413.5 102.5H410.5V103.5H413.5V102.5ZM408.5 102.5H405.5V103.5H408.5V102.5ZM403.5 102.5H400.5V103.5H403.5V102.5ZM398.5 102.5H395.5V103.5H398.5V102.5ZM393.5 102.5H390.5V103.5H393.5V102.5ZM388.5 102.5H385.5V103.5H388.5V102.5ZM383.5 102.5H380.5V103.5H383.5V102.5ZM378.5 102.5H375.5V103.5H378.5V102.5ZM373.5 102.5H370.5V103.5H373.5V102.5ZM368.5 102.5H365.5V103.5H368.5V102.5ZM363.5 102.5H360.5V103.5H363.5V102.5ZM358.5 102.5H355.5V103.5H358.5V102.5ZM353.5 102.5H350.5V103.5H353.5V102.5ZM348.5 102.5H345.5V103.5H348.5V102.5ZM343.5 102.5H340.5V103.5H343.5V102.5ZM338.5 102.5H335.5V103.5H338.5V102.5ZM333.5 102.5H330.5V103.5H333.5V102.5ZM328.5 102.5H325.5V103.5H328.5V102.5ZM323.5 102.5H320.5V103.5H323.5V102.5ZM318.5 102.5H315.5V103.5H318.5V102.5ZM313.5 102.5H310.5V103.5H313.5V102.5ZM308.5 102.5H305.5V103.5H308.5V102.5ZM303.5 102.5H300.5V103.5H303.5V102.5ZM298.5 102.5H295.5V103.5H298.5V102.5ZM293.5 102.5H290.5V103.5H293.5V102.5ZM288.5 102.5H285.5V103.5H288.5V102.5ZM283.5 102.5H280.5V103.5H283.5V102.5ZM278.5 102.5H275.5V103.5H278.5V102.5ZM273.5 102.5H270.5V103.5H273.5V102.5ZM268.5 102.5H265.5V103.5H268.5V102.5ZM263.5 102.5H260.5V103.5H263.5V102.5ZM258.5 102.5H255.5V103.5H258.5V102.5ZM253.5 102.5H250.5V103.5H253.5V102.5ZM248.5 102.5H245.5V103.5H248.5V102.5ZM243.5 102.5H240.5V103.5H243.5V102.5ZM238.5 102.5H235.5V103.5H238.5V102.5ZM233.5 102.5H230.5V103.5H233.5V102.5ZM228.5 102.5H225.5V103.5H228.5V102.5ZM223.5 102.5H220.5V103.5H223.5V102.5ZM218.5 102.5H215.5V103.5H218.5V102.5ZM213.5 102.5H210.5V103.5H213.5V102.5ZM208.5 102.5H205.5V103.5H208.5V102.5ZM203.5 102.5H200.5V103.5H203.5V102.5ZM198.5 102.5H195.5V103.5H198.5V102.5ZM193.5 102.5H190.5V103.5H193.5V102.5ZM188.5 102.5H185.5V103.5H188.5V102.5ZM183.5 102.5H180.5V103.5H183.5V102.5ZM178.5 102.5H175.5V103.5H178.5V102.5ZM173.5 102.5H170.5V103.5H173.5V102.5ZM168.5 102.5H165.5V103.5H168.5V102.5ZM163.5 102.5H160.5V103.5H163.5V102.5ZM158.5 102.5H155.5V103.5H158.5V102.5ZM153.5 102.5H150.5V103.5H153.5V102.5ZM148.5 102.5H145.5V103.5H148.5V102.5ZM143.5 102.5H140.5V103.5H143.5V102.5ZM138.5 102.5H135.5V103.5H138.5V102.5ZM133.5 102.5H130.5V103.5H133.5V102.5ZM128.5 102.5H125.5V103.5H128.5V102.5ZM123.5 102.5H120.5V103.5H123.5V102.5ZM118.5 102.5H115.5V103.5H118.5V102.5ZM113.5 102.5H110.5V103.5H113.5V102.5ZM108.5 102.5H105.5V103.5H108.5V102.5ZM103.5 102.5H102V103.5H103.5V102.5ZM422 102H420.5V104H422V102ZM418.5 102H415.5V104H418.5V102ZM413.5 102H410.5V104H413.5V102ZM408.5 102H405.5V104H408.5V102ZM403.5 102H400.5V104H403.5V102ZM398.5 102H395.5V104H398.5V102ZM393.5 102H390.5V104H393.5V102ZM388.5 102H385.5V104H388.5V102ZM383.5 102H380.5V104H383.5V102ZM378.5 102H375.5V104H378.5V102ZM373.5 102H370.5V104H373.5V102ZM368.5 102H365.5V104H368.5V102ZM363.5 102H360.5V104H363.5V102ZM358.5 102H355.5V104H358.5V102ZM353.5 102H350.5V104H353.5V102ZM348.5 102H345.5V104H348.5V102ZM343.5 102H340.5V104H343.5V102ZM338.5 102H335.5V104H338.5V102ZM333.5 102H330.5V104H333.5V102ZM328.5 102H325.5V104H328.5V102ZM323.5 102H320.5V104H323.5V102ZM318.5 102H315.5V104H318.5V102ZM313.5 102H310.5V104H313.5V102ZM308.5 102H305.5V104H308.5V102ZM303.5 102H300.5V104H303.5V102ZM298.5 102H295.5V104H298.5V102ZM293.5 102H290.5V104H293.5V102ZM288.5 102H285.5V104H288.5V102ZM283.5 102H280.5V104H283.5V102ZM278.5 102H275.5V104H278.5V102ZM273.5 102H270.5V104H273.5V102ZM268.5 102H265.5V104H268.5V102ZM263.5 102H260.5V104H263.5V102ZM258.5 102H255.5V104H258.5V102ZM253.5 102H250.5V104H253.5V102ZM248.5 102H245.5V104H248.5V102ZM243.5 102H240.5V104H243.5V102ZM238.5 102H235.5V104H238.5V102ZM233.5 102H230.5V104H233.5V102ZM228.5 102H225.5V104H228.5V102ZM223.5 102H220.5V104H223.5V102ZM218.5 102H215.5V104H218.5V102ZM213.5 102H210.5V104H213.5V102ZM208.5 102H205.5V104H208.5V102ZM203.5 102H200.5V104H203.5V102ZM198.5 102H195.5V104H198.5V102ZM193.5 102H190.5V104H193.5V102ZM188.5 102H185.5V104H188.5V102ZM183.5 102H180.5V104H183.5V102ZM178.5 102H175.5V104H178.5V102ZM173.5 102H170.5V104H173.5V102ZM168.5 102H165.5V104H168.5V102ZM163.5 102H160.5V104H163.5V102ZM158.5 102H155.5V104H158.5V102ZM153.5 102H150.5V104H153.5V102ZM148.5 102H145.5V104H148.5V102ZM143.5 102H140.5V104H143.5V102ZM138.5 102H135.5V104H138.5V102ZM133.5 102H130.5V104H133.5V102ZM128.5 102H125.5V104H128.5V102ZM123.5 102H120.5V104H123.5V102ZM118.5 102H115.5V104H118.5V102ZM113.5 102H110.5V104H113.5V102ZM108.5 102H105.5V104H108.5V102ZM103.5 102H102V104H103.5V102Z" fill="#DDDFE9" mask="url(#path-9-inside-2_1_24531)"/>
<path d="M120.953 124.047V134H119.073V124.047H120.953ZM125.423 124.047V134H123.543V124.047H125.423ZM129.436 128.347V129.83H124.931V128.347H129.436ZM129.962 124.047V125.53H124.931V124.047H129.962ZM137.01 131.416C137.01 131.225 136.98 131.054 136.921 130.903C136.866 130.748 136.764 130.609 136.613 130.486C136.467 130.359 136.26 130.236 135.991 130.117C135.727 129.994 135.385 129.867 134.966 129.734C134.501 129.589 134.068 129.424 133.667 129.242C133.266 129.06 132.913 128.848 132.607 128.606C132.307 128.365 132.072 128.087 131.903 127.772C131.735 127.453 131.65 127.084 131.65 126.665C131.65 126.255 131.737 125.881 131.91 125.544C132.088 125.207 132.338 124.917 132.662 124.676C132.986 124.43 133.366 124.241 133.804 124.108C134.246 123.976 134.733 123.91 135.266 123.91C136.005 123.91 136.643 124.045 137.181 124.313C137.723 124.582 138.142 124.947 138.438 125.407C138.735 125.868 138.883 126.385 138.883 126.959H137.01C137.01 126.649 136.944 126.376 136.811 126.139C136.684 125.902 136.488 125.715 136.224 125.578C135.964 125.441 135.636 125.373 135.239 125.373C134.856 125.373 134.537 125.43 134.282 125.544C134.031 125.658 133.842 125.813 133.715 126.009C133.592 126.205 133.53 126.424 133.53 126.665C133.53 126.847 133.573 127.011 133.66 127.157C133.747 127.299 133.877 127.433 134.05 127.561C134.223 127.684 134.437 127.8 134.692 127.909C134.952 128.014 135.253 128.119 135.595 128.224C136.141 128.388 136.62 128.57 137.03 128.771C137.445 128.971 137.789 129.199 138.062 129.454C138.34 129.709 138.548 129.996 138.684 130.315C138.826 130.634 138.896 130.997 138.896 131.402C138.896 131.831 138.812 132.214 138.643 132.551C138.475 132.888 138.233 133.175 137.919 133.412C137.604 133.649 137.226 133.829 136.784 133.952C136.347 134.075 135.857 134.137 135.314 134.137C134.831 134.137 134.353 134.073 133.879 133.945C133.409 133.813 132.983 133.617 132.6 133.357C132.218 133.093 131.912 132.76 131.684 132.359C131.457 131.954 131.343 131.48 131.343 130.938H133.229C133.229 131.252 133.28 131.521 133.38 131.744C133.485 131.963 133.63 132.143 133.817 132.284C134.009 132.421 134.232 132.521 134.487 132.585C134.742 132.649 135.018 132.681 135.314 132.681C135.697 132.681 136.012 132.628 136.258 132.523C136.508 132.414 136.695 132.264 136.818 132.072C136.946 131.881 137.01 131.662 137.01 131.416ZM146.73 130.726H148.61C148.56 131.391 148.375 131.981 148.056 132.496C147.737 133.007 147.293 133.408 146.723 133.699C146.153 133.991 145.463 134.137 144.652 134.137C144.027 134.137 143.465 134.027 142.963 133.809C142.466 133.585 142.04 133.269 141.685 132.858C141.334 132.444 141.065 131.947 140.878 131.368C140.691 130.785 140.598 130.131 140.598 129.406V128.647C140.598 127.923 140.694 127.269 140.885 126.686C141.076 126.102 141.35 125.605 141.705 125.195C142.065 124.781 142.496 124.462 142.997 124.238C143.503 124.015 144.068 123.903 144.693 123.903C145.504 123.903 146.19 124.054 146.75 124.354C147.311 124.651 147.746 125.059 148.056 125.578C148.366 126.098 148.553 126.695 148.617 127.369H146.737C146.7 126.95 146.609 126.594 146.463 126.303C146.322 126.011 146.108 125.79 145.821 125.64C145.538 125.485 145.162 125.407 144.693 125.407C144.328 125.407 144.007 125.476 143.729 125.612C143.455 125.749 143.228 125.954 143.045 126.228C142.863 126.496 142.726 126.834 142.635 127.239C142.544 127.64 142.498 128.105 142.498 128.634V129.406C142.498 129.912 142.539 130.366 142.621 130.767C142.703 131.168 142.831 131.507 143.004 131.785C143.177 132.063 143.401 132.275 143.674 132.421C143.948 132.567 144.273 132.64 144.652 132.64C145.112 132.64 145.486 132.567 145.773 132.421C146.064 132.275 146.285 132.061 146.436 131.778C146.591 131.496 146.689 131.145 146.73 130.726ZM160.496 130.726H162.376C162.326 131.391 162.141 131.981 161.822 132.496C161.503 133.007 161.059 133.408 160.489 133.699C159.92 133.991 159.229 134.137 158.418 134.137C157.794 134.137 157.231 134.027 156.73 133.809C156.233 133.585 155.807 133.269 155.451 132.858C155.1 132.444 154.832 131.947 154.645 131.368C154.458 130.785 154.364 130.131 154.364 129.406V128.647C154.364 127.923 154.46 127.269 154.652 126.686C154.843 126.102 155.116 125.605 155.472 125.195C155.832 124.781 156.263 124.462 156.764 124.238C157.27 124.015 157.835 123.903 158.459 123.903C159.27 123.903 159.956 124.054 160.517 124.354C161.077 124.651 161.513 125.059 161.822 125.578C162.132 126.098 162.319 126.695 162.383 127.369H160.503C160.467 126.95 160.376 126.594 160.23 126.303C160.088 126.011 159.874 125.79 159.587 125.64C159.305 125.485 158.929 125.407 158.459 125.407C158.095 125.407 157.773 125.476 157.495 125.612C157.222 125.749 156.994 125.954 156.812 126.228C156.629 126.496 156.493 126.834 156.402 127.239C156.31 127.64 156.265 128.105 156.265 128.634V129.406C156.265 129.912 156.306 130.366 156.388 130.767C156.47 131.168 156.598 131.507 156.771 131.785C156.944 132.063 157.167 132.275 157.441 132.421C157.714 132.567 158.04 132.64 158.418 132.64C158.878 132.64 159.252 132.567 159.539 132.421C159.831 132.275 160.052 132.061 160.202 131.778C160.357 131.496 160.455 131.145 160.496 130.726ZM172.452 128.771V129.283C172.452 130.035 172.352 130.712 172.151 131.313C171.95 131.91 171.666 132.419 171.297 132.838C170.927 133.257 170.488 133.578 169.977 133.802C169.467 134.025 168.899 134.137 168.275 134.137C167.66 134.137 167.095 134.025 166.58 133.802C166.069 133.578 165.627 133.257 165.254 132.838C164.88 132.419 164.59 131.91 164.385 131.313C164.18 130.712 164.078 130.035 164.078 129.283V128.771C164.078 128.014 164.18 127.337 164.385 126.74C164.59 126.143 164.878 125.635 165.247 125.216C165.616 124.792 166.056 124.468 166.566 124.245C167.081 124.022 167.646 123.91 168.261 123.91C168.886 123.91 169.453 124.022 169.964 124.245C170.474 124.468 170.914 124.792 171.283 125.216C171.657 125.635 171.944 126.143 172.144 126.74C172.349 127.337 172.452 128.014 172.452 128.771ZM170.551 129.283V128.757C170.551 128.215 170.501 127.738 170.401 127.328C170.301 126.913 170.153 126.565 169.957 126.282C169.761 126 169.519 125.788 169.232 125.646C168.945 125.501 168.621 125.428 168.261 125.428C167.897 125.428 167.573 125.501 167.291 125.646C167.013 125.788 166.776 126 166.58 126.282C166.384 126.565 166.233 126.913 166.129 127.328C166.028 127.738 165.978 128.215 165.978 128.757V129.283C165.978 129.821 166.028 130.297 166.129 130.712C166.233 131.127 166.384 131.478 166.58 131.765C166.78 132.047 167.022 132.261 167.304 132.407C167.587 132.553 167.91 132.626 168.275 132.626C168.64 132.626 168.963 132.553 169.246 132.407C169.528 132.261 169.765 132.047 169.957 131.765C170.153 131.478 170.301 131.127 170.401 130.712C170.501 130.297 170.551 129.821 170.551 129.283ZM177.578 134H175.432L175.445 132.523H177.578C178.157 132.523 178.642 132.396 179.034 132.141C179.426 131.881 179.722 131.509 179.923 131.026C180.123 130.539 180.224 129.955 180.224 129.276V128.764C180.224 128.24 180.167 127.777 180.053 127.376C179.939 126.975 179.77 126.638 179.547 126.364C179.328 126.091 179.057 125.883 178.733 125.742C178.41 125.601 178.038 125.53 177.619 125.53H175.391V124.047H177.619C178.285 124.047 178.891 124.159 179.438 124.382C179.989 124.605 180.465 124.926 180.866 125.346C181.272 125.76 181.582 126.257 181.796 126.836C182.015 127.415 182.124 128.062 182.124 128.777V129.276C182.124 129.987 182.015 130.634 181.796 131.218C181.582 131.797 181.272 132.293 180.866 132.708C180.465 133.123 179.987 133.442 179.431 133.665C178.875 133.888 178.257 134 177.578 134ZM176.484 124.047V134H174.605V124.047H176.484ZM190.88 132.523V134H185.589V132.523H190.88ZM186.164 124.047V134H184.284V124.047H186.164ZM190.19 128.155V129.598H185.589V128.155H190.19ZM190.86 124.047V125.53H185.589V124.047H190.86Z" fill="#20294C"/>
<path d="M121.586 144.914V157H119.303V144.914H121.586ZM131.124 153.024H133.406C133.345 153.832 133.121 154.549 132.734 155.174C132.347 155.794 131.807 156.281 131.115 156.635C130.424 156.989 129.585 157.166 128.6 157.166C127.842 157.166 127.159 157.033 126.55 156.768C125.947 156.496 125.429 156.112 124.998 155.614C124.571 155.11 124.245 154.507 124.018 153.804C123.791 153.096 123.678 152.302 123.678 151.422V150.5C123.678 149.621 123.794 148.826 124.026 148.118C124.259 147.41 124.591 146.807 125.022 146.309C125.46 145.805 125.983 145.418 126.591 145.146C127.206 144.875 127.892 144.74 128.65 144.74C129.635 144.74 130.468 144.922 131.148 145.288C131.829 145.647 132.358 146.143 132.734 146.773C133.11 147.404 133.337 148.129 133.415 148.948H131.132C131.088 148.439 130.977 148.007 130.8 147.653C130.628 147.299 130.368 147.031 130.02 146.848C129.676 146.66 129.22 146.566 128.65 146.566C128.207 146.566 127.817 146.649 127.479 146.815C127.147 146.981 126.871 147.23 126.649 147.562C126.428 147.889 126.262 148.298 126.151 148.791C126.041 149.278 125.985 149.842 125.985 150.484V151.422C125.985 152.036 126.035 152.587 126.135 153.074C126.234 153.561 126.389 153.973 126.6 154.311C126.81 154.648 127.081 154.905 127.413 155.083C127.745 155.26 128.141 155.348 128.6 155.348C129.159 155.348 129.613 155.26 129.961 155.083C130.316 154.905 130.584 154.645 130.767 154.302C130.955 153.959 131.074 153.533 131.124 153.024ZM137.606 144.914V157H135.324V144.914H137.606ZM147.144 153.024H149.427C149.366 153.832 149.142 154.549 148.754 155.174C148.367 155.794 147.827 156.281 147.136 156.635C146.444 156.989 145.606 157.166 144.621 157.166C143.862 157.166 143.179 157.033 142.57 156.768C141.967 156.496 141.45 156.112 141.018 155.614C140.592 155.11 140.265 154.507 140.039 153.804C139.812 153.096 139.698 152.302 139.698 151.422V150.5C139.698 149.621 139.814 148.826 140.047 148.118C140.279 147.41 140.611 146.807 141.043 146.309C141.48 145.805 142.003 145.418 142.612 145.146C143.226 144.875 143.912 144.74 144.67 144.74C145.655 144.74 146.488 144.922 147.169 145.288C147.85 145.647 148.378 146.143 148.754 146.773C149.131 147.404 149.358 148.129 149.435 148.948H147.152C147.108 148.439 146.997 148.007 146.82 147.653C146.649 147.299 146.389 147.031 146.04 146.848C145.697 146.66 145.24 146.566 144.67 146.566C144.228 146.566 143.838 146.649 143.5 146.815C143.168 146.981 142.891 147.23 142.67 147.562C142.449 147.889 142.283 148.298 142.172 148.791C142.061 149.278 142.006 149.842 142.006 150.484V151.422C142.006 152.036 142.056 152.587 142.155 153.074C142.255 153.561 142.41 153.973 142.62 154.311C142.83 154.648 143.102 154.905 143.434 155.083C143.766 155.26 144.161 155.348 144.621 155.348C145.18 155.348 145.633 155.26 145.982 155.083C146.336 154.905 146.604 154.645 146.787 154.302C146.975 153.959 147.094 153.533 147.144 153.024ZM158.915 149.919V151.953C158.915 152.883 158.82 153.677 158.632 154.335C158.444 154.994 158.173 155.534 157.819 155.954C157.465 156.369 157.041 156.676 156.549 156.875C156.056 157.069 155.508 157.166 154.905 157.166C154.424 157.166 153.976 157.105 153.561 156.983C153.146 156.856 152.772 156.662 152.44 156.402C152.113 156.137 151.831 155.799 151.593 155.39C151.361 154.98 151.181 154.49 151.054 153.92C150.932 153.35 150.871 152.695 150.871 151.953V149.919C150.871 148.99 150.965 148.198 151.153 147.545C151.347 146.892 151.621 146.358 151.975 145.943C152.329 145.528 152.753 145.227 153.245 145.039C153.738 144.845 154.285 144.748 154.889 144.748C155.376 144.748 155.824 144.809 156.233 144.931C156.648 145.052 157.019 145.243 157.346 145.503C157.678 145.758 157.96 146.09 158.192 146.5C158.425 146.903 158.602 147.39 158.724 147.96C158.851 148.525 158.915 149.178 158.915 149.919ZM156.723 152.252V149.612C156.723 149.147 156.695 148.743 156.64 148.4C156.59 148.052 156.516 147.756 156.416 147.512C156.316 147.269 156.192 147.072 156.042 146.923C155.893 146.768 155.722 146.654 155.528 146.583C155.334 146.511 155.121 146.475 154.889 146.475C154.601 146.475 154.344 146.533 154.117 146.649C153.89 146.76 153.699 146.937 153.544 147.18C153.389 147.424 153.27 147.747 153.187 148.151C153.11 148.55 153.071 149.037 153.071 149.612V152.252C153.071 152.717 153.096 153.124 153.146 153.472C153.201 153.821 153.278 154.12 153.378 154.369C153.483 154.618 153.608 154.822 153.751 154.983C153.901 155.138 154.072 155.254 154.266 155.332C154.46 155.403 154.673 155.439 154.905 155.439C155.199 155.439 155.456 155.381 155.677 155.265C155.904 155.149 156.095 154.966 156.25 154.717C156.405 154.463 156.521 154.133 156.599 153.729C156.682 153.32 156.723 152.827 156.723 152.252ZM168.626 149.919V151.953C168.626 152.883 168.532 153.677 168.344 154.335C168.156 154.994 167.885 155.534 167.531 155.954C167.177 156.369 166.753 156.676 166.261 156.875C165.768 157.069 165.22 157.166 164.617 157.166C164.136 157.166 163.688 157.105 163.272 156.983C162.857 156.856 162.484 156.662 162.152 156.402C161.825 156.137 161.543 155.799 161.305 155.39C161.073 154.98 160.893 154.49 160.766 153.92C160.644 153.35 160.583 152.695 160.583 151.953V149.919C160.583 148.99 160.677 148.198 160.865 147.545C161.059 146.892 161.333 146.358 161.687 145.943C162.041 145.528 162.465 145.227 162.957 145.039C163.45 144.845 163.997 144.748 164.601 144.748C165.088 144.748 165.536 144.809 165.945 144.931C166.36 145.052 166.731 145.243 167.058 145.503C167.39 145.758 167.672 146.09 167.904 146.5C168.137 146.903 168.314 147.39 168.436 147.96C168.563 148.525 168.626 149.178 168.626 149.919ZM166.435 152.252V149.612C166.435 149.147 166.407 148.743 166.352 148.4C166.302 148.052 166.228 147.756 166.128 147.512C166.028 147.269 165.904 147.072 165.754 146.923C165.605 146.768 165.433 146.654 165.24 146.583C165.046 146.511 164.833 146.475 164.601 146.475C164.313 146.475 164.056 146.533 163.829 146.649C163.602 146.76 163.411 146.937 163.256 147.18C163.101 147.424 162.982 147.747 162.899 148.151C162.821 148.55 162.783 149.037 162.783 149.612V152.252C162.783 152.717 162.808 153.124 162.857 153.472C162.913 153.821 162.99 154.12 163.09 154.369C163.195 154.618 163.319 154.822 163.463 154.983C163.613 155.138 163.784 155.254 163.978 155.332C164.172 155.403 164.385 155.439 164.617 155.439C164.91 155.439 165.168 155.381 165.389 155.265C165.616 155.149 165.807 154.966 165.962 154.717C166.117 154.463 166.233 154.133 166.311 153.729C166.394 153.32 166.435 152.827 166.435 152.252ZM178.338 149.919V151.953C178.338 152.883 178.244 153.677 178.056 154.335C177.868 154.994 177.597 155.534 177.243 155.954C176.889 156.369 176.465 156.676 175.973 156.875C175.48 157.069 174.932 157.166 174.329 157.166C173.848 157.166 173.399 157.105 172.984 156.983C172.569 156.856 172.196 156.662 171.864 156.402C171.537 156.137 171.255 155.799 171.017 155.39C170.785 154.98 170.605 154.49 170.478 153.92C170.356 153.35 170.295 152.695 170.295 151.953V149.919C170.295 148.99 170.389 148.198 170.577 147.545C170.771 146.892 171.045 146.358 171.399 145.943C171.753 145.528 172.176 145.227 172.669 145.039C173.161 144.845 173.709 144.748 174.312 144.748C174.799 144.748 175.248 144.809 175.657 144.931C176.072 145.052 176.443 145.243 176.77 145.503C177.102 145.758 177.384 146.09 177.616 146.5C177.849 146.903 178.026 147.39 178.147 147.96C178.275 148.525 178.338 149.178 178.338 149.919ZM176.147 152.252V149.612C176.147 149.147 176.119 148.743 176.064 148.4C176.014 148.052 175.939 147.756 175.84 147.512C175.74 147.269 175.616 147.072 175.466 146.923C175.317 146.768 175.145 146.654 174.952 146.583C174.758 146.511 174.545 146.475 174.312 146.475C174.025 146.475 173.767 146.533 173.541 146.649C173.314 146.76 173.123 146.937 172.968 147.18C172.813 147.424 172.694 147.747 172.611 148.151C172.533 148.55 172.495 149.037 172.495 149.612V152.252C172.495 152.717 172.52 153.124 172.569 153.472C172.625 153.821 172.702 154.12 172.802 154.369C172.907 154.618 173.031 154.822 173.175 154.983C173.325 155.138 173.496 155.254 173.69 155.332C173.884 155.403 174.097 155.439 174.329 155.439C174.622 155.439 174.88 155.381 175.101 155.265C175.328 155.149 175.519 154.966 175.674 154.717C175.829 154.463 175.945 154.133 176.022 153.729C176.105 153.32 176.147 152.827 176.147 152.252ZM182.447 149.986H183.684C184.121 149.986 184.481 149.911 184.763 149.762C185.051 149.607 185.264 149.396 185.402 149.131C185.546 148.86 185.618 148.547 185.618 148.193C185.618 147.844 185.555 147.543 185.427 147.288C185.3 147.028 185.106 146.829 184.846 146.69C184.592 146.547 184.265 146.475 183.867 146.475C183.546 146.475 183.25 146.538 182.979 146.666C182.713 146.793 182.5 146.975 182.339 147.213C182.184 147.446 182.107 147.725 182.107 148.052H179.907C179.907 147.399 180.079 146.826 180.422 146.333C180.771 145.835 181.241 145.445 181.833 145.163C182.425 144.881 183.086 144.74 183.817 144.74C184.614 144.74 185.311 144.873 185.909 145.138C186.512 145.398 186.979 145.783 187.312 146.292C187.649 146.801 187.818 147.432 187.818 148.185C187.818 148.544 187.732 148.904 187.561 149.264C187.395 149.618 187.148 149.939 186.822 150.227C186.501 150.509 186.105 150.738 185.635 150.916C185.17 151.087 184.636 151.173 184.033 151.173H182.447V149.986ZM182.447 151.679V150.509H184.033C184.713 150.509 185.303 150.589 185.801 150.75C186.304 150.904 186.719 151.126 187.046 151.414C187.372 151.696 187.613 152.025 187.768 152.401C187.929 152.778 188.009 153.182 188.009 153.613C188.009 154.178 187.904 154.681 187.693 155.124C187.483 155.561 187.187 155.932 186.805 156.236C186.429 156.541 185.986 156.773 185.477 156.934C184.968 157.089 184.417 157.166 183.825 157.166C183.311 157.166 182.81 157.097 182.323 156.958C181.841 156.815 181.407 156.602 181.02 156.319C180.632 156.032 180.325 155.672 180.098 155.24C179.871 154.803 179.758 154.297 179.758 153.721H181.958C181.958 154.053 182.038 154.349 182.198 154.609C182.364 154.869 182.591 155.074 182.879 155.224C183.172 155.368 183.501 155.439 183.867 155.439C184.271 155.439 184.617 155.368 184.904 155.224C185.198 155.074 185.422 154.864 185.577 154.593C185.732 154.316 185.809 153.987 185.809 153.605C185.809 153.151 185.723 152.783 185.552 152.501C185.38 152.219 185.134 152.011 184.813 151.878C184.498 151.746 184.121 151.679 183.684 151.679H182.447ZM195.405 144.881V157H193.205V147.446L190.292 148.409V146.632L195.156 144.881H195.405ZM205.573 144.814H205.872V146.583H205.731C205.061 146.583 204.472 146.685 203.963 146.89C203.459 147.094 203.039 147.382 202.701 147.753C202.369 148.118 202.117 148.553 201.946 149.056C201.774 149.554 201.688 150.099 201.688 150.691V152.65C201.688 153.11 201.736 153.514 201.83 153.862C201.929 154.205 202.065 154.496 202.236 154.734C202.413 154.966 202.618 155.141 202.851 155.257C203.089 155.373 203.349 155.431 203.631 155.431C203.913 155.431 204.168 155.373 204.395 155.257C204.621 155.141 204.815 154.977 204.976 154.767C205.142 154.551 205.266 154.299 205.349 154.012C205.438 153.724 205.482 153.409 205.482 153.065C205.482 152.728 205.44 152.415 205.357 152.127C205.274 151.84 205.153 151.588 204.992 151.372C204.832 151.151 204.632 150.982 204.395 150.866C204.162 150.744 203.896 150.683 203.598 150.683C203.21 150.683 202.864 150.774 202.56 150.957C202.256 151.134 202.015 151.367 201.838 151.654C201.661 151.942 201.564 152.246 201.547 152.567L200.809 152.202C200.836 151.732 200.936 151.3 201.107 150.907C201.285 150.514 201.52 150.171 201.813 149.878C202.112 149.585 202.463 149.358 202.867 149.197C203.277 149.037 203.73 148.957 204.229 148.957C204.804 148.957 205.308 149.067 205.739 149.289C206.171 149.504 206.528 149.8 206.81 150.177C207.098 150.553 207.314 150.987 207.458 151.48C207.601 151.967 207.673 152.482 207.673 153.024C207.673 153.605 207.579 154.147 207.391 154.651C207.208 155.154 206.943 155.594 206.594 155.971C206.246 156.347 205.825 156.64 205.333 156.851C204.84 157.061 204.287 157.166 203.672 157.166C203.025 157.166 202.444 157.044 201.929 156.801C201.42 156.557 200.983 156.22 200.618 155.788C200.252 155.356 199.973 154.853 199.779 154.277C199.586 153.702 199.489 153.079 199.489 152.41V151.53C199.489 150.583 199.619 149.704 199.879 148.89C200.139 148.077 200.524 147.366 201.033 146.757C201.547 146.143 202.184 145.667 202.942 145.329C203.7 144.986 204.577 144.814 205.573 144.814ZM217.203 153.696C217.203 154.449 217.026 155.085 216.671 155.605C216.323 156.12 215.844 156.51 215.235 156.776C214.632 157.036 213.946 157.166 213.177 157.166C212.413 157.166 211.724 157.036 211.11 156.776C210.501 156.51 210.017 156.12 209.657 155.605C209.303 155.085 209.126 154.449 209.126 153.696C209.126 153.193 209.226 152.736 209.425 152.327C209.63 151.917 209.912 151.566 210.271 151.272C210.631 150.974 211.057 150.747 211.55 150.592C212.042 150.431 212.579 150.351 213.16 150.351C213.935 150.351 214.627 150.492 215.235 150.774C215.85 151.051 216.331 151.441 216.68 151.945C217.028 152.443 217.203 153.027 217.203 153.696ZM214.995 153.563C214.995 153.176 214.917 152.841 214.762 152.559C214.613 152.271 214.4 152.05 214.123 151.895C213.846 151.74 213.525 151.663 213.16 151.663C212.789 151.663 212.466 151.74 212.189 151.895C211.918 152.05 211.705 152.271 211.55 152.559C211.4 152.841 211.326 153.176 211.326 153.563C211.326 153.956 211.4 154.294 211.55 154.576C211.705 154.853 211.921 155.066 212.197 155.215C212.474 155.365 212.8 155.439 213.177 155.439C213.553 155.439 213.877 155.365 214.148 155.215C214.419 155.066 214.627 154.853 214.771 154.576C214.92 154.294 214.995 153.956 214.995 153.563ZM216.937 148.102C216.937 148.71 216.777 149.253 216.456 149.729C216.135 150.199 215.689 150.567 215.119 150.833C214.555 151.098 213.907 151.231 213.177 151.231C212.446 151.231 211.793 151.098 211.218 150.833C210.648 150.567 210.2 150.199 209.873 149.729C209.552 149.253 209.392 148.71 209.392 148.102C209.392 147.382 209.555 146.773 209.881 146.275C210.208 145.772 210.653 145.39 211.218 145.13C211.788 144.87 212.435 144.74 213.16 144.74C213.896 144.74 214.549 144.87 215.119 145.13C215.689 145.39 216.135 145.772 216.456 146.275C216.777 146.773 216.937 147.382 216.937 148.102ZM214.746 148.193C214.746 147.85 214.682 147.551 214.555 147.296C214.427 147.036 214.245 146.834 214.007 146.69C213.774 146.547 213.492 146.475 213.16 146.475C212.839 146.475 212.562 146.544 212.33 146.682C212.098 146.82 211.918 147.02 211.791 147.28C211.663 147.534 211.6 147.839 211.6 148.193C211.6 148.542 211.663 148.846 211.791 149.106C211.918 149.366 212.098 149.571 212.33 149.72C212.568 149.864 212.85 149.936 213.177 149.936C213.503 149.936 213.783 149.864 214.015 149.72C214.248 149.571 214.427 149.366 214.555 149.106C214.682 148.846 214.746 148.542 214.746 148.193Z" fill="#20294C"/>
<g clip-path="url(#clip2_1_24531)">
<path fill-rule="evenodd" clip-rule="evenodd" d="M394.814 144.5H398.686C398.939 144.5 399.171 144.5 399.366 144.516C399.576 144.532 399.805 144.571 400.032 144.685C400.372 144.854 400.646 145.129 400.816 145.468C400.929 145.695 400.968 145.925 400.984 146.134C401 146.329 401 146.561 401 146.814V152.686C401 152.939 401 153.171 400.984 153.366C400.968 153.576 400.929 153.805 400.816 154.032C400.647 154.371 400.372 154.647 400.032 154.816C399.823 154.915 399.597 154.972 399.366 154.984C399.17 155 398.939 155 398.686 155H394.814C394.561 155 394.329 155 394.134 154.984C393.903 154.972 393.677 154.915 393.468 154.816C393.129 154.646 392.854 154.371 392.685 154.032C392.586 153.823 392.528 153.597 392.515 153.366C392.502 153.14 392.497 152.913 392.5 152.686V146.814C392.5 146.561 392.5 146.329 392.516 146.134C392.532 145.924 392.571 145.695 392.685 145.468C392.854 145.129 393.129 144.854 393.468 144.685C393.695 144.571 393.925 144.532 394.134 144.515C394.33 144.5 394.561 144.5 394.814 144.5ZM394.135 146.028C394.174 146.018 394.215 146.013 394.255 146.011C394.38 146 394.552 146 394.84 146H398.66C398.947 146 399.119 146 399.246 146.01C399.286 146.012 399.326 146.018 399.365 146.028C399.411 146.052 399.448 146.089 399.472 146.135C399.482 146.174 399.488 146.215 399.489 146.255C399.499 146.381 399.5 146.553 399.5 146.84V152.66C399.5 152.947 399.5 153.119 399.49 153.246C399.488 153.286 399.482 153.326 399.472 153.365C399.448 153.411 399.411 153.448 399.365 153.472C399.326 153.482 399.286 153.487 399.245 153.489C399.119 153.499 398.947 153.5 398.66 153.5H394.84C394.553 153.5 394.381 153.5 394.254 153.49C394.214 153.488 394.174 153.482 394.135 153.472C394.089 153.448 394.052 153.411 394.028 153.365C394.019 153.326 394.013 153.285 394.011 153.245C394.001 153.05 393.997 152.855 394 152.66V146.84C394 146.553 394 146.381 394.01 146.254C394.012 146.214 394.018 146.174 394.028 146.135C394.052 146.089 394.089 146.052 394.135 146.028ZM402.248 150.002C402.165 150 402.083 149.999 402 150V148.5H402.048C402.23 148.5 402.419 148.5 402.591 148.534C402.931 148.602 403.242 148.768 403.487 149.013C403.732 149.258 403.899 149.57 403.966 149.909C404.001 150.081 404 150.27 404 150.452V156.686C404 156.939 404 157.171 403.984 157.366C403.968 157.576 403.929 157.805 403.815 158.032C403.646 158.371 403.371 158.646 403.032 158.816C402.823 158.915 402.597 158.972 402.366 158.984C402.171 159 401.939 159 401.686 159H397.814C397.561 159 397.329 159 397.134 158.984C396.903 158.972 396.677 158.915 396.468 158.816C396.129 158.646 395.854 158.371 395.685 158.032C395.586 157.823 395.528 157.597 395.515 157.366C395.502 157.14 395.497 156.913 395.5 156.686V156H397V156.66C397 156.947 397 157.119 397.01 157.246C397.012 157.286 397.018 157.326 397.028 157.365C397.052 157.411 397.089 157.448 397.135 157.472C397.174 157.482 397.215 157.487 397.255 157.489C397.381 157.499 397.553 157.5 397.84 157.5H401.66C401.947 157.5 402.119 157.5 402.246 157.49C402.286 157.488 402.326 157.482 402.365 157.472C402.411 157.448 402.448 157.411 402.472 157.365C402.482 157.326 402.487 157.285 402.489 157.245C402.499 157.119 402.5 156.948 402.5 156.66V150.5C402.5 150.4 402.499 150.3 402.495 150.2C402.485 150.152 402.462 150.108 402.427 150.073C402.393 150.039 402.349 150.015 402.301 150.005C402.283 150.003 402.266 150.002 402.248 150.002Z" fill="#20294C"/>
</g>
</g>
<path d="M114.82 236.16V238H105.785V236.16H114.82ZM106.242 220.938V238H103.98V220.938H106.242ZM113.625 228.273V230.113H105.785V228.273H113.625ZM114.703 220.938V222.789H105.785V220.938H114.703ZM120.844 236.043L124.312 225.32H126.527L121.969 238H120.516L120.844 236.043ZM117.949 225.32L121.523 236.102L121.77 238H120.316L115.723 225.32H117.949ZM130.969 225.32V238H128.789V225.32H130.969ZM128.625 221.957C128.625 221.605 128.73 221.309 128.941 221.066C129.16 220.824 129.48 220.703 129.902 220.703C130.316 220.703 130.633 220.824 130.852 221.066C131.078 221.309 131.191 221.605 131.191 221.957C131.191 222.293 131.078 222.582 130.852 222.824C130.633 223.059 130.316 223.176 129.902 223.176C129.48 223.176 129.16 223.059 128.941 222.824C128.73 222.582 128.625 222.293 128.625 221.957ZM139.523 236.453C140.039 236.453 140.516 236.348 140.953 236.137C141.391 235.926 141.75 235.637 142.031 235.27C142.312 234.895 142.473 234.469 142.512 233.992H144.574C144.535 234.742 144.281 235.441 143.812 236.09C143.352 236.73 142.746 237.25 141.996 237.648C141.246 238.039 140.422 238.234 139.523 238.234C138.57 238.234 137.738 238.066 137.027 237.73C136.324 237.395 135.738 236.934 135.27 236.348C134.809 235.762 134.461 235.09 134.227 234.332C134 233.566 133.887 232.758 133.887 231.906V231.414C133.887 230.562 134 229.758 134.227 229C134.461 228.234 134.809 227.559 135.27 226.973C135.738 226.387 136.324 225.926 137.027 225.59C137.738 225.254 138.57 225.086 139.523 225.086C140.516 225.086 141.383 225.289 142.125 225.695C142.867 226.094 143.449 226.641 143.871 227.336C144.301 228.023 144.535 228.805 144.574 229.68H142.512C142.473 229.156 142.324 228.684 142.066 228.262C141.816 227.84 141.473 227.504 141.035 227.254C140.605 226.996 140.102 226.867 139.523 226.867C138.859 226.867 138.301 227 137.848 227.266C137.402 227.523 137.047 227.875 136.781 228.32C136.523 228.758 136.336 229.246 136.219 229.785C136.109 230.316 136.055 230.859 136.055 231.414V231.906C136.055 232.461 136.109 233.008 136.219 233.547C136.328 234.086 136.512 234.574 136.77 235.012C137.035 235.449 137.391 235.801 137.836 236.066C138.289 236.324 138.852 236.453 139.523 236.453ZM152.32 225.32V226.984H145.465V225.32H152.32ZM147.785 222.238H149.953V234.859C149.953 235.289 150.02 235.613 150.152 235.832C150.285 236.051 150.457 236.195 150.668 236.266C150.879 236.336 151.105 236.371 151.348 236.371C151.527 236.371 151.715 236.355 151.91 236.324C152.113 236.285 152.266 236.254 152.367 236.23L152.379 238C152.207 238.055 151.98 238.105 151.699 238.152C151.426 238.207 151.094 238.234 150.703 238.234C150.172 238.234 149.684 238.129 149.238 237.918C148.793 237.707 148.438 237.355 148.172 236.863C147.914 236.363 147.785 235.691 147.785 234.848V222.238ZM163.172 225.32V238H160.992V225.32H163.172ZM160.828 221.957C160.828 221.605 160.934 221.309 161.145 221.066C161.363 220.824 161.684 220.703 162.105 220.703C162.52 220.703 162.836 220.824 163.055 221.066C163.281 221.309 163.395 221.605 163.395 221.957C163.395 222.293 163.281 222.582 163.055 222.824C162.836 223.059 162.52 223.176 162.105 223.176C161.684 223.176 161.363 223.059 161.145 222.824C160.934 222.582 160.828 222.293 160.828 221.957ZM168.809 227.84V238H166.629V225.32H168.691L168.809 227.84ZM168.363 231.18L167.355 231.145C167.363 230.277 167.477 229.477 167.695 228.742C167.914 228 168.238 227.355 168.668 226.809C169.098 226.262 169.633 225.84 170.273 225.543C170.914 225.238 171.656 225.086 172.5 225.086C173.094 225.086 173.641 225.172 174.141 225.344C174.641 225.508 175.074 225.77 175.441 226.129C175.809 226.488 176.094 226.949 176.297 227.512C176.5 228.074 176.602 228.754 176.602 229.551V238H174.434V229.656C174.434 228.992 174.32 228.461 174.094 228.062C173.875 227.664 173.562 227.375 173.156 227.195C172.75 227.008 172.273 226.914 171.727 226.914C171.086 226.914 170.551 227.027 170.121 227.254C169.691 227.48 169.348 227.793 169.09 228.191C168.832 228.59 168.645 229.047 168.527 229.562C168.418 230.07 168.363 230.609 168.363 231.18ZM176.578 229.984L175.125 230.43C175.133 229.734 175.246 229.066 175.465 228.426C175.691 227.785 176.016 227.215 176.438 226.715C176.867 226.215 177.395 225.82 178.02 225.531C178.645 225.234 179.359 225.086 180.164 225.086C180.844 225.086 181.445 225.176 181.969 225.355C182.5 225.535 182.945 225.812 183.305 226.188C183.672 226.555 183.949 227.027 184.137 227.605C184.324 228.184 184.418 228.871 184.418 229.668V238H182.238V229.645C182.238 228.934 182.125 228.383 181.898 227.992C181.68 227.594 181.367 227.316 180.961 227.16C180.562 226.996 180.086 226.914 179.531 226.914C179.055 226.914 178.633 226.996 178.266 227.16C177.898 227.324 177.59 227.551 177.34 227.84C177.09 228.121 176.898 228.445 176.766 228.812C176.641 229.18 176.578 229.57 176.578 229.984ZM189.867 227.758V242.875H187.688V225.32H189.68L189.867 227.758ZM198.41 231.555V231.801C198.41 232.723 198.301 233.578 198.082 234.367C197.863 235.148 197.543 235.828 197.121 236.406C196.707 236.984 196.195 237.434 195.586 237.754C194.977 238.074 194.277 238.234 193.488 238.234C192.684 238.234 191.973 238.102 191.355 237.836C190.738 237.57 190.215 237.184 189.785 236.676C189.355 236.168 189.012 235.559 188.754 234.848C188.504 234.137 188.332 233.336 188.238 232.445V231.133C188.332 230.195 188.508 229.355 188.766 228.613C189.023 227.871 189.363 227.238 189.785 226.715C190.215 226.184 190.734 225.781 191.344 225.508C191.953 225.227 192.656 225.086 193.453 225.086C194.25 225.086 194.957 225.242 195.574 225.555C196.191 225.859 196.711 226.297 197.133 226.867C197.555 227.438 197.871 228.121 198.082 228.918C198.301 229.707 198.41 230.586 198.41 231.555ZM196.23 231.801V231.555C196.23 230.922 196.164 230.328 196.031 229.773C195.898 229.211 195.691 228.719 195.41 228.297C195.137 227.867 194.785 227.531 194.355 227.289C193.926 227.039 193.414 226.914 192.82 226.914C192.273 226.914 191.797 227.008 191.391 227.195C190.992 227.383 190.652 227.637 190.371 227.957C190.09 228.27 189.859 228.629 189.68 229.035C189.508 229.434 189.379 229.848 189.293 230.277V233.312C189.449 233.859 189.668 234.375 189.949 234.859C190.23 235.336 190.605 235.723 191.074 236.02C191.543 236.309 192.133 236.453 192.844 236.453C193.43 236.453 193.934 236.332 194.355 236.09C194.785 235.84 195.137 235.5 195.41 235.07C195.691 234.641 195.898 234.148 196.031 233.594C196.164 233.031 196.23 232.434 196.23 231.801ZM200.602 231.801V231.531C200.602 230.617 200.734 229.77 201 228.988C201.266 228.199 201.648 227.516 202.148 226.938C202.648 226.352 203.254 225.898 203.965 225.578C204.676 225.25 205.473 225.086 206.355 225.086C207.246 225.086 208.047 225.25 208.758 225.578C209.477 225.898 210.086 226.352 210.586 226.938C211.094 227.516 211.48 228.199 211.746 228.988C212.012 229.77 212.145 230.617 212.145 231.531V231.801C212.145 232.715 212.012 233.562 211.746 234.344C211.48 235.125 211.094 235.809 210.586 236.395C210.086 236.973 209.48 237.426 208.77 237.754C208.066 238.074 207.27 238.234 206.379 238.234C205.488 238.234 204.688 238.074 203.977 237.754C203.266 237.426 202.656 236.973 202.148 236.395C201.648 235.809 201.266 235.125 201 234.344C200.734 233.562 200.602 232.715 200.602 231.801ZM202.77 231.531V231.801C202.77 232.434 202.844 233.031 202.992 233.594C203.141 234.148 203.363 234.641 203.66 235.07C203.965 235.5 204.344 235.84 204.797 236.09C205.25 236.332 205.777 236.453 206.379 236.453C206.973 236.453 207.492 236.332 207.938 236.09C208.391 235.84 208.766 235.5 209.062 235.07C209.359 234.641 209.582 234.148 209.73 233.594C209.887 233.031 209.965 232.434 209.965 231.801V231.531C209.965 230.906 209.887 230.316 209.73 229.762C209.582 229.199 209.355 228.703 209.051 228.273C208.754 227.836 208.379 227.492 207.926 227.242C207.48 226.992 206.957 226.867 206.355 226.867C205.762 226.867 205.238 226.992 204.785 227.242C204.34 227.492 203.965 227.836 203.66 228.273C203.363 228.703 203.141 229.199 202.992 229.762C202.844 230.316 202.77 230.906 202.77 231.531ZM217.031 227.312V238H214.863V225.32H216.973L217.031 227.312ZM220.992 225.25L220.98 227.266C220.801 227.227 220.629 227.203 220.465 227.195C220.309 227.18 220.129 227.172 219.926 227.172C219.426 227.172 218.984 227.25 218.602 227.406C218.219 227.562 217.895 227.781 217.629 228.062C217.363 228.344 217.152 228.68 216.996 229.07C216.848 229.453 216.75 229.875 216.703 230.336L216.094 230.688C216.094 229.922 216.168 229.203 216.316 228.531C216.473 227.859 216.711 227.266 217.031 226.75C217.352 226.227 217.758 225.82 218.25 225.531C218.75 225.234 219.344 225.086 220.031 225.086C220.188 225.086 220.367 225.105 220.57 225.145C220.773 225.176 220.914 225.211 220.992 225.25ZM228.891 225.32V226.984H222.035V225.32H228.891ZM224.355 222.238H226.523V234.859C226.523 235.289 226.59 235.613 226.723 235.832C226.855 236.051 227.027 236.195 227.238 236.266C227.449 236.336 227.676 236.371 227.918 236.371C228.098 236.371 228.285 236.355 228.48 236.324C228.684 236.285 228.836 236.254 228.938 236.23L228.949 238C228.777 238.055 228.551 238.105 228.27 238.152C227.996 238.207 227.664 238.234 227.273 238.234C226.742 238.234 226.254 238.129 225.809 237.918C225.363 237.707 225.008 237.355 224.742 236.863C224.484 236.363 224.355 235.691 224.355 234.848V222.238ZM238.91 235.832V229.305C238.91 228.805 238.809 228.371 238.605 228.004C238.41 227.629 238.113 227.34 237.715 227.137C237.316 226.934 236.824 226.832 236.238 226.832C235.691 226.832 235.211 226.926 234.797 227.113C234.391 227.301 234.07 227.547 233.836 227.852C233.609 228.156 233.496 228.484 233.496 228.836H231.328C231.328 228.383 231.445 227.934 231.68 227.488C231.914 227.043 232.25 226.641 232.688 226.281C233.133 225.914 233.664 225.625 234.281 225.414C234.906 225.195 235.602 225.086 236.367 225.086C237.289 225.086 238.102 225.242 238.805 225.555C239.516 225.867 240.07 226.34 240.469 226.973C240.875 227.598 241.078 228.383 241.078 229.328V235.234C241.078 235.656 241.113 236.105 241.184 236.582C241.262 237.059 241.375 237.469 241.523 237.812V238H239.262C239.152 237.75 239.066 237.418 239.004 237.004C238.941 236.582 238.91 236.191 238.91 235.832ZM239.285 230.312L239.309 231.836H237.117C236.5 231.836 235.949 231.887 235.465 231.988C234.98 232.082 234.574 232.227 234.246 232.422C233.918 232.617 233.668 232.863 233.496 233.16C233.324 233.449 233.238 233.789 233.238 234.18C233.238 234.578 233.328 234.941 233.508 235.27C233.688 235.598 233.957 235.859 234.316 236.055C234.684 236.242 235.133 236.336 235.664 236.336C236.328 236.336 236.914 236.195 237.422 235.914C237.93 235.633 238.332 235.289 238.629 234.883C238.934 234.477 239.098 234.082 239.121 233.699L240.047 234.742C239.992 235.07 239.844 235.434 239.602 235.832C239.359 236.23 239.035 236.613 238.629 236.98C238.23 237.34 237.754 237.641 237.199 237.883C236.652 238.117 236.035 238.234 235.348 238.234C234.488 238.234 233.734 238.066 233.086 237.73C232.445 237.395 231.945 236.945 231.586 236.383C231.234 235.812 231.059 235.176 231.059 234.473C231.059 233.793 231.191 233.195 231.457 232.68C231.723 232.156 232.105 231.723 232.605 231.379C233.105 231.027 233.707 230.762 234.41 230.582C235.113 230.402 235.898 230.312 236.766 230.312H239.285ZM246.656 228.027V238H244.488V225.32H246.539L246.656 228.027ZM246.141 231.18L245.238 231.145C245.246 230.277 245.375 229.477 245.625 228.742C245.875 228 246.227 227.355 246.68 226.809C247.133 226.262 247.672 225.84 248.297 225.543C248.93 225.238 249.629 225.086 250.395 225.086C251.02 225.086 251.582 225.172 252.082 225.344C252.582 225.508 253.008 225.773 253.359 226.141C253.719 226.508 253.992 226.984 254.18 227.57C254.367 228.148 254.461 228.855 254.461 229.691V238H252.281V229.668C252.281 229.004 252.184 228.473 251.988 228.074C251.793 227.668 251.508 227.375 251.133 227.195C250.758 227.008 250.297 226.914 249.75 226.914C249.211 226.914 248.719 227.027 248.273 227.254C247.836 227.48 247.457 227.793 247.137 228.191C246.824 228.59 246.578 229.047 246.398 229.562C246.227 230.07 246.141 230.609 246.141 231.18ZM263.062 225.32V226.984H256.207V225.32H263.062ZM258.527 222.238H260.695V234.859C260.695 235.289 260.762 235.613 260.895 235.832C261.027 236.051 261.199 236.195 261.41 236.266C261.621 236.336 261.848 236.371 262.09 236.371C262.27 236.371 262.457 236.355 262.652 236.324C262.855 236.285 263.008 236.254 263.109 236.23L263.121 238C262.949 238.055 262.723 238.105 262.441 238.152C262.168 238.207 261.836 238.234 261.445 238.234C260.914 238.234 260.426 238.129 259.98 237.918C259.535 237.707 259.18 237.355 258.914 236.863C258.656 236.363 258.527 235.691 258.527 234.848V222.238ZM413.145 238H410.977V223.984C410.977 223.07 411.141 222.301 411.469 221.676C411.805 221.043 412.285 220.566 412.91 220.246C413.535 219.918 414.277 219.754 415.137 219.754C415.387 219.754 415.637 219.77 415.887 219.801C416.145 219.832 416.395 219.879 416.637 219.941L416.52 221.711C416.355 221.672 416.168 221.645 415.957 221.629C415.754 221.613 415.551 221.605 415.348 221.605C414.887 221.605 414.488 221.699 414.152 221.887C413.824 222.066 413.574 222.332 413.402 222.684C413.23 223.035 413.145 223.469 413.145 223.984V238ZM415.84 225.32V226.984H408.973V225.32H415.84ZM420.422 227.312V238H418.254V225.32H420.363L420.422 227.312ZM424.383 225.25L424.371 227.266C424.191 227.227 424.02 227.203 423.855 227.195C423.699 227.18 423.52 227.172 423.316 227.172C422.816 227.172 422.375 227.25 421.992 227.406C421.609 227.562 421.285 227.781 421.02 228.062C420.754 228.344 420.543 228.68 420.387 229.07C420.238 229.453 420.141 229.875 420.094 230.336L419.484 230.688C419.484 229.922 419.559 229.203 419.707 228.531C419.863 227.859 420.102 227.266 420.422 226.75C420.742 226.227 421.148 225.82 421.641 225.531C422.141 225.234 422.734 225.086 423.422 225.086C423.578 225.086 423.758 225.105 423.961 225.145C424.164 225.176 424.305 225.211 424.383 225.25ZM425.578 231.801V231.531C425.578 230.617 425.711 229.77 425.977 228.988C426.242 228.199 426.625 227.516 427.125 226.938C427.625 226.352 428.23 225.898 428.941 225.578C429.652 225.25 430.449 225.086 431.332 225.086C432.223 225.086 433.023 225.25 433.734 225.578C434.453 225.898 435.062 226.352 435.562 226.938C436.07 227.516 436.457 228.199 436.723 228.988C436.988 229.77 437.121 230.617 437.121 231.531V231.801C437.121 232.715 436.988 233.562 436.723 234.344C436.457 235.125 436.07 235.809 435.562 236.395C435.062 236.973 434.457 237.426 433.746 237.754C433.043 238.074 432.246 238.234 431.355 238.234C430.465 238.234 429.664 238.074 428.953 237.754C428.242 237.426 427.633 236.973 427.125 236.395C426.625 235.809 426.242 235.125 425.977 234.344C425.711 233.562 425.578 232.715 425.578 231.801ZM427.746 231.531V231.801C427.746 232.434 427.82 233.031 427.969 233.594C428.117 234.148 428.34 234.641 428.637 235.07C428.941 235.5 429.32 235.84 429.773 236.09C430.227 236.332 430.754 236.453 431.355 236.453C431.949 236.453 432.469 236.332 432.914 236.09C433.367 235.84 433.742 235.5 434.039 235.07C434.336 234.641 434.559 234.148 434.707 233.594C434.863 233.031 434.941 232.434 434.941 231.801V231.531C434.941 230.906 434.863 230.316 434.707 229.762C434.559 229.199 434.332 228.703 434.027 228.273C433.73 227.836 433.355 227.492 432.902 227.242C432.457 226.992 431.934 226.867 431.332 226.867C430.738 226.867 430.215 226.992 429.762 227.242C429.316 227.492 428.941 227.836 428.637 228.273C428.34 228.703 428.117 229.199 427.969 229.762C427.82 230.316 427.746 230.906 427.746 231.531ZM441.996 227.84V238H439.816V225.32H441.879L441.996 227.84ZM441.551 231.18L440.543 231.145C440.551 230.277 440.664 229.477 440.883 228.742C441.102 228 441.426 227.355 441.855 226.809C442.285 226.262 442.82 225.84 443.461 225.543C444.102 225.238 444.844 225.086 445.688 225.086C446.281 225.086 446.828 225.172 447.328 225.344C447.828 225.508 448.262 225.77 448.629 226.129C448.996 226.488 449.281 226.949 449.484 227.512C449.688 228.074 449.789 228.754 449.789 229.551V238H447.621V229.656C447.621 228.992 447.508 228.461 447.281 228.062C447.062 227.664 446.75 227.375 446.344 227.195C445.938 227.008 445.461 226.914 444.914 226.914C444.273 226.914 443.738 227.027 443.309 227.254C442.879 227.48 442.535 227.793 442.277 228.191C442.02 228.59 441.832 229.047 441.715 229.562C441.605 230.07 441.551 230.609 441.551 231.18ZM449.766 229.984L448.312 230.43C448.32 229.734 448.434 229.066 448.652 228.426C448.879 227.785 449.203 227.215 449.625 226.715C450.055 226.215 450.582 225.82 451.207 225.531C451.832 225.234 452.547 225.086 453.352 225.086C454.031 225.086 454.633 225.176 455.156 225.355C455.688 225.535 456.133 225.812 456.492 226.188C456.859 226.555 457.137 227.027 457.324 227.605C457.512 228.184 457.605 228.871 457.605 229.668V238H455.426V229.645C455.426 228.934 455.312 228.383 455.086 227.992C454.867 227.594 454.555 227.316 454.148 227.16C453.75 226.996 453.273 226.914 452.719 226.914C452.242 226.914 451.82 226.996 451.453 227.16C451.086 227.324 450.777 227.551 450.527 227.84C450.277 228.121 450.086 228.445 449.953 228.812C449.828 229.18 449.766 229.57 449.766 229.984ZM470.402 236.688L473.93 225.32H476.25L471.164 239.957C471.047 240.27 470.891 240.605 470.695 240.965C470.508 241.332 470.266 241.68 469.969 242.008C469.672 242.336 469.312 242.602 468.891 242.805C468.477 243.016 467.98 243.121 467.402 243.121C467.23 243.121 467.012 243.098 466.746 243.051C466.48 243.004 466.293 242.965 466.184 242.934L466.172 241.176C466.234 241.184 466.332 241.191 466.465 241.199C466.605 241.215 466.703 241.223 466.758 241.223C467.25 241.223 467.668 241.156 468.012 241.023C468.355 240.898 468.645 240.684 468.879 240.379C469.121 240.082 469.328 239.672 469.5 239.148L470.402 236.688ZM467.812 225.32L471.105 235.164L471.668 237.449L470.109 238.246L465.445 225.32H467.812ZM477.445 231.801V231.531C477.445 230.617 477.578 229.77 477.844 228.988C478.109 228.199 478.492 227.516 478.992 226.938C479.492 226.352 480.098 225.898 480.809 225.578C481.52 225.25 482.316 225.086 483.199 225.086C484.09 225.086 484.891 225.25 485.602 225.578C486.32 225.898 486.93 226.352 487.43 226.938C487.938 227.516 488.324 228.199 488.59 228.988C488.855 229.77 488.988 230.617 488.988 231.531V231.801C488.988 232.715 488.855 233.562 488.59 234.344C488.324 235.125 487.938 235.809 487.43 236.395C486.93 236.973 486.324 237.426 485.613 237.754C484.91 238.074 484.113 238.234 483.223 238.234C482.332 238.234 481.531 238.074 480.82 237.754C480.109 237.426 479.5 236.973 478.992 236.395C478.492 235.809 478.109 235.125 477.844 234.344C477.578 233.562 477.445 232.715 477.445 231.801ZM479.613 231.531V231.801C479.613 232.434 479.688 233.031 479.836 233.594C479.984 234.148 480.207 234.641 480.504 235.07C480.809 235.5 481.188 235.84 481.641 236.09C482.094 236.332 482.621 236.453 483.223 236.453C483.816 236.453 484.336 236.332 484.781 236.09C485.234 235.84 485.609 235.5 485.906 235.07C486.203 234.641 486.426 234.148 486.574 233.594C486.73 233.031 486.809 232.434 486.809 231.801V231.531C486.809 230.906 486.73 230.316 486.574 229.762C486.426 229.199 486.199 228.703 485.895 228.273C485.598 227.836 485.223 227.492 484.77 227.242C484.324 226.992 483.801 226.867 483.199 226.867C482.605 226.867 482.082 226.992 481.629 227.242C481.184 227.492 480.809 227.836 480.504 228.273C480.207 228.703 479.984 229.199 479.836 229.762C479.688 230.316 479.613 230.906 479.613 231.531ZM499.465 235.07V225.32H501.645V238H499.57L499.465 235.07ZM499.875 232.398L500.777 232.375C500.777 233.219 500.688 234 500.508 234.719C500.336 235.43 500.055 236.047 499.664 236.57C499.273 237.094 498.762 237.504 498.129 237.801C497.496 238.09 496.727 238.234 495.82 238.234C495.203 238.234 494.637 238.145 494.121 237.965C493.613 237.785 493.176 237.508 492.809 237.133C492.441 236.758 492.156 236.27 491.953 235.668C491.758 235.066 491.66 234.344 491.66 233.5V225.32H493.828V233.523C493.828 234.094 493.891 234.566 494.016 234.941C494.148 235.309 494.324 235.602 494.543 235.82C494.77 236.031 495.02 236.18 495.293 236.266C495.574 236.352 495.863 236.395 496.16 236.395C497.082 236.395 497.812 236.219 498.352 235.867C498.891 235.508 499.277 235.027 499.512 234.426C499.754 233.816 499.875 233.141 499.875 232.398ZM507.117 227.312V238H504.949V225.32H507.059L507.117 227.312ZM511.078 225.25L511.066 227.266C510.887 227.227 510.715 227.203 510.551 227.195C510.395 227.18 510.215 227.172 510.012 227.172C509.512 227.172 509.07 227.25 508.688 227.406C508.305 227.562 507.98 227.781 507.715 228.062C507.449 228.344 507.238 228.68 507.082 229.07C506.934 229.453 506.836 229.875 506.789 230.336L506.18 230.688C506.18 229.922 506.254 229.203 506.402 228.531C506.559 227.859 506.797 227.266 507.117 226.75C507.438 226.227 507.844 225.82 508.336 225.531C508.836 225.234 509.43 225.086 510.117 225.086C510.273 225.086 510.453 225.105 510.656 225.145C510.859 225.176 511 225.211 511.078 225.25ZM105.82 264.027V274H103.652V261.32H105.703L105.82 264.027ZM105.305 267.18L104.402 267.145C104.41 266.277 104.539 265.477 104.789 264.742C105.039 264 105.391 263.355 105.844 262.809C106.297 262.262 106.836 261.84 107.461 261.543C108.094 261.238 108.793 261.086 109.559 261.086C110.184 261.086 110.746 261.172 111.246 261.344C111.746 261.508 112.172 261.773 112.523 262.141C112.883 262.508 113.156 262.984 113.344 263.57C113.531 264.148 113.625 264.855 113.625 265.691V274H111.445V265.668C111.445 265.004 111.348 264.473 111.152 264.074C110.957 263.668 110.672 263.375 110.297 263.195C109.922 263.008 109.461 262.914 108.914 262.914C108.375 262.914 107.883 263.027 107.438 263.254C107 263.48 106.621 263.793 106.301 264.191C105.988 264.59 105.742 265.047 105.562 265.562C105.391 266.07 105.305 266.609 105.305 267.18ZM116.344 267.801V267.531C116.344 266.617 116.477 265.77 116.742 264.988C117.008 264.199 117.391 263.516 117.891 262.938C118.391 262.352 118.996 261.898 119.707 261.578C120.418 261.25 121.215 261.086 122.098 261.086C122.988 261.086 123.789 261.25 124.5 261.578C125.219 261.898 125.828 262.352 126.328 262.938C126.836 263.516 127.223 264.199 127.488 264.988C127.754 265.77 127.887 266.617 127.887 267.531V267.801C127.887 268.715 127.754 269.562 127.488 270.344C127.223 271.125 126.836 271.809 126.328 272.395C125.828 272.973 125.223 273.426 124.512 273.754C123.809 274.074 123.012 274.234 122.121 274.234C121.23 274.234 120.43 274.074 119.719 273.754C119.008 273.426 118.398 272.973 117.891 272.395C117.391 271.809 117.008 271.125 116.742 270.344C116.477 269.562 116.344 268.715 116.344 267.801ZM118.512 267.531V267.801C118.512 268.434 118.586 269.031 118.734 269.594C118.883 270.148 119.105 270.641 119.402 271.07C119.707 271.5 120.086 271.84 120.539 272.09C120.992 272.332 121.52 272.453 122.121 272.453C122.715 272.453 123.234 272.332 123.68 272.09C124.133 271.84 124.508 271.5 124.805 271.07C125.102 270.641 125.324 270.148 125.473 269.594C125.629 269.031 125.707 268.434 125.707 267.801V267.531C125.707 266.906 125.629 266.316 125.473 265.762C125.324 265.199 125.098 264.703 124.793 264.273C124.496 263.836 124.121 263.492 123.668 263.242C123.223 262.992 122.699 262.867 122.098 262.867C121.504 262.867 120.98 262.992 120.527 263.242C120.082 263.492 119.707 263.836 119.402 264.273C119.105 264.703 118.883 265.199 118.734 265.762C118.586 266.316 118.512 266.906 118.512 267.531ZM135.914 261.32V262.984H129.059V261.32H135.914ZM131.379 258.238H133.547V270.859C133.547 271.289 133.613 271.613 133.746 271.832C133.879 272.051 134.051 272.195 134.262 272.266C134.473 272.336 134.699 272.371 134.941 272.371C135.121 272.371 135.309 272.355 135.504 272.324C135.707 272.285 135.859 272.254 135.961 272.23L135.973 274C135.801 274.055 135.574 274.105 135.293 274.152C135.02 274.207 134.688 274.234 134.297 274.234C133.766 274.234 133.277 274.129 132.832 273.918C132.387 273.707 132.031 273.355 131.766 272.863C131.508 272.363 131.379 271.691 131.379 270.848V258.238ZM143.719 274.234C142.836 274.234 142.035 274.086 141.316 273.789C140.605 273.484 139.992 273.059 139.477 272.512C138.969 271.965 138.578 271.316 138.305 270.566C138.031 269.816 137.895 268.996 137.895 268.105V267.613C137.895 266.582 138.047 265.664 138.352 264.859C138.656 264.047 139.07 263.359 139.594 262.797C140.117 262.234 140.711 261.809 141.375 261.52C142.039 261.23 142.727 261.086 143.438 261.086C144.344 261.086 145.125 261.242 145.781 261.555C146.445 261.867 146.988 262.305 147.41 262.867C147.832 263.422 148.145 264.078 148.348 264.836C148.551 265.586 148.652 266.406 148.652 267.297V268.27H139.184V266.5H146.484V266.336C146.453 265.773 146.336 265.227 146.133 264.695C145.938 264.164 145.625 263.727 145.195 263.383C144.766 263.039 144.18 262.867 143.438 262.867C142.945 262.867 142.492 262.973 142.078 263.184C141.664 263.387 141.309 263.691 141.012 264.098C140.715 264.504 140.484 265 140.32 265.586C140.156 266.172 140.074 266.848 140.074 267.613V268.105C140.074 268.707 140.156 269.273 140.32 269.805C140.492 270.328 140.738 270.789 141.059 271.188C141.387 271.586 141.781 271.898 142.242 272.125C142.711 272.352 143.242 272.465 143.836 272.465C144.602 272.465 145.25 272.309 145.781 271.996C146.312 271.684 146.777 271.266 147.176 270.742L148.488 271.785C148.215 272.199 147.867 272.594 147.445 272.969C147.023 273.344 146.504 273.648 145.887 273.883C145.277 274.117 144.555 274.234 143.719 274.234ZM158.566 270.637C158.566 270.324 158.496 270.035 158.355 269.77C158.223 269.496 157.945 269.25 157.523 269.031C157.109 268.805 156.484 268.609 155.648 268.445C154.945 268.297 154.309 268.121 153.738 267.918C153.176 267.715 152.695 267.469 152.297 267.18C151.906 266.891 151.605 266.551 151.395 266.16C151.184 265.77 151.078 265.312 151.078 264.789C151.078 264.289 151.188 263.816 151.406 263.371C151.633 262.926 151.949 262.531 152.355 262.188C152.77 261.844 153.266 261.574 153.844 261.379C154.422 261.184 155.066 261.086 155.777 261.086C156.793 261.086 157.66 261.266 158.379 261.625C159.098 261.984 159.648 262.465 160.031 263.066C160.414 263.66 160.605 264.32 160.605 265.047H158.438C158.438 264.695 158.332 264.355 158.121 264.027C157.918 263.691 157.617 263.414 157.219 263.195C156.828 262.977 156.348 262.867 155.777 262.867C155.176 262.867 154.688 262.961 154.312 263.148C153.945 263.328 153.676 263.559 153.504 263.84C153.34 264.121 153.258 264.418 153.258 264.73C153.258 264.965 153.297 265.176 153.375 265.363C153.461 265.543 153.609 265.711 153.82 265.867C154.031 266.016 154.328 266.156 154.711 266.289C155.094 266.422 155.582 266.555 156.176 266.688C157.215 266.922 158.07 267.203 158.742 267.531C159.414 267.859 159.914 268.262 160.242 268.738C160.57 269.215 160.734 269.793 160.734 270.473C160.734 271.027 160.617 271.535 160.383 271.996C160.156 272.457 159.824 272.855 159.387 273.191C158.957 273.52 158.441 273.777 157.84 273.965C157.246 274.145 156.578 274.234 155.836 274.234C154.719 274.234 153.773 274.035 153 273.637C152.227 273.238 151.641 272.723 151.242 272.09C150.844 271.457 150.645 270.789 150.645 270.086H152.824C152.855 270.68 153.027 271.152 153.34 271.504C153.652 271.848 154.035 272.094 154.488 272.242C154.941 272.383 155.391 272.453 155.836 272.453C156.43 272.453 156.926 272.375 157.324 272.219C157.73 272.062 158.039 271.848 158.25 271.574C158.461 271.301 158.566 270.988 158.566 270.637ZM177.012 271.832V265.305C177.012 264.805 176.91 264.371 176.707 264.004C176.512 263.629 176.215 263.34 175.816 263.137C175.418 262.934 174.926 262.832 174.34 262.832C173.793 262.832 173.312 262.926 172.898 263.113C172.492 263.301 172.172 263.547 171.938 263.852C171.711 264.156 171.598 264.484 171.598 264.836H169.43C169.43 264.383 169.547 263.934 169.781 263.488C170.016 263.043 170.352 262.641 170.789 262.281C171.234 261.914 171.766 261.625 172.383 261.414C173.008 261.195 173.703 261.086 174.469 261.086C175.391 261.086 176.203 261.242 176.906 261.555C177.617 261.867 178.172 262.34 178.57 262.973C178.977 263.598 179.18 264.383 179.18 265.328V271.234C179.18 271.656 179.215 272.105 179.285 272.582C179.363 273.059 179.477 273.469 179.625 273.812V274H177.363C177.254 273.75 177.168 273.418 177.105 273.004C177.043 272.582 177.012 272.191 177.012 271.832ZM177.387 266.312L177.41 267.836H175.219C174.602 267.836 174.051 267.887 173.566 267.988C173.082 268.082 172.676 268.227 172.348 268.422C172.02 268.617 171.77 268.863 171.598 269.16C171.426 269.449 171.34 269.789 171.34 270.18C171.34 270.578 171.43 270.941 171.609 271.27C171.789 271.598 172.059 271.859 172.418 272.055C172.785 272.242 173.234 272.336 173.766 272.336C174.43 272.336 175.016 272.195 175.523 271.914C176.031 271.633 176.434 271.289 176.73 270.883C177.035 270.477 177.199 270.082 177.223 269.699L178.148 270.742C178.094 271.07 177.945 271.434 177.703 271.832C177.461 272.23 177.137 272.613 176.73 272.98C176.332 273.34 175.855 273.641 175.301 273.883C174.754 274.117 174.137 274.234 173.449 274.234C172.59 274.234 171.836 274.066 171.188 273.73C170.547 273.395 170.047 272.945 169.688 272.383C169.336 271.812 169.16 271.176 169.16 270.473C169.16 269.793 169.293 269.195 169.559 268.68C169.824 268.156 170.207 267.723 170.707 267.379C171.207 267.027 171.809 266.762 172.512 266.582C173.215 266.402 174 266.312 174.867 266.312H177.387ZM184.758 263.758V278.875H182.578V261.32H184.57L184.758 263.758ZM193.301 267.555V267.801C193.301 268.723 193.191 269.578 192.973 270.367C192.754 271.148 192.434 271.828 192.012 272.406C191.598 272.984 191.086 273.434 190.477 273.754C189.867 274.074 189.168 274.234 188.379 274.234C187.574 274.234 186.863 274.102 186.246 273.836C185.629 273.57 185.105 273.184 184.676 272.676C184.246 272.168 183.902 271.559 183.645 270.848C183.395 270.137 183.223 269.336 183.129 268.445V267.133C183.223 266.195 183.398 265.355 183.656 264.613C183.914 263.871 184.254 263.238 184.676 262.715C185.105 262.184 185.625 261.781 186.234 261.508C186.844 261.227 187.547 261.086 188.344 261.086C189.141 261.086 189.848 261.242 190.465 261.555C191.082 261.859 191.602 262.297 192.023 262.867C192.445 263.438 192.762 264.121 192.973 264.918C193.191 265.707 193.301 266.586 193.301 267.555ZM191.121 267.801V267.555C191.121 266.922 191.055 266.328 190.922 265.773C190.789 265.211 190.582 264.719 190.301 264.297C190.027 263.867 189.676 263.531 189.246 263.289C188.816 263.039 188.305 262.914 187.711 262.914C187.164 262.914 186.688 263.008 186.281 263.195C185.883 263.383 185.543 263.637 185.262 263.957C184.98 264.27 184.75 264.629 184.57 265.035C184.398 265.434 184.27 265.848 184.184 266.277V269.312C184.34 269.859 184.559 270.375 184.84 270.859C185.121 271.336 185.496 271.723 185.965 272.02C186.434 272.309 187.023 272.453 187.734 272.453C188.32 272.453 188.824 272.332 189.246 272.09C189.676 271.84 190.027 271.5 190.301 271.07C190.582 270.641 190.789 270.148 190.922 269.594C191.055 269.031 191.121 268.434 191.121 267.801ZM198.234 263.758V278.875H196.055V261.32H198.047L198.234 263.758ZM206.777 267.555V267.801C206.777 268.723 206.668 269.578 206.449 270.367C206.23 271.148 205.91 271.828 205.488 272.406C205.074 272.984 204.562 273.434 203.953 273.754C203.344 274.074 202.645 274.234 201.855 274.234C201.051 274.234 200.34 274.102 199.723 273.836C199.105 273.57 198.582 273.184 198.152 272.676C197.723 272.168 197.379 271.559 197.121 270.848C196.871 270.137 196.699 269.336 196.605 268.445V267.133C196.699 266.195 196.875 265.355 197.133 264.613C197.391 263.871 197.73 263.238 198.152 262.715C198.582 262.184 199.102 261.781 199.711 261.508C200.32 261.227 201.023 261.086 201.82 261.086C202.617 261.086 203.324 261.242 203.941 261.555C204.559 261.859 205.078 262.297 205.5 262.867C205.922 263.438 206.238 264.121 206.449 264.918C206.668 265.707 206.777 266.586 206.777 267.555ZM204.598 267.801V267.555C204.598 266.922 204.531 266.328 204.398 265.773C204.266 265.211 204.059 264.719 203.777 264.297C203.504 263.867 203.152 263.531 202.723 263.289C202.293 263.039 201.781 262.914 201.188 262.914C200.641 262.914 200.164 263.008 199.758 263.195C199.359 263.383 199.02 263.637 198.738 263.957C198.457 264.27 198.227 264.629 198.047 265.035C197.875 265.434 197.746 265.848 197.66 266.277V269.312C197.816 269.859 198.035 270.375 198.316 270.859C198.598 271.336 198.973 271.723 199.441 272.02C199.91 272.309 200.5 272.453 201.211 272.453C201.797 272.453 202.301 272.332 202.723 272.09C203.152 271.84 203.504 271.5 203.777 271.07C204.059 270.641 204.266 270.148 204.398 269.594C204.531 269.031 204.598 268.434 204.598 267.801ZM209.578 272.852C209.578 272.484 209.691 272.176 209.918 271.926C210.152 271.668 210.488 271.539 210.926 271.539C211.363 271.539 211.695 271.668 211.922 271.926C212.156 272.176 212.273 272.484 212.273 272.852C212.273 273.211 212.156 273.516 211.922 273.766C211.695 274.016 211.363 274.141 210.926 274.141C210.488 274.141 210.152 274.016 209.918 273.766C209.691 273.516 209.578 273.211 209.578 272.852Z" fill="#676B89"/>
<path d="M278.074 230.395H273.715L273.691 228.121H277.43C278.07 228.121 278.605 228.031 279.035 227.852C279.465 227.672 279.789 227.41 280.008 227.066C280.234 226.723 280.348 226.305 280.348 225.812C280.348 225.266 280.242 224.82 280.031 224.477C279.828 224.133 279.508 223.883 279.07 223.727C278.633 223.562 278.078 223.48 277.406 223.48H274.758V238H271.535V220.938H277.406C278.375 220.938 279.238 221.031 279.996 221.219C280.762 221.398 281.41 221.68 281.941 222.062C282.473 222.445 282.875 222.926 283.148 223.504C283.43 224.082 283.57 224.77 283.57 225.566C283.57 226.27 283.406 226.918 283.078 227.512C282.758 228.098 282.262 228.574 281.59 228.941C280.926 229.309 280.082 229.52 279.059 229.574L278.074 230.395ZM277.934 238H272.766L274.113 235.469H277.934C278.574 235.469 279.102 235.363 279.516 235.152C279.938 234.941 280.25 234.652 280.453 234.285C280.664 233.91 280.77 233.48 280.77 232.996C280.77 232.465 280.676 232.004 280.488 231.613C280.309 231.223 280.02 230.922 279.621 230.711C279.23 230.5 278.715 230.395 278.074 230.395H274.723L274.746 228.121H279.012L279.75 229C280.734 229.008 281.535 229.203 282.152 229.586C282.777 229.969 283.238 230.461 283.535 231.062C283.832 231.664 283.98 232.312 283.98 233.008C283.98 234.102 283.742 235.02 283.266 235.762C282.797 236.504 282.109 237.062 281.203 237.438C280.305 237.812 279.215 238 277.934 238ZM293.52 235.305V229.457C293.52 229.027 293.445 228.656 293.297 228.344C293.148 228.031 292.922 227.789 292.617 227.617C292.312 227.445 291.926 227.359 291.457 227.359C291.043 227.359 290.68 227.43 290.367 227.57C290.062 227.711 289.828 227.91 289.664 228.168C289.5 228.418 289.418 228.707 289.418 229.035H286.312C286.312 228.512 286.438 228.016 286.688 227.547C286.938 227.07 287.293 226.648 287.754 226.281C288.223 225.906 288.781 225.613 289.43 225.402C290.086 225.191 290.82 225.086 291.633 225.086C292.594 225.086 293.449 225.25 294.199 225.578C294.957 225.898 295.551 226.383 295.98 227.031C296.418 227.68 296.637 228.496 296.637 229.48V235.012C296.637 235.645 296.676 236.188 296.754 236.641C296.84 237.086 296.965 237.473 297.129 237.801V238H293.977C293.828 237.68 293.715 237.273 293.637 236.781C293.559 236.281 293.52 235.789 293.52 235.305ZM293.953 230.277L293.977 232.117H292.02C291.535 232.117 291.109 232.168 290.742 232.27C290.375 232.363 290.074 232.504 289.84 232.691C289.605 232.871 289.43 233.09 289.312 233.348C289.195 233.598 289.137 233.883 289.137 234.203C289.137 234.516 289.207 234.797 289.348 235.047C289.496 235.297 289.707 235.496 289.98 235.645C290.262 235.785 290.59 235.855 290.965 235.855C291.512 235.855 291.988 235.746 292.395 235.527C292.801 235.301 293.117 235.027 293.344 234.707C293.57 234.387 293.691 234.082 293.707 233.793L294.598 235.129C294.488 235.449 294.324 235.789 294.105 236.148C293.887 236.508 293.605 236.844 293.262 237.156C292.918 237.469 292.504 237.727 292.02 237.93C291.535 238.133 290.973 238.234 290.332 238.234C289.512 238.234 288.777 238.07 288.129 237.742C287.48 237.414 286.969 236.965 286.594 236.395C286.219 235.824 286.031 235.176 286.031 234.449C286.031 233.777 286.156 233.184 286.406 232.668C286.656 232.152 287.027 231.719 287.52 231.367C288.012 231.008 288.621 230.738 289.348 230.559C290.082 230.371 290.922 230.277 291.867 230.277H293.953ZM302.461 228.027V238H299.367V225.32H302.273L302.461 228.027ZM301.969 231.203H301.055C301.062 230.281 301.188 229.445 301.43 228.695C301.672 227.945 302.012 227.301 302.449 226.762C302.895 226.223 303.422 225.809 304.031 225.52C304.641 225.23 305.32 225.086 306.07 225.086C306.68 225.086 307.23 225.172 307.723 225.344C308.215 225.516 308.637 225.789 308.988 226.164C309.348 226.539 309.621 227.031 309.809 227.641C310.004 228.242 310.102 228.984 310.102 229.867V238H306.984V229.844C306.984 229.266 306.898 228.809 306.727 228.473C306.562 228.137 306.32 227.898 306 227.758C305.688 227.617 305.301 227.547 304.84 227.547C304.363 227.547 303.945 227.645 303.586 227.84C303.234 228.027 302.938 228.289 302.695 228.625C302.461 228.961 302.281 229.348 302.156 229.785C302.031 230.223 301.969 230.695 301.969 231.203ZM315.926 219.988V238H312.832V219.988H315.926ZM323.871 225.32L318.352 231.52L315.363 234.555L314.379 232.152L316.688 229.246L320.133 225.32H323.871ZM320.707 238L316.781 232.094L318.844 230.09L324.293 238H320.707ZM339.094 235.305V220H342.211V238H339.398L339.094 235.305ZM330.949 231.812V231.566C330.949 230.598 331.059 229.719 331.277 228.93C331.504 228.133 331.832 227.449 332.262 226.879C332.691 226.309 333.211 225.867 333.82 225.555C334.438 225.242 335.137 225.086 335.918 225.086C336.676 225.086 337.336 225.238 337.898 225.543C338.469 225.848 338.953 226.281 339.352 226.844C339.758 227.406 340.082 228.074 340.324 228.848C340.566 229.613 340.742 230.457 340.852 231.379V232.047C340.742 232.945 340.566 233.77 340.324 234.52C340.082 235.27 339.758 235.926 339.352 236.488C338.953 237.043 338.469 237.473 337.898 237.777C337.328 238.082 336.66 238.234 335.895 238.234C335.121 238.234 334.426 238.074 333.809 237.754C333.199 237.434 332.68 236.984 332.25 236.406C331.828 235.828 331.504 235.148 331.277 234.367C331.059 233.586 330.949 232.734 330.949 231.812ZM334.055 231.566V231.812C334.055 232.359 334.102 232.871 334.195 233.348C334.289 233.824 334.441 234.246 334.652 234.613C334.863 234.973 335.133 235.254 335.461 235.457C335.797 235.66 336.203 235.762 336.68 235.762C337.289 235.762 337.789 235.629 338.18 235.363C338.578 235.09 338.887 234.719 339.105 234.25C339.324 233.773 339.465 233.238 339.527 232.645V230.805C339.496 230.336 339.414 229.902 339.281 229.504C339.156 229.105 338.977 228.762 338.742 228.473C338.516 228.184 338.234 227.957 337.898 227.793C337.562 227.629 337.164 227.547 336.703 227.547C336.227 227.547 335.82 227.652 335.484 227.863C335.148 228.066 334.875 228.352 334.664 228.719C334.453 229.086 334.297 229.512 334.195 229.996C334.102 230.48 334.055 231.004 334.055 231.566ZM350.707 238.234C349.746 238.234 348.883 238.078 348.117 237.766C347.352 237.453 346.699 237.02 346.16 236.465C345.629 235.902 345.219 235.25 344.93 234.508C344.648 233.758 344.508 232.953 344.508 232.094V231.625C344.508 230.648 344.648 229.762 344.93 228.965C345.211 228.16 345.609 227.469 346.125 226.891C346.641 226.312 347.258 225.867 347.977 225.555C348.695 225.242 349.488 225.086 350.355 225.086C351.254 225.086 352.047 225.238 352.734 225.543C353.422 225.84 353.996 226.262 354.457 226.809C354.918 227.355 355.266 228.012 355.5 228.777C355.734 229.535 355.852 230.375 355.852 231.297V232.598H345.914V230.465H352.805V230.23C352.789 229.738 352.695 229.289 352.523 228.883C352.352 228.469 352.086 228.141 351.727 227.898C351.367 227.648 350.902 227.523 350.332 227.523C349.871 227.523 349.469 227.625 349.125 227.828C348.789 228.023 348.508 228.305 348.281 228.672C348.062 229.031 347.898 229.461 347.789 229.961C347.68 230.461 347.625 231.016 347.625 231.625V232.094C347.625 232.625 347.695 233.117 347.836 233.57C347.984 234.023 348.199 234.418 348.48 234.754C348.77 235.082 349.113 235.34 349.512 235.527C349.918 235.707 350.379 235.797 350.895 235.797C351.543 235.797 352.129 235.672 352.652 235.422C353.184 235.164 353.645 234.785 354.035 234.285L355.594 235.902C355.328 236.293 354.969 236.668 354.516 237.027C354.07 237.387 353.531 237.68 352.898 237.906C352.266 238.125 351.535 238.234 350.707 238.234ZM363.926 225.32V227.547H356.66V225.32H363.926ZM358.605 222.203H361.711V234.344C361.711 234.719 361.762 235.008 361.863 235.211C361.965 235.414 362.117 235.551 362.32 235.621C362.523 235.691 362.766 235.727 363.047 235.727C363.25 235.727 363.438 235.715 363.609 235.691C363.781 235.668 363.926 235.645 364.043 235.621L364.055 237.941C363.797 238.027 363.504 238.098 363.176 238.152C362.855 238.207 362.492 238.234 362.086 238.234C361.391 238.234 360.781 238.117 360.258 237.883C359.734 237.641 359.328 237.254 359.039 236.723C358.75 236.184 358.605 235.473 358.605 234.59V222.203ZM372.973 235.305V229.457C372.973 229.027 372.898 228.656 372.75 228.344C372.602 228.031 372.375 227.789 372.07 227.617C371.766 227.445 371.379 227.359 370.91 227.359C370.496 227.359 370.133 227.43 369.82 227.57C369.516 227.711 369.281 227.91 369.117 228.168C368.953 228.418 368.871 228.707 368.871 229.035H365.766C365.766 228.512 365.891 228.016 366.141 227.547C366.391 227.07 366.746 226.648 367.207 226.281C367.676 225.906 368.234 225.613 368.883 225.402C369.539 225.191 370.273 225.086 371.086 225.086C372.047 225.086 372.902 225.25 373.652 225.578C374.41 225.898 375.004 226.383 375.434 227.031C375.871 227.68 376.09 228.496 376.09 229.48V235.012C376.09 235.645 376.129 236.188 376.207 236.641C376.293 237.086 376.418 237.473 376.582 237.801V238H373.43C373.281 237.68 373.168 237.273 373.09 236.781C373.012 236.281 372.973 235.789 372.973 235.305ZM373.406 230.277L373.43 232.117H371.473C370.988 232.117 370.562 232.168 370.195 232.27C369.828 232.363 369.527 232.504 369.293 232.691C369.059 232.871 368.883 233.09 368.766 233.348C368.648 233.598 368.59 233.883 368.59 234.203C368.59 234.516 368.66 234.797 368.801 235.047C368.949 235.297 369.16 235.496 369.434 235.645C369.715 235.785 370.043 235.855 370.418 235.855C370.965 235.855 371.441 235.746 371.848 235.527C372.254 235.301 372.57 235.027 372.797 234.707C373.023 234.387 373.145 234.082 373.16 233.793L374.051 235.129C373.941 235.449 373.777 235.789 373.559 236.148C373.34 236.508 373.059 236.844 372.715 237.156C372.371 237.469 371.957 237.727 371.473 237.93C370.988 238.133 370.426 238.234 369.785 238.234C368.965 238.234 368.23 238.07 367.582 237.742C366.934 237.414 366.422 236.965 366.047 236.395C365.672 235.824 365.484 235.176 365.484 234.449C365.484 233.777 365.609 233.184 365.859 232.668C366.109 232.152 366.48 231.719 366.973 231.367C367.465 231.008 368.074 230.738 368.801 230.559C369.535 230.371 370.375 230.277 371.32 230.277H373.406ZM382.16 225.32V238H379.055V225.32H382.16ZM378.844 222.004C378.844 221.543 379 221.16 379.312 220.855C379.633 220.551 380.062 220.398 380.602 220.398C381.141 220.398 381.566 220.551 381.879 220.855C382.199 221.16 382.359 221.543 382.359 222.004C382.359 222.457 382.199 222.836 381.879 223.141C381.566 223.445 381.141 223.598 380.602 223.598C380.062 223.598 379.633 223.445 379.312 223.141C379 222.836 378.844 222.457 378.844 222.004ZM388.395 220V238H385.289V220H388.395ZM398.32 234.531C398.32 234.266 398.25 234.027 398.109 233.816C397.969 233.605 397.703 233.414 397.312 233.242C396.93 233.062 396.367 232.895 395.625 232.738C394.969 232.598 394.363 232.422 393.809 232.211C393.254 232 392.777 231.746 392.379 231.449C391.98 231.145 391.668 230.789 391.441 230.383C391.223 229.969 391.113 229.492 391.113 228.953C391.113 228.43 391.227 227.938 391.453 227.477C391.68 227.008 392.008 226.598 392.438 226.246C392.867 225.887 393.391 225.605 394.008 225.402C394.625 225.191 395.32 225.086 396.094 225.086C397.172 225.086 398.098 225.262 398.871 225.613C399.652 225.965 400.25 226.449 400.664 227.066C401.078 227.676 401.285 228.363 401.285 229.129H398.191C398.191 228.793 398.113 228.488 397.957 228.215C397.809 227.941 397.578 227.723 397.266 227.559C396.953 227.387 396.559 227.301 396.082 227.301C395.652 227.301 395.289 227.371 394.992 227.512C394.703 227.652 394.484 227.836 394.336 228.062C394.188 228.289 394.113 228.539 394.113 228.812C394.113 229.016 394.152 229.199 394.23 229.363C394.316 229.52 394.453 229.664 394.641 229.797C394.828 229.93 395.082 230.051 395.402 230.16C395.73 230.27 396.133 230.375 396.609 230.477C397.555 230.664 398.379 230.914 399.082 231.227C399.793 231.531 400.348 231.938 400.746 232.445C401.145 232.953 401.344 233.602 401.344 234.391C401.344 234.953 401.223 235.469 400.98 235.938C400.738 236.398 400.387 236.801 399.926 237.145C399.465 237.488 398.914 237.758 398.273 237.953C397.633 238.141 396.91 238.234 396.105 238.234C394.941 238.234 393.957 238.027 393.152 237.613C392.348 237.191 391.738 236.66 391.324 236.02C390.91 235.371 390.703 234.699 390.703 234.004H393.668C393.691 234.496 393.824 234.891 394.066 235.188C394.309 235.484 394.613 235.699 394.98 235.832C395.355 235.957 395.75 236.02 396.164 236.02C396.633 236.02 397.027 235.957 397.348 235.832C397.668 235.699 397.91 235.523 398.074 235.305C398.238 235.078 398.32 234.82 398.32 234.531Z" fill="#20294C"/>
<rect width="588" height="150" fill="url(#paint1_linear_1_24531)"/>
</g>
<defs>
<filter id="filter0_dd_1_24531" x="91" y="-5" width="460" height="200" filterUnits="userSpaceOnUse" color-interpolation-filters="sRGB">
<feFlood flood-opacity="0" result="BackgroundImageFix"/>
<feColorMatrix in="SourceAlpha" type="matrix" values="0 0 0 0 0 0 0 0 0 0 0 0 0 0 0 0 0 0 127 0" result="hardAlpha"/>
<feOffset dy="4"/>
<feGaussianBlur stdDeviation="5.5"/>
<feComposite in2="hardAlpha" operator="out"/>
<feColorMatrix type="matrix" values="0 0 0 0 0.12549 0 0 0 0 0.160784 0 0 0 0 0.298039 0 0 0 0.07 0"/>
<feBlend mode="normal" in2="BackgroundImageFix" result="effect1_dropShadow_1_24531"/>
<feColorMatrix in="SourceAlpha" type="matrix" values="0 0 0 0 0 0 0 0 0 0 0 0 0 0 0 0 0 0 127 0" result="hardAlpha"/>
<feOffset dy="1"/>
<feGaussianBlur stdDeviation="1.5"/>
<feComposite in2="hardAlpha" operator="out"/>
<feColorMatrix type="matrix" values="0 0 0 0 0.12549 0 0 0 0 0.160784 0 0 0 0 0.298039 0 0 0 0.12 0"/>
<feBlend mode="normal" in2="effect1_dropShadow_1_24531" result="effect2_dropShadow_1_24531"/>
<feBlend mode="normal" in="SourceGraphic" in2="effect2_dropShadow_1_24531" result="shape"/>
</filter>
<linearGradient id="paint0_linear_1_24531" x1="78.5" y1="284" x2="78.5" y2="48" gradientUnits="userSpaceOnUse">
<stop stop-color="#C7CBDB"/>
<stop offset="1" stop-color="#C7CBDB" stop-opacity="0"/>
</linearGradient>
<linearGradient id="paint1_linear_1_24531" x1="294" y1="0" x2="294" y2="150" gradientUnits="userSpaceOnUse">
<stop stop-color="#F0F1F5"/>
<stop offset="1" stop-color="#F0F1F5" stop-opacity="0"/>
</linearGradient>
<clipPath id="clip0_1_24531">
<rect width="588" height="332" rx="20" fill="white"/>
</clipPath>
<clipPath id="clip1_1_24531">
<rect width="16" height="16" fill="white" transform="translate(390 67)"/>
</clipPath>
<clipPath id="clip2_1_24531">
<rect width="16" height="16" fill="white" transform="translate(390 144)"/>
</clipPath>
</defs>
</svg>
