<svg width="588" height="331" viewBox="0 0 588 331" fill="none" xmlns="http://www.w3.org/2000/svg">
<g clip-path="url(#clip0_1_24556)">
<rect width="588" height="330.22" rx="20" fill="#F0F1F5"/>
<rect x="78" y="48" width="1" height="234.22" fill="url(#paint0_linear_1_24556)"/>
<g filter="url(#filter0_dd_1_24556)">
<rect x="102" y="116.21" width="438" height="62" rx="8" fill="white" shape-rendering="crispEdges"/>
<path d="M136.684 151.677V153.21H129.154V151.677H136.684ZM129.535 138.991V153.21H127.65V138.991H129.535ZM135.688 145.104V146.638H129.154V145.104H135.688ZM136.586 138.991V140.534H129.154V138.991H136.586ZM138.773 152.253C138.773 151.947 138.868 151.69 139.057 151.481C139.252 151.267 139.532 151.159 139.896 151.159C140.261 151.159 140.538 151.267 140.727 151.481C140.922 151.69 141.02 151.947 141.02 152.253C141.02 152.552 140.922 152.806 140.727 153.015C140.538 153.223 140.261 153.327 139.896 153.327C139.532 153.327 139.252 153.223 139.057 153.015C138.868 152.806 138.773 152.552 138.773 152.253ZM150.863 142.644H152.504V152.985C152.504 153.916 152.315 154.711 151.938 155.368C151.56 156.026 151.033 156.524 150.355 156.862C149.685 157.207 148.91 157.38 148.031 157.38C147.667 157.38 147.237 157.321 146.742 157.204C146.254 157.093 145.772 156.901 145.297 156.628C144.828 156.361 144.434 156 144.115 155.544L145.062 154.47C145.505 155.004 145.967 155.375 146.449 155.583C146.938 155.791 147.419 155.896 147.895 155.896C148.467 155.896 148.962 155.788 149.379 155.573C149.796 155.358 150.118 155.039 150.346 154.616C150.58 154.2 150.697 153.685 150.697 153.073V144.968L150.863 142.644ZM143.588 148.044V147.839C143.588 147.032 143.682 146.299 143.871 145.642C144.066 144.978 144.343 144.408 144.701 143.933C145.066 143.457 145.505 143.093 146.02 142.839C146.534 142.578 147.113 142.448 147.758 142.448C148.422 142.448 149.001 142.565 149.496 142.8C149.997 143.028 150.421 143.363 150.766 143.806C151.117 144.242 151.394 144.769 151.596 145.388C151.798 146.006 151.938 146.706 152.016 147.487V148.386C151.944 149.16 151.804 149.857 151.596 150.476C151.394 151.094 151.117 151.621 150.766 152.058C150.421 152.494 149.997 152.829 149.496 153.063C148.995 153.291 148.409 153.405 147.738 153.405C147.107 153.405 146.534 153.272 146.02 153.005C145.512 152.738 145.076 152.364 144.711 151.882C144.346 151.4 144.066 150.834 143.871 150.183C143.682 149.525 143.588 148.812 143.588 148.044ZM145.395 147.839V148.044C145.395 148.571 145.447 149.066 145.551 149.528C145.661 149.991 145.827 150.397 146.049 150.749C146.277 151.101 146.566 151.377 146.918 151.579C147.27 151.774 147.689 151.872 148.178 151.872C148.777 151.872 149.271 151.745 149.662 151.491C150.053 151.237 150.362 150.902 150.59 150.485C150.824 150.069 151.007 149.616 151.137 149.128V146.774C151.065 146.416 150.954 146.071 150.805 145.739C150.661 145.401 150.473 145.101 150.238 144.841C150.01 144.574 149.727 144.362 149.389 144.206C149.05 144.05 148.653 143.972 148.197 143.972C147.702 143.972 147.276 144.076 146.918 144.284C146.566 144.486 146.277 144.766 146.049 145.124C145.827 145.476 145.661 145.886 145.551 146.354C145.447 146.817 145.395 147.312 145.395 147.839ZM155.277 152.253C155.277 151.947 155.372 151.69 155.561 151.481C155.756 151.267 156.036 151.159 156.4 151.159C156.765 151.159 157.042 151.267 157.23 151.481C157.426 151.69 157.523 151.947 157.523 152.253C157.523 152.552 157.426 152.806 157.23 153.015C157.042 153.223 156.765 153.327 156.4 153.327C156.036 153.327 155.756 153.223 155.561 153.015C155.372 152.806 155.277 152.552 155.277 152.253ZM171.635 150.407C171.635 150.147 171.576 149.906 171.459 149.685C171.348 149.457 171.117 149.252 170.766 149.069C170.421 148.881 169.9 148.718 169.203 148.581C168.617 148.457 168.087 148.311 167.611 148.142C167.143 147.972 166.742 147.767 166.41 147.526C166.085 147.285 165.834 147.002 165.658 146.677C165.482 146.351 165.395 145.97 165.395 145.534C165.395 145.118 165.486 144.724 165.668 144.353C165.857 143.981 166.12 143.653 166.459 143.366C166.804 143.08 167.217 142.855 167.699 142.692C168.181 142.53 168.718 142.448 169.311 142.448C170.157 142.448 170.88 142.598 171.479 142.897C172.077 143.197 172.536 143.597 172.855 144.099C173.174 144.593 173.334 145.144 173.334 145.749H171.527C171.527 145.456 171.439 145.173 171.264 144.899C171.094 144.619 170.844 144.388 170.512 144.206C170.186 144.024 169.786 143.933 169.311 143.933C168.809 143.933 168.402 144.011 168.09 144.167C167.784 144.317 167.559 144.509 167.416 144.743C167.279 144.978 167.211 145.225 167.211 145.485C167.211 145.681 167.243 145.856 167.309 146.013C167.38 146.162 167.504 146.302 167.68 146.433C167.855 146.556 168.103 146.674 168.422 146.784C168.741 146.895 169.148 147.006 169.643 147.116C170.508 147.312 171.221 147.546 171.781 147.819C172.341 148.093 172.758 148.428 173.031 148.825C173.305 149.222 173.441 149.704 173.441 150.271C173.441 150.733 173.344 151.156 173.148 151.54C172.96 151.924 172.683 152.256 172.318 152.536C171.96 152.81 171.531 153.024 171.029 153.181C170.535 153.33 169.978 153.405 169.359 153.405C168.428 153.405 167.641 153.239 166.996 152.907C166.352 152.575 165.863 152.146 165.531 151.618C165.199 151.091 165.033 150.534 165.033 149.948H166.85C166.876 150.443 167.019 150.837 167.279 151.13C167.54 151.416 167.859 151.621 168.236 151.745C168.614 151.862 168.988 151.921 169.359 151.921C169.854 151.921 170.268 151.856 170.6 151.726C170.938 151.595 171.195 151.416 171.371 151.188C171.547 150.961 171.635 150.7 171.635 150.407ZM177.621 144.675V157.272H175.805V142.644H177.465L177.621 144.675ZM184.74 147.839V148.044C184.74 148.812 184.649 149.525 184.467 150.183C184.285 150.834 184.018 151.4 183.666 151.882C183.321 152.364 182.895 152.738 182.387 153.005C181.879 153.272 181.296 153.405 180.639 153.405C179.968 153.405 179.376 153.295 178.861 153.073C178.347 152.852 177.911 152.53 177.553 152.106C177.195 151.683 176.908 151.175 176.693 150.583C176.485 149.991 176.342 149.323 176.264 148.581V147.487C176.342 146.706 176.488 146.006 176.703 145.388C176.918 144.769 177.201 144.242 177.553 143.806C177.911 143.363 178.344 143.028 178.852 142.8C179.359 142.565 179.945 142.448 180.609 142.448C181.273 142.448 181.863 142.578 182.377 142.839C182.891 143.093 183.324 143.457 183.676 143.933C184.027 144.408 184.291 144.978 184.467 145.642C184.649 146.299 184.74 147.032 184.74 147.839ZM182.924 148.044V147.839C182.924 147.312 182.868 146.817 182.758 146.354C182.647 145.886 182.475 145.476 182.24 145.124C182.012 144.766 181.719 144.486 181.361 144.284C181.003 144.076 180.577 143.972 180.082 143.972C179.626 143.972 179.229 144.05 178.891 144.206C178.559 144.362 178.275 144.574 178.041 144.841C177.807 145.101 177.615 145.401 177.465 145.739C177.322 146.071 177.214 146.416 177.143 146.774V149.304C177.273 149.759 177.455 150.189 177.689 150.593C177.924 150.99 178.236 151.312 178.627 151.56C179.018 151.8 179.509 151.921 180.102 151.921C180.59 151.921 181.01 151.82 181.361 151.618C181.719 151.41 182.012 151.127 182.24 150.769C182.475 150.41 182.647 150 182.758 149.538C182.868 149.069 182.924 148.571 182.924 148.044ZM191.43 153.405C190.694 153.405 190.027 153.282 189.428 153.034C188.835 152.78 188.324 152.425 187.895 151.97C187.471 151.514 187.146 150.974 186.918 150.349C186.69 149.724 186.576 149.04 186.576 148.298V147.888C186.576 147.028 186.703 146.263 186.957 145.593C187.211 144.916 187.556 144.343 187.992 143.874C188.428 143.405 188.923 143.05 189.477 142.81C190.03 142.569 190.603 142.448 191.195 142.448C191.951 142.448 192.602 142.578 193.148 142.839C193.702 143.099 194.154 143.464 194.506 143.933C194.857 144.395 195.118 144.942 195.287 145.573C195.456 146.198 195.541 146.882 195.541 147.624V148.435H187.65V146.96H193.734V146.823C193.708 146.354 193.611 145.899 193.441 145.456C193.279 145.013 193.018 144.649 192.66 144.362C192.302 144.076 191.814 143.933 191.195 143.933C190.785 143.933 190.408 144.021 190.062 144.196C189.717 144.366 189.421 144.619 189.174 144.958C188.926 145.297 188.734 145.71 188.598 146.198C188.461 146.687 188.393 147.25 188.393 147.888V148.298C188.393 148.799 188.461 149.271 188.598 149.714C188.741 150.15 188.946 150.534 189.213 150.866C189.486 151.198 189.815 151.459 190.199 151.647C190.59 151.836 191.033 151.931 191.527 151.931C192.165 151.931 192.706 151.8 193.148 151.54C193.591 151.28 193.979 150.931 194.311 150.495L195.404 151.364C195.176 151.709 194.887 152.038 194.535 152.351C194.184 152.663 193.751 152.917 193.236 153.112C192.729 153.308 192.126 153.405 191.43 153.405ZM199.457 144.899V153.21H197.65V142.644H199.359L199.457 144.899ZM199.027 147.526L198.275 147.497C198.282 146.774 198.389 146.107 198.598 145.495C198.806 144.877 199.099 144.34 199.477 143.884C199.854 143.428 200.303 143.076 200.824 142.829C201.352 142.575 201.934 142.448 202.572 142.448C203.093 142.448 203.562 142.52 203.979 142.663C204.395 142.8 204.75 143.021 205.043 143.327C205.342 143.633 205.57 144.03 205.727 144.519C205.883 145 205.961 145.59 205.961 146.286V153.21H204.145V146.267C204.145 145.713 204.063 145.271 203.9 144.938C203.738 144.6 203.5 144.356 203.188 144.206C202.875 144.05 202.491 143.972 202.035 143.972C201.586 143.972 201.176 144.066 200.805 144.255C200.44 144.444 200.124 144.704 199.857 145.036C199.597 145.368 199.392 145.749 199.242 146.179C199.099 146.602 199.027 147.051 199.027 147.526ZM213.129 142.644V144.03H207.416V142.644H213.129ZM209.35 140.075H211.156V150.593C211.156 150.951 211.212 151.221 211.322 151.403C211.433 151.586 211.576 151.706 211.752 151.765C211.928 151.823 212.117 151.853 212.318 151.853C212.468 151.853 212.624 151.84 212.787 151.813C212.956 151.781 213.083 151.755 213.168 151.735L213.178 153.21C213.035 153.256 212.846 153.298 212.611 153.337C212.383 153.382 212.107 153.405 211.781 153.405C211.339 153.405 210.932 153.317 210.561 153.142C210.189 152.966 209.893 152.673 209.672 152.263C209.457 151.846 209.35 151.286 209.35 150.583V140.075ZM219.73 148.044V147.819C219.73 147.058 219.841 146.351 220.062 145.7C220.284 145.043 220.603 144.473 221.02 143.991C221.436 143.503 221.941 143.125 222.533 142.858C223.126 142.585 223.79 142.448 224.525 142.448C225.268 142.448 225.935 142.585 226.527 142.858C227.126 143.125 227.634 143.503 228.051 143.991C228.474 144.473 228.796 145.043 229.018 145.7C229.239 146.351 229.35 147.058 229.35 147.819V148.044C229.35 148.806 229.239 149.512 229.018 150.163C228.796 150.814 228.474 151.384 228.051 151.872C227.634 152.354 227.13 152.731 226.537 153.005C225.951 153.272 225.287 153.405 224.545 153.405C223.803 153.405 223.135 153.272 222.543 153.005C221.951 152.731 221.443 152.354 221.02 151.872C220.603 151.384 220.284 150.814 220.062 150.163C219.841 149.512 219.73 148.806 219.73 148.044ZM221.537 147.819V148.044C221.537 148.571 221.599 149.069 221.723 149.538C221.846 150 222.032 150.41 222.279 150.769C222.533 151.127 222.849 151.41 223.227 151.618C223.604 151.82 224.044 151.921 224.545 151.921C225.04 151.921 225.473 151.82 225.844 151.618C226.221 151.41 226.534 151.127 226.781 150.769C227.029 150.41 227.214 150 227.338 149.538C227.468 149.069 227.533 148.571 227.533 148.044V147.819C227.533 147.299 227.468 146.807 227.338 146.345C227.214 145.876 227.025 145.463 226.771 145.104C226.524 144.74 226.212 144.453 225.834 144.245C225.463 144.037 225.027 143.933 224.525 143.933C224.031 143.933 223.594 144.037 223.217 144.245C222.846 144.453 222.533 144.74 222.279 145.104C222.032 145.463 221.846 145.876 221.723 146.345C221.599 146.807 221.537 147.299 221.537 147.819ZM233.422 144.899V153.21H231.615V142.644H233.324L233.422 144.899ZM232.992 147.526L232.24 147.497C232.247 146.774 232.354 146.107 232.562 145.495C232.771 144.877 233.064 144.34 233.441 143.884C233.819 143.428 234.268 143.076 234.789 142.829C235.316 142.575 235.899 142.448 236.537 142.448C237.058 142.448 237.527 142.52 237.943 142.663C238.36 142.8 238.715 143.021 239.008 143.327C239.307 143.633 239.535 144.03 239.691 144.519C239.848 145 239.926 145.59 239.926 146.286V153.21H238.109V146.267C238.109 145.713 238.028 145.271 237.865 144.938C237.702 144.6 237.465 144.356 237.152 144.206C236.84 144.05 236.456 143.972 236 143.972C235.551 143.972 235.141 144.066 234.77 144.255C234.405 144.444 234.089 144.704 233.822 145.036C233.562 145.368 233.357 145.749 233.207 146.179C233.064 146.602 232.992 147.051 232.992 147.526ZM255.482 149.616C255.482 149.284 255.43 148.991 255.326 148.737C255.229 148.477 255.053 148.243 254.799 148.034C254.551 147.826 254.206 147.627 253.764 147.438C253.327 147.25 252.774 147.058 252.104 146.862C251.4 146.654 250.766 146.423 250.199 146.169C249.633 145.909 249.148 145.612 248.744 145.28C248.34 144.948 248.031 144.567 247.816 144.138C247.602 143.708 247.494 143.216 247.494 142.663C247.494 142.11 247.608 141.599 247.836 141.13C248.064 140.661 248.389 140.254 248.812 139.909C249.242 139.558 249.753 139.284 250.346 139.089C250.938 138.894 251.599 138.796 252.328 138.796C253.396 138.796 254.301 139.001 255.043 139.411C255.792 139.815 256.361 140.345 256.752 141.003C257.143 141.654 257.338 142.351 257.338 143.093H255.463C255.463 142.559 255.349 142.087 255.121 141.677C254.893 141.26 254.548 140.935 254.086 140.7C253.624 140.459 253.038 140.339 252.328 140.339C251.658 140.339 251.104 140.44 250.668 140.642C250.232 140.843 249.906 141.117 249.691 141.462C249.483 141.807 249.379 142.201 249.379 142.644C249.379 142.943 249.441 143.216 249.564 143.464C249.695 143.705 249.893 143.929 250.16 144.138C250.434 144.346 250.779 144.538 251.195 144.714C251.618 144.89 252.123 145.059 252.709 145.222C253.516 145.45 254.213 145.703 254.799 145.983C255.385 146.263 255.867 146.579 256.244 146.931C256.628 147.276 256.911 147.67 257.094 148.112C257.283 148.549 257.377 149.043 257.377 149.597C257.377 150.176 257.26 150.7 257.025 151.169C256.791 151.638 256.456 152.038 256.02 152.37C255.583 152.702 255.059 152.959 254.447 153.142C253.842 153.317 253.165 153.405 252.416 153.405C251.758 153.405 251.111 153.314 250.473 153.132C249.841 152.95 249.265 152.676 248.744 152.312C248.23 151.947 247.816 151.498 247.504 150.964C247.198 150.424 247.045 149.799 247.045 149.089H248.92C248.92 149.577 249.014 149.997 249.203 150.349C249.392 150.694 249.649 150.98 249.975 151.208C250.307 151.436 250.681 151.605 251.098 151.716C251.521 151.82 251.96 151.872 252.416 151.872C253.074 151.872 253.63 151.781 254.086 151.599C254.542 151.416 254.887 151.156 255.121 150.817C255.362 150.479 255.482 150.078 255.482 149.616ZM262.182 151.335L264.896 142.644H266.088L265.854 144.372L263.09 153.21H261.928L262.182 151.335ZM260.355 142.644L262.67 151.433L262.836 153.21H261.615L258.549 142.644H260.355ZM268.686 151.364L270.893 142.644H272.689L269.623 153.21H268.412L268.686 151.364ZM266.352 142.644L269.008 151.188L269.311 153.21H268.158L265.316 144.353L265.082 142.644H266.352ZM276.508 142.644V153.21H274.691V142.644H276.508ZM274.555 139.841C274.555 139.548 274.643 139.3 274.818 139.099C275.001 138.897 275.268 138.796 275.619 138.796C275.964 138.796 276.228 138.897 276.41 139.099C276.599 139.3 276.693 139.548 276.693 139.841C276.693 140.121 276.599 140.362 276.41 140.563C276.228 140.759 275.964 140.856 275.619 140.856C275.268 140.856 275.001 140.759 274.818 140.563C274.643 140.362 274.555 140.121 274.555 139.841ZM286.254 142.644H287.895V152.985C287.895 153.916 287.706 154.711 287.328 155.368C286.951 156.026 286.423 156.524 285.746 156.862C285.076 157.207 284.301 157.38 283.422 157.38C283.057 157.38 282.628 157.321 282.133 157.204C281.645 157.093 281.163 156.901 280.688 156.628C280.219 156.361 279.825 156 279.506 155.544L280.453 154.47C280.896 155.004 281.358 155.375 281.84 155.583C282.328 155.791 282.81 155.896 283.285 155.896C283.858 155.896 284.353 155.788 284.77 155.573C285.186 155.358 285.508 155.039 285.736 154.616C285.971 154.2 286.088 153.685 286.088 153.073V144.968L286.254 142.644ZM278.979 148.044V147.839C278.979 147.032 279.073 146.299 279.262 145.642C279.457 144.978 279.734 144.408 280.092 143.933C280.456 143.457 280.896 143.093 281.41 142.839C281.924 142.578 282.504 142.448 283.148 142.448C283.812 142.448 284.392 142.565 284.887 142.8C285.388 143.028 285.811 143.363 286.156 143.806C286.508 144.242 286.785 144.769 286.986 145.388C287.188 146.006 287.328 146.706 287.406 147.487V148.386C287.335 149.16 287.195 149.857 286.986 150.476C286.785 151.094 286.508 151.621 286.156 152.058C285.811 152.494 285.388 152.829 284.887 153.063C284.385 153.291 283.799 153.405 283.129 153.405C282.497 153.405 281.924 153.272 281.41 153.005C280.902 152.738 280.466 152.364 280.102 151.882C279.737 151.4 279.457 150.834 279.262 150.183C279.073 149.525 278.979 148.812 278.979 148.044ZM280.785 147.839V148.044C280.785 148.571 280.837 149.066 280.941 149.528C281.052 149.991 281.218 150.397 281.439 150.749C281.667 151.101 281.957 151.377 282.309 151.579C282.66 151.774 283.08 151.872 283.568 151.872C284.167 151.872 284.662 151.745 285.053 151.491C285.443 151.237 285.753 150.902 285.98 150.485C286.215 150.069 286.397 149.616 286.527 149.128V146.774C286.456 146.416 286.345 146.071 286.195 145.739C286.052 145.401 285.863 145.101 285.629 144.841C285.401 144.574 285.118 144.362 284.779 144.206C284.441 144.05 284.044 143.972 283.588 143.972C283.093 143.972 282.667 144.076 282.309 144.284C281.957 144.486 281.667 144.766 281.439 145.124C281.218 145.476 281.052 145.886 280.941 146.354C280.837 146.817 280.785 147.312 280.785 147.839ZM297.484 142.644H299.125V152.985C299.125 153.916 298.936 154.711 298.559 155.368C298.181 156.026 297.654 156.524 296.977 156.862C296.306 157.207 295.531 157.38 294.652 157.38C294.288 157.38 293.858 157.321 293.363 157.204C292.875 157.093 292.393 156.901 291.918 156.628C291.449 156.361 291.055 156 290.736 155.544L291.684 154.47C292.126 155.004 292.589 155.375 293.07 155.583C293.559 155.791 294.04 155.896 294.516 155.896C295.089 155.896 295.583 155.788 296 155.573C296.417 155.358 296.739 155.039 296.967 154.616C297.201 154.2 297.318 153.685 297.318 153.073V144.968L297.484 142.644ZM290.209 148.044V147.839C290.209 147.032 290.303 146.299 290.492 145.642C290.688 144.978 290.964 144.408 291.322 143.933C291.687 143.457 292.126 143.093 292.641 142.839C293.155 142.578 293.734 142.448 294.379 142.448C295.043 142.448 295.622 142.565 296.117 142.8C296.618 143.028 297.042 143.363 297.387 143.806C297.738 144.242 298.015 144.769 298.217 145.388C298.419 146.006 298.559 146.706 298.637 147.487V148.386C298.565 149.16 298.425 149.857 298.217 150.476C298.015 151.094 297.738 151.621 297.387 152.058C297.042 152.494 296.618 152.829 296.117 153.063C295.616 153.291 295.03 153.405 294.359 153.405C293.728 153.405 293.155 153.272 292.641 153.005C292.133 152.738 291.697 152.364 291.332 151.882C290.967 151.4 290.688 150.834 290.492 150.183C290.303 149.525 290.209 148.812 290.209 148.044ZM292.016 147.839V148.044C292.016 148.571 292.068 149.066 292.172 149.528C292.283 149.991 292.449 150.397 292.67 150.749C292.898 151.101 293.188 151.377 293.539 151.579C293.891 151.774 294.311 151.872 294.799 151.872C295.398 151.872 295.893 151.745 296.283 151.491C296.674 151.237 296.983 150.902 297.211 150.485C297.445 150.069 297.628 149.616 297.758 149.128V146.774C297.686 146.416 297.576 146.071 297.426 145.739C297.283 145.401 297.094 145.101 296.859 144.841C296.632 144.574 296.348 144.362 296.01 144.206C295.671 144.05 295.274 143.972 294.818 143.972C294.324 143.972 293.897 144.076 293.539 144.284C293.188 144.486 292.898 144.766 292.67 145.124C292.449 145.476 292.283 145.886 292.172 146.354C292.068 146.817 292.016 147.312 292.016 147.839ZM304.838 152.116L307.777 142.644H309.711L305.473 154.841C305.375 155.101 305.245 155.381 305.082 155.681C304.926 155.987 304.724 156.276 304.477 156.55C304.229 156.823 303.93 157.045 303.578 157.214C303.233 157.39 302.82 157.478 302.338 157.478C302.195 157.478 302.012 157.458 301.791 157.419C301.57 157.38 301.413 157.347 301.322 157.321L301.312 155.856C301.365 155.863 301.446 155.869 301.557 155.876C301.674 155.889 301.755 155.896 301.801 155.896C302.211 155.896 302.559 155.84 302.846 155.729C303.132 155.625 303.373 155.446 303.568 155.192C303.77 154.945 303.943 154.603 304.086 154.167L304.838 152.116ZM302.68 142.644L305.424 150.847L305.893 152.751L304.594 153.415L300.707 142.644H302.68ZM320.727 142.644V144.03H315.014V142.644H320.727ZM316.947 140.075H318.754V150.593C318.754 150.951 318.809 151.221 318.92 151.403C319.031 151.586 319.174 151.706 319.35 151.765C319.525 151.823 319.714 151.853 319.916 151.853C320.066 151.853 320.222 151.84 320.385 151.813C320.554 151.781 320.681 151.755 320.766 151.735L320.775 153.21C320.632 153.256 320.443 153.298 320.209 153.337C319.981 153.382 319.704 153.405 319.379 153.405C318.936 153.405 318.529 153.317 318.158 153.142C317.787 152.966 317.491 152.673 317.27 152.263C317.055 151.846 316.947 151.286 316.947 150.583V140.075ZM324.652 138.21V153.21H322.846V138.21H324.652ZM324.223 147.526L323.471 147.497C323.477 146.774 323.585 146.107 323.793 145.495C324.001 144.877 324.294 144.34 324.672 143.884C325.049 143.428 325.499 143.076 326.02 142.829C326.547 142.575 327.13 142.448 327.768 142.448C328.288 142.448 328.757 142.52 329.174 142.663C329.59 142.8 329.945 143.021 330.238 143.327C330.538 143.633 330.766 144.03 330.922 144.519C331.078 145 331.156 145.59 331.156 146.286V153.21H329.34V146.267C329.34 145.713 329.258 145.271 329.096 144.938C328.933 144.6 328.695 144.356 328.383 144.206C328.07 144.05 327.686 143.972 327.23 143.972C326.781 143.972 326.371 144.066 326 144.255C325.635 144.444 325.32 144.704 325.053 145.036C324.792 145.368 324.587 145.749 324.438 146.179C324.294 146.602 324.223 147.051 324.223 147.526ZM335.824 142.644V153.21H334.008V142.644H335.824ZM333.871 139.841C333.871 139.548 333.959 139.3 334.135 139.099C334.317 138.897 334.584 138.796 334.936 138.796C335.281 138.796 335.544 138.897 335.727 139.099C335.915 139.3 336.01 139.548 336.01 139.841C336.01 140.121 335.915 140.362 335.727 140.563C335.544 140.759 335.281 140.856 334.936 140.856C334.584 140.856 334.317 140.759 334.135 140.563C333.959 140.362 333.871 140.121 333.871 139.841ZM344.877 150.407C344.877 150.147 344.818 149.906 344.701 149.685C344.59 149.457 344.359 149.252 344.008 149.069C343.663 148.881 343.142 148.718 342.445 148.581C341.859 148.457 341.329 148.311 340.854 148.142C340.385 147.972 339.984 147.767 339.652 147.526C339.327 147.285 339.076 147.002 338.9 146.677C338.725 146.351 338.637 145.97 338.637 145.534C338.637 145.118 338.728 144.724 338.91 144.353C339.099 143.981 339.363 143.653 339.701 143.366C340.046 143.08 340.46 142.855 340.941 142.692C341.423 142.53 341.96 142.448 342.553 142.448C343.399 142.448 344.122 142.598 344.721 142.897C345.32 143.197 345.779 143.597 346.098 144.099C346.417 144.593 346.576 145.144 346.576 145.749H344.77C344.77 145.456 344.682 145.173 344.506 144.899C344.337 144.619 344.086 144.388 343.754 144.206C343.428 144.024 343.028 143.933 342.553 143.933C342.051 143.933 341.645 144.011 341.332 144.167C341.026 144.317 340.801 144.509 340.658 144.743C340.521 144.978 340.453 145.225 340.453 145.485C340.453 145.681 340.486 145.856 340.551 146.013C340.622 146.162 340.746 146.302 340.922 146.433C341.098 146.556 341.345 146.674 341.664 146.784C341.983 146.895 342.39 147.006 342.885 147.116C343.751 147.312 344.464 147.546 345.023 147.819C345.583 148.093 346 148.428 346.273 148.825C346.547 149.222 346.684 149.704 346.684 150.271C346.684 150.733 346.586 151.156 346.391 151.54C346.202 151.924 345.925 152.256 345.561 152.536C345.202 152.81 344.773 153.024 344.271 153.181C343.777 153.33 343.22 153.405 342.602 153.405C341.671 153.405 340.883 153.239 340.238 152.907C339.594 152.575 339.105 152.146 338.773 151.618C338.441 151.091 338.275 150.534 338.275 149.948H340.092C340.118 150.443 340.261 150.837 340.521 151.13C340.782 151.416 341.101 151.621 341.479 151.745C341.856 151.862 342.23 151.921 342.602 151.921C343.096 151.921 343.51 151.856 343.842 151.726C344.18 151.595 344.438 151.416 344.613 151.188C344.789 150.961 344.877 150.7 344.877 150.407ZM355.814 144.743V153.21H353.998V142.644H355.717L355.814 144.743ZM355.443 147.526L354.604 147.497C354.61 146.774 354.704 146.107 354.887 145.495C355.069 144.877 355.339 144.34 355.697 143.884C356.055 143.428 356.501 143.076 357.035 142.829C357.569 142.575 358.188 142.448 358.891 142.448C359.385 142.448 359.841 142.52 360.258 142.663C360.674 142.8 361.036 143.018 361.342 143.317C361.648 143.617 361.885 144.001 362.055 144.47C362.224 144.938 362.309 145.505 362.309 146.169V153.21H360.502V146.257C360.502 145.703 360.408 145.261 360.219 144.929C360.036 144.597 359.776 144.356 359.438 144.206C359.099 144.05 358.702 143.972 358.246 143.972C357.712 143.972 357.266 144.066 356.908 144.255C356.55 144.444 356.264 144.704 356.049 145.036C355.834 145.368 355.678 145.749 355.58 146.179C355.489 146.602 355.443 147.051 355.443 147.526ZM362.289 146.53L361.078 146.901C361.085 146.322 361.179 145.765 361.361 145.231C361.55 144.698 361.82 144.222 362.172 143.806C362.53 143.389 362.969 143.06 363.49 142.819C364.011 142.572 364.607 142.448 365.277 142.448C365.844 142.448 366.345 142.523 366.781 142.673C367.224 142.823 367.595 143.054 367.895 143.366C368.201 143.672 368.432 144.066 368.588 144.548C368.744 145.03 368.822 145.603 368.822 146.267V153.21H367.006V146.247C367.006 145.655 366.911 145.196 366.723 144.87C366.54 144.538 366.28 144.307 365.941 144.177C365.609 144.04 365.212 143.972 364.75 143.972C364.353 143.972 364.001 144.04 363.695 144.177C363.389 144.313 363.132 144.502 362.924 144.743C362.715 144.978 362.556 145.248 362.445 145.554C362.341 145.86 362.289 146.185 362.289 146.53ZM371.078 148.044V147.819C371.078 147.058 371.189 146.351 371.41 145.7C371.632 145.043 371.951 144.473 372.367 143.991C372.784 143.503 373.288 143.125 373.881 142.858C374.473 142.585 375.137 142.448 375.873 142.448C376.615 142.448 377.283 142.585 377.875 142.858C378.474 143.125 378.982 143.503 379.398 143.991C379.822 144.473 380.144 145.043 380.365 145.7C380.587 146.351 380.697 147.058 380.697 147.819V148.044C380.697 148.806 380.587 149.512 380.365 150.163C380.144 150.814 379.822 151.384 379.398 151.872C378.982 152.354 378.477 152.731 377.885 153.005C377.299 153.272 376.635 153.405 375.893 153.405C375.15 153.405 374.483 153.272 373.891 153.005C373.298 152.731 372.79 152.354 372.367 151.872C371.951 151.384 371.632 150.814 371.41 150.163C371.189 149.512 371.078 148.806 371.078 148.044ZM372.885 147.819V148.044C372.885 148.571 372.947 149.069 373.07 149.538C373.194 150 373.38 150.41 373.627 150.769C373.881 151.127 374.197 151.41 374.574 151.618C374.952 151.82 375.391 151.921 375.893 151.921C376.387 151.921 376.82 151.82 377.191 151.618C377.569 151.41 377.882 151.127 378.129 150.769C378.376 150.41 378.562 150 378.686 149.538C378.816 149.069 378.881 148.571 378.881 148.044V147.819C378.881 147.299 378.816 146.807 378.686 146.345C378.562 145.876 378.373 145.463 378.119 145.104C377.872 144.74 377.559 144.453 377.182 144.245C376.811 144.037 376.374 143.933 375.873 143.933C375.378 143.933 374.942 144.037 374.564 144.245C374.193 144.453 373.881 144.74 373.627 145.104C373.38 145.463 373.194 145.876 373.07 146.345C372.947 146.807 372.885 147.299 372.885 147.819ZM384.77 144.899V153.21H382.963V142.644H384.672L384.77 144.899ZM384.34 147.526L383.588 147.497C383.594 146.774 383.702 146.107 383.91 145.495C384.118 144.877 384.411 144.34 384.789 143.884C385.167 143.428 385.616 143.076 386.137 142.829C386.664 142.575 387.247 142.448 387.885 142.448C388.406 142.448 388.874 142.52 389.291 142.663C389.708 142.8 390.062 143.021 390.355 143.327C390.655 143.633 390.883 144.03 391.039 144.519C391.195 145 391.273 145.59 391.273 146.286V153.21H389.457V146.267C389.457 145.713 389.376 145.271 389.213 144.938C389.05 144.6 388.812 144.356 388.5 144.206C388.188 144.05 387.803 143.972 387.348 143.972C386.898 143.972 386.488 144.066 386.117 144.255C385.753 144.444 385.437 144.704 385.17 145.036C384.91 145.368 384.704 145.749 384.555 146.179C384.411 146.602 384.34 147.051 384.34 147.526ZM398.441 142.644V144.03H392.729V142.644H398.441ZM394.662 140.075H396.469V150.593C396.469 150.951 396.524 151.221 396.635 151.403C396.745 151.586 396.889 151.706 397.064 151.765C397.24 151.823 397.429 151.853 397.631 151.853C397.781 151.853 397.937 151.84 398.1 151.813C398.269 151.781 398.396 151.755 398.48 151.735L398.49 153.21C398.347 153.256 398.158 153.298 397.924 153.337C397.696 153.382 397.419 153.405 397.094 153.405C396.651 153.405 396.244 153.317 395.873 153.142C395.502 152.966 395.206 152.673 394.984 152.263C394.77 151.846 394.662 151.286 394.662 150.583V140.075ZM402.367 138.21V153.21H400.561V138.21H402.367ZM401.938 147.526L401.186 147.497C401.192 146.774 401.299 146.107 401.508 145.495C401.716 144.877 402.009 144.34 402.387 143.884C402.764 143.428 403.214 143.076 403.734 142.829C404.262 142.575 404.844 142.448 405.482 142.448C406.003 142.448 406.472 142.52 406.889 142.663C407.305 142.8 407.66 143.021 407.953 143.327C408.253 143.633 408.48 144.03 408.637 144.519C408.793 145 408.871 145.59 408.871 146.286V153.21H407.055V146.267C407.055 145.713 406.973 145.271 406.811 144.938C406.648 144.6 406.41 144.356 406.098 144.206C405.785 144.05 405.401 143.972 404.945 143.972C404.496 143.972 404.086 144.066 403.715 144.255C403.35 144.444 403.035 144.704 402.768 145.036C402.507 145.368 402.302 145.749 402.152 146.179C402.009 146.602 401.938 147.051 401.938 147.526ZM411.605 152.253C411.605 151.947 411.7 151.69 411.889 151.481C412.084 151.267 412.364 151.159 412.729 151.159C413.093 151.159 413.37 151.267 413.559 151.481C413.754 151.69 413.852 151.947 413.852 152.253C413.852 152.552 413.754 152.806 413.559 153.015C413.37 153.223 413.093 153.327 412.729 153.327C412.364 153.327 412.084 153.223 411.889 153.015C411.7 152.806 411.605 152.552 411.605 152.253ZM416.879 152.253C416.879 151.947 416.973 151.69 417.162 151.481C417.357 151.267 417.637 151.159 418.002 151.159C418.367 151.159 418.643 151.267 418.832 151.481C419.027 151.69 419.125 151.947 419.125 152.253C419.125 152.552 419.027 152.806 418.832 153.015C418.643 153.223 418.367 153.327 418.002 153.327C417.637 153.327 417.357 153.223 417.162 153.015C416.973 152.806 416.879 152.552 416.879 152.253ZM422.152 152.253C422.152 151.947 422.247 151.69 422.436 151.481C422.631 151.267 422.911 151.159 423.275 151.159C423.64 151.159 423.917 151.267 424.105 151.481C424.301 151.69 424.398 151.947 424.398 152.253C424.398 152.552 424.301 152.806 424.105 153.015C423.917 153.223 423.64 153.327 423.275 153.327C422.911 153.327 422.631 153.223 422.436 153.015C422.247 152.806 422.152 152.552 422.152 152.253Z" fill="#979DB5"/>
</g>
<path d="M114.281 230.784H116.531C116.414 231.862 116.105 232.827 115.605 233.679C115.105 234.53 114.398 235.206 113.484 235.706C112.57 236.198 111.43 236.444 110.062 236.444C109.062 236.444 108.152 236.257 107.332 235.882C106.52 235.507 105.82 234.976 105.234 234.288C104.648 233.593 104.195 232.761 103.875 231.792C103.562 230.815 103.406 229.729 103.406 228.534V226.835C103.406 225.64 103.562 224.558 103.875 223.589C104.195 222.612 104.652 221.776 105.246 221.081C105.848 220.386 106.57 219.851 107.414 219.476C108.258 219.101 109.207 218.913 110.262 218.913C111.551 218.913 112.641 219.155 113.531 219.64C114.422 220.124 115.113 220.796 115.605 221.655C116.105 222.507 116.414 223.495 116.531 224.62H114.281C114.172 223.823 113.969 223.14 113.672 222.569C113.375 221.991 112.953 221.546 112.406 221.233C111.859 220.921 111.145 220.765 110.262 220.765C109.504 220.765 108.836 220.909 108.258 221.198C107.688 221.487 107.207 221.897 106.816 222.429C106.434 222.96 106.145 223.597 105.949 224.339C105.754 225.081 105.656 225.905 105.656 226.812V228.534C105.656 229.37 105.742 230.155 105.914 230.89C106.094 231.624 106.363 232.269 106.723 232.823C107.082 233.378 107.539 233.815 108.094 234.136C108.648 234.448 109.305 234.604 110.062 234.604C111.023 234.604 111.789 234.452 112.359 234.147C112.93 233.843 113.359 233.405 113.648 232.835C113.945 232.265 114.156 231.581 114.281 230.784ZM121.441 226.05V236.21H119.262V223.53H121.324L121.441 226.05ZM120.996 229.39L119.988 229.354C119.996 228.487 120.109 227.687 120.328 226.952C120.547 226.21 120.871 225.565 121.301 225.019C121.73 224.472 122.266 224.05 122.906 223.753C123.547 223.448 124.289 223.296 125.133 223.296C125.727 223.296 126.273 223.382 126.773 223.554C127.273 223.718 127.707 223.979 128.074 224.339C128.441 224.698 128.727 225.159 128.93 225.722C129.133 226.284 129.234 226.964 129.234 227.761V236.21H127.066V227.866C127.066 227.202 126.953 226.671 126.727 226.272C126.508 225.874 126.195 225.585 125.789 225.405C125.383 225.218 124.906 225.124 124.359 225.124C123.719 225.124 123.184 225.237 122.754 225.464C122.324 225.69 121.98 226.003 121.723 226.401C121.465 226.8 121.277 227.257 121.16 227.772C121.051 228.28 120.996 228.819 120.996 229.39ZM129.211 228.194L127.758 228.64C127.766 227.944 127.879 227.276 128.098 226.636C128.324 225.995 128.648 225.425 129.07 224.925C129.5 224.425 130.027 224.03 130.652 223.741C131.277 223.444 131.992 223.296 132.797 223.296C133.477 223.296 134.078 223.386 134.602 223.565C135.133 223.745 135.578 224.022 135.938 224.397C136.305 224.765 136.582 225.237 136.77 225.815C136.957 226.394 137.051 227.081 137.051 227.878V236.21H134.871V227.854C134.871 227.144 134.758 226.593 134.531 226.202C134.312 225.804 134 225.526 133.594 225.37C133.195 225.206 132.719 225.124 132.164 225.124C131.688 225.124 131.266 225.206 130.898 225.37C130.531 225.534 130.223 225.761 129.973 226.05C129.723 226.331 129.531 226.655 129.398 227.022C129.273 227.39 129.211 227.78 129.211 228.194ZM148.324 233.749V218.21H150.504V236.21H148.512L148.324 233.749ZM139.793 230.011V229.765C139.793 228.796 139.91 227.917 140.145 227.128C140.387 226.331 140.727 225.647 141.164 225.077C141.609 224.507 142.137 224.069 142.746 223.765C143.363 223.452 144.051 223.296 144.809 223.296C145.605 223.296 146.301 223.437 146.895 223.718C147.496 223.991 148.004 224.394 148.418 224.925C148.84 225.448 149.172 226.081 149.414 226.823C149.656 227.565 149.824 228.405 149.918 229.343V230.421C149.832 231.351 149.664 232.187 149.414 232.929C149.172 233.671 148.84 234.304 148.418 234.827C148.004 235.351 147.496 235.753 146.895 236.034C146.293 236.308 145.59 236.444 144.785 236.444C144.043 236.444 143.363 236.284 142.746 235.964C142.137 235.644 141.609 235.194 141.164 234.616C140.727 234.038 140.387 233.358 140.145 232.577C139.91 231.788 139.793 230.933 139.793 230.011ZM141.973 229.765V230.011C141.973 230.644 142.035 231.237 142.16 231.792C142.293 232.347 142.496 232.835 142.77 233.257C143.043 233.679 143.391 234.011 143.812 234.253C144.234 234.487 144.738 234.604 145.324 234.604C146.043 234.604 146.633 234.452 147.094 234.147C147.562 233.843 147.938 233.44 148.219 232.94C148.5 232.44 148.719 231.897 148.875 231.312V228.487C148.781 228.058 148.645 227.644 148.465 227.245C148.293 226.839 148.066 226.479 147.785 226.167C147.512 225.847 147.172 225.593 146.766 225.405C146.367 225.218 145.895 225.124 145.348 225.124C144.754 225.124 144.242 225.249 143.812 225.499C143.391 225.741 143.043 226.077 142.77 226.507C142.496 226.929 142.293 227.421 142.16 227.983C142.035 228.538 141.973 229.132 141.973 229.765ZM170.789 227.058V229.097H159.094V227.058H170.789ZM166.031 222.077V234.499H163.863V222.077H166.031ZM181.992 219.147V236.21H179.73V219.147H181.992ZM192.293 219.147L185.203 227.104L181.219 231.241L180.844 228.827L183.844 225.522L189.574 219.147H192.293ZM190.113 236.21L183.797 227.89L185.145 226.097L192.809 236.21H190.113ZM207.902 234.042V227.515C207.902 227.015 207.801 226.581 207.598 226.214C207.402 225.839 207.105 225.55 206.707 225.347C206.309 225.144 205.816 225.042 205.23 225.042C204.684 225.042 204.203 225.136 203.789 225.323C203.383 225.511 203.062 225.757 202.828 226.062C202.602 226.366 202.488 226.694 202.488 227.046H200.32C200.32 226.593 200.438 226.144 200.672 225.698C200.906 225.253 201.242 224.851 201.68 224.491C202.125 224.124 202.656 223.835 203.273 223.624C203.898 223.405 204.594 223.296 205.359 223.296C206.281 223.296 207.094 223.452 207.797 223.765C208.508 224.077 209.062 224.55 209.461 225.183C209.867 225.808 210.07 226.593 210.07 227.538V233.444C210.07 233.866 210.105 234.315 210.176 234.792C210.254 235.269 210.367 235.679 210.516 236.022V236.21H208.254C208.145 235.96 208.059 235.628 207.996 235.214C207.934 234.792 207.902 234.401 207.902 234.042ZM208.277 228.522L208.301 230.046H206.109C205.492 230.046 204.941 230.097 204.457 230.198C203.973 230.292 203.566 230.437 203.238 230.632C202.91 230.827 202.66 231.073 202.488 231.37C202.316 231.659 202.23 231.999 202.23 232.39C202.23 232.788 202.32 233.151 202.5 233.479C202.68 233.808 202.949 234.069 203.309 234.265C203.676 234.452 204.125 234.546 204.656 234.546C205.32 234.546 205.906 234.405 206.414 234.124C206.922 233.843 207.324 233.499 207.621 233.093C207.926 232.687 208.09 232.292 208.113 231.909L209.039 232.952C208.984 233.28 208.836 233.644 208.594 234.042C208.352 234.44 208.027 234.823 207.621 235.19C207.223 235.55 206.746 235.851 206.191 236.093C205.645 236.327 205.027 236.444 204.34 236.444C203.48 236.444 202.727 236.276 202.078 235.94C201.438 235.604 200.938 235.155 200.578 234.593C200.227 234.022 200.051 233.386 200.051 232.683C200.051 232.003 200.184 231.405 200.449 230.89C200.715 230.366 201.098 229.933 201.598 229.589C202.098 229.237 202.699 228.972 203.402 228.792C204.105 228.612 204.891 228.522 205.758 228.522H208.277ZM215.648 226.237V236.21H213.48V223.53H215.531L215.648 226.237ZM215.133 229.39L214.23 229.354C214.238 228.487 214.367 227.687 214.617 226.952C214.867 226.21 215.219 225.565 215.672 225.019C216.125 224.472 216.664 224.05 217.289 223.753C217.922 223.448 218.621 223.296 219.387 223.296C220.012 223.296 220.574 223.382 221.074 223.554C221.574 223.718 222 223.983 222.352 224.351C222.711 224.718 222.984 225.194 223.172 225.78C223.359 226.358 223.453 227.065 223.453 227.901V236.21H221.273V227.878C221.273 227.214 221.176 226.683 220.98 226.284C220.785 225.878 220.5 225.585 220.125 225.405C219.75 225.218 219.289 225.124 218.742 225.124C218.203 225.124 217.711 225.237 217.266 225.464C216.828 225.69 216.449 226.003 216.129 226.401C215.816 226.8 215.57 227.257 215.391 227.772C215.219 228.28 215.133 228.819 215.133 229.39ZM234.738 233.749V218.21H236.918V236.21H234.926L234.738 233.749ZM226.207 230.011V229.765C226.207 228.796 226.324 227.917 226.559 227.128C226.801 226.331 227.141 225.647 227.578 225.077C228.023 224.507 228.551 224.069 229.16 223.765C229.777 223.452 230.465 223.296 231.223 223.296C232.02 223.296 232.715 223.437 233.309 223.718C233.91 223.991 234.418 224.394 234.832 224.925C235.254 225.448 235.586 226.081 235.828 226.823C236.07 227.565 236.238 228.405 236.332 229.343V230.421C236.246 231.351 236.078 232.187 235.828 232.929C235.586 233.671 235.254 234.304 234.832 234.827C234.418 235.351 233.91 235.753 233.309 236.034C232.707 236.308 232.004 236.444 231.199 236.444C230.457 236.444 229.777 236.284 229.16 235.964C228.551 235.644 228.023 235.194 227.578 234.616C227.141 234.038 226.801 233.358 226.559 232.577C226.324 231.788 226.207 230.933 226.207 230.011ZM228.387 229.765V230.011C228.387 230.644 228.449 231.237 228.574 231.792C228.707 232.347 228.91 232.835 229.184 233.257C229.457 233.679 229.805 234.011 230.227 234.253C230.648 234.487 231.152 234.604 231.738 234.604C232.457 234.604 233.047 234.452 233.508 234.147C233.977 233.843 234.352 233.44 234.633 232.94C234.914 232.44 235.133 231.897 235.289 231.312V228.487C235.195 228.058 235.059 227.644 234.879 227.245C234.707 226.839 234.48 226.479 234.199 226.167C233.926 225.847 233.586 225.593 233.18 225.405C232.781 225.218 232.309 225.124 231.762 225.124C231.168 225.124 230.656 225.249 230.227 225.499C229.805 225.741 229.457 226.077 229.184 226.507C228.91 226.929 228.707 227.421 228.574 227.983C228.449 228.538 228.387 229.132 228.387 229.765ZM245.672 230.011V229.741C245.672 228.827 245.805 227.979 246.07 227.198C246.336 226.409 246.719 225.726 247.219 225.147C247.719 224.562 248.324 224.108 249.035 223.788C249.746 223.46 250.543 223.296 251.426 223.296C252.316 223.296 253.117 223.46 253.828 223.788C254.547 224.108 255.156 224.562 255.656 225.147C256.164 225.726 256.551 226.409 256.816 227.198C257.082 227.979 257.215 228.827 257.215 229.741V230.011C257.215 230.925 257.082 231.772 256.816 232.554C256.551 233.335 256.164 234.019 255.656 234.604C255.156 235.183 254.551 235.636 253.84 235.964C253.137 236.284 252.34 236.444 251.449 236.444C250.559 236.444 249.758 236.284 249.047 235.964C248.336 235.636 247.727 235.183 247.219 234.604C246.719 234.019 246.336 233.335 246.07 232.554C245.805 231.772 245.672 230.925 245.672 230.011ZM247.84 229.741V230.011C247.84 230.644 247.914 231.241 248.062 231.804C248.211 232.358 248.434 232.851 248.73 233.28C249.035 233.71 249.414 234.05 249.867 234.3C250.32 234.542 250.848 234.663 251.449 234.663C252.043 234.663 252.562 234.542 253.008 234.3C253.461 234.05 253.836 233.71 254.133 233.28C254.43 232.851 254.652 232.358 254.801 231.804C254.957 231.241 255.035 230.644 255.035 230.011V229.741C255.035 229.116 254.957 228.526 254.801 227.972C254.652 227.409 254.426 226.913 254.121 226.483C253.824 226.046 253.449 225.702 252.996 225.452C252.551 225.202 252.027 225.077 251.426 225.077C250.832 225.077 250.309 225.202 249.855 225.452C249.41 225.702 249.035 226.046 248.73 226.483C248.434 226.913 248.211 227.409 248.062 227.972C247.914 228.526 247.84 229.116 247.84 229.741ZM265.242 223.53V225.194H258.387V223.53H265.242ZM260.707 220.448H262.875V233.069C262.875 233.499 262.941 233.823 263.074 234.042C263.207 234.261 263.379 234.405 263.59 234.476C263.801 234.546 264.027 234.581 264.27 234.581C264.449 234.581 264.637 234.565 264.832 234.534C265.035 234.495 265.188 234.464 265.289 234.44L265.301 236.21C265.129 236.265 264.902 236.315 264.621 236.362C264.348 236.417 264.016 236.444 263.625 236.444C263.094 236.444 262.605 236.339 262.16 236.128C261.715 235.917 261.359 235.565 261.094 235.073C260.836 234.573 260.707 233.901 260.707 233.058V220.448ZM269.953 218.21V236.21H267.785V218.21H269.953ZM269.438 229.39L268.535 229.354C268.543 228.487 268.672 227.687 268.922 226.952C269.172 226.21 269.523 225.565 269.977 225.019C270.43 224.472 270.969 224.05 271.594 223.753C272.227 223.448 272.926 223.296 273.691 223.296C274.316 223.296 274.879 223.382 275.379 223.554C275.879 223.718 276.305 223.983 276.656 224.351C277.016 224.718 277.289 225.194 277.477 225.78C277.664 226.358 277.758 227.065 277.758 227.901V236.21H275.578V227.878C275.578 227.214 275.48 226.683 275.285 226.284C275.09 225.878 274.805 225.585 274.43 225.405C274.055 225.218 273.594 225.124 273.047 225.124C272.508 225.124 272.016 225.237 271.57 225.464C271.133 225.69 270.754 226.003 270.434 226.401C270.121 226.8 269.875 227.257 269.695 227.772C269.523 228.28 269.438 228.819 269.438 229.39ZM286.266 236.444C285.383 236.444 284.582 236.296 283.863 235.999C283.152 235.694 282.539 235.269 282.023 234.722C281.516 234.175 281.125 233.526 280.852 232.776C280.578 232.026 280.441 231.206 280.441 230.315V229.823C280.441 228.792 280.594 227.874 280.898 227.069C281.203 226.257 281.617 225.569 282.141 225.007C282.664 224.444 283.258 224.019 283.922 223.729C284.586 223.44 285.273 223.296 285.984 223.296C286.891 223.296 287.672 223.452 288.328 223.765C288.992 224.077 289.535 224.515 289.957 225.077C290.379 225.632 290.691 226.288 290.895 227.046C291.098 227.796 291.199 228.616 291.199 229.507V230.479H281.73V228.71H289.031V228.546C289 227.983 288.883 227.437 288.68 226.905C288.484 226.374 288.172 225.937 287.742 225.593C287.312 225.249 286.727 225.077 285.984 225.077C285.492 225.077 285.039 225.183 284.625 225.394C284.211 225.597 283.855 225.901 283.559 226.308C283.262 226.714 283.031 227.21 282.867 227.796C282.703 228.382 282.621 229.058 282.621 229.823V230.315C282.621 230.917 282.703 231.483 282.867 232.015C283.039 232.538 283.285 232.999 283.605 233.397C283.934 233.796 284.328 234.108 284.789 234.335C285.258 234.562 285.789 234.675 286.383 234.675C287.148 234.675 287.797 234.519 288.328 234.206C288.859 233.894 289.324 233.476 289.723 232.952L291.035 233.995C290.762 234.409 290.414 234.804 289.992 235.179C289.57 235.554 289.051 235.858 288.434 236.093C287.824 236.327 287.102 236.444 286.266 236.444ZM295.898 225.522V236.21H293.73V223.53H295.84L295.898 225.522ZM299.859 223.46L299.848 225.476C299.668 225.437 299.496 225.413 299.332 225.405C299.176 225.39 298.996 225.382 298.793 225.382C298.293 225.382 297.852 225.46 297.469 225.616C297.086 225.772 296.762 225.991 296.496 226.272C296.23 226.554 296.02 226.89 295.863 227.28C295.715 227.663 295.617 228.085 295.57 228.546L294.961 228.897C294.961 228.132 295.035 227.413 295.184 226.741C295.34 226.069 295.578 225.476 295.898 224.96C296.219 224.437 296.625 224.03 297.117 223.741C297.617 223.444 298.211 223.296 298.898 223.296C299.055 223.296 299.234 223.315 299.438 223.354C299.641 223.386 299.781 223.421 299.859 223.46ZM309.973 226.05V236.21H307.793V223.53H309.855L309.973 226.05ZM309.527 229.39L308.52 229.354C308.527 228.487 308.641 227.687 308.859 226.952C309.078 226.21 309.402 225.565 309.832 225.019C310.262 224.472 310.797 224.05 311.438 223.753C312.078 223.448 312.82 223.296 313.664 223.296C314.258 223.296 314.805 223.382 315.305 223.554C315.805 223.718 316.238 223.979 316.605 224.339C316.973 224.698 317.258 225.159 317.461 225.722C317.664 226.284 317.766 226.964 317.766 227.761V236.21H315.598V227.866C315.598 227.202 315.484 226.671 315.258 226.272C315.039 225.874 314.727 225.585 314.32 225.405C313.914 225.218 313.438 225.124 312.891 225.124C312.25 225.124 311.715 225.237 311.285 225.464C310.855 225.69 310.512 226.003 310.254 226.401C309.996 226.8 309.809 227.257 309.691 227.772C309.582 228.28 309.527 228.819 309.527 229.39ZM317.742 228.194L316.289 228.64C316.297 227.944 316.41 227.276 316.629 226.636C316.855 225.995 317.18 225.425 317.602 224.925C318.031 224.425 318.559 224.03 319.184 223.741C319.809 223.444 320.523 223.296 321.328 223.296C322.008 223.296 322.609 223.386 323.133 223.565C323.664 223.745 324.109 224.022 324.469 224.397C324.836 224.765 325.113 225.237 325.301 225.815C325.488 226.394 325.582 227.081 325.582 227.878V236.21H323.402V227.854C323.402 227.144 323.289 226.593 323.062 226.202C322.844 225.804 322.531 225.526 322.125 225.37C321.727 225.206 321.25 225.124 320.695 225.124C320.219 225.124 319.797 225.206 319.43 225.37C319.062 225.534 318.754 225.761 318.504 226.05C318.254 226.331 318.062 226.655 317.93 227.022C317.805 227.39 317.742 227.78 317.742 228.194ZM331.219 223.53V236.21H329.039V223.53H331.219ZM328.875 220.167C328.875 219.815 328.98 219.519 329.191 219.276C329.41 219.034 329.73 218.913 330.152 218.913C330.566 218.913 330.883 219.034 331.102 219.276C331.328 219.519 331.441 219.815 331.441 220.167C331.441 220.503 331.328 220.792 331.102 221.034C330.883 221.269 330.566 221.386 330.152 221.386C329.73 221.386 329.41 221.269 329.191 221.034C328.98 220.792 328.875 220.503 328.875 220.167ZM342.082 232.847C342.082 232.534 342.012 232.245 341.871 231.979C341.738 231.706 341.461 231.46 341.039 231.241C340.625 231.015 340 230.819 339.164 230.655C338.461 230.507 337.824 230.331 337.254 230.128C336.691 229.925 336.211 229.679 335.812 229.39C335.422 229.101 335.121 228.761 334.91 228.37C334.699 227.979 334.594 227.522 334.594 226.999C334.594 226.499 334.703 226.026 334.922 225.581C335.148 225.136 335.465 224.741 335.871 224.397C336.285 224.054 336.781 223.784 337.359 223.589C337.938 223.394 338.582 223.296 339.293 223.296C340.309 223.296 341.176 223.476 341.895 223.835C342.613 224.194 343.164 224.675 343.547 225.276C343.93 225.87 344.121 226.53 344.121 227.257H341.953C341.953 226.905 341.848 226.565 341.637 226.237C341.434 225.901 341.133 225.624 340.734 225.405C340.344 225.187 339.863 225.077 339.293 225.077C338.691 225.077 338.203 225.171 337.828 225.358C337.461 225.538 337.191 225.769 337.02 226.05C336.855 226.331 336.773 226.628 336.773 226.94C336.773 227.175 336.812 227.386 336.891 227.573C336.977 227.753 337.125 227.921 337.336 228.077C337.547 228.226 337.844 228.366 338.227 228.499C338.609 228.632 339.098 228.765 339.691 228.897C340.73 229.132 341.586 229.413 342.258 229.741C342.93 230.069 343.43 230.472 343.758 230.948C344.086 231.425 344.25 232.003 344.25 232.683C344.25 233.237 344.133 233.745 343.898 234.206C343.672 234.667 343.34 235.065 342.902 235.401C342.473 235.729 341.957 235.987 341.355 236.175C340.762 236.354 340.094 236.444 339.352 236.444C338.234 236.444 337.289 236.245 336.516 235.847C335.742 235.448 335.156 234.933 334.758 234.3C334.359 233.667 334.16 232.999 334.16 232.296H336.34C336.371 232.89 336.543 233.362 336.855 233.714C337.168 234.058 337.551 234.304 338.004 234.452C338.457 234.593 338.906 234.663 339.352 234.663C339.945 234.663 340.441 234.585 340.84 234.429C341.246 234.272 341.555 234.058 341.766 233.784C341.977 233.511 342.082 233.198 342.082 232.847ZM354.48 232.847C354.48 232.534 354.41 232.245 354.27 231.979C354.137 231.706 353.859 231.46 353.438 231.241C353.023 231.015 352.398 230.819 351.562 230.655C350.859 230.507 350.223 230.331 349.652 230.128C349.09 229.925 348.609 229.679 348.211 229.39C347.82 229.101 347.52 228.761 347.309 228.37C347.098 227.979 346.992 227.522 346.992 226.999C346.992 226.499 347.102 226.026 347.32 225.581C347.547 225.136 347.863 224.741 348.27 224.397C348.684 224.054 349.18 223.784 349.758 223.589C350.336 223.394 350.98 223.296 351.691 223.296C352.707 223.296 353.574 223.476 354.293 223.835C355.012 224.194 355.562 224.675 355.945 225.276C356.328 225.87 356.52 226.53 356.52 227.257H354.352C354.352 226.905 354.246 226.565 354.035 226.237C353.832 225.901 353.531 225.624 353.133 225.405C352.742 225.187 352.262 225.077 351.691 225.077C351.09 225.077 350.602 225.171 350.227 225.358C349.859 225.538 349.59 225.769 349.418 226.05C349.254 226.331 349.172 226.628 349.172 226.94C349.172 227.175 349.211 227.386 349.289 227.573C349.375 227.753 349.523 227.921 349.734 228.077C349.945 228.226 350.242 228.366 350.625 228.499C351.008 228.632 351.496 228.765 352.09 228.897C353.129 229.132 353.984 229.413 354.656 229.741C355.328 230.069 355.828 230.472 356.156 230.948C356.484 231.425 356.648 232.003 356.648 232.683C356.648 233.237 356.531 233.745 356.297 234.206C356.07 234.667 355.738 235.065 355.301 235.401C354.871 235.729 354.355 235.987 353.754 236.175C353.16 236.354 352.492 236.444 351.75 236.444C350.633 236.444 349.688 236.245 348.914 235.847C348.141 235.448 347.555 234.933 347.156 234.3C346.758 233.667 346.559 232.999 346.559 232.296H348.738C348.77 232.89 348.941 233.362 349.254 233.714C349.566 234.058 349.949 234.304 350.402 234.452C350.855 234.593 351.305 234.663 351.75 234.663C352.344 234.663 352.84 234.585 353.238 234.429C353.645 234.272 353.953 234.058 354.164 233.784C354.375 233.511 354.48 233.198 354.48 232.847ZM361.852 223.53V236.21H359.672V223.53H361.852ZM359.508 220.167C359.508 219.815 359.613 219.519 359.824 219.276C360.043 219.034 360.363 218.913 360.785 218.913C361.199 218.913 361.516 219.034 361.734 219.276C361.961 219.519 362.074 219.815 362.074 220.167C362.074 220.503 361.961 220.792 361.734 221.034C361.516 221.269 361.199 221.386 360.785 221.386C360.363 221.386 360.043 221.269 359.824 221.034C359.613 220.792 359.508 220.503 359.508 220.167ZM367.5 226.237V236.21H365.332V223.53H367.383L367.5 226.237ZM366.984 229.39L366.082 229.354C366.09 228.487 366.219 227.687 366.469 226.952C366.719 226.21 367.07 225.565 367.523 225.019C367.977 224.472 368.516 224.05 369.141 223.753C369.773 223.448 370.473 223.296 371.238 223.296C371.863 223.296 372.426 223.382 372.926 223.554C373.426 223.718 373.852 223.983 374.203 224.351C374.562 224.718 374.836 225.194 375.023 225.78C375.211 226.358 375.305 227.065 375.305 227.901V236.21H373.125V227.878C373.125 227.214 373.027 226.683 372.832 226.284C372.637 225.878 372.352 225.585 371.977 225.405C371.602 225.218 371.141 225.124 370.594 225.124C370.055 225.124 369.562 225.237 369.117 225.464C368.68 225.69 368.301 226.003 367.98 226.401C367.668 226.8 367.422 227.257 367.242 227.772C367.07 228.28 366.984 228.819 366.984 229.39ZM386.812 223.53H388.781V235.94C388.781 237.058 388.555 238.011 388.102 238.8C387.648 239.589 387.016 240.187 386.203 240.593C385.398 241.007 384.469 241.214 383.414 241.214C382.977 241.214 382.461 241.144 381.867 241.003C381.281 240.87 380.703 240.64 380.133 240.312C379.57 239.991 379.098 239.558 378.715 239.011L379.852 237.722C380.383 238.362 380.938 238.808 381.516 239.058C382.102 239.308 382.68 239.433 383.25 239.433C383.938 239.433 384.531 239.304 385.031 239.046C385.531 238.788 385.918 238.405 386.191 237.897C386.473 237.397 386.613 236.78 386.613 236.046V226.319L386.812 223.53ZM378.082 230.011V229.765C378.082 228.796 378.195 227.917 378.422 227.128C378.656 226.331 378.988 225.647 379.418 225.077C379.855 224.507 380.383 224.069 381 223.765C381.617 223.452 382.312 223.296 383.086 223.296C383.883 223.296 384.578 223.437 385.172 223.718C385.773 223.991 386.281 224.394 386.695 224.925C387.117 225.448 387.449 226.081 387.691 226.823C387.934 227.565 388.102 228.405 388.195 229.343V230.421C388.109 231.351 387.941 232.187 387.691 232.929C387.449 233.671 387.117 234.304 386.695 234.827C386.281 235.351 385.773 235.753 385.172 236.034C384.57 236.308 383.867 236.444 383.062 236.444C382.305 236.444 381.617 236.284 381 235.964C380.391 235.644 379.867 235.194 379.43 234.616C378.992 234.038 378.656 233.358 378.422 232.577C378.195 231.788 378.082 230.933 378.082 230.011ZM380.25 229.765V230.011C380.25 230.644 380.312 231.237 380.438 231.792C380.57 232.347 380.77 232.835 381.035 233.257C381.309 233.679 381.656 234.011 382.078 234.253C382.5 234.487 383.004 234.604 383.59 234.604C384.309 234.604 384.902 234.452 385.371 234.147C385.84 233.843 386.211 233.44 386.484 232.94C386.766 232.44 386.984 231.897 387.141 231.312V228.487C387.055 228.058 386.922 227.644 386.742 227.245C386.57 226.839 386.344 226.479 386.062 226.167C385.789 225.847 385.449 225.593 385.043 225.405C384.637 225.218 384.16 225.124 383.613 225.124C383.02 225.124 382.508 225.249 382.078 225.499C381.656 225.741 381.309 226.077 381.035 226.507C380.77 226.929 380.57 227.421 380.438 227.983C380.312 228.538 380.25 229.132 380.25 229.765Z" fill="#676B89"/>
<path d="M403.305 226.132V236.21H400.211V223.53H403.129L403.305 226.132ZM402.848 229.413H401.898C401.898 228.53 402.004 227.718 402.215 226.976C402.434 226.233 402.754 225.589 403.176 225.042C403.598 224.487 404.117 224.058 404.734 223.753C405.359 223.448 406.082 223.296 406.902 223.296C407.473 223.296 407.996 223.382 408.473 223.554C408.949 223.718 409.359 223.979 409.703 224.339C410.055 224.69 410.324 225.151 410.512 225.722C410.699 226.284 410.793 226.96 410.793 227.749V236.21H407.699V228.065C407.699 227.472 407.613 227.007 407.441 226.671C407.277 226.335 407.039 226.101 406.727 225.968C406.414 225.827 406.039 225.757 405.602 225.757C405.117 225.757 404.699 225.854 404.348 226.05C404.004 226.237 403.719 226.499 403.492 226.835C403.273 227.171 403.109 227.558 403 227.995C402.898 228.433 402.848 228.905 402.848 229.413ZM410.559 228.839L409.281 229.073C409.289 228.276 409.398 227.53 409.609 226.835C409.82 226.132 410.129 225.519 410.535 224.995C410.949 224.464 411.461 224.05 412.07 223.753C412.688 223.448 413.398 223.296 414.203 223.296C414.828 223.296 415.391 223.386 415.891 223.565C416.398 223.737 416.832 224.015 417.191 224.397C417.551 224.772 417.824 225.261 418.012 225.862C418.207 226.464 418.305 227.198 418.305 228.065V236.21H415.188V228.054C415.188 227.437 415.102 226.964 414.93 226.636C414.766 226.308 414.527 226.081 414.215 225.956C413.902 225.823 413.535 225.757 413.113 225.757C412.684 225.757 412.309 225.839 411.988 226.003C411.676 226.159 411.41 226.378 411.191 226.659C410.98 226.94 410.82 227.269 410.711 227.644C410.609 228.011 410.559 228.409 410.559 228.839ZM420.531 229.999V229.753C420.531 228.823 420.664 227.968 420.93 227.187C421.195 226.397 421.582 225.714 422.09 225.136C422.598 224.558 423.219 224.108 423.953 223.788C424.688 223.46 425.523 223.296 426.461 223.296C427.414 223.296 428.258 223.46 428.992 223.788C429.734 224.108 430.359 224.558 430.867 225.136C431.375 225.714 431.762 226.397 432.027 227.187C432.293 227.968 432.426 228.823 432.426 229.753V229.999C432.426 230.921 432.293 231.776 432.027 232.565C431.762 233.347 431.375 234.03 430.867 234.616C430.359 235.194 429.738 235.644 429.004 235.964C428.27 236.284 427.43 236.444 426.484 236.444C425.547 236.444 424.707 236.284 423.965 235.964C423.223 235.644 422.598 235.194 422.09 234.616C421.582 234.03 421.195 233.347 420.93 232.565C420.664 231.776 420.531 230.921 420.531 229.999ZM423.625 229.753V229.999C423.625 230.554 423.68 231.073 423.789 231.558C423.898 232.042 424.066 232.468 424.293 232.835C424.52 233.202 424.812 233.491 425.172 233.702C425.539 233.905 425.977 234.007 426.484 234.007C426.984 234.007 427.414 233.905 427.773 233.702C428.133 233.491 428.426 233.202 428.652 232.835C428.887 232.468 429.059 232.042 429.168 231.558C429.277 231.073 429.332 230.554 429.332 229.999V229.753C429.332 229.206 429.277 228.694 429.168 228.218C429.059 227.733 428.887 227.308 428.652 226.94C428.426 226.565 428.129 226.272 427.762 226.062C427.402 225.843 426.969 225.733 426.461 225.733C425.961 225.733 425.531 225.843 425.172 226.062C424.812 226.272 424.52 226.565 424.293 226.94C424.066 227.308 423.898 227.733 423.789 228.218C423.68 228.694 423.625 229.206 423.625 229.753ZM442.281 233.515V218.21H445.398V236.21H442.586L442.281 233.515ZM434.137 230.022V229.776C434.137 228.808 434.246 227.929 434.465 227.14C434.691 226.343 435.02 225.659 435.449 225.089C435.879 224.519 436.398 224.077 437.008 223.765C437.625 223.452 438.324 223.296 439.105 223.296C439.863 223.296 440.523 223.448 441.086 223.753C441.656 224.058 442.141 224.491 442.539 225.054C442.945 225.616 443.27 226.284 443.512 227.058C443.754 227.823 443.93 228.667 444.039 229.589V230.257C443.93 231.155 443.754 231.979 443.512 232.729C443.27 233.479 442.945 234.136 442.539 234.698C442.141 235.253 441.656 235.683 441.086 235.987C440.516 236.292 439.848 236.444 439.082 236.444C438.309 236.444 437.613 236.284 436.996 235.964C436.387 235.644 435.867 235.194 435.438 234.616C435.016 234.038 434.691 233.358 434.465 232.577C434.246 231.796 434.137 230.944 434.137 230.022ZM437.242 229.776V230.022C437.242 230.569 437.289 231.081 437.383 231.558C437.477 232.034 437.629 232.456 437.84 232.823C438.051 233.183 438.32 233.464 438.648 233.667C438.984 233.87 439.391 233.972 439.867 233.972C440.477 233.972 440.977 233.839 441.367 233.573C441.766 233.3 442.074 232.929 442.293 232.46C442.512 231.983 442.652 231.448 442.715 230.854V229.015C442.684 228.546 442.602 228.112 442.469 227.714C442.344 227.315 442.164 226.972 441.93 226.683C441.703 226.394 441.422 226.167 441.086 226.003C440.75 225.839 440.352 225.757 439.891 225.757C439.414 225.757 439.008 225.862 438.672 226.073C438.336 226.276 438.062 226.562 437.852 226.929C437.641 227.296 437.484 227.722 437.383 228.206C437.289 228.69 437.242 229.214 437.242 229.776ZM453.895 236.444C452.934 236.444 452.07 236.288 451.305 235.976C450.539 235.663 449.887 235.229 449.348 234.675C448.816 234.112 448.406 233.46 448.117 232.718C447.836 231.968 447.695 231.163 447.695 230.304V229.835C447.695 228.858 447.836 227.972 448.117 227.175C448.398 226.37 448.797 225.679 449.312 225.101C449.828 224.522 450.445 224.077 451.164 223.765C451.883 223.452 452.676 223.296 453.543 223.296C454.441 223.296 455.234 223.448 455.922 223.753C456.609 224.05 457.184 224.472 457.645 225.019C458.105 225.565 458.453 226.222 458.688 226.987C458.922 227.745 459.039 228.585 459.039 229.507V230.808H449.102V228.675H455.992V228.44C455.977 227.948 455.883 227.499 455.711 227.093C455.539 226.679 455.273 226.351 454.914 226.108C454.555 225.858 454.09 225.733 453.52 225.733C453.059 225.733 452.656 225.835 452.312 226.038C451.977 226.233 451.695 226.515 451.469 226.882C451.25 227.241 451.086 227.671 450.977 228.171C450.867 228.671 450.812 229.226 450.812 229.835V230.304C450.812 230.835 450.883 231.327 451.023 231.78C451.172 232.233 451.387 232.628 451.668 232.964C451.957 233.292 452.301 233.55 452.699 233.737C453.105 233.917 453.566 234.007 454.082 234.007C454.73 234.007 455.316 233.882 455.84 233.632C456.371 233.374 456.832 232.995 457.223 232.495L458.781 234.112C458.516 234.503 458.156 234.878 457.703 235.237C457.258 235.597 456.719 235.89 456.086 236.116C455.453 236.335 454.723 236.444 453.895 236.444ZM464.207 226.12V236.21H461.113V223.53H464.043L464.207 226.12ZM468.062 223.448L468.016 226.331C467.844 226.3 467.648 226.276 467.43 226.261C467.219 226.245 467.02 226.237 466.832 226.237C466.355 226.237 465.938 226.304 465.578 226.437C465.219 226.562 464.918 226.745 464.676 226.987C464.441 227.229 464.262 227.526 464.137 227.878C464.012 228.222 463.941 228.612 463.926 229.05L463.258 228.968C463.258 228.163 463.34 227.417 463.504 226.729C463.668 226.042 463.906 225.44 464.219 224.925C464.531 224.409 464.922 224.011 465.391 223.729C465.867 223.44 466.414 223.296 467.031 223.296C467.203 223.296 467.387 223.312 467.582 223.343C467.785 223.366 467.945 223.401 468.062 223.448ZM472.797 226.237V236.21H469.703V223.53H472.609L472.797 226.237ZM472.305 229.413H471.391C471.398 228.491 471.523 227.655 471.766 226.905C472.008 226.155 472.348 225.511 472.785 224.972C473.23 224.433 473.758 224.019 474.367 223.729C474.977 223.44 475.656 223.296 476.406 223.296C477.016 223.296 477.566 223.382 478.059 223.554C478.551 223.726 478.973 223.999 479.324 224.374C479.684 224.749 479.957 225.241 480.145 225.851C480.34 226.452 480.438 227.194 480.438 228.077V236.21H477.32V228.054C477.32 227.476 477.234 227.019 477.062 226.683C476.898 226.347 476.656 226.108 476.336 225.968C476.023 225.827 475.637 225.757 475.176 225.757C474.699 225.757 474.281 225.854 473.922 226.05C473.57 226.237 473.273 226.499 473.031 226.835C472.797 227.171 472.617 227.558 472.492 227.995C472.367 228.433 472.305 228.905 472.305 229.413Z" fill="#20294C"/>
<path d="M109.086 260.059V262.192H102.124V260.059H109.086ZM103.988 257.071H106.964V268.706C106.964 269.065 107.013 269.342 107.11 269.537C107.207 269.732 107.353 269.863 107.548 269.93C107.743 269.998 107.975 270.031 108.244 270.031C108.439 270.031 108.618 270.02 108.783 269.998C108.948 269.975 109.086 269.953 109.199 269.93L109.21 272.154C108.963 272.236 108.682 272.304 108.368 272.356C108.061 272.408 107.713 272.435 107.323 272.435C106.657 272.435 106.073 272.322 105.571 272.098C105.07 271.866 104.68 271.495 104.403 270.986C104.126 270.469 103.988 269.788 103.988 268.942V257.071ZM110.243 266.258V266.022C110.243 265.131 110.37 264.311 110.625 263.562C110.88 262.806 111.25 262.151 111.737 261.597C112.223 261.043 112.819 260.613 113.522 260.306C114.226 259.991 115.027 259.834 115.926 259.834C116.839 259.834 117.648 259.991 118.352 260.306C119.063 260.613 119.662 261.043 120.148 261.597C120.635 262.151 121.006 262.806 121.26 263.562C121.515 264.311 121.642 265.131 121.642 266.022V266.258C121.642 267.141 121.515 267.961 121.26 268.717C121.006 269.466 120.635 270.121 120.148 270.683C119.662 271.237 119.067 271.667 118.363 271.974C117.659 272.281 116.854 272.435 115.948 272.435C115.05 272.435 114.245 272.281 113.534 271.974C112.822 271.667 112.223 271.237 111.737 270.683C111.25 270.121 110.88 269.466 110.625 268.717C110.37 267.961 110.243 267.141 110.243 266.258ZM113.208 266.022V266.258C113.208 266.789 113.26 267.287 113.365 267.751C113.47 268.216 113.631 268.624 113.848 268.976C114.065 269.327 114.346 269.604 114.69 269.807C115.042 270.001 115.462 270.099 115.948 270.099C116.427 270.099 116.839 270.001 117.184 269.807C117.528 269.604 117.809 269.327 118.026 268.976C118.25 268.624 118.415 268.216 118.52 267.751C118.625 267.287 118.677 266.789 118.677 266.258V266.022C118.677 265.498 118.625 265.007 118.52 264.551C118.415 264.087 118.25 263.679 118.026 263.327C117.809 262.967 117.524 262.687 117.172 262.484C116.828 262.275 116.412 262.17 115.926 262.17C115.447 262.17 115.035 262.275 114.69 262.484C114.346 262.687 114.065 262.967 113.848 263.327C113.631 263.679 113.47 264.087 113.365 264.551C113.26 265.007 113.208 265.498 113.208 266.022ZM123.271 266.258V266.022C123.271 265.131 123.398 264.311 123.652 263.562C123.907 262.806 124.278 262.151 124.764 261.597C125.251 261.043 125.846 260.613 126.55 260.306C127.254 259.991 128.055 259.834 128.953 259.834C129.867 259.834 130.675 259.991 131.379 260.306C132.09 260.613 132.689 261.043 133.176 261.597C133.662 262.151 134.033 262.806 134.288 263.562C134.542 264.311 134.669 265.131 134.669 266.022V266.258C134.669 267.141 134.542 267.961 134.288 268.717C134.033 269.466 133.662 270.121 133.176 270.683C132.689 271.237 132.094 271.667 131.39 271.974C130.686 272.281 129.882 272.435 128.976 272.435C128.077 272.435 127.272 272.281 126.561 271.974C125.85 271.667 125.251 271.237 124.764 270.683C124.278 270.121 123.907 269.466 123.652 268.717C123.398 267.961 123.271 267.141 123.271 266.258ZM126.235 266.022V266.258C126.235 266.789 126.288 267.287 126.393 267.751C126.497 268.216 126.658 268.624 126.875 268.976C127.093 269.327 127.373 269.604 127.718 269.807C128.07 270.001 128.489 270.099 128.976 270.099C129.455 270.099 129.867 270.001 130.211 269.807C130.555 269.604 130.836 269.327 131.053 268.976C131.278 268.624 131.443 268.216 131.547 267.751C131.652 267.287 131.705 266.789 131.705 266.258V266.022C131.705 265.498 131.652 265.007 131.547 264.551C131.443 264.087 131.278 263.679 131.053 263.327C130.836 262.967 130.552 262.687 130.2 262.484C129.855 262.275 129.44 262.17 128.953 262.17C128.474 262.17 128.062 262.275 127.718 262.484C127.373 262.687 127.093 262.967 126.875 263.327C126.658 263.679 126.497 264.087 126.393 264.551C126.288 265.007 126.235 265.498 126.235 266.022ZM139.97 254.96V272.21H136.994V254.96H139.97ZM149.482 268.886C149.482 268.631 149.415 268.403 149.28 268.201C149.146 267.999 148.891 267.815 148.517 267.65C148.15 267.478 147.611 267.317 146.899 267.167C146.271 267.033 145.69 266.864 145.159 266.662C144.627 266.46 144.17 266.217 143.789 265.932C143.407 265.64 143.107 265.299 142.89 264.91C142.681 264.513 142.576 264.057 142.576 263.54C142.576 263.038 142.684 262.567 142.901 262.125C143.118 261.676 143.433 261.283 143.845 260.946C144.257 260.601 144.758 260.332 145.35 260.137C145.941 259.935 146.607 259.834 147.349 259.834C148.382 259.834 149.269 260.002 150.01 260.339C150.759 260.676 151.332 261.14 151.729 261.732C152.125 262.316 152.324 262.975 152.324 263.708H149.359C149.359 263.387 149.284 263.095 149.134 262.833C148.992 262.57 148.771 262.361 148.472 262.204C148.172 262.039 147.794 261.957 147.337 261.957C146.926 261.957 146.577 262.024 146.293 262.159C146.016 262.293 145.806 262.469 145.664 262.687C145.522 262.904 145.451 263.143 145.451 263.405C145.451 263.6 145.488 263.776 145.563 263.933C145.645 264.083 145.776 264.221 145.956 264.349C146.136 264.476 146.379 264.592 146.686 264.697C147 264.802 147.386 264.903 147.843 265C148.749 265.18 149.539 265.419 150.212 265.719C150.894 266.011 151.425 266.4 151.807 266.887C152.189 267.373 152.38 267.995 152.38 268.751C152.38 269.29 152.264 269.784 152.032 270.233C151.8 270.675 151.463 271.061 151.021 271.39C150.579 271.72 150.051 271.978 149.438 272.165C148.824 272.345 148.131 272.435 147.36 272.435C146.244 272.435 145.301 272.236 144.53 271.839C143.759 271.435 143.175 270.926 142.778 270.312C142.381 269.691 142.183 269.047 142.183 268.38H145.024C145.046 268.852 145.174 269.23 145.406 269.515C145.638 269.799 145.93 270.005 146.282 270.132C146.641 270.252 147.019 270.312 147.416 270.312C147.865 270.312 148.243 270.252 148.55 270.132C148.857 270.005 149.089 269.837 149.247 269.627C149.404 269.41 149.482 269.163 149.482 268.886Z" fill="#20294C"/>
<path d="M156.406 271.062C156.406 270.694 156.52 270.386 156.746 270.136C156.98 269.878 157.316 269.749 157.754 269.749C158.191 269.749 158.523 269.878 158.75 270.136C158.984 270.386 159.102 270.694 159.102 271.062C159.102 271.421 158.984 271.726 158.75 271.976C158.523 272.226 158.191 272.351 157.754 272.351C157.316 272.351 156.98 272.226 156.746 271.976C156.52 271.726 156.406 271.421 156.406 271.062Z" fill="#676B89"/>
</g>
<defs>
<filter id="filter0_dd_1_24556" x="86" y="106.21" width="470" height="94" filterUnits="userSpaceOnUse" color-interpolation-filters="sRGB">
<feFlood flood-opacity="0" result="BackgroundImageFix"/>
<feColorMatrix in="SourceAlpha" type="matrix" values="0 0 0 0 0 0 0 0 0 0 0 0 0 0 0 0 0 0 127 0" result="hardAlpha"/>
<feOffset dy="6"/>
<feGaussianBlur stdDeviation="8"/>
<feComposite in2="hardAlpha" operator="out"/>
<feColorMatrix type="matrix" values="0 0 0 0 0.12549 0 0 0 0 0.160784 0 0 0 0 0.298039 0 0 0 0.12 0"/>
<feBlend mode="normal" in2="BackgroundImageFix" result="effect1_dropShadow_1_24556"/>
<feColorMatrix in="SourceAlpha" type="matrix" values="0 0 0 0 0 0 0 0 0 0 0 0 0 0 0 0 0 0 127 0" result="hardAlpha"/>
<feOffset dy="1"/>
<feGaussianBlur stdDeviation="2.5"/>
<feComposite in2="hardAlpha" operator="out"/>
<feColorMatrix type="matrix" values="0 0 0 0 0.12549 0 0 0 0 0.160784 0 0 0 0 0.298039 0 0 0 0.09 0"/>
<feBlend mode="normal" in2="effect1_dropShadow_1_24556" result="effect2_dropShadow_1_24556"/>
<feBlend mode="normal" in="SourceGraphic" in2="effect2_dropShadow_1_24556" result="shape"/>
</filter>
<linearGradient id="paint0_linear_1_24556" x1="78.5" y1="282.22" x2="78.5" y2="48" gradientUnits="userSpaceOnUse">
<stop stop-color="#C7CBDB"/>
<stop offset="1" stop-color="#C7CBDB" stop-opacity="0"/>
</linearGradient>
<clipPath id="clip0_1_24556">
<rect width="588" height="330.22" rx="20" fill="white"/>
</clipPath>
</defs>
</svg>
