<svg width="75" height="75" viewBox="0 0 75 75" fill="none" xmlns="http://www.w3.org/2000/svg">
<mask id="mask0_1_24394" style="mask-type:luminance" maskUnits="userSpaceOnUse" x="5" y="4" width="65" height="66">
<path d="M53.758 4.99023H21.2995C12.3364 4.99023 5.07031 12.2563 5.07031 21.2195V53.6779C5.07031 62.641 12.3364 69.9071 21.2995 69.9071H53.758C62.7211 69.9071 69.9872 62.641 69.9872 53.6779V21.2195C69.9872 12.2563 62.7211 4.99023 53.758 4.99023Z" fill="white"/>
</mask>
<g mask="url(#mask0_1_24394)">
<path d="M53.758 4.99023H21.2995C12.3364 4.99023 5.07031 12.2563 5.07031 21.2195V53.6779C5.07031 62.641 12.3364 69.9071 21.2995 69.9071H53.758C62.7211 69.9071 69.9872 62.641 69.9872 53.6779V21.2195C69.9872 12.2563 62.7211 4.99023 53.758 4.99023Z" fill="#3B9DFB"/>
<g filter="url(#filter0_i_1_24394)">
<path d="M53.758 4.99023H21.2995C12.3364 4.99023 5.07031 12.2563 5.07031 21.2195V53.6779C5.07031 62.641 12.3364 69.9071 21.2995 69.9071H53.758C62.7211 69.9071 69.9872 62.641 69.9872 53.6779V21.2195C69.9872 12.2563 62.7211 4.99023 53.758 4.99023Z" fill="#3B9DFB"/>
</g>
<g opacity="0.4">
<path d="M14.81 9.86016C15.3479 9.86016 15.784 9.42408 15.784 8.88614C15.784 8.3482 15.3479 7.91211 14.81 7.91211C14.272 7.91211 13.8359 8.3482 13.8359 8.88614C13.8359 9.42408 14.272 9.86016 14.81 9.86016Z" fill="#EDEEF3"/>
<path d="M36.2397 9.86016C36.7776 9.86016 37.2137 9.42408 37.2137 8.88614C37.2137 8.3482 36.7776 7.91211 36.2397 7.91211C35.7017 7.91211 35.2656 8.3482 35.2656 8.88614C35.2656 9.42408 35.7017 9.86016 36.2397 9.86016Z" fill="#EDEEF3"/>
<path d="M57.6654 9.86016C58.2034 9.86016 58.6395 9.42408 58.6395 8.88614C58.6395 8.3482 58.2034 7.91211 57.6654 7.91211C57.1275 7.91211 56.6914 8.3482 56.6914 8.88614C56.6914 9.42408 57.1275 9.86016 57.6654 9.86016Z" fill="#EDEEF3"/>
<path d="M14.81 23.4969C15.3479 23.4969 15.784 23.0608 15.784 22.5229C15.784 21.9849 15.3479 21.5488 14.81 21.5488C14.272 21.5488 13.8359 21.9849 13.8359 22.5229C13.8359 23.0608 14.272 23.4969 14.81 23.4969Z" fill="#EDEEF3"/>
<path d="M36.2397 23.4969C36.7776 23.4969 37.2137 23.0608 37.2137 22.5229C37.2137 21.9849 36.7776 21.5488 36.2397 21.5488C35.7017 21.5488 35.2656 21.9849 35.2656 22.5229C35.2656 23.0608 35.7017 23.4969 36.2397 23.4969Z" fill="#EDEEF3"/>
<path d="M57.6654 23.4969C58.2034 23.4969 58.6395 23.0608 58.6395 22.5229C58.6395 21.9849 58.2034 21.5488 57.6654 21.5488C57.1275 21.5488 56.6914 21.9849 56.6914 22.5229C56.6914 23.0608 57.1275 23.4969 57.6654 23.4969Z" fill="#EDEEF3"/>
<path d="M14.81 37.1336C15.3479 37.1336 15.784 36.6975 15.784 36.1596C15.784 35.6216 15.3479 35.1855 14.81 35.1855C14.272 35.1855 13.8359 35.6216 13.8359 36.1596C13.8359 36.6975 14.272 37.1336 14.81 37.1336Z" fill="#EDEEF3"/>
<path d="M36.2397 37.1336C36.7776 37.1336 37.2137 36.6975 37.2137 36.1596C37.2137 35.6216 36.7776 35.1855 36.2397 35.1855C35.7017 35.1855 35.2656 35.6216 35.2656 36.1596C35.2656 36.6975 35.7017 37.1336 36.2397 37.1336Z" fill="#EDEEF3"/>
<path d="M57.6654 37.1336C58.2034 37.1336 58.6395 36.6975 58.6395 36.1596C58.6395 35.6216 58.2034 35.1855 57.6654 35.1855C57.1275 35.1855 56.6914 35.6216 56.6914 36.1596C56.6914 36.6975 57.1275 37.1336 57.6654 37.1336Z" fill="#EDEEF3"/>
<path d="M14.81 50.7684C15.3479 50.7684 15.784 50.3323 15.784 49.7943C15.784 49.2564 15.3479 48.8203 14.81 48.8203C14.272 48.8203 13.8359 49.2564 13.8359 49.7943C13.8359 50.3323 14.272 50.7684 14.81 50.7684Z" fill="#EDEEF3"/>
<path d="M36.2397 50.7684C36.7776 50.7684 37.2137 50.3323 37.2137 49.7943C37.2137 49.2564 36.7776 48.8203 36.2397 48.8203C35.7017 48.8203 35.2656 49.2564 35.2656 49.7943C35.2656 50.3323 35.7017 50.7684 36.2397 50.7684Z" fill="#EDEEF3"/>
<path d="M57.6654 50.7684C58.2034 50.7684 58.6395 50.3323 58.6395 49.7943C58.6395 49.2564 58.2034 48.8203 57.6654 48.8203C57.1275 48.8203 56.6914 49.2564 56.6914 49.7943C56.6914 50.3323 57.1275 50.7684 57.6654 50.7684Z" fill="#EDEEF3"/>
<path d="M14.81 64.4051C15.3479 64.4051 15.784 63.969 15.784 63.4311C15.784 62.8931 15.3479 62.457 14.81 62.457C14.272 62.457 13.8359 62.8931 13.8359 63.4311C13.8359 63.969 14.272 64.4051 14.81 64.4051Z" fill="#EDEEF3"/>
<path d="M36.2397 64.4051C36.7776 64.4051 37.2137 63.969 37.2137 63.4311C37.2137 62.8931 36.7776 62.457 36.2397 62.457C35.7017 62.457 35.2656 62.8931 35.2656 63.4311C35.2656 63.969 35.7017 64.4051 36.2397 64.4051Z" fill="#EDEEF3"/>
<path d="M57.6654 64.4051C58.2034 64.4051 58.6395 63.969 58.6395 63.4311C58.6395 62.8931 58.2034 62.457 57.6654 62.457C57.1275 62.457 56.6914 62.8931 56.6914 63.4311C56.6914 63.969 57.1275 64.4051 57.6654 64.4051Z" fill="#EDEEF3"/>
</g>
<g filter="url(#filter1_ddd_1_24394)">
<path fill-rule="evenodd" clip-rule="evenodd" d="M59.4216 15.7112C55.9755 18.9313 53.9086 25.2469 53.0749 37.7583C52.2839 49.6307 47.0797 57.5368 39.5787 60.1122C32.1265 62.6709 24.0995 59.3446 19.28 52.3346C17.0554 49.0989 14.8356 47.9271 13.0463 47.6437C11.2102 47.3544 9.13751 47.893 7.0492 49.394C2.74401 52.4904 -0.529695 58.9453 0.0703049 65.3476L-7.68781 66.0751C-8.54885 56.893 -4.03034 47.7635 2.5005 43.0687C5.83069 40.6726 9.93621 39.2641 14.2628 39.9479C18.6382 40.6394 22.5674 43.3628 25.7008 47.9193C28.9404 52.6316 33.532 53.9495 37.0482 52.7427C40.5158 51.5524 44.631 47.2833 45.3002 37.2401C46.13 24.7969 48.2028 15.529 54.1025 10.017C60.1492 4.36866 69.0567 3.67807 80.3817 4.91606L79.5343 12.6625C68.3671 11.4411 62.7226 12.6294 59.4216 15.7112Z" fill="#9AE97F"/>
</g>
</g>
<path d="M53.7595 2.96289H21.3011C11.2174 2.96289 3.04297 11.1373 3.04297 21.221V53.6794C3.04297 63.7631 11.2174 71.9376 21.3011 71.9376H53.7595C63.8432 71.9376 72.0176 63.7631 72.0176 53.6794V21.221C72.0176 11.1373 63.8432 2.96289 53.7595 2.96289Z" stroke="#C7CBDB" stroke-opacity="0.4" stroke-width="4.05779"/>
<defs>
<filter id="filter0_i_1_24394" x="5.07031" y="4.99023" width="64.917" height="64.917" filterUnits="userSpaceOnUse" color-interpolation-filters="sRGB">
<feFlood flood-opacity="0" result="BackgroundImageFix"/>
<feBlend mode="normal" in="SourceGraphic" in2="BackgroundImageFix" result="shape"/>
<feColorMatrix in="SourceAlpha" type="matrix" values="0 0 0 0 0 0 0 0 0 0 0 0 0 0 0 0 0 0 127 0" result="hardAlpha"/>
<feOffset/>
<feGaussianBlur stdDeviation="5.07175"/>
<feComposite in2="hardAlpha" operator="arithmetic" k2="-1" k3="1"/>
<feColorMatrix type="matrix" values="0 0 0 0 0.222656 0 0 0 0 0.587524 0 0 0 0 0.9375 0 0 0 1 0"/>
<feBlend mode="normal" in2="shape" result="effect1_innerShadow_1_24394"/>
</filter>
<filter id="filter1_ddd_1_24394" x="-11.8508" y="2.36564" width="96.2904" height="71.8251" filterUnits="userSpaceOnUse" color-interpolation-filters="sRGB">
<feFlood flood-opacity="0" result="BackgroundImageFix"/>
<feColorMatrix in="SourceAlpha" type="matrix" values="0 0 0 0 0 0 0 0 0 0 0 0 0 0 0 0 0 0 127 0" result="hardAlpha"/>
<feOffset dy="1.01396"/>
<feGaussianBlur stdDeviation="1.52143"/>
<feColorMatrix type="matrix" values="0 0 0 0 0.12549 0 0 0 0 0.160784 0 0 0 0 0.298039 0 0 0 0.12 0"/>
<feBlend mode="normal" in2="BackgroundImageFix" result="effect1_dropShadow_1_24394"/>
<feColorMatrix in="SourceAlpha" type="matrix" values="0 0 0 0 0 0 0 0 0 0 0 0 0 0 0 0 0 0 127 0" result="hardAlpha"/>
<feOffset dy="4.05779"/>
<feGaussianBlur stdDeviation="2.0289"/>
<feComposite in2="hardAlpha" operator="out"/>
<feColorMatrix type="matrix" values="0 0 0 0 0 0 0 0 0 0 0 0 0 0 0 0 0 0 0.25 0"/>
<feBlend mode="normal" in2="effect1_dropShadow_1_24394" result="effect2_dropShadow_1_24394"/>
<feColorMatrix in="SourceAlpha" type="matrix" values="0 0 0 0 0 0 0 0 0 0 0 0 0 0 0 0 0 0 127 0" result="hardAlpha"/>
<feOffset dy="1.01396"/>
<feComposite in2="hardAlpha" operator="out"/>
<feColorMatrix type="matrix" values="0 0 0 0 1 0 0 0 0 1 0 0 0 0 1 0 0 0 0.2 0"/>
<feBlend mode="normal" in2="effect2_dropShadow_1_24394" result="effect3_dropShadow_1_24394"/>
<feBlend mode="normal" in="SourceGraphic" in2="effect3_dropShadow_1_24394" result="shape"/>
</filter>
</defs>
</svg>
