<svg width="441" height="186" viewBox="0 0 441 186" fill="none" xmlns="http://www.w3.org/2000/svg">
<g opacity="0.04">
<g filter="url(#filter0_f_1_24787)">
<path d="M407.618 178.094L33.3023 178.161C18.7896 178.163 7.02303 166.401 7.02046 151.888L6.99977 35.1824C6.9972 20.6698 18.7596 8.90319 33.2723 8.90062L407.588 8.83427C422.101 8.8317 433.867 20.5941 433.87 35.1068L433.89 151.812C433.893 166.325 422.131 178.092 407.618 178.094Z" fill="#20294C"/>
</g>
</g>
<path d="M407.618 169.725L33.3023 169.791C18.7896 169.794 7.02303 158.032 7.02046 143.519L6.99977 26.8133C6.9972 12.3006 18.7596 0.534048 33.2723 0.531475L407.588 0.465127C422.101 0.462555 433.867 12.225 433.87 26.7376L433.89 143.443C433.893 157.956 422.131 169.723 407.618 169.725Z" fill="white"/>
<path d="M407.618 169.725L33.3023 169.791C18.7896 169.794 7.02303 158.032 7.02046 143.519L6.99977 26.8133C6.9972 12.3006 18.7596 0.534048 33.2723 0.531475L407.588 0.465127C422.101 0.462555 433.867 12.225 433.87 26.7376L433.89 143.443C433.893 157.956 422.131 169.723 407.618 169.725Z" stroke="#DDDFE9" stroke-width="0.93" stroke-miterlimit="10"/>
<path d="M389.119 73.0076L44.619 73.0687C29.8292 73.0713 17.8384 61.0848 17.8358 46.295C17.8332 31.5052 29.8197 19.5145 44.6095 19.5119L389.109 19.4508C403.899 19.4482 415.89 31.4347 415.893 46.2245C415.895 61.0143 403.909 73.005 389.119 73.0076Z" fill="#89E8A8"/>
<path d="M36.8499 115.768L36.847 99.262C36.8468 98.1013 37.5163 97.4335 38.6081 97.4333C39.7139 97.4331 40.3696 98.1007 40.3698 99.2613L40.3728 115.767C40.373 116.928 39.7174 117.595 38.6117 117.596C37.5199 117.596 36.8501 116.928 36.8499 115.768Z" fill="#20294C"/>
<path d="M43.1649 107.506C43.1638 101.227 46.7268 97.3353 52.2957 97.3343C55.9413 97.3337 58.8209 99.0397 60.1187 101.92C60.3374 102.37 60.4472 102.835 60.4473 103.244C60.4474 104.186 59.8337 104.787 58.8907 104.787C58.0863 104.787 57.5533 104.405 57.1718 103.545C56.2564 101.429 54.4678 100.324 52.3241 100.324C48.9389 100.325 46.7688 103.11 46.7696 107.506C46.7704 111.929 48.9275 114.7 52.3397 114.699C54.5931 114.699 56.3264 113.716 57.2272 111.641C57.5814 110.835 58.0324 110.507 58.7969 110.507C59.7659 110.506 60.4347 111.148 60.4349 112.076C60.4349 112.526 60.3262 112.936 60.1077 113.401C58.8518 116.076 56.0546 117.688 52.3681 117.688C46.6756 117.689 43.166 113.827 43.1649 107.506Z" fill="#20294C"/>
<path d="M63.471 115.764L63.4681 99.2581C63.4679 98.0974 64.1364 97.4296 65.2292 97.4294C66.335 97.4292 66.9907 98.0968 66.9909 99.2574L66.9939 115.763C66.9941 116.924 66.3385 117.592 65.2328 117.592C64.14 117.592 63.4712 116.924 63.471 115.764Z" fill="#20294C"/>
<path d="M69.7899 107.503C69.7888 101.223 73.3518 97.3314 78.9207 97.3304C82.5663 97.3298 85.4459 99.0358 86.7437 101.916C86.9624 102.366 87.0722 102.831 87.0723 103.24C87.0724 104.182 86.4587 104.783 85.5157 104.783C84.7113 104.783 84.1783 104.401 83.7959 103.541C82.8814 101.425 81.0928 100.32 78.9491 100.32C75.5639 100.321 73.3938 103.106 73.3946 107.502C73.3954 111.925 75.5525 114.696 78.9647 114.695C81.2181 114.695 82.9514 113.712 83.8522 111.637C84.2064 110.831 84.6574 110.503 85.4219 110.503C86.3909 110.503 87.0597 111.144 87.0599 112.072C87.0599 112.522 86.9512 112.933 86.7327 113.397C85.4768 116.072 82.6796 117.684 78.994 117.684C73.3006 117.685 69.791 113.823 69.7899 107.503Z" fill="#20294C"/>
<path d="M90.096 115.758L90.0931 99.2522C90.0929 98.0916 90.7614 97.4237 91.8542 97.4235C92.96 97.4233 93.6157 98.0909 93.6159 99.2516L93.6189 115.757C93.6191 116.918 92.9635 117.586 91.8578 117.586C90.765 117.586 90.0962 116.918 90.096 115.758Z" fill="#20294C"/>
<path d="M102.678 115.524L102.675 99.4836C102.675 98.3369 103.343 97.6542 104.435 97.654L110.852 97.6528C114.429 97.6522 116.736 99.5769 116.736 102.566C116.737 104.682 115.168 106.525 113.147 106.854L113.147 106.963C115.823 107.222 117.693 109.146 117.693 111.753C117.694 115.221 115.142 117.351 110.938 117.352L104.439 117.353C103.347 117.353 102.678 116.671 102.678 115.524ZM109.42 105.953C111.878 105.953 113.256 104.915 113.255 103.085C113.255 101.365 112.067 100.396 109.966 100.397L106.197 100.397L106.198 105.954L109.42 105.953ZM110.131 114.608C112.725 114.607 114.104 113.529 114.103 111.508C114.103 109.501 112.683 108.451 109.98 108.451L106.199 108.452L106.2 114.609L110.131 114.608Z" fill="#20294C"/>
<path d="M119.267 113.215C119.266 110.648 121.245 109.106 124.767 108.886L128.603 108.667L128.603 107.629C128.602 106.114 127.579 105.241 125.9 105.241C124.575 105.242 123.715 105.692 122.869 106.934C122.514 107.398 122.064 107.616 121.491 107.617C120.658 107.617 120.058 107.072 120.058 106.253C120.058 105.939 120.139 105.638 120.289 105.324C121.026 103.645 123.266 102.579 126.036 102.579C129.627 102.578 131.961 104.476 131.962 107.383L131.963 115.915C131.964 117.007 131.266 117.622 130.311 117.622C129.383 117.622 128.742 117.062 128.686 116.052L128.686 115.042L128.618 115.042C127.785 116.612 125.971 117.582 124.101 117.582C121.302 117.582 119.267 115.822 119.267 113.215ZM128.604 111.984L128.603 110.879L125.246 111.084C123.607 111.194 122.666 111.931 122.667 113.077C122.667 114.265 123.663 115.015 125.137 115.015C127.049 115.015 128.604 113.732 128.604 111.984Z" fill="#20294C"/>
<path d="M134.689 115.832L134.687 104.31C134.687 103.259 135.301 102.59 136.311 102.59C137.307 102.589 137.991 103.259 137.991 104.31L137.991 105.32L138.059 105.32C138.837 103.599 140.338 102.603 142.564 102.602C145.759 102.602 147.575 104.649 147.575 107.994L147.577 115.83C147.577 116.977 146.88 117.618 145.884 117.619C144.888 117.619 144.177 116.977 144.177 115.83L144.175 108.677C144.175 106.629 143.22 105.482 141.281 105.483C139.329 105.483 138.087 106.89 138.088 108.965L138.089 115.832C138.089 116.978 137.379 117.62 136.383 117.62C135.387 117.62 134.689 116.979 134.689 115.832Z" fill="#20294C"/>
<path d="M150.381 115.829L150.378 99.1614C150.378 98.0147 151.088 97.3729 152.084 97.3727C153.081 97.3726 153.777 98.0141 153.777 99.1608L153.779 108.852L153.82 108.852L159.498 103.241C159.935 102.777 160.303 102.586 160.822 102.586C161.668 102.586 162.311 103.226 162.311 104.046C162.311 104.551 162.16 104.865 161.697 105.302L157.575 109.207L162.107 114.872C162.463 115.363 162.572 115.663 162.572 116.1C162.572 116.987 161.904 117.615 160.962 117.615C160.293 117.616 159.896 117.384 159.405 116.675L155.063 111.173L153.78 112.375L153.78 115.828C153.781 116.975 153.085 117.617 152.088 117.617C151.092 117.617 150.381 116.976 150.381 115.829Z" fill="#20294C"/>
<path d="M41.8303 146.28L41.3799 144.944L37.4311 144.945L36.9812 146.281L35.1649 146.281L38.7957 135.772L40.0121 135.772L43.6465 146.28L41.8303 146.28ZM39.4118 138.639L37.9563 143.398L40.8542 143.397L39.4118 138.639Z" fill="#676B89"/>
<path d="M54.3961 142.901C54.2762 143.411 54.0717 143.887 53.7816 144.327C53.4915 144.767 53.1307 145.153 52.7002 145.483C52.2697 145.813 51.7749 146.071 51.2142 146.256C50.6534 146.441 50.0527 146.534 49.4128 146.534C48.5516 146.534 47.7806 146.385 47.1008 146.085C46.42 145.784 45.8424 145.382 45.3661 144.877C44.8908 144.372 44.5252 143.786 44.2703 143.12C44.0153 142.454 43.8868 141.751 43.8867 141.011C43.8866 140.301 44.0092 139.614 44.2546 138.954C44.5 138.293 44.8543 137.708 45.3201 137.197C45.785 136.686 46.3457 136.279 47.0013 135.974C47.6569 135.668 48.399 135.516 49.2305 135.516C50.0117 135.516 50.7045 135.622 51.31 135.837C51.9155 136.053 52.4326 136.343 52.8632 136.708C53.2939 137.074 53.6381 137.503 53.893 137.999C54.1479 138.495 54.3154 139.027 54.3955 139.597L52.5792 139.598C52.5196 139.238 52.4014 138.902 52.2265 138.592C52.0516 138.283 51.8302 138.014 51.5652 137.789C51.3001 137.564 50.9903 137.387 50.6351 137.256C50.2788 137.126 49.8864 137.061 49.4558 137.061C48.855 137.061 48.3175 137.172 47.8423 137.392C47.3662 137.612 46.9691 137.905 46.6493 138.271C46.3285 138.636 46.084 139.057 45.9139 139.532C45.7428 140.007 45.6583 140.5 45.6584 141.011C45.6585 141.551 45.7469 142.061 45.9218 142.541C46.0968 143.022 46.3526 143.445 46.6874 143.811C47.0223 144.176 47.439 144.464 47.9338 144.674C48.4295 144.884 48.9978 144.989 49.6376 144.989C49.938 144.989 50.2402 144.935 50.5453 144.83C50.8503 144.725 51.1339 144.58 51.3933 144.395C51.6537 144.21 51.8825 143.989 52.0768 143.734C52.272 143.48 52.4143 143.202 52.5054 142.901L54.3961 142.901Z" fill="#676B89"/>
<path d="M66.0289 142.899C65.909 143.409 65.7045 143.885 65.4144 144.325C65.1243 144.766 64.7635 145.151 64.333 145.481C63.9025 145.811 63.4078 146.069 62.847 146.254C62.2862 146.439 61.6855 146.532 61.0456 146.532C60.1845 146.532 59.4135 146.383 58.7336 146.083C58.0528 145.782 57.4752 145.38 56.9989 144.875C56.5236 144.37 56.158 143.784 55.9031 143.118C55.6481 142.452 55.5197 141.749 55.5195 141.009C55.5194 140.299 55.642 139.612 55.8874 138.952C56.1328 138.292 56.4871 137.706 56.9529 137.195C57.4178 136.684 57.9785 136.277 58.6341 135.972C59.2897 135.666 60.0318 135.514 60.8633 135.514C61.6445 135.514 62.3373 135.62 62.9428 135.835C63.5483 136.051 64.0654 136.341 64.4961 136.706C64.9267 137.072 65.2709 137.501 65.5258 137.997C65.7807 138.493 65.9482 139.025 66.0283 139.595L64.212 139.596C64.1524 139.236 64.0342 138.9 63.8593 138.591C63.6844 138.281 63.4631 138.012 63.198 137.787C62.9329 137.562 62.6232 137.385 62.2679 137.254C61.9117 137.124 61.5192 137.059 61.0886 137.059C60.4878 137.059 59.9503 137.17 59.4751 137.39C58.999 137.61 58.6019 137.903 58.2821 138.269C57.9613 138.634 57.7168 139.055 57.5467 139.53C57.3756 140.005 57.2911 140.498 57.2912 141.009C57.2913 141.549 57.3797 142.059 57.5546 142.54C57.7296 143.02 57.9854 143.443 58.3203 143.809C58.6551 144.174 59.0718 144.462 59.5666 144.672C60.0623 144.882 60.6306 144.987 61.2704 144.987C61.5708 144.987 61.8731 144.933 62.1781 144.828C62.4831 144.723 62.7667 144.578 63.0262 144.393C63.2865 144.208 63.5153 143.987 63.7096 143.733C63.9048 143.478 64.0471 143.2 64.1382 142.899L66.0289 142.899Z" fill="#676B89"/>
<path d="M72.5921 146.53C71.7514 146.531 70.9944 146.378 70.3182 146.073C69.6421 145.768 69.0719 145.36 68.6059 144.85C68.1408 144.339 67.7836 143.752 67.5323 143.087C67.282 142.421 67.1564 141.733 67.1562 141.022C67.1561 140.311 67.2816 139.623 67.5316 138.957C67.7826 138.291 68.1396 137.704 68.6045 137.193C69.0704 136.682 69.6404 136.275 70.3164 135.97C70.9925 135.665 71.7495 135.512 72.5902 135.512C73.4309 135.512 74.1889 135.664 74.8641 135.969C75.5403 136.274 76.1105 136.681 76.5765 137.192C77.0416 137.702 77.3988 138.29 77.65 138.956C77.9003 139.621 78.026 140.31 78.0261 141.02C78.0262 141.731 77.9008 142.419 77.6507 143.085C77.3998 143.751 77.0427 144.338 76.5778 144.848C76.112 145.359 75.542 145.767 74.8659 146.072C74.1908 146.378 73.4329 146.53 72.5921 146.53ZM72.5919 144.985C73.1527 144.985 73.6548 144.874 74.1003 144.653C74.5457 144.434 74.927 144.138 75.2422 143.768C75.5574 143.398 75.7963 142.974 75.9618 142.499C76.1272 142.024 76.2099 141.531 76.2098 141.02C76.2097 140.51 76.1269 140.017 75.9612 139.542C75.7956 139.067 75.5565 138.643 75.2412 138.273C74.9258 137.903 74.5445 137.608 74.099 137.387C73.6535 137.168 73.1513 137.057 72.5905 137.057C72.0297 137.057 71.5275 137.168 71.0821 137.388C70.6366 137.608 70.2563 137.904 69.9411 138.274C69.625 138.644 69.386 139.068 69.2206 139.543C69.0551 140.018 68.9724 140.511 68.9725 141.022C68.9726 141.532 69.0555 142.025 69.2211 142.5C69.3867 142.976 69.6258 143.399 69.9421 143.769C70.2574 144.139 70.6378 144.434 71.0834 144.654C71.5289 144.874 72.0311 144.985 72.5919 144.985Z" fill="#676B89"/>
<path d="M79.6162 135.765L81.3432 135.764L81.3445 142.76C81.3445 143.06 81.3911 143.345 81.4869 143.615C81.5827 143.886 81.7195 144.121 81.8999 144.321C82.0795 144.521 82.2953 144.682 82.5455 144.802C82.7966 144.922 83.0756 144.982 83.3862 144.982C83.6968 144.982 83.9795 144.922 84.2343 144.802C84.4891 144.682 84.7077 144.521 84.8871 144.321C85.0675 144.121 85.2079 143.885 85.3073 143.615C85.4068 143.344 85.457 143.059 85.4569 142.759L85.4557 135.764L87.1827 135.763L87.1839 142.759C87.184 143.269 87.0939 143.752 86.9145 144.208C86.7341 144.663 86.4785 145.063 86.1493 145.409C85.8192 145.754 85.4203 146.027 84.9553 146.227C84.4894 146.427 83.9668 146.528 83.3865 146.528C82.8164 146.528 82.3002 146.428 81.8408 146.228C81.3804 146.028 80.9832 145.754 80.6539 145.409C80.3237 145.065 80.0679 144.665 79.8883 144.209C79.7078 143.753 79.6175 143.271 79.6175 142.76L79.6162 135.765Z" fill="#676B89"/>
<path d="M95.3508 143.24L95.3495 135.764L97.0765 135.763L97.0783 146.272L95.1867 146.273L91.0274 138.797L91.0287 146.273L89.3017 146.274L89.2998 135.765L91.1924 135.764L95.3508 143.24Z" fill="#676B89"/>
<path d="M100.921 137.309L98.3235 137.309L98.3232 135.763L105.259 135.761L105.259 137.308L102.647 137.309L102.649 146.271L100.923 146.271L100.921 137.309Z" fill="#676B89"/>
<path d="M116.308 143.236L116.306 135.76L118.033 135.759L118.035 146.268L116.144 146.269L111.984 138.793L111.986 146.269L110.259 146.27L110.257 135.761L112.149 135.76L116.308 143.236Z" fill="#676B89"/>
<path d="M120.147 135.759L121.874 135.758L121.876 142.754C121.876 143.054 121.922 143.339 122.018 143.61C122.114 143.88 122.251 144.115 122.431 144.315C122.611 144.515 122.827 144.676 123.077 144.796C123.328 144.916 123.607 144.976 123.917 144.976C124.228 144.976 124.511 144.916 124.766 144.796C125.02 144.676 125.239 144.515 125.418 144.315C125.599 144.115 125.739 143.879 125.839 143.609C125.938 143.338 125.988 143.054 125.988 142.753L125.987 135.758L127.714 135.757L127.715 142.753C127.715 143.263 127.625 143.746 127.446 144.202C127.265 144.658 127.01 145.058 126.681 145.403C126.35 145.748 125.952 146.021 125.487 146.221C125.021 146.421 124.498 146.522 123.918 146.522C123.348 146.522 122.831 146.422 122.372 146.222C121.912 146.022 121.514 145.749 121.185 145.404C120.855 145.059 120.599 144.659 120.42 144.203C120.239 143.747 120.149 143.265 120.149 142.754L120.147 135.759Z" fill="#676B89"/>
<path d="M139.849 146.264L138.123 146.264L138.122 139.764L135.497 146.265L134.19 146.265L131.562 139.765L131.563 146.266L129.837 146.266L129.835 135.757L131.486 135.757L134.85 143.577L138.197 135.755L139.847 135.755L139.849 146.264Z" fill="#676B89"/>
<path d="M142.038 135.755L145.625 135.754C146.346 135.754 146.926 135.852 147.367 136.047C147.808 136.242 148.149 136.481 148.395 136.767C148.64 137.052 148.803 137.36 148.884 137.69C148.964 138.02 149.004 138.32 149.004 138.591C149.004 138.921 148.949 139.219 148.839 139.484C148.729 139.749 148.586 139.98 148.411 140.175C148.236 140.37 148.037 140.531 147.818 140.656C147.598 140.781 147.377 140.868 147.158 140.918C147.328 140.918 147.523 140.968 147.743 141.068C147.963 141.168 148.173 141.317 148.374 141.511C148.574 141.707 148.744 141.952 148.885 142.247C149.025 142.543 149.094 142.89 149.094 143.29C149.094 143.561 149.05 143.868 148.96 144.213C148.87 144.559 148.699 144.884 148.449 145.19C148.199 145.496 147.849 145.75 147.399 145.955C146.948 146.161 146.363 146.263 145.643 146.263L142.04 146.264L142.038 135.755ZM145.626 140.168C145.976 140.168 146.259 140.118 146.474 140.018C146.689 139.919 146.857 139.795 146.977 139.65C147.097 139.505 147.178 139.35 147.218 139.185C147.258 139.019 147.277 138.871 147.277 138.741C147.277 138.611 147.258 138.464 147.218 138.298C147.178 138.134 147.097 137.977 146.977 137.826C146.857 137.675 146.688 137.551 146.474 137.45C146.259 137.351 145.976 137.301 145.625 137.301L143.764 137.301L143.765 140.168L145.626 140.168ZM143.765 141.715L143.766 144.717L145.718 144.717C146.068 144.717 146.35 144.669 146.566 144.574C146.78 144.478 146.948 144.356 147.068 144.206C147.189 144.055 147.269 143.893 147.309 143.718C147.349 143.544 147.368 143.38 147.368 143.23C147.368 143.1 147.346 142.947 147.301 142.772C147.256 142.597 147.17 142.432 147.045 142.277C146.92 142.122 146.752 141.99 146.542 141.879C146.331 141.769 146.061 141.715 145.731 141.715L143.765 141.715Z" fill="#676B89"/>
<path d="M152.742 137.299L152.742 140.271L157.081 140.271L157.081 141.817L152.743 141.818L152.743 144.715L157.082 144.714L157.082 146.261L151.017 146.262L151.015 135.753L157.08 135.752L157.08 137.298L152.742 137.299Z" fill="#676B89"/>
<path d="M159.198 135.751L162.967 135.75C163.527 135.75 164.035 135.848 164.491 136.043C164.946 136.238 165.336 136.505 165.662 136.845C165.987 137.186 166.238 137.578 166.413 138.024C166.588 138.469 166.676 138.938 166.676 139.428C166.676 139.808 166.625 140.171 166.526 140.516C166.425 140.862 166.278 141.182 166.083 141.477C165.888 141.772 165.653 142.038 165.377 142.273C165.102 142.508 164.794 142.696 164.454 142.836L166.542 146.259L164.576 146.259L162.653 143.107L160.927 143.107L160.927 146.26L159.2 146.26L159.198 135.751ZM162.968 141.56C163.267 141.56 163.541 141.503 163.786 141.388C164.032 141.272 164.238 141.117 164.409 140.922C164.579 140.726 164.711 140.501 164.807 140.247C164.902 139.992 164.949 139.718 164.949 139.428C164.949 139.138 164.902 138.865 164.807 138.61C164.711 138.355 164.579 138.13 164.408 137.935C164.237 137.739 164.031 137.584 163.785 137.469C163.54 137.354 163.266 137.297 162.967 137.297L160.926 137.297L160.926 141.56L162.968 141.56Z" fill="#676B89"/>
<path d="M346.069 140.143L347.675 138.281L345.558 137.772L345.888 136.781L347.854 137.621L347.645 135.46L348.755 135.459L348.546 137.621L350.512 136.78L350.842 137.771L348.726 138.281L350.332 140.143L349.402 140.803L348.2 138.762L346.999 140.803L346.069 140.143Z" fill="#676B89"/>
<path d="M353.007 140.141L354.612 138.279L352.496 137.77L352.826 136.779L354.792 137.619L354.582 135.458L355.692 135.457L355.484 137.619L357.449 136.778L357.78 137.769L355.663 138.279L357.27 140.141L356.34 140.801L355.138 138.76L353.937 140.802L353.007 140.141Z" fill="#676B89"/>
<path d="M359.94 140.141L361.546 138.279L359.429 137.77L359.759 136.779L361.725 137.619L361.516 135.458L362.626 135.457L362.417 137.619L364.383 136.778L364.713 137.769L362.597 138.279L364.203 140.141L363.273 140.801L362.071 138.76L360.87 140.802L359.94 140.141Z" fill="#676B89"/>
<path d="M366.878 140.139L368.483 138.277L366.367 137.768L366.697 136.777L368.663 137.617L368.453 135.456L369.564 135.455L369.355 137.617L371.321 136.776L371.651 137.767L369.534 138.277L371.141 140.139L370.211 140.799L369.009 138.758L367.808 140.8L366.878 140.139Z" fill="#676B89"/>
<path d="M373.389 144.133C373.53 143.572 373.724 143.096 373.975 142.706C374.225 142.315 374.523 141.986 374.869 141.715C375.214 141.445 375.586 141.181 375.986 140.92C376.216 140.78 376.454 140.634 376.7 140.484C376.945 140.333 377.167 140.166 377.368 139.981C377.568 139.795 377.733 139.586 377.863 139.351C377.993 139.116 378.058 138.838 378.058 138.517C378.058 138.007 377.913 137.639 377.623 137.414C377.332 137.189 376.972 137.076 376.542 137.076C376.092 137.076 375.706 137.214 375.386 137.489C375.065 137.765 374.905 138.207 374.905 138.818L373.179 138.818C373.179 138.288 373.272 137.817 373.457 137.407C373.642 136.997 373.891 136.654 374.207 136.378C374.522 136.103 374.882 135.893 375.287 135.748C375.693 135.602 376.116 135.53 376.556 135.53C377.007 135.53 377.43 135.595 377.825 135.725C378.22 135.855 378.563 136.053 378.853 136.318C379.143 136.583 379.372 136.913 379.537 137.308C379.702 137.703 379.784 138.161 379.784 138.682C379.784 139.163 379.669 139.592 379.439 139.973C379.209 140.353 378.939 140.686 378.629 140.972C378.319 141.257 378.006 141.5 377.69 141.7C377.375 141.9 377.133 142.061 376.963 142.181C376.583 142.452 376.275 142.686 376.04 142.886C375.805 143.086 375.622 143.277 375.492 143.457C375.361 143.638 375.275 143.823 375.229 144.012C375.184 144.203 375.162 144.423 375.162 144.673L379.726 144.672L379.726 146.219L373.181 146.22C373.18 145.389 373.25 144.694 373.389 144.133Z" fill="#676B89"/>
<path d="M381.452 135.708L387.833 135.707L387.833 137.253L382.999 137.254L382.999 140.167C383.109 139.967 383.255 139.796 383.434 139.656C383.615 139.516 383.81 139.401 384.02 139.31C384.23 139.22 384.443 139.155 384.658 139.115C384.872 139.076 385.071 139.055 385.251 139.055C385.812 139.055 386.304 139.153 386.73 139.348C387.155 139.543 387.51 139.808 387.795 140.143C388.081 140.479 388.297 140.868 388.442 141.314C388.587 141.759 388.66 142.228 388.66 142.718C388.66 143.218 388.573 143.688 388.398 144.129C388.223 144.57 387.972 144.959 387.647 145.3C387.321 145.64 386.931 145.908 386.477 146.104C386.021 146.299 385.513 146.397 384.953 146.397C384.392 146.397 383.886 146.299 383.436 146.104C382.985 145.909 382.6 145.641 382.279 145.301C381.96 144.96 381.711 144.571 381.536 144.13C381.361 143.689 381.274 143.22 381.274 142.719L383 142.719C383 143.009 383.045 143.283 383.136 143.537C383.226 143.792 383.355 144.018 383.525 144.212C383.697 144.408 383.901 144.562 384.141 144.677C384.382 144.793 384.652 144.85 384.952 144.85C385.252 144.85 385.525 144.792 385.771 144.677C386.016 144.562 386.226 144.407 386.401 144.212C386.576 144.018 386.708 143.792 386.798 143.537C386.888 143.282 386.934 143.008 386.934 142.718C386.934 142.428 386.888 142.155 386.798 141.9C386.708 141.645 386.575 141.419 386.401 141.224C386.226 141.03 386.015 140.874 385.77 140.759C385.524 140.644 385.251 140.586 384.951 140.586C384.571 140.586 384.23 140.679 383.93 140.864C383.63 141.05 383.381 141.343 383.18 141.742L381.453 141.743L381.452 135.708Z" fill="#676B89"/>
<path d="M393.838 146.396C393.277 146.396 392.775 146.31 392.33 146.14C391.884 145.97 391.507 145.738 391.196 145.442C390.885 145.147 390.648 144.808 390.482 144.422C390.317 144.037 390.235 143.624 390.235 143.183C390.235 142.933 390.264 142.68 390.324 142.425C390.383 142.17 390.476 141.929 390.602 141.704C390.727 141.479 390.884 141.276 391.075 141.096C391.265 140.916 391.495 140.781 391.765 140.69C391.294 140.48 390.964 140.17 390.774 139.76C390.585 139.35 390.489 138.935 390.489 138.514C390.489 138.115 390.564 137.731 390.714 137.366C390.863 137 391.084 136.682 391.374 136.412C391.664 136.141 392.015 135.927 392.425 135.767C392.835 135.607 393.306 135.526 393.836 135.526C394.357 135.526 394.826 135.606 395.241 135.766C395.655 135.926 396.005 136.144 396.291 136.419C396.576 136.694 396.795 137.012 396.945 137.372C397.095 137.733 397.17 138.113 397.17 138.513C397.17 138.934 397.074 139.348 396.885 139.759C396.695 140.169 396.365 140.479 395.894 140.69C396.165 140.78 396.395 140.916 396.584 141.095C396.775 141.275 396.932 141.48 397.058 141.711C397.183 141.941 397.277 142.184 397.336 142.439C397.396 142.694 397.425 142.942 397.426 143.182C397.426 143.602 397.344 144.005 397.178 144.39C397.014 144.776 396.779 145.118 396.474 145.419C396.168 145.719 395.793 145.957 395.347 146.132C394.902 146.307 394.399 146.395 393.838 146.396ZM393.838 144.849C394.128 144.849 394.388 144.804 394.619 144.714C394.849 144.624 395.044 144.501 395.205 144.346C395.365 144.19 395.487 144.013 395.572 143.813C395.657 143.613 395.699 143.402 395.699 143.182C395.699 142.972 395.659 142.765 395.579 142.559C395.499 142.353 395.378 142.174 395.218 142.019C395.058 141.863 394.863 141.739 394.633 141.643C394.403 141.548 394.138 141.501 393.837 141.501C393.538 141.501 393.27 141.547 393.035 141.637C392.799 141.727 392.601 141.849 392.441 142.004C392.282 142.16 392.161 142.339 392.081 142.545C392.001 142.75 391.961 142.962 391.961 143.183C391.961 143.413 392.004 143.628 392.089 143.828C392.174 144.029 392.296 144.204 392.457 144.354C392.617 144.504 392.815 144.624 393.05 144.714C393.285 144.804 393.548 144.849 393.838 144.849ZM393.837 140.12C394.088 140.12 394.312 140.077 394.512 139.991C394.713 139.907 394.88 139.794 395.015 139.655C395.151 139.514 395.256 139.351 395.33 139.166C395.406 138.981 395.443 138.788 395.443 138.588C395.443 138.388 395.406 138.198 395.33 138.018C395.256 137.837 395.151 137.678 395.015 137.537C394.879 137.398 394.713 137.285 394.512 137.2C394.312 137.115 394.088 137.072 393.836 137.072C393.577 137.072 393.346 137.112 393.146 137.192C392.946 137.272 392.779 137.383 392.643 137.523C392.509 137.663 392.403 137.826 392.328 138.011C392.253 138.196 392.216 138.389 392.216 138.589C392.216 138.799 392.253 138.997 392.328 139.182C392.404 139.367 392.509 139.53 392.644 139.67C392.78 139.809 392.946 139.92 393.147 140C393.347 140.08 393.578 140.12 393.837 140.12Z" fill="#676B89"/>
<path d="M402.488 146.395C401.926 146.395 401.421 146.297 400.971 146.102C400.521 145.907 400.136 145.639 399.815 145.299C399.494 144.959 399.246 144.569 399.071 144.128C398.896 143.687 398.809 143.218 398.809 142.717C398.809 142.317 398.868 141.934 398.988 141.569C399.108 141.203 399.268 140.861 399.469 140.54L402.486 135.705L404.468 135.705L402.261 139.053C402.312 139.043 402.386 139.039 402.486 139.039C403.047 139.038 403.555 139.136 404.01 139.331C404.465 139.525 404.854 139.793 405.181 140.134C405.506 140.474 405.757 140.866 405.931 141.312C406.106 141.757 406.195 142.226 406.195 142.716C406.195 143.216 406.107 143.686 405.932 144.127C405.757 144.568 405.507 144.957 405.182 145.298C404.855 145.638 404.467 145.906 404.011 146.102C403.556 146.297 403.048 146.395 402.488 146.395ZM402.487 144.848C402.787 144.848 403.059 144.79 403.305 144.675C403.55 144.56 403.758 144.405 403.928 144.21C404.099 144.016 404.23 143.79 404.326 143.535C404.421 143.28 404.469 143.006 404.469 142.716C404.469 142.426 404.42 142.153 404.325 141.898C404.23 141.643 404.098 141.417 403.927 141.222C403.757 141.028 403.55 140.872 403.304 140.757C403.059 140.642 402.786 140.584 402.487 140.584C402.186 140.584 401.916 140.642 401.676 140.757C401.435 140.873 401.23 141.028 401.06 141.222C400.89 141.418 400.761 141.644 400.67 141.899C400.579 142.153 400.535 142.427 400.535 142.717C400.535 143.007 400.58 143.281 400.67 143.535C400.761 143.79 400.89 144.016 401.061 144.211C401.231 144.406 401.436 144.56 401.676 144.675C401.916 144.791 402.187 144.848 402.487 144.848Z" fill="#676B89"/>
<path d="M392.655 46.2286C392.655 47.2014 392.246 48.0831 391.589 48.7203C390.93 49.3574 390.021 49.7519 389.017 49.7521L386.973 49.7524C386.042 53.1499 382.845 55.6531 379.044 55.6538L377.648 55.654L377.648 51.256L372.622 51.2569C372.053 51.257 371.591 50.8098 371.591 50.2583C371.591 49.9821 371.706 49.7328 371.892 49.5514C372.079 49.3701 372.337 49.2593 372.622 49.2593L377.647 49.2584L377.646 43.2041L372.62 43.205C372.051 43.2051 371.59 42.7579 371.59 42.2064C371.59 41.9302 371.705 41.6818 371.891 41.5004C372.078 41.3191 372.336 41.2074 372.62 41.2074L377.646 41.2065L377.645 36.8085L379.041 36.8082C382.842 36.8076 386.039 39.3106 386.971 42.7068L389.015 42.7064C391.024 42.706 392.655 44.283 392.655 46.2286Z" fill="#C7CBDB"/>
<path d="M394.316 46.2287C394.316 45.6167 394.811 45.12 395.424 45.1199L401.123 45.1189L401.123 47.336L395.424 47.337C394.812 47.3371 394.316 46.8406 394.316 46.2287Z" fill="#C7CBDB"/>
<g opacity="0.08">
<path d="M411.804 47.1552C411.806 59.6497 401.679 69.7802 389.185 69.7824C376.69 69.7846 366.56 59.6578 366.558 47.1632C366.556 34.6687 376.682 24.5382 389.177 24.536C401.671 24.5338 411.802 34.6606 411.804 47.1552Z" fill="black"/>
</g>
<g opacity="0.04">
<path d="M411.804 50.4111C411.806 62.9056 401.679 73.036 389.185 73.0382C376.69 73.0405 366.56 62.9136 366.558 50.4191C366.556 37.9245 376.682 27.7941 389.177 27.7919C401.671 27.7897 411.802 37.9165 411.804 50.4111Z" fill="black"/>
</g>
<path d="M411.804 46.2255C411.806 58.7201 401.679 68.8505 389.185 68.8527C376.69 68.8549 366.56 58.7281 366.558 46.2335C366.556 33.739 376.682 23.6086 389.177 23.6063C401.671 23.6041 411.802 33.731 411.804 46.2255Z" fill="white"/>
<path d="M383.164 37.3425C390.017 30.4211 398.332 28.6229 401.66 33.3393C404.988 38.0556 402.065 47.5896 395.212 54.5109C388.359 61.4834 380.045 63.2789 376.667 58.5114C373.392 53.7466 376.314 44.261 383.164 37.3425Z" fill="#F06321"/>
<path d="M387.701 34.1605C386.946 34.7242 386.191 35.3902 385.435 36.1101C379.439 42.1581 376.919 50.4615 379.895 54.6144C382.968 58.7644 390.325 57.2259 396.472 51.1249C399.799 47.8451 402.016 44.0503 402.922 40.5143C403.174 37.901 402.821 35.5918 401.662 33.8502C399.041 30.1613 393.396 30.4673 387.701 34.1605Z" fill="#AE282E"/>
<path d="M396.368 34.9292L396.368 35.0827C396.318 35.9541 395.815 37.0292 394.908 37.952C393.548 39.2849 391.734 39.7976 390.976 39.0315C390.119 38.2114 390.625 36.4164 391.985 34.9811C393.396 33.597 395.209 33.1354 395.966 33.9556C396.218 34.2113 396.368 34.5191 396.368 34.9292ZM391.133 58.4573C387.906 60.9177 384.582 62.1505 381.356 61.6387C382.716 61.6896 383.826 60.1493 384.733 58.0994C385.639 55.9984 386.142 54.0509 386.595 52.2038C387.25 49.2826 387.3 47.2338 386.948 46.7726C386.393 46.0528 385.183 46.2084 383.771 47.0289C383.066 47.4391 382.159 47.1826 383.219 45.8507C384.328 44.5178 388.609 41.3383 390.12 40.8256C391.835 40.364 393.75 41.0295 393.095 42.9259C392.64 44.3098 386.697 60.0976 391.133 58.4573Z" fill="white"/>
<path d="M412.19 45.9308C412.21 58.6405 401.924 68.9601 389.214 68.9803C376.504 69.0005 366.185 58.7137 366.165 46.0041C366.144 33.2944 376.431 22.9748 389.141 22.9546C401.85 22.9344 412.17 33.2212 412.19 45.9308Z" fill="#00C53E"/>
<path d="M381.276 48.2978L386.864 53.8689C386.864 53.8689 394.997 42.3091 397.362 38.948" stroke="white" stroke-width="1.86" stroke-linecap="round" stroke-linejoin="round"/>
<path d="M359.886 73.8322C360.169 73.5449 360.586 73.122 361.097 72.6045" stroke="#00CC29" stroke-width="1.86" stroke-linecap="round"/>
<path d="M347.81 45.6693C348.214 45.6665 348.807 45.6619 349.534 45.6572" stroke="#00CC29" stroke-width="1.86" stroke-linecap="round"/>
<path d="M359.189 17.2161C359.477 17.4995 359.899 17.9158 360.417 18.4268" stroke="#00CC29" stroke-width="1.86" stroke-linecap="round"/>
<path d="M387.354 5.14199C387.357 5.54561 387.362 6.13895 387.366 6.86621" stroke="#00CC29" stroke-width="1.86" stroke-linecap="round"/>
<path d="M415.803 16.5193C415.52 16.8067 415.104 17.2295 414.593 17.7471" stroke="#00CC29" stroke-width="1.86" stroke-linecap="round"/>
<path d="M427.879 44.6822C427.476 44.685 426.883 44.6897 426.155 44.6943" stroke="#00CC29" stroke-width="1.86" stroke-linecap="round"/>
<path d="M416.504 73.1355C416.217 72.852 415.794 72.4358 415.276 71.9248" stroke="#00CC29" stroke-width="1.86" stroke-linecap="round"/>
<path d="M388.339 85.2096C388.336 84.8059 388.332 84.2126 388.327 83.4854" stroke="#00CC29" stroke-width="1.86" stroke-linecap="round"/>
<defs>
<filter id="filter0_f_1_24787" x="0" y="1.83398" width="440.891" height="183.326" filterUnits="userSpaceOnUse" color-interpolation-filters="sRGB">
<feFlood flood-opacity="0" result="BackgroundImageFix"/>
<feBlend mode="normal" in="SourceGraphic" in2="BackgroundImageFix" result="shape"/>
<feGaussianBlur stdDeviation="3.5" result="effect1_foregroundBlur_1_24787"/>
</filter>
</defs>
</svg>
