<svg width="75" height="75" viewBox="0 0 75 75" fill="none" xmlns="http://www.w3.org/2000/svg">
<g clip-path="url(#clip0_1_24453)">
<mask id="mask0_1_24453" style="mask-type:luminance" maskUnits="userSpaceOnUse" x="4" y="4" width="67" height="67">
<path d="M54.262 4.93359H21.3765C12.2953 4.93359 4.93359 12.2953 4.93359 21.3765V54.262C4.93359 63.3431 12.2953 70.7048 21.3765 70.7048H54.262C63.3431 70.7048 70.7048 63.3431 70.7048 54.262V21.3765C70.7048 12.2953 63.3431 4.93359 54.262 4.93359Z" fill="white"/>
</mask>
<g mask="url(#mask0_1_24453)">
<path d="M54.262 4.93359H21.3765C12.2953 4.93359 4.93359 12.2953 4.93359 21.3765V54.262C4.93359 63.3431 12.2953 70.7048 21.3765 70.7048H54.262C63.3431 70.7048 70.7048 63.3431 70.7048 54.262V21.3765C70.7048 12.2953 63.3431 4.93359 54.262 4.93359Z" fill="#3B9DFB"/>
<g filter="url(#filter0_i_1_24453)">
<path d="M54.262 4.93359H21.3765C12.2953 4.93359 4.93359 12.2953 4.93359 21.3765V54.262C4.93359 63.3431 12.2953 70.7048 21.3765 70.7048H54.262C63.3431 70.7048 70.7048 63.3431 70.7048 54.262V21.3765C70.7048 12.2953 63.3431 4.93359 54.262 4.93359Z" fill="#3B9DFB"/>
</g>
<g opacity="0.4">
<path d="M14.8032 9.86822C15.3483 9.86822 15.7901 9.42639 15.7901 8.88137C15.7901 8.33636 15.3483 7.89453 14.8032 7.89453C14.2582 7.89453 13.8164 8.33636 13.8164 8.88137C13.8164 9.42639 14.2582 9.86822 14.8032 9.86822Z" fill="#EDEEF3"/>
<path d="M36.5142 9.86822C37.0592 9.86822 37.501 9.42639 37.501 8.88137C37.501 8.33636 37.0592 7.89453 36.5142 7.89453C35.9692 7.89453 35.5273 8.33636 35.5273 8.88137C35.5273 9.42639 35.9692 9.86822 36.5142 9.86822Z" fill="#EDEEF3"/>
<path d="M58.2251 9.86822C58.7701 9.86822 59.212 9.42639 59.212 8.88137C59.212 8.33636 58.7701 7.89453 58.2251 7.89453C57.6801 7.89453 57.2383 8.33636 57.2383 8.88137C57.2383 9.42639 57.6801 9.86822 58.2251 9.86822Z" fill="#EDEEF3"/>
<path d="M14.8032 23.6846C15.3483 23.6846 15.7901 23.2428 15.7901 22.6978C15.7901 22.1528 15.3483 21.7109 14.8032 21.7109C14.2582 21.7109 13.8164 22.1528 13.8164 22.6978C13.8164 23.2428 14.2582 23.6846 14.8032 23.6846Z" fill="#EDEEF3"/>
<path d="M36.5142 23.6846C37.0592 23.6846 37.501 23.2428 37.501 22.6978C37.501 22.1528 37.0592 21.7109 36.5142 21.7109C35.9692 21.7109 35.5273 22.1528 35.5273 22.6978C35.5273 23.2428 35.9692 23.6846 36.5142 23.6846Z" fill="#EDEEF3"/>
<path d="M58.2251 23.6846C58.7701 23.6846 59.212 23.2428 59.212 22.6978C59.212 22.1528 58.7701 21.7109 58.2251 21.7109C57.6801 21.7109 57.2383 22.1528 57.2383 22.6978C57.2383 23.2428 57.6801 23.6846 58.2251 23.6846Z" fill="#EDEEF3"/>
<path d="M14.8032 37.4991C15.3483 37.4991 15.7901 37.0573 15.7901 36.5122C15.7901 35.9672 15.3483 35.5254 14.8032 35.5254C14.2582 35.5254 13.8164 35.9672 13.8164 36.5122C13.8164 37.0573 14.2582 37.4991 14.8032 37.4991Z" fill="#EDEEF3"/>
<path d="M36.5142 37.4991C37.0592 37.4991 37.501 37.0573 37.501 36.5122C37.501 35.9672 37.0592 35.5254 36.5142 35.5254C35.9692 35.5254 35.5273 35.9672 35.5273 36.5122C35.5273 37.0573 35.9692 37.4991 36.5142 37.4991Z" fill="#EDEEF3"/>
<path d="M58.2251 37.4991C58.7701 37.4991 59.212 37.0573 59.212 36.5122C59.212 35.9672 58.7701 35.5254 58.2251 35.5254C57.6801 35.5254 57.2383 35.9672 57.2383 36.5122C57.2383 37.0573 57.6801 37.4991 58.2251 37.4991Z" fill="#EDEEF3"/>
<path d="M14.8032 51.3155C15.3483 51.3155 15.7901 50.8737 15.7901 50.3286C15.7901 49.7836 15.3483 49.3418 14.8032 49.3418C14.2582 49.3418 13.8164 49.7836 13.8164 50.3286C13.8164 50.8737 14.2582 51.3155 14.8032 51.3155Z" fill="#EDEEF3"/>
<path d="M36.5142 51.3155C37.0592 51.3155 37.501 50.8737 37.501 50.3286C37.501 49.7836 37.0592 49.3418 36.5142 49.3418C35.9692 49.3418 35.5273 49.7836 35.5273 50.3286C35.5273 50.8737 35.9692 51.3155 36.5142 51.3155Z" fill="#EDEEF3"/>
<path d="M58.2251 51.3155C58.7701 51.3155 59.212 50.8737 59.212 50.3286C59.212 49.7836 58.7701 49.3418 58.2251 49.3418C57.6801 49.3418 57.2383 49.7836 57.2383 50.3286C57.2383 50.8737 57.6801 51.3155 58.2251 51.3155Z" fill="#EDEEF3"/>
<path d="M14.8032 65.1319C15.3483 65.1319 15.7901 64.6901 15.7901 64.145C15.7901 63.6 15.3483 63.1582 14.8032 63.1582C14.2582 63.1582 13.8164 63.6 13.8164 64.145C13.8164 64.6901 14.2582 65.1319 14.8032 65.1319Z" fill="#EDEEF3"/>
<path d="M36.5142 65.1319C37.0592 65.1319 37.501 64.6901 37.501 64.145C37.501 63.6 37.0592 63.1582 36.5142 63.1582C35.9692 63.1582 35.5273 63.6 35.5273 64.145C35.5273 64.6901 35.9692 65.1319 36.5142 65.1319Z" fill="#EDEEF3"/>
<path d="M58.2251 65.1319C58.7701 65.1319 59.212 64.6901 59.212 64.145C59.212 63.6 58.7701 63.1582 58.2251 63.1582C57.6801 63.1582 57.2383 63.6 57.2383 64.145C57.2383 64.6901 57.6801 65.1319 58.2251 65.1319Z" fill="#EDEEF3"/>
</g>
</g>
<path d="M54.2627 2.87891H21.3771C11.1608 2.87891 2.87891 11.1608 2.87891 21.3771V54.2627C2.87891 64.4789 11.1608 72.7608 21.3771 72.7608H54.2627C64.4789 72.7608 72.7608 64.4789 72.7608 54.2627V21.3771C72.7608 11.1608 64.4789 2.87891 54.2627 2.87891Z" stroke="#C7CBDB" stroke-opacity="0.4" stroke-width="4.1107"/>
<g filter="url(#filter1_ddd_1_24453)">
<path fill-rule="evenodd" clip-rule="evenodd" d="M19.1602 24.0794C19.1602 21.1041 19.1602 19.6164 19.7434 18.4841C20.2349 17.5299 21.0065 16.7519 21.9527 16.2562C23.0756 15.668 24.5509 15.668 27.5014 15.668H47.0853C50.0358 15.668 51.511 15.668 52.6339 16.2562C53.5802 16.7519 54.3517 17.5299 54.8433 18.4841C55.4266 19.6164 55.4266 21.1041 55.4266 24.0794V43.8278C55.4266 46.8031 55.4266 48.2907 54.8433 49.4231C54.3517 50.3773 53.5802 51.1553 52.6339 51.651C51.511 52.2392 50.0358 52.2392 47.0853 52.2392H27.5014C24.5509 52.2392 23.0756 52.2392 21.9527 51.651C21.0065 51.1553 20.2349 50.3773 19.7434 49.4231C19.1602 48.2907 19.1602 46.8031 19.1602 43.8278V24.0794ZM24.3411 28.4627C24.3411 25.785 24.3411 24.446 24.866 23.4269C25.3084 22.5682 26.0028 21.8679 26.8545 21.4218C27.865 20.8924 29.1928 20.8924 31.8482 20.8924H42.7385C45.394 20.8924 46.7217 20.8924 47.7323 21.4218C48.5839 21.8679 49.2783 22.5682 49.7207 23.4269C50.2457 24.446 50.2457 25.785 50.2457 28.4627V34.22C50.2457 36.8978 50.2457 38.2367 49.7207 39.2558C49.2783 40.1146 48.5839 40.8148 47.7323 41.2609C46.7217 41.7903 45.394 41.7903 42.7385 41.7903H31.8482C29.1928 41.7903 27.865 41.7903 26.8545 41.2609C26.0028 40.8148 25.3084 40.1146 24.866 39.2558C24.3411 38.2367 24.3411 36.8978 24.3411 34.22V28.4627ZM50.1223 45.2732H37.2934V47.2469H50.1223V45.2732ZM26.4381 46.2601C26.4381 46.8051 25.9962 47.2469 25.4513 47.2469C24.9062 47.2469 24.4644 46.8051 24.4644 46.2601C24.4644 45.715 24.9062 45.2732 25.4513 45.2732C25.9962 45.2732 26.4381 45.715 26.4381 46.2601ZM28.4118 47.2469C28.9567 47.2469 29.3986 46.8051 29.3986 46.2601C29.3986 45.715 28.9567 45.2732 28.4118 45.2732C27.8668 45.2732 27.425 45.715 27.425 46.2601C27.425 46.8051 27.8668 47.2469 28.4118 47.2469Z" fill="#9AE97F"/>
<path d="M58.0177 57.4636C58.0177 56.0208 56.8578 54.8513 55.4272 54.8513H19.1608C17.73 54.8513 16.5703 56.0208 16.5703 57.4636C16.5703 58.9063 17.73 60.0758 19.1608 60.0758H55.4272C56.8578 60.0758 58.0177 58.9063 58.0177 57.4636Z" fill="#9AE97F"/>
</g>
</g>
<defs>
<filter id="filter0_i_1_24453" x="4.93359" y="4.93359" width="65.7715" height="65.7712" filterUnits="userSpaceOnUse" color-interpolation-filters="sRGB">
<feFlood flood-opacity="0" result="BackgroundImageFix"/>
<feBlend mode="normal" in="SourceGraphic" in2="BackgroundImageFix" result="shape"/>
<feColorMatrix in="SourceAlpha" type="matrix" values="0 0 0 0 0 0 0 0 0 0 0 0 0 0 0 0 0 0 127 0" result="hardAlpha"/>
<feOffset/>
<feGaussianBlur stdDeviation="5.13838"/>
<feComposite in2="hardAlpha" operator="arithmetic" k2="-1" k3="1"/>
<feColorMatrix type="matrix" values="0 0 0 0 0.222656 0 0 0 0 0.587524 0 0 0 0 0.9375 0 0 0 1 0"/>
<feBlend mode="normal" in2="shape" result="effect1_innerShadow_1_24453"/>
</filter>
<filter id="filter1_ddd_1_24453" x="12.4596" y="13.6126" width="49.6687" height="54.6845" filterUnits="userSpaceOnUse" color-interpolation-filters="sRGB">
<feFlood flood-opacity="0" result="BackgroundImageFix"/>
<feColorMatrix in="SourceAlpha" type="matrix" values="0 0 0 0 0 0 0 0 0 0 0 0 0 0 0 0 0 0 127 0" result="hardAlpha"/>
<feOffset dy="1.02768"/>
<feGaussianBlur stdDeviation="1.54152"/>
<feColorMatrix type="matrix" values="0 0 0 0 0.12549 0 0 0 0 0.160784 0 0 0 0 0.298039 0 0 0 0.12 0"/>
<feBlend mode="normal" in2="BackgroundImageFix" result="effect1_dropShadow_1_24453"/>
<feColorMatrix in="SourceAlpha" type="matrix" values="0 0 0 0 0 0 0 0 0 0 0 0 0 0 0 0 0 0 127 0" result="hardAlpha"/>
<feOffset dy="4.1107"/>
<feGaussianBlur stdDeviation="2.05536"/>
<feComposite in2="hardAlpha" operator="out"/>
<feColorMatrix type="matrix" values="0 0 0 0 0 0 0 0 0 0 0 0 0 0 0 0 0 0 0.25 0"/>
<feBlend mode="normal" in2="effect1_dropShadow_1_24453" result="effect2_dropShadow_1_24453"/>
<feColorMatrix in="SourceAlpha" type="matrix" values="0 0 0 0 0 0 0 0 0 0 0 0 0 0 0 0 0 0 127 0" result="hardAlpha"/>
<feOffset dy="1.02768"/>
<feComposite in2="hardAlpha" operator="out"/>
<feColorMatrix type="matrix" values="0 0 0 0 1 0 0 0 0 1 0 0 0 0 1 0 0 0 0.2 0"/>
<feBlend mode="normal" in2="effect2_dropShadow_1_24453" result="effect3_dropShadow_1_24453"/>
<feBlend mode="normal" in="SourceGraphic" in2="effect3_dropShadow_1_24453" result="shape"/>
</filter>
<clipPath id="clip0_1_24453">
<rect width="75" height="75" fill="white"/>
</clipPath>
</defs>
</svg>
