<svg width="143" height="123" viewBox="0 0 143 123" fill="none" xmlns="http://www.w3.org/2000/svg">
<g clip-path="url(#clip0_1_24047)">
<path d="M89.021 114.111L43.0926 6.62891M43.0926 6.62891L110.328 11.3638L126.427 75.2847L89.4945 113.637L5.68701 92.8038L43.0926 6.62891ZM109.381 11.3638L96.5968 30.7768" stroke="#C7CBDB" stroke-width="0.946977"/>
<path d="M42.6172 11.3643C45.2322 11.3643 47.3521 9.24442 47.3521 6.62942C47.3521 4.01441 45.2322 1.89453 42.6172 1.89453C40.0022 1.89453 37.8823 4.01441 37.8823 6.62942C37.8823 9.24442 40.0022 11.3643 42.6172 11.3643Z" fill="#676C92" stroke="white" stroke-width="3.78791"/>
<path d="M89.019 120.265C92.68 120.265 95.6478 117.298 95.6478 113.637C95.6478 109.976 92.68 107.008 89.019 107.008C85.358 107.008 82.3901 109.976 82.3901 113.637C82.3901 117.298 85.358 120.265 89.019 120.265Z" fill="#676C92" stroke="white" stroke-width="3.78791"/>
<mask id="mask0_1_24047" style="mask-type:luminance" maskUnits="userSpaceOnUse" x="35" y="29" width="64" height="64">
<path d="M82.8117 29.4746H51.2546C42.5404 29.4746 35.4761 36.5389 35.4761 45.2531V76.8102C35.4761 85.5244 42.5404 92.5887 51.2546 92.5887H82.8117C91.5259 92.5887 98.5902 85.5244 98.5902 76.8102V45.2531C98.5902 36.5389 91.5259 29.4746 82.8117 29.4746Z" fill="white"/>
</mask>
<g mask="url(#mask0_1_24047)">
<path d="M82.8117 29.4746H51.2546C42.5404 29.4746 35.4761 36.5389 35.4761 45.2531V76.8102C35.4761 85.5244 42.5404 92.5887 51.2546 92.5887H82.8117C91.5259 92.5887 98.5902 85.5244 98.5902 76.8102V45.2531C98.5902 36.5389 91.5259 29.4746 82.8117 29.4746Z" fill="#3B9DFB"/>
<g filter="url(#filter0_i_1_24047)">
<path d="M82.8117 29.4746H51.2546C42.5404 29.4746 35.4761 36.5389 35.4761 45.2531V76.8102C35.4761 85.5244 42.5404 92.5887 51.2546 92.5887H82.8117C91.5259 92.5887 98.5902 85.5244 98.5902 76.8102V45.2531C98.5902 36.5389 91.5259 29.4746 82.8117 29.4746Z" fill="#3B9DFB"/>
</g>
<g opacity="0.4">
<path d="M44.9465 34.2104C45.4695 34.2104 45.8935 33.7864 45.8935 33.2634C45.8935 32.7404 45.4695 32.3164 44.9465 32.3164C44.4235 32.3164 43.9995 32.7404 43.9995 33.2634C43.9995 33.7864 44.4235 34.2104 44.9465 34.2104Z" fill="#EDEEF3"/>
<path d="M65.7785 34.2104C66.3015 34.2104 66.7255 33.7864 66.7255 33.2634C66.7255 32.7404 66.3015 32.3164 65.7785 32.3164C65.2555 32.3164 64.8315 32.7404 64.8315 33.2634C64.8315 33.7864 65.2555 34.2104 65.7785 34.2104Z" fill="#EDEEF3"/>
<path d="M86.6145 34.2104C87.1375 34.2104 87.5614 33.7864 87.5614 33.2634C87.5614 32.7404 87.1375 32.3164 86.6145 32.3164C86.0915 32.3164 85.6675 32.7404 85.6675 33.2634C85.6675 33.7864 86.0915 34.2104 86.6145 34.2104Z" fill="#EDEEF3"/>
<path d="M44.9465 47.4682C45.4695 47.4682 45.8935 47.0442 45.8935 46.5212C45.8935 45.9982 45.4695 45.5742 44.9465 45.5742C44.4235 45.5742 43.9995 45.9982 43.9995 46.5212C43.9995 47.0442 44.4235 47.4682 44.9465 47.4682Z" fill="#EDEEF3"/>
<path d="M65.7785 47.4682C66.3015 47.4682 66.7255 47.0442 66.7255 46.5212C66.7255 45.9982 66.3015 45.5742 65.7785 45.5742C65.2555 45.5742 64.8315 45.9982 64.8315 46.5212C64.8315 47.0442 65.2555 47.4682 65.7785 47.4682Z" fill="#EDEEF3"/>
<path d="M86.6145 47.4682C87.1375 47.4682 87.5614 47.0442 87.5614 46.5212C87.5614 45.9982 87.1375 45.5742 86.6145 45.5742C86.0915 45.5742 85.6675 45.9982 85.6675 46.5212C85.6675 47.0442 86.0915 47.4682 86.6145 47.4682Z" fill="#EDEEF3"/>
<path d="M44.9465 60.726C45.4695 60.726 45.8935 60.302 45.8935 59.779C45.8935 59.256 45.4695 58.832 44.9465 58.832C44.4235 58.832 43.9995 59.256 43.9995 59.779C43.9995 60.302 44.4235 60.726 44.9465 60.726Z" fill="#EDEEF3"/>
<path d="M65.7785 60.726C66.3015 60.726 66.7255 60.302 66.7255 59.779C66.7255 59.256 66.3015 58.832 65.7785 58.832C65.2555 58.832 64.8315 59.256 64.8315 59.779C64.8315 60.302 65.2555 60.726 65.7785 60.726Z" fill="#EDEEF3"/>
<path d="M86.6145 60.726C87.1375 60.726 87.5614 60.302 87.5614 59.779C87.5614 59.256 87.1375 58.832 86.6145 58.832C86.0915 58.832 85.6675 59.256 85.6675 59.779C85.6675 60.302 86.0915 60.726 86.6145 60.726Z" fill="#EDEEF3"/>
<path d="M44.9465 73.9838C45.4695 73.9838 45.8935 73.5598 45.8935 73.0368C45.8935 72.5138 45.4695 72.0898 44.9465 72.0898C44.4235 72.0898 43.9995 72.5138 43.9995 73.0368C43.9995 73.5598 44.4235 73.9838 44.9465 73.9838Z" fill="#EDEEF3"/>
<path d="M65.7785 73.9838C66.3015 73.9838 66.7255 73.5598 66.7255 73.0368C66.7255 72.5138 66.3015 72.0898 65.7785 72.0898C65.2555 72.0898 64.8315 72.5138 64.8315 73.0368C64.8315 73.5598 65.2555 73.9838 65.7785 73.9838Z" fill="#EDEEF3"/>
<path d="M86.6145 73.9838C87.1375 73.9838 87.5614 73.5598 87.5614 73.0368C87.5614 72.5138 87.1375 72.0898 86.6145 72.0898C86.0915 72.0898 85.6675 72.5138 85.6675 73.0368C85.6675 73.5598 86.0915 73.9838 86.6145 73.9838Z" fill="#EDEEF3"/>
<path d="M44.9465 87.2416C45.4695 87.2416 45.8935 86.8176 45.8935 86.2946C45.8935 85.7716 45.4695 85.3477 44.9465 85.3477C44.4235 85.3477 43.9995 85.7716 43.9995 86.2946C43.9995 86.8176 44.4235 87.2416 44.9465 87.2416Z" fill="#EDEEF3"/>
<path d="M65.7785 87.2416C66.3015 87.2416 66.7255 86.8176 66.7255 86.2946C66.7255 85.7716 66.3015 85.3477 65.7785 85.3477C65.2555 85.3477 64.8315 85.7716 64.8315 86.2946C64.8315 86.8176 65.2555 87.2416 65.7785 87.2416Z" fill="#EDEEF3"/>
<path d="M86.6145 87.2416C87.1375 87.2416 87.5614 86.8176 87.5614 86.2946C87.5614 85.7716 87.1375 85.3477 86.6145 85.3477C86.0915 85.3477 85.6675 85.7716 85.6675 86.2946C85.6675 86.8176 86.0915 87.2416 86.6145 87.2416Z" fill="#EDEEF3"/>
</g>
<g filter="url(#filter1_ddd_1_24047)">
<path d="M41.909 54.9258H37.1741C35.0821 54.9258 33.3862 56.6217 33.3862 58.7137V64.3955C33.3862 66.4876 35.0821 68.1835 37.1741 68.1835H41.909C44.001 68.1835 45.6969 66.4876 45.6969 64.3955V58.7137C45.6969 56.6217 44.001 54.9258 41.909 54.9258Z" fill="#9AE97F"/>
</g>
<g filter="url(#filter2_ddd_1_24047)">
<path d="M99.201 54.9258H52.7991C50.7071 54.9258 49.0112 56.6217 49.0112 58.7137V64.3955C49.0112 66.4876 50.7071 68.1835 52.7991 68.1835H99.201C101.293 68.1835 102.989 66.4876 102.989 64.3955V58.7137C102.989 56.6217 101.293 54.9258 99.201 54.9258Z" fill="#9AE97F"/>
</g>
</g>
<path d="M82.8116 27.502H51.2545C41.4508 27.502 33.5034 35.4494 33.5034 45.253V76.8101C33.5034 86.6137 41.4508 94.5612 51.2545 94.5612H82.8116C92.6152 94.5612 100.563 86.6137 100.563 76.8101V45.253C100.563 35.4494 92.6152 27.502 82.8116 27.502Z" stroke="#C7CBDB" stroke-opacity="0.4" stroke-width="3.9451"/>
<path d="M125.952 89.9634C134.32 89.9634 141.104 83.1798 141.104 74.8118C141.104 66.4438 134.32 59.6602 125.952 59.6602C117.584 59.6602 110.8 66.4438 110.8 74.8118C110.8 83.1798 117.584 89.9634 125.952 89.9634Z" fill="#676C92" stroke="white" stroke-width="3.78791"/>
<path d="M5.21045 92.8033L110.325 11.3633" stroke="#C7CBDB" stroke-width="0.946977"/>
<path d="M109.851 17.992C113.512 17.992 116.48 15.0242 116.48 11.3632C116.48 7.70221 113.512 4.73438 109.851 4.73438C106.19 4.73438 103.222 7.70221 103.222 11.3632C103.222 15.0242 106.19 17.992 109.851 17.992Z" fill="#676C92" stroke="white" stroke-width="3.78791"/>
<path d="M5.68586 96.5914C7.77786 96.5914 9.47376 94.8955 9.47376 92.8035C9.47376 90.7115 7.77786 89.0156 5.68586 89.0156C3.59385 89.0156 1.89795 90.7115 1.89795 92.8035C1.89795 94.8955 3.59385 96.5914 5.68586 96.5914Z" fill="#676C92" stroke="white" stroke-width="3.78791"/>
</g>
<defs>
<filter id="filter0_i_1_24047" x="35.4761" y="29.4746" width="63.1143" height="63.1143" filterUnits="userSpaceOnUse" color-interpolation-filters="sRGB">
<feFlood flood-opacity="0" result="BackgroundImageFix"/>
<feBlend mode="normal" in="SourceGraphic" in2="BackgroundImageFix" result="shape"/>
<feColorMatrix in="SourceAlpha" type="matrix" values="0 0 0 0 0 0 0 0 0 0 0 0 0 0 0 0 0 0 127 0" result="hardAlpha"/>
<feOffset/>
<feGaussianBlur stdDeviation="4.93091"/>
<feComposite in2="hardAlpha" operator="arithmetic" k2="-1" k3="1"/>
<feColorMatrix type="matrix" values="0 0 0 0 0.222656 0 0 0 0 0.587524 0 0 0 0 0.9375 0 0 0 1 0"/>
<feBlend mode="normal" in2="shape" result="effect1_innerShadow_1_24047"/>
</filter>
<filter id="filter1_ddd_1_24047" x="29.4411" y="52.9532" width="20.2008" height="23.1206" filterUnits="userSpaceOnUse" color-interpolation-filters="sRGB">
<feFlood flood-opacity="0" result="BackgroundImageFix"/>
<feColorMatrix in="SourceAlpha" type="matrix" values="0 0 0 0 0 0 0 0 0 0 0 0 0 0 0 0 0 0 127 0" result="hardAlpha"/>
<feOffset dy="0.985803"/>
<feGaussianBlur stdDeviation="1.47918"/>
<feColorMatrix type="matrix" values="0 0 0 0 0.12549 0 0 0 0 0.160784 0 0 0 0 0.298039 0 0 0 0.12 0"/>
<feBlend mode="normal" in2="BackgroundImageFix" result="effect1_dropShadow_1_24047"/>
<feColorMatrix in="SourceAlpha" type="matrix" values="0 0 0 0 0 0 0 0 0 0 0 0 0 0 0 0 0 0 127 0" result="hardAlpha"/>
<feOffset dy="3.9451"/>
<feGaussianBlur stdDeviation="1.97255"/>
<feComposite in2="hardAlpha" operator="out"/>
<feColorMatrix type="matrix" values="0 0 0 0 0 0 0 0 0 0 0 0 0 0 0 0 0 0 0.25 0"/>
<feBlend mode="normal" in2="effect1_dropShadow_1_24047" result="effect2_dropShadow_1_24047"/>
<feColorMatrix in="SourceAlpha" type="matrix" values="0 0 0 0 0 0 0 0 0 0 0 0 0 0 0 0 0 0 127 0" result="hardAlpha"/>
<feOffset dy="0.985803"/>
<feComposite in2="hardAlpha" operator="out"/>
<feColorMatrix type="matrix" values="0 0 0 0 1 0 0 0 0 1 0 0 0 0 1 0 0 0 0.2 0"/>
<feBlend mode="normal" in2="effect2_dropShadow_1_24047" result="effect3_dropShadow_1_24047"/>
<feBlend mode="normal" in="SourceGraphic" in2="effect3_dropShadow_1_24047" result="shape"/>
</filter>
<filter id="filter2_ddd_1_24047" x="45.0661" y="52.9532" width="61.8677" height="23.1206" filterUnits="userSpaceOnUse" color-interpolation-filters="sRGB">
<feFlood flood-opacity="0" result="BackgroundImageFix"/>
<feColorMatrix in="SourceAlpha" type="matrix" values="0 0 0 0 0 0 0 0 0 0 0 0 0 0 0 0 0 0 127 0" result="hardAlpha"/>
<feOffset dy="0.985803"/>
<feGaussianBlur stdDeviation="1.47918"/>
<feColorMatrix type="matrix" values="0 0 0 0 0.12549 0 0 0 0 0.160784 0 0 0 0 0.298039 0 0 0 0.12 0"/>
<feBlend mode="normal" in2="BackgroundImageFix" result="effect1_dropShadow_1_24047"/>
<feColorMatrix in="SourceAlpha" type="matrix" values="0 0 0 0 0 0 0 0 0 0 0 0 0 0 0 0 0 0 127 0" result="hardAlpha"/>
<feOffset dy="3.9451"/>
<feGaussianBlur stdDeviation="1.97255"/>
<feComposite in2="hardAlpha" operator="out"/>
<feColorMatrix type="matrix" values="0 0 0 0 0 0 0 0 0 0 0 0 0 0 0 0 0 0 0.25 0"/>
<feBlend mode="normal" in2="effect1_dropShadow_1_24047" result="effect2_dropShadow_1_24047"/>
<feColorMatrix in="SourceAlpha" type="matrix" values="0 0 0 0 0 0 0 0 0 0 0 0 0 0 0 0 0 0 127 0" result="hardAlpha"/>
<feOffset dy="0.985803"/>
<feComposite in2="hardAlpha" operator="out"/>
<feColorMatrix type="matrix" values="0 0 0 0 1 0 0 0 0 1 0 0 0 0 1 0 0 0 0.2 0"/>
<feBlend mode="normal" in2="effect2_dropShadow_1_24047" result="effect3_dropShadow_1_24047"/>
<feBlend mode="normal" in="SourceGraphic" in2="effect3_dropShadow_1_24047" result="shape"/>
</filter>
<clipPath id="clip0_1_24047">
<rect width="142.993" height="122.16" fill="white" transform="translate(0.00341797)"/>
</clipPath>
</defs>
</svg>
