<svg width="842" height="128" viewBox="0 0 842 128" fill="none" xmlns="http://www.w3.org/2000/svg">
<g filter="url(#filter0_d_1_24348)">
<rect x="25" y="16" width="792" height="78" rx="16" fill="#332E2E" fill-opacity="0.8" shape-rendering="crispEdges"/>
<rect x="49" y="34" width="4" height="41" fill="white"/>
<path d="M79.7656 59.25C79.7656 58.7188 79.6823 58.25 79.5156 57.8438C79.3594 57.4271 79.0781 57.0521 78.6719 56.7188C78.276 56.3854 77.724 56.0677 77.0156 55.7656C76.3177 55.4635 75.4323 55.1562 74.3594 54.8438C73.2344 54.5104 72.2188 54.1406 71.3125 53.7344C70.4062 53.3177 69.6302 52.8438 68.9844 52.3125C68.3385 51.7812 67.8438 51.1719 67.5 50.4844C67.1562 49.7969 66.9844 49.0104 66.9844 48.125C66.9844 47.2396 67.1667 46.4219 67.5312 45.6719C67.8958 44.9219 68.4167 44.2708 69.0938 43.7188C69.7812 43.1562 70.599 42.7188 71.5469 42.4062C72.4948 42.0938 73.5521 41.9375 74.7188 41.9375C76.4271 41.9375 77.875 42.2656 79.0625 42.9219C80.2604 43.5677 81.1719 44.4167 81.7969 45.4688C82.4219 46.5104 82.7344 47.625 82.7344 48.8125H79.7344C79.7344 47.9583 79.5521 47.2031 79.1875 46.5469C78.8229 45.8802 78.2708 45.3594 77.5312 44.9844C76.7917 44.599 75.8542 44.4062 74.7188 44.4062C73.6458 44.4062 72.7604 44.5677 72.0625 44.8906C71.3646 45.2135 70.8438 45.651 70.5 46.2031C70.1667 46.7552 70 47.3854 70 48.0938C70 48.5729 70.099 49.0104 70.2969 49.4062C70.5052 49.7917 70.8229 50.151 71.25 50.4844C71.6875 50.8177 72.2396 51.125 72.9062 51.4062C73.5833 51.6875 74.3906 51.9583 75.3281 52.2188C76.6198 52.5833 77.7344 52.9896 78.6719 53.4375C79.6094 53.8854 80.3802 54.3906 80.9844 54.9531C81.599 55.5052 82.0521 56.1354 82.3438 56.8438C82.6458 57.5417 82.7969 58.3333 82.7969 59.2188C82.7969 60.1458 82.6094 60.9844 82.2344 61.7344C81.8594 62.4844 81.3229 63.125 80.625 63.6562C79.9271 64.1875 79.0885 64.599 78.1094 64.8906C77.1406 65.1719 76.0573 65.3125 74.8594 65.3125C73.8073 65.3125 72.7708 65.1667 71.75 64.875C70.7396 64.5833 69.8177 64.1458 68.9844 63.5625C68.1615 62.9792 67.5 62.2604 67 61.4062C66.5104 60.5417 66.2656 59.5417 66.2656 58.4062H69.2656C69.2656 59.1875 69.4167 59.8594 69.7188 60.4219C70.0208 60.974 70.4323 61.4323 70.9531 61.7969C71.4844 62.1615 72.0833 62.4323 72.75 62.6094C73.4271 62.776 74.1302 62.8594 74.8594 62.8594C75.9115 62.8594 76.8021 62.7135 77.5312 62.4219C78.2604 62.1302 78.8125 61.7135 79.1875 61.1719C79.5729 60.6302 79.7656 59.9896 79.7656 59.25ZM96.1719 62.1094V53.4062C96.1719 52.7396 96.0365 52.1615 95.7656 51.6719C95.5052 51.1719 95.1094 50.7865 94.5781 50.5156C94.0469 50.2448 93.3906 50.1094 92.6094 50.1094C91.8802 50.1094 91.2396 50.2344 90.6875 50.4844C90.1458 50.7344 89.7188 51.0625 89.4062 51.4688C89.1042 51.875 88.9531 52.3125 88.9531 52.7812H86.0625C86.0625 52.1771 86.2188 51.5781 86.5312 50.9844C86.8438 50.3906 87.2917 49.8542 87.875 49.375C88.4688 48.8854 89.1771 48.5 90 48.2188C90.8333 47.9271 91.7604 47.7812 92.7812 47.7812C94.0104 47.7812 95.0938 47.9896 96.0312 48.4062C96.9792 48.8229 97.7188 49.4531 98.25 50.2969C98.7917 51.1302 99.0625 52.1771 99.0625 53.4375V61.3125C99.0625 61.875 99.1094 62.474 99.2031 63.1094C99.3073 63.7448 99.4583 64.2917 99.6562 64.75V65H96.6406C96.4948 64.6667 96.3802 64.224 96.2969 63.6719C96.2135 63.1094 96.1719 62.5885 96.1719 62.1094ZM96.6719 54.75L96.7031 56.7812H93.7812C92.9583 56.7812 92.224 56.849 91.5781 56.9844C90.9323 57.1094 90.3906 57.3021 89.9531 57.5625C89.5156 57.8229 89.1823 58.151 88.9531 58.5469C88.724 58.9323 88.6094 59.3854 88.6094 59.9062C88.6094 60.4375 88.7292 60.9219 88.9688 61.3594C89.2083 61.7969 89.5677 62.1458 90.0469 62.4062C90.5365 62.6562 91.1354 62.7812 91.8438 62.7812C92.7292 62.7812 93.5104 62.5938 94.1875 62.2188C94.8646 61.8438 95.401 61.3854 95.7969 60.8438C96.2031 60.3021 96.4219 59.776 96.4531 59.2656L97.6875 60.6562C97.6146 61.0938 97.4167 61.5781 97.0938 62.1094C96.7708 62.6406 96.3385 63.151 95.7969 63.6406C95.2656 64.1198 94.6302 64.5208 93.8906 64.8438C93.1615 65.1562 92.3385 65.3125 91.4219 65.3125C90.276 65.3125 89.2708 65.0885 88.4062 64.6406C87.5521 64.1927 86.8854 63.5938 86.4062 62.8438C85.9375 62.0833 85.7031 61.2344 85.7031 60.2969C85.7031 59.3906 85.8802 58.5938 86.2344 57.9062C86.5885 57.2083 87.099 56.6302 87.7656 56.1719C88.4323 55.7031 89.2344 55.349 90.1719 55.1094C91.1094 54.8698 92.1562 54.75 93.3125 54.75H96.6719ZM106.75 41V65H103.844V41H106.75ZM121.359 62.1094V53.4062C121.359 52.7396 121.224 52.1615 120.953 51.6719C120.693 51.1719 120.297 50.7865 119.766 50.5156C119.234 50.2448 118.578 50.1094 117.797 50.1094C117.068 50.1094 116.427 50.2344 115.875 50.4844C115.333 50.7344 114.906 51.0625 114.594 51.4688C114.292 51.875 114.141 52.3125 114.141 52.7812H111.25C111.25 52.1771 111.406 51.5781 111.719 50.9844C112.031 50.3906 112.479 49.8542 113.062 49.375C113.656 48.8854 114.365 48.5 115.188 48.2188C116.021 47.9271 116.948 47.7812 117.969 47.7812C119.198 47.7812 120.281 47.9896 121.219 48.4062C122.167 48.8229 122.906 49.4531 123.438 50.2969C123.979 51.1302 124.25 52.1771 124.25 53.4375V61.3125C124.25 61.875 124.297 62.474 124.391 63.1094C124.495 63.7448 124.646 64.2917 124.844 64.75V65H121.828C121.682 64.6667 121.568 64.224 121.484 63.6719C121.401 63.1094 121.359 62.5885 121.359 62.1094ZM121.859 54.75L121.891 56.7812H118.969C118.146 56.7812 117.411 56.849 116.766 56.9844C116.12 57.1094 115.578 57.3021 115.141 57.5625C114.703 57.8229 114.37 58.151 114.141 58.5469C113.911 58.9323 113.797 59.3854 113.797 59.9062C113.797 60.4375 113.917 60.9219 114.156 61.3594C114.396 61.7969 114.755 62.1458 115.234 62.4062C115.724 62.6562 116.323 62.7812 117.031 62.7812C117.917 62.7812 118.698 62.5938 119.375 62.2188C120.052 61.8438 120.589 61.3854 120.984 60.8438C121.391 60.3021 121.609 59.776 121.641 59.2656L122.875 60.6562C122.802 61.0938 122.604 61.5781 122.281 62.1094C121.958 62.6406 121.526 63.151 120.984 63.6406C120.453 64.1198 119.818 64.5208 119.078 64.8438C118.349 65.1562 117.526 65.3125 116.609 65.3125C115.464 65.3125 114.458 65.0885 113.594 64.6406C112.74 64.1927 112.073 63.5938 111.594 62.8438C111.125 62.0833 110.891 61.2344 110.891 60.2969C110.891 59.3906 111.068 58.5938 111.422 57.9062C111.776 57.2083 112.286 56.6302 112.953 56.1719C113.62 55.7031 114.422 55.349 115.359 55.1094C116.297 54.8698 117.344 54.75 118.5 54.75H121.859ZM131.688 50.75V65H128.797V48.0938H131.609L131.688 50.75ZM136.969 48L136.953 50.6875C136.714 50.6354 136.484 50.6042 136.266 50.5938C136.057 50.5729 135.818 50.5625 135.547 50.5625C134.88 50.5625 134.292 50.6667 133.781 50.875C133.271 51.0833 132.839 51.375 132.484 51.75C132.13 52.125 131.849 52.5729 131.641 53.0938C131.443 53.6042 131.312 54.1667 131.25 54.7812L130.438 55.25C130.438 54.2292 130.536 53.2708 130.734 52.375C130.943 51.4792 131.26 50.6875 131.688 50C132.115 49.3021 132.656 48.7604 133.312 48.375C133.979 47.9792 134.771 47.7812 135.688 47.7812C135.896 47.7812 136.135 47.8073 136.406 47.8594C136.677 47.901 136.865 47.9479 136.969 48ZM144.672 63.25L149.375 48.0938H152.469L145.688 67.6094C145.531 68.026 145.323 68.474 145.062 68.9531C144.812 69.4427 144.49 69.9062 144.094 70.3438C143.698 70.7812 143.219 71.1354 142.656 71.4062C142.104 71.6875 141.443 71.8281 140.672 71.8281C140.443 71.8281 140.151 71.7969 139.797 71.7344C139.443 71.6719 139.193 71.6198 139.047 71.5781L139.031 69.2344C139.115 69.2448 139.245 69.2552 139.422 69.2656C139.609 69.2865 139.74 69.2969 139.812 69.2969C140.469 69.2969 141.026 69.2083 141.484 69.0312C141.943 68.8646 142.328 68.5781 142.641 68.1719C142.964 67.776 143.24 67.2292 143.469 66.5312L144.672 63.25ZM141.219 48.0938L145.609 61.2188L146.359 64.2656L144.281 65.3281L138.062 48.0938H141.219Z" fill="white"/>
<g clip-path="url(#clip0_1_24348)">
<mask id="mask0_1_24348" style="mask-type:luminance" maskUnits="userSpaceOnUse" x="769" y="41" width="28" height="28">
<path d="M769 41H797V69H769V41Z" fill="white"/>
</mask>
<g mask="url(#mask0_1_24348)">
<path fill-rule="evenodd" clip-rule="evenodd" d="M784.667 63.8026C786.077 63.4261 787.37 62.7025 788.429 61.698C789.487 60.6934 790.278 59.4398 790.727 58.0514C790.769 57.9189 790.836 57.7959 790.926 57.6896C791.015 57.5833 791.125 57.4958 791.248 57.4321C791.372 57.3685 791.507 57.33 791.645 57.3188C791.784 57.3077 791.923 57.3241 792.055 57.3671C792.187 57.4102 792.309 57.4791 792.414 57.5697C792.52 57.6603 792.606 57.7709 792.668 57.8951C792.73 58.0193 792.767 58.1546 792.777 58.2932C792.786 58.4318 792.768 58.5709 792.724 58.7024C791.955 61.0701 790.395 63.1012 788.305 64.4551C786.216 65.809 783.725 66.4033 781.25 66.1384C778.774 65.8734 776.466 64.7652 774.71 62.9998C772.955 61.2343 771.86 58.919 771.61 56.4422C771.359 53.9653 771.968 51.4776 773.334 49.3964C774.7 47.3152 776.74 45.767 779.112 45.0116C781.484 44.2562 784.044 44.3395 786.362 45.2475C788.68 46.1555 790.615 47.833 791.843 49.9986L792.09 46.9928C792.114 46.7166 792.247 46.4612 792.458 46.2823C792.67 46.1035 792.945 46.0158 793.221 46.0384C793.497 46.0609 793.754 46.1919 793.934 46.4027C794.114 46.6135 794.203 46.8871 794.183 47.1636L793.648 53.7156C793.634 53.8825 793.581 54.0436 793.492 54.1856C793.404 54.3277 793.282 54.4465 793.138 54.5321C792.995 54.6177 792.832 54.6677 792.665 54.6779C792.498 54.6881 792.331 54.6581 792.178 54.5906L786.665 52.1588C786.535 52.1057 786.417 52.0271 786.318 51.9276C786.219 51.8282 786.141 51.71 786.089 51.5799C786.036 51.4499 786.01 51.3106 786.013 51.1704C786.015 51.0302 786.045 50.8918 786.102 50.7635C786.158 50.6352 786.24 50.5195 786.342 50.4233C786.444 50.3271 786.564 50.2523 786.696 50.2033C786.827 50.1543 786.967 50.1321 787.107 50.1381C787.247 50.1441 787.385 50.178 787.512 50.238L790.23 51.4378C789.49 49.9573 788.345 48.7172 786.928 47.8616C785.511 47.0059 783.88 46.5697 782.225 46.6037C780.57 46.6377 778.958 47.1405 777.578 48.0537C776.197 48.9668 775.104 50.2529 774.425 51.7626C773.746 53.2722 773.509 54.9436 773.742 56.5825C773.974 58.2214 774.667 59.7606 775.74 61.0215C776.813 62.2823 778.221 63.213 779.801 63.7056C781.382 64.1981 783.069 64.2323 784.668 63.804L784.667 63.8026Z" fill="white"/>
</g>
</g>
</g>
<defs>
<filter id="filter0_d_1_24348" x="0" y="0" width="842" height="128" filterUnits="userSpaceOnUse" color-interpolation-filters="sRGB">
<feFlood flood-opacity="0" result="BackgroundImageFix"/>
<feColorMatrix in="SourceAlpha" type="matrix" values="0 0 0 0 0 0 0 0 0 0 0 0 0 0 0 0 0 0 127 0" result="hardAlpha"/>
<feOffset dy="9"/>
<feGaussianBlur stdDeviation="12.5"/>
<feComposite in2="hardAlpha" operator="out"/>
<feColorMatrix type="matrix" values="0 0 0 0 0.12549 0 0 0 0 0.160784 0 0 0 0 0.298039 0 0 0 0.12 0"/>
<feBlend mode="normal" in2="BackgroundImageFix" result="effect1_dropShadow_1_24348"/>
<feBlend mode="normal" in="SourceGraphic" in2="effect1_dropShadow_1_24348" result="shape"/>
</filter>
<clipPath id="clip0_1_24348">
<rect width="28" height="28" fill="white" transform="translate(769 41)"/>
</clipPath>
</defs>
</svg>
