<svg width="690" height="75" viewBox="0 0 690 75" fill="none" xmlns="http://www.w3.org/2000/svg">
<rect width="690" height="75" rx="8" fill="white"/>
<path fill-rule="evenodd" clip-rule="evenodd" d="M25.9998 29.5C25.9998 26.1863 28.6861 23.5 31.9998 23.5C35.3136 23.5 37.9998 26.1863 37.9998 29.5V31.241C41.1257 33.228 43.1998 36.7218 43.1998 40.7C43.1998 46.8856 38.1854 51.9 31.9998 51.9C25.8142 51.9 20.7998 46.8856 20.7998 40.7C20.7998 36.7218 22.8739 33.228 25.9998 31.241V29.5ZM35.5998 29.5V30.0911C34.47 29.7079 33.2592 29.5 31.9998 29.5C30.7404 29.5 29.5296 29.7079 28.3998 30.0911V29.5C28.3998 27.5118 30.0116 25.9 31.9998 25.9C33.988 25.9 35.5998 27.5118 35.5998 29.5ZM35.1998 39.1C35.1998 40.591 34.18 41.844 32.7998 42.1992V45.5C32.7998 45.9418 32.4416 46.3 31.9998 46.3C31.558 46.3 31.1998 45.9418 31.1998 45.5V42.1992C29.8196 41.844 28.7998 40.591 28.7998 39.1C28.7998 37.3327 30.2325 35.9 31.9998 35.9C33.7672 35.9 35.1998 37.3327 35.1998 39.1Z" fill="#20294C"/>
<path d="M67.1836 28.5V43.5H65.377V28.5H67.1836ZM66.7539 37.8164L66.002 37.7871C66.0085 37.0645 66.1159 36.3971 66.3242 35.7852C66.5326 35.1667 66.8255 34.6296 67.2031 34.1738C67.5807 33.7181 68.0299 33.3665 68.5508 33.1191C69.0781 32.8652 69.6608 32.7383 70.2988 32.7383C70.8197 32.7383 71.2884 32.8099 71.7051 32.9531C72.1217 33.0898 72.4766 33.3112 72.7695 33.6172C73.069 33.9232 73.2969 34.3203 73.4531 34.8086C73.6094 35.2904 73.6875 35.8796 73.6875 36.5762V43.5H71.8711V36.5566C71.8711 36.0033 71.7897 35.5605 71.627 35.2285C71.4642 34.89 71.2266 34.6458 70.9141 34.4961C70.6016 34.3398 70.2174 34.2617 69.7617 34.2617C69.3125 34.2617 68.9023 34.3561 68.5312 34.5449C68.1667 34.7337 67.8509 34.9941 67.584 35.3262C67.3236 35.6582 67.1185 36.0391 66.9688 36.4688C66.8255 36.8919 66.7539 37.3411 66.7539 37.8164ZM80.8164 32.9336V34.3203H75.1035V32.9336H80.8164ZM77.0371 30.3652H78.8438V40.8828C78.8438 41.2409 78.8991 41.5111 79.0098 41.6934C79.1204 41.8757 79.2637 41.9961 79.4395 42.0547C79.6152 42.1133 79.804 42.1426 80.0059 42.1426C80.1556 42.1426 80.3118 42.1296 80.4746 42.1035C80.6439 42.071 80.7708 42.0449 80.8555 42.0254L80.8652 43.5C80.722 43.5456 80.5332 43.5879 80.2988 43.627C80.071 43.6725 79.7943 43.6953 79.4688 43.6953C79.026 43.6953 78.6191 43.6074 78.248 43.4316C77.877 43.2559 77.5807 42.9629 77.3594 42.5527C77.1445 42.1361 77.0371 41.5762 77.0371 40.873V30.3652ZM87.3594 32.9336V34.3203H81.6465V32.9336H87.3594ZM83.5801 30.3652H85.3867V40.8828C85.3867 41.2409 85.4421 41.5111 85.5527 41.6934C85.6634 41.8757 85.8066 41.9961 85.9824 42.0547C86.1582 42.1133 86.347 42.1426 86.5488 42.1426C86.6986 42.1426 86.8548 42.1296 87.0176 42.1035C87.1868 42.071 87.3138 42.0449 87.3984 42.0254L87.4082 43.5C87.265 43.5456 87.0762 43.5879 86.8418 43.627C86.6139 43.6725 86.3372 43.6953 86.0117 43.6953C85.569 43.6953 85.1621 43.6074 84.791 43.4316C84.4199 43.2559 84.1237 42.9629 83.9023 42.5527C83.6875 42.1361 83.5801 41.5762 83.5801 40.873V30.3652ZM91.2852 34.9648V47.5625H89.4688V32.9336H91.1289L91.2852 34.9648ZM98.4043 38.1289V38.334C98.4043 39.1022 98.3132 39.8151 98.1309 40.4727C97.9486 41.1237 97.6816 41.6901 97.3301 42.1719C96.985 42.6536 96.5586 43.028 96.0508 43.2949C95.543 43.5618 94.9603 43.6953 94.3027 43.6953C93.6322 43.6953 93.0397 43.5846 92.5254 43.3633C92.0111 43.1419 91.5749 42.8197 91.2168 42.3965C90.8587 41.9733 90.5723 41.4655 90.3574 40.873C90.1491 40.2806 90.0059 39.6133 89.9277 38.8711V37.7773C90.0059 36.9961 90.1523 36.2962 90.3672 35.6777C90.582 35.0592 90.8652 34.5319 91.2168 34.0957C91.5749 33.653 92.0078 33.3177 92.5156 33.0898C93.0234 32.8555 93.6094 32.7383 94.2734 32.7383C94.9375 32.7383 95.5267 32.8685 96.041 33.1289C96.5553 33.3828 96.9883 33.7474 97.3398 34.2227C97.6914 34.6979 97.9551 35.2676 98.1309 35.9316C98.3132 36.5892 98.4043 37.3216 98.4043 38.1289ZM96.5879 38.334V38.1289C96.5879 37.6016 96.5326 37.1068 96.4219 36.6445C96.3112 36.1758 96.1387 35.7656 95.9043 35.4141C95.6764 35.056 95.3835 34.776 95.0254 34.5742C94.6673 34.3659 94.2409 34.2617 93.7461 34.2617C93.2904 34.2617 92.8932 34.3398 92.5547 34.4961C92.2227 34.6523 91.9395 34.8639 91.7051 35.1309C91.4707 35.3913 91.2786 35.6908 91.1289 36.0293C90.9857 36.3613 90.8783 36.7064 90.8066 37.0645V39.5938C90.9368 40.0495 91.1191 40.4792 91.3535 40.8828C91.5879 41.2799 91.9004 41.6022 92.291 41.8496C92.6816 42.0905 93.1732 42.2109 93.7656 42.2109C94.2539 42.2109 94.6738 42.11 95.0254 41.9082C95.3835 41.6999 95.6764 41.4167 95.9043 41.0586C96.1387 40.7005 96.3112 40.2904 96.4219 39.8281C96.5326 39.3594 96.5879 38.8613 96.5879 38.334ZM106.861 40.6973C106.861 40.4368 106.803 40.196 106.686 39.9746C106.575 39.7467 106.344 39.5417 105.992 39.3594C105.647 39.1706 105.126 39.0078 104.43 38.8711C103.844 38.7474 103.313 38.6009 102.838 38.4316C102.369 38.2624 101.969 38.0573 101.637 37.8164C101.311 37.5755 101.061 37.2923 100.885 36.9668C100.709 36.6413 100.621 36.2604 100.621 35.8242C100.621 35.4076 100.712 35.0137 100.895 34.6426C101.083 34.2715 101.347 33.9427 101.686 33.6562C102.031 33.3698 102.444 33.1452 102.926 32.9824C103.408 32.8197 103.945 32.7383 104.537 32.7383C105.383 32.7383 106.106 32.888 106.705 33.1875C107.304 33.487 107.763 33.8874 108.082 34.3887C108.401 34.8835 108.561 35.4336 108.561 36.0391H106.754C106.754 35.7461 106.666 35.4629 106.49 35.1895C106.321 34.9095 106.07 34.6784 105.738 34.4961C105.413 34.3138 105.012 34.2227 104.537 34.2227C104.036 34.2227 103.629 34.3008 103.316 34.457C103.01 34.6068 102.786 34.7988 102.643 35.0332C102.506 35.2676 102.438 35.515 102.438 35.7754C102.438 35.9707 102.47 36.1465 102.535 36.3027C102.607 36.4525 102.73 36.5924 102.906 36.7227C103.082 36.8464 103.329 36.9635 103.648 37.0742C103.967 37.1849 104.374 37.2956 104.869 37.4062C105.735 37.6016 106.448 37.8359 107.008 38.1094C107.568 38.3828 107.984 38.7181 108.258 39.1152C108.531 39.5124 108.668 39.9941 108.668 40.5605C108.668 41.0228 108.57 41.446 108.375 41.8301C108.186 42.2142 107.91 42.5462 107.545 42.8262C107.187 43.0996 106.757 43.3145 106.256 43.4707C105.761 43.6204 105.204 43.6953 104.586 43.6953C103.655 43.6953 102.867 43.5293 102.223 43.1973C101.578 42.8652 101.09 42.4355 100.758 41.9082C100.426 41.3809 100.26 40.8242 100.26 40.2383H102.076C102.102 40.7331 102.245 41.127 102.506 41.4199C102.766 41.7064 103.085 41.9115 103.463 42.0352C103.84 42.1523 104.215 42.2109 104.586 42.2109C105.081 42.2109 105.494 42.1458 105.826 42.0156C106.165 41.8854 106.422 41.7064 106.598 41.4785C106.773 41.2507 106.861 40.9902 106.861 40.6973ZM110.963 42.543C110.963 42.237 111.057 41.9798 111.246 41.7715C111.441 41.5566 111.721 41.4492 112.086 41.4492C112.451 41.4492 112.727 41.5566 112.916 41.7715C113.111 41.9798 113.209 42.237 113.209 42.543C113.209 42.8424 113.111 43.0964 112.916 43.3047C112.727 43.513 112.451 43.6172 112.086 43.6172C111.721 43.6172 111.441 43.513 111.246 43.3047C111.057 43.0964 110.963 42.8424 110.963 42.543ZM110.973 33.9199C110.973 33.6139 111.067 33.3568 111.256 33.1484C111.451 32.9336 111.731 32.8262 112.096 32.8262C112.46 32.8262 112.737 32.9336 112.926 33.1484C113.121 33.3568 113.219 33.6139 113.219 33.9199C113.219 34.2194 113.121 34.4733 112.926 34.6816C112.737 34.89 112.46 34.9941 112.096 34.9941C111.731 34.9941 111.451 34.89 111.256 34.6816C111.067 34.4733 110.973 34.2194 110.973 33.9199ZM122.174 29.2812L116.246 44.7207H114.693L120.631 29.2812H122.174ZM128.248 29.2812L122.32 44.7207H120.768L126.705 29.2812H128.248Z" fill="#979DB5"/>
<path d="M140.076 41.6934V36.2539C140.076 35.8372 139.992 35.4759 139.822 35.1699C139.66 34.8574 139.412 34.6165 139.08 34.4473C138.748 34.278 138.338 34.1934 137.85 34.1934C137.394 34.1934 136.993 34.2715 136.648 34.4277C136.31 34.584 136.043 34.7891 135.848 35.043C135.659 35.2969 135.564 35.5703 135.564 35.8633H133.758C133.758 35.4857 133.855 35.1113 134.051 34.7402C134.246 34.3691 134.526 34.0339 134.891 33.7344C135.262 33.4284 135.704 33.1875 136.219 33.0117C136.74 32.8294 137.319 32.7383 137.957 32.7383C138.725 32.7383 139.402 32.8685 139.988 33.1289C140.581 33.3893 141.043 33.7832 141.375 34.3105C141.714 34.8314 141.883 35.4857 141.883 36.2734V41.1953C141.883 41.5469 141.912 41.9212 141.971 42.3184C142.036 42.7155 142.13 43.0573 142.254 43.3438V43.5H140.369C140.278 43.2917 140.206 43.015 140.154 42.6699C140.102 42.3184 140.076 41.9928 140.076 41.6934ZM140.389 37.0938L140.408 38.3633H138.582C138.068 38.3633 137.609 38.4056 137.205 38.4902C136.801 38.5684 136.463 38.6888 136.189 38.8516C135.916 39.0143 135.708 39.2194 135.564 39.4668C135.421 39.7077 135.35 39.9909 135.35 40.3164C135.35 40.6484 135.424 40.9512 135.574 41.2246C135.724 41.498 135.949 41.7161 136.248 41.8789C136.554 42.0352 136.928 42.1133 137.371 42.1133C137.924 42.1133 138.413 41.9961 138.836 41.7617C139.259 41.5273 139.594 41.2409 139.842 40.9023C140.096 40.5638 140.232 40.235 140.252 39.916L141.023 40.7852C140.978 41.0586 140.854 41.3613 140.652 41.6934C140.451 42.0254 140.18 42.3444 139.842 42.6504C139.51 42.9499 139.113 43.2005 138.65 43.4023C138.195 43.5977 137.68 43.6953 137.107 43.6953C136.391 43.6953 135.763 43.5553 135.223 43.2754C134.689 42.9954 134.272 42.6211 133.973 42.1523C133.68 41.6771 133.533 41.1465 133.533 40.5605C133.533 39.9941 133.644 39.4961 133.865 39.0664C134.087 38.6302 134.406 38.2689 134.822 37.9824C135.239 37.6895 135.74 37.4681 136.326 37.3184C136.912 37.1686 137.566 37.0938 138.289 37.0938H140.389ZM146.531 34.9648V47.5625H144.715V32.9336H146.375L146.531 34.9648ZM153.65 38.1289V38.334C153.65 39.1022 153.559 39.8151 153.377 40.4727C153.195 41.1237 152.928 41.6901 152.576 42.1719C152.231 42.6536 151.805 43.028 151.297 43.2949C150.789 43.5618 150.206 43.6953 149.549 43.6953C148.878 43.6953 148.286 43.5846 147.771 43.3633C147.257 43.1419 146.821 42.8197 146.463 42.3965C146.105 41.9733 145.818 41.4655 145.604 40.873C145.395 40.2806 145.252 39.6133 145.174 38.8711V37.7773C145.252 36.9961 145.398 36.2962 145.613 35.6777C145.828 35.0592 146.111 34.5319 146.463 34.0957C146.821 33.653 147.254 33.3177 147.762 33.0898C148.27 32.8555 148.855 32.7383 149.52 32.7383C150.184 32.7383 150.773 32.8685 151.287 33.1289C151.801 33.3828 152.234 33.7474 152.586 34.2227C152.938 34.6979 153.201 35.2676 153.377 35.9316C153.559 36.5892 153.65 37.3216 153.65 38.1289ZM151.834 38.334V38.1289C151.834 37.6016 151.779 37.1068 151.668 36.6445C151.557 36.1758 151.385 35.7656 151.15 35.4141C150.923 35.056 150.63 34.776 150.271 34.5742C149.913 34.3659 149.487 34.2617 148.992 34.2617C148.536 34.2617 148.139 34.3398 147.801 34.4961C147.469 34.6523 147.186 34.8639 146.951 35.1309C146.717 35.3913 146.525 35.6908 146.375 36.0293C146.232 36.3613 146.124 36.7064 146.053 37.0645V39.5938C146.183 40.0495 146.365 40.4792 146.6 40.8828C146.834 41.2799 147.146 41.6022 147.537 41.8496C147.928 42.0905 148.419 42.2109 149.012 42.2109C149.5 42.2109 149.92 42.11 150.271 41.9082C150.63 41.6999 150.923 41.4167 151.15 41.0586C151.385 40.7005 151.557 40.2904 151.668 39.8281C151.779 39.3594 151.834 38.8613 151.834 38.334ZM157.762 34.9648V47.5625H155.945V32.9336H157.605L157.762 34.9648ZM164.881 38.1289V38.334C164.881 39.1022 164.79 39.8151 164.607 40.4727C164.425 41.1237 164.158 41.6901 163.807 42.1719C163.462 42.6536 163.035 43.028 162.527 43.2949C162.02 43.5618 161.437 43.6953 160.779 43.6953C160.109 43.6953 159.516 43.5846 159.002 43.3633C158.488 43.1419 158.051 42.8197 157.693 42.3965C157.335 41.9733 157.049 41.4655 156.834 40.873C156.626 40.2806 156.482 39.6133 156.404 38.8711V37.7773C156.482 36.9961 156.629 36.2962 156.844 35.6777C157.059 35.0592 157.342 34.5319 157.693 34.0957C158.051 33.653 158.484 33.3177 158.992 33.0898C159.5 32.8555 160.086 32.7383 160.75 32.7383C161.414 32.7383 162.003 32.8685 162.518 33.1289C163.032 33.3828 163.465 33.7474 163.816 34.2227C164.168 34.6979 164.432 35.2676 164.607 35.9316C164.79 36.5892 164.881 37.3216 164.881 38.1289ZM163.064 38.334V38.1289C163.064 37.6016 163.009 37.1068 162.898 36.6445C162.788 36.1758 162.615 35.7656 162.381 35.4141C162.153 35.056 161.86 34.776 161.502 34.5742C161.144 34.3659 160.717 34.2617 160.223 34.2617C159.767 34.2617 159.37 34.3398 159.031 34.4961C158.699 34.6523 158.416 34.8639 158.182 35.1309C157.947 35.3913 157.755 35.6908 157.605 36.0293C157.462 36.3613 157.355 36.7064 157.283 37.0645V39.5938C157.413 40.0495 157.596 40.4792 157.83 40.8828C158.064 41.2799 158.377 41.6022 158.768 41.8496C159.158 42.0905 159.65 42.2109 160.242 42.2109C160.73 42.2109 161.15 42.11 161.502 41.9082C161.86 41.6999 162.153 41.4167 162.381 41.0586C162.615 40.7005 162.788 40.2904 162.898 39.8281C163.009 39.3594 163.064 38.8613 163.064 38.334ZM167.215 42.543C167.215 42.237 167.309 41.9798 167.498 41.7715C167.693 41.5566 167.973 41.4492 168.338 41.4492C168.702 41.4492 168.979 41.5566 169.168 41.7715C169.363 41.9798 169.461 42.237 169.461 42.543C169.461 42.8424 169.363 43.0964 169.168 43.3047C168.979 43.513 168.702 43.6172 168.338 43.6172C167.973 43.6172 167.693 43.513 167.498 43.3047C167.309 43.0964 167.215 42.8424 167.215 42.543ZM175.154 43.5H173.348V31.8203C173.348 31.0586 173.484 30.4173 173.758 29.8965C174.038 29.3691 174.438 28.972 174.959 28.7051C175.48 28.4316 176.098 28.2949 176.814 28.2949C177.023 28.2949 177.231 28.3079 177.439 28.334C177.654 28.36 177.863 28.3991 178.064 28.4512L177.967 29.9258C177.83 29.8932 177.674 29.8704 177.498 29.8574C177.329 29.8444 177.16 29.8379 176.99 29.8379C176.606 29.8379 176.274 29.916 175.994 30.0723C175.721 30.222 175.512 30.4434 175.369 30.7363C175.226 31.0293 175.154 31.3906 175.154 31.8203V43.5ZM177.4 32.9336V34.3203H171.678V32.9336H177.4ZM178.934 38.334V38.1094C178.934 37.3477 179.044 36.6413 179.266 35.9902C179.487 35.3327 179.806 34.763 180.223 34.2812C180.639 33.793 181.144 33.4154 181.736 33.1484C182.329 32.875 182.993 32.7383 183.729 32.7383C184.471 32.7383 185.138 32.875 185.73 33.1484C186.329 33.4154 186.837 33.793 187.254 34.2812C187.677 34.763 187.999 35.3327 188.221 35.9902C188.442 36.6413 188.553 37.3477 188.553 38.1094V38.334C188.553 39.0957 188.442 39.8021 188.221 40.4531C187.999 41.1042 187.677 41.6738 187.254 42.1621C186.837 42.6439 186.333 43.0215 185.74 43.2949C185.154 43.5618 184.49 43.6953 183.748 43.6953C183.006 43.6953 182.339 43.5618 181.746 43.2949C181.154 43.0215 180.646 42.6439 180.223 42.1621C179.806 41.6738 179.487 41.1042 179.266 40.4531C179.044 39.8021 178.934 39.0957 178.934 38.334ZM180.74 38.1094V38.334C180.74 38.8613 180.802 39.3594 180.926 39.8281C181.049 40.2904 181.235 40.7005 181.482 41.0586C181.736 41.4167 182.052 41.6999 182.43 41.9082C182.807 42.11 183.247 42.2109 183.748 42.2109C184.243 42.2109 184.676 42.11 185.047 41.9082C185.424 41.6999 185.737 41.4167 185.984 41.0586C186.232 40.7005 186.417 40.2904 186.541 39.8281C186.671 39.3594 186.736 38.8613 186.736 38.334V38.1094C186.736 37.5885 186.671 37.097 186.541 36.6348C186.417 36.166 186.229 35.7526 185.975 35.3945C185.727 35.0299 185.415 34.7435 185.037 34.5352C184.666 34.3268 184.23 34.2227 183.729 34.2227C183.234 34.2227 182.798 34.3268 182.42 34.5352C182.049 34.7435 181.736 35.0299 181.482 35.3945C181.235 35.7526 181.049 36.166 180.926 36.6348C180.802 37.097 180.74 37.5885 180.74 38.1094ZM192.781 28.5V43.5H190.965V28.5H192.781ZM202.342 41.4492V28.5H204.158V43.5H202.498L202.342 41.4492ZM195.232 38.334V38.1289C195.232 37.3216 195.33 36.5892 195.525 35.9316C195.727 35.2676 196.01 34.6979 196.375 34.2227C196.746 33.7474 197.186 33.3828 197.693 33.1289C198.208 32.8685 198.781 32.7383 199.412 32.7383C200.076 32.7383 200.656 32.8555 201.15 33.0898C201.652 33.3177 202.075 33.653 202.42 34.0957C202.771 34.5319 203.048 35.0592 203.25 35.6777C203.452 36.2962 203.592 36.9961 203.67 37.7773V38.6758C203.598 39.4505 203.458 40.1471 203.25 40.7656C203.048 41.3841 202.771 41.9115 202.42 42.3477C202.075 42.7839 201.652 43.1191 201.15 43.3535C200.649 43.5814 200.063 43.6953 199.393 43.6953C198.774 43.6953 198.208 43.5618 197.693 43.2949C197.186 43.028 196.746 42.6536 196.375 42.1719C196.01 41.6901 195.727 41.1237 195.525 40.4727C195.33 39.8151 195.232 39.1022 195.232 38.334ZM197.049 38.1289V38.334C197.049 38.8613 197.101 39.3561 197.205 39.8184C197.316 40.2806 197.485 40.6875 197.713 41.0391C197.941 41.3906 198.23 41.6673 198.582 41.8691C198.934 42.0645 199.354 42.1621 199.842 42.1621C200.441 42.1621 200.932 42.0352 201.316 41.7812C201.707 41.5273 202.02 41.1921 202.254 40.7754C202.488 40.3587 202.671 39.9062 202.801 39.418V37.0645C202.723 36.7064 202.609 36.3613 202.459 36.0293C202.316 35.6908 202.127 35.3913 201.893 35.1309C201.665 34.8639 201.382 34.6523 201.043 34.4961C200.711 34.3398 200.317 34.2617 199.861 34.2617C199.367 34.2617 198.94 34.3659 198.582 34.5742C198.23 34.776 197.941 35.056 197.713 35.4141C197.485 35.7656 197.316 36.1758 197.205 36.6445C197.101 37.1068 197.049 37.6016 197.049 38.1289ZM207 42.543C207 42.237 207.094 41.9798 207.283 41.7715C207.479 41.5566 207.758 41.4492 208.123 41.4492C208.488 41.4492 208.764 41.5566 208.953 41.7715C209.148 41.9798 209.246 42.237 209.246 42.543C209.246 42.8424 209.148 43.0964 208.953 43.3047C208.764 43.513 208.488 43.6172 208.123 43.6172C207.758 43.6172 207.479 43.513 207.283 43.3047C207.094 43.0964 207 42.8424 207 42.543ZM214.041 35.0332V43.5H212.225V32.9336H213.943L214.041 35.0332ZM213.67 37.8164L212.83 37.7871C212.837 37.0645 212.931 36.3971 213.113 35.7852C213.296 35.1667 213.566 34.6296 213.924 34.1738C214.282 33.7181 214.728 33.3665 215.262 33.1191C215.796 32.8652 216.414 32.7383 217.117 32.7383C217.612 32.7383 218.068 32.8099 218.484 32.9531C218.901 33.0898 219.262 33.3079 219.568 33.6074C219.874 33.9069 220.112 34.291 220.281 34.7598C220.451 35.2285 220.535 35.7949 220.535 36.459V43.5H218.729V36.5469C218.729 35.9935 218.634 35.5508 218.445 35.2188C218.263 34.8867 218.003 34.6458 217.664 34.4961C217.326 34.3398 216.928 34.2617 216.473 34.2617C215.939 34.2617 215.493 34.3561 215.135 34.5449C214.777 34.7337 214.49 34.9941 214.275 35.3262C214.061 35.6582 213.904 36.0391 213.807 36.4688C213.715 36.8919 213.67 37.3411 213.67 37.8164ZM220.516 36.8203L219.305 37.1914C219.311 36.612 219.406 36.0553 219.588 35.5215C219.777 34.9876 220.047 34.5124 220.398 34.0957C220.757 33.679 221.196 33.3503 221.717 33.1094C222.238 32.862 222.833 32.7383 223.504 32.7383C224.07 32.7383 224.572 32.8132 225.008 32.9629C225.451 33.1126 225.822 33.3438 226.121 33.6562C226.427 33.9622 226.658 34.3561 226.814 34.8379C226.971 35.3197 227.049 35.8926 227.049 36.5566V43.5H225.232V36.5371C225.232 35.9447 225.138 35.4857 224.949 35.1602C224.767 34.8281 224.507 34.597 224.168 34.4668C223.836 34.3301 223.439 34.2617 222.977 34.2617C222.579 34.2617 222.228 34.3301 221.922 34.4668C221.616 34.6035 221.359 34.7923 221.15 35.0332C220.942 35.2676 220.783 35.5378 220.672 35.8438C220.568 36.1497 220.516 36.4753 220.516 36.8203ZM229.305 38.334V38.1094C229.305 37.3477 229.415 36.6413 229.637 35.9902C229.858 35.3327 230.177 34.763 230.594 34.2812C231.01 33.793 231.515 33.4154 232.107 33.1484C232.7 32.875 233.364 32.7383 234.1 32.7383C234.842 32.7383 235.509 32.875 236.102 33.1484C236.701 33.4154 237.208 33.793 237.625 34.2812C238.048 34.763 238.37 35.3327 238.592 35.9902C238.813 36.6413 238.924 37.3477 238.924 38.1094V38.334C238.924 39.0957 238.813 39.8021 238.592 40.4531C238.37 41.1042 238.048 41.6738 237.625 42.1621C237.208 42.6439 236.704 43.0215 236.111 43.2949C235.525 43.5618 234.861 43.6953 234.119 43.6953C233.377 43.6953 232.71 43.5618 232.117 43.2949C231.525 43.0215 231.017 42.6439 230.594 42.1621C230.177 41.6738 229.858 41.1042 229.637 40.4531C229.415 39.8021 229.305 39.0957 229.305 38.334ZM231.111 38.1094V38.334C231.111 38.8613 231.173 39.3594 231.297 39.8281C231.421 40.2904 231.606 40.7005 231.854 41.0586C232.107 41.4167 232.423 41.6999 232.801 41.9082C233.178 42.11 233.618 42.2109 234.119 42.2109C234.614 42.2109 235.047 42.11 235.418 41.9082C235.796 41.6999 236.108 41.4167 236.355 41.0586C236.603 40.7005 236.788 40.2904 236.912 39.8281C237.042 39.3594 237.107 38.8613 237.107 38.334V38.1094C237.107 37.5885 237.042 37.097 236.912 36.6348C236.788 36.166 236.6 35.7526 236.346 35.3945C236.098 35.0299 235.786 34.7435 235.408 34.5352C235.037 34.3268 234.601 34.2227 234.1 34.2227C233.605 34.2227 233.169 34.3268 232.791 34.5352C232.42 34.7435 232.107 35.0299 231.854 35.3945C231.606 35.7526 231.421 36.166 231.297 36.6348C231.173 37.097 231.111 37.5885 231.111 38.1094ZM242.996 35.1895V43.5H241.189V32.9336H242.898L242.996 35.1895ZM242.566 37.8164L241.814 37.7871C241.821 37.0645 241.928 36.3971 242.137 35.7852C242.345 35.1667 242.638 34.6296 243.016 34.1738C243.393 33.7181 243.842 33.3665 244.363 33.1191C244.891 32.8652 245.473 32.7383 246.111 32.7383C246.632 32.7383 247.101 32.8099 247.518 32.9531C247.934 33.0898 248.289 33.3112 248.582 33.6172C248.882 33.9232 249.109 34.3203 249.266 34.8086C249.422 35.2904 249.5 35.8796 249.5 36.5762V43.5H247.684V36.5566C247.684 36.0033 247.602 35.5605 247.439 35.2285C247.277 34.89 247.039 34.6458 246.727 34.4961C246.414 34.3398 246.03 34.2617 245.574 34.2617C245.125 34.2617 244.715 34.3561 244.344 34.5449C243.979 34.7337 243.663 34.9941 243.396 35.3262C243.136 35.6582 242.931 36.0391 242.781 36.4688C242.638 36.8919 242.566 37.3411 242.566 37.8164ZM256.629 43.6953C255.893 43.6953 255.226 43.5716 254.627 43.3242C254.035 43.0703 253.523 42.7155 253.094 42.2598C252.671 41.804 252.345 41.2637 252.117 40.6387C251.889 40.0137 251.775 39.3301 251.775 38.5879V38.1777C251.775 37.3184 251.902 36.5534 252.156 35.8828C252.41 35.2057 252.755 34.6328 253.191 34.1641C253.628 33.6953 254.122 33.3405 254.676 33.0996C255.229 32.8587 255.802 32.7383 256.395 32.7383C257.15 32.7383 257.801 32.8685 258.348 33.1289C258.901 33.3893 259.354 33.7539 259.705 34.2227C260.057 34.6849 260.317 35.2318 260.486 35.8633C260.656 36.4883 260.74 37.1719 260.74 37.9141V38.7246H252.85V37.25H258.934V37.1133C258.908 36.6445 258.81 36.1888 258.641 35.7461C258.478 35.3034 258.217 34.9388 257.859 34.6523C257.501 34.3659 257.013 34.2227 256.395 34.2227C255.984 34.2227 255.607 34.3105 255.262 34.4863C254.917 34.6556 254.62 34.9095 254.373 35.248C254.126 35.5866 253.934 36 253.797 36.4883C253.66 36.9766 253.592 37.5397 253.592 38.1777V38.5879C253.592 39.0892 253.66 39.5612 253.797 40.0039C253.94 40.4401 254.145 40.8242 254.412 41.1562C254.686 41.4883 255.014 41.7487 255.398 41.9375C255.789 42.1263 256.232 42.2207 256.727 42.2207C257.365 42.2207 257.905 42.0905 258.348 41.8301C258.79 41.5697 259.178 41.2214 259.51 40.7852L260.604 41.6543C260.376 41.9993 260.086 42.3281 259.734 42.6406C259.383 42.9531 258.95 43.207 258.436 43.4023C257.928 43.5977 257.326 43.6953 256.629 43.6953ZM265.682 42.4062L268.621 32.9336H270.555L266.316 45.1309C266.219 45.3913 266.089 45.6712 265.926 45.9707C265.77 46.2767 265.568 46.5664 265.32 46.8398C265.073 47.1133 264.773 47.3346 264.422 47.5039C264.077 47.6797 263.663 47.7676 263.182 47.7676C263.038 47.7676 262.856 47.748 262.635 47.709C262.413 47.6699 262.257 47.6374 262.166 47.6113L262.156 46.1465C262.208 46.153 262.29 46.1595 262.4 46.166C262.518 46.179 262.599 46.1855 262.645 46.1855C263.055 46.1855 263.403 46.1302 263.689 46.0195C263.976 45.9154 264.217 45.7363 264.412 45.4824C264.614 45.235 264.786 44.8932 264.93 44.457L265.682 42.4062ZM263.523 32.9336L266.268 41.1367L266.736 43.041L265.438 43.7051L261.551 32.9336H263.523Z" fill="#20294C"/>
<rect x="538.81" y="16.5" width="135.19" height="42" rx="21" fill="#FAFAFA"/>
<rect x="539.31" y="17" width="134.19" height="41" rx="20.5" stroke="#788DBA" stroke-opacity="0.5"/>
<path d="M564.509 38.6567H566.103C566.02 39.4204 565.801 40.1038 565.447 40.707C565.093 41.3102 564.592 41.7889 563.945 42.1431C563.297 42.4917 562.489 42.666 561.521 42.666C560.813 42.666 560.168 42.5332 559.587 42.2676C559.011 42.002 558.516 41.6257 558.101 41.1387C557.686 40.6462 557.365 40.0568 557.138 39.3706C556.917 38.6789 556.806 37.9097 556.806 37.063V35.8594C556.806 35.0127 556.917 34.2463 557.138 33.5601C557.365 32.8683 557.689 32.2762 558.109 31.7837C558.535 31.2912 559.047 30.9121 559.645 30.6465C560.243 30.3809 560.915 30.248 561.662 30.248C562.575 30.248 563.347 30.4196 563.978 30.7627C564.609 31.1058 565.099 31.5817 565.447 32.1904C565.801 32.7936 566.02 33.4937 566.103 34.2905H564.509C564.432 33.7261 564.288 33.2419 564.078 32.8379C563.867 32.4284 563.569 32.113 563.181 31.8916C562.794 31.6702 562.287 31.5596 561.662 31.5596C561.125 31.5596 560.652 31.6619 560.243 31.8667C559.839 32.0715 559.498 32.362 559.222 32.7383C558.951 33.1146 558.746 33.5656 558.607 34.0913C558.469 34.617 558.4 35.2008 558.4 35.8428V37.063C558.4 37.6551 558.461 38.2113 558.583 38.7314C558.71 39.2516 558.901 39.7082 559.155 40.1011C559.41 40.494 559.734 40.8039 560.126 41.0308C560.519 41.2521 560.984 41.3628 561.521 41.3628C562.202 41.3628 562.744 41.2549 563.148 41.0391C563.552 40.8232 563.856 40.5133 564.061 40.1094C564.271 39.7054 564.421 39.2212 564.509 38.6567ZM567.647 38.1089V37.918C567.647 37.2705 567.741 36.6701 567.929 36.1167C568.117 35.5578 568.389 35.0736 568.743 34.6641C569.097 34.249 569.526 33.9281 570.029 33.7012C570.533 33.4688 571.097 33.3525 571.723 33.3525C572.354 33.3525 572.921 33.4688 573.424 33.7012C573.933 33.9281 574.365 34.249 574.719 34.6641C575.079 35.0736 575.353 35.5578 575.541 36.1167C575.729 36.6701 575.823 37.2705 575.823 37.918V38.1089C575.823 38.7563 575.729 39.3568 575.541 39.9102C575.353 40.4635 575.079 40.9478 574.719 41.3628C574.365 41.7723 573.936 42.0933 573.433 42.3257C572.935 42.5526 572.37 42.666 571.739 42.666C571.108 42.666 570.541 42.5526 570.038 42.3257C569.534 42.0933 569.102 41.7723 568.743 41.3628C568.389 40.9478 568.117 40.4635 567.929 39.9102C567.741 39.3568 567.647 38.7563 567.647 38.1089ZM569.183 37.918V38.1089C569.183 38.5571 569.235 38.9805 569.34 39.3789C569.445 39.7718 569.603 40.1204 569.813 40.4248C570.029 40.7292 570.298 40.9699 570.619 41.147C570.94 41.3185 571.313 41.4043 571.739 41.4043C572.16 41.4043 572.528 41.3185 572.843 41.147C573.164 40.9699 573.43 40.7292 573.64 40.4248C573.85 40.1204 574.008 39.7718 574.113 39.3789C574.224 38.9805 574.279 38.5571 574.279 38.1089V37.918C574.279 37.4753 574.224 37.0575 574.113 36.6646C574.008 36.2661 573.848 35.9147 573.632 35.6104C573.422 35.3005 573.156 35.057 572.835 34.8799C572.52 34.7028 572.149 34.6143 571.723 34.6143C571.302 34.6143 570.931 34.7028 570.61 34.8799C570.295 35.057 570.029 35.3005 569.813 35.6104C569.603 35.9147 569.445 36.2661 569.34 36.6646C569.235 37.0575 569.183 37.4753 569.183 37.918ZM579.276 35.3032V42.5H577.732V33.5186H579.193L579.276 35.3032ZM578.961 37.6689L578.247 37.644C578.253 37.0298 578.333 36.4626 578.488 35.9424C578.643 35.4167 578.872 34.9601 579.177 34.5728C579.481 34.1854 579.86 33.8866 580.314 33.6763C580.768 33.4604 581.293 33.3525 581.891 33.3525C582.312 33.3525 582.699 33.4134 583.053 33.5352C583.407 33.6514 583.715 33.8368 583.975 34.0913C584.235 34.3459 584.437 34.6724 584.581 35.0708C584.724 35.4692 584.796 35.9507 584.796 36.5151V42.5H583.261V36.5898C583.261 36.1195 583.181 35.7432 583.02 35.4609C582.865 35.1787 582.644 34.974 582.356 34.8467C582.068 34.7139 581.731 34.6475 581.343 34.6475C580.889 34.6475 580.51 34.7277 580.206 34.8882C579.902 35.0487 579.658 35.27 579.476 35.5522C579.293 35.8345 579.16 36.1582 579.077 36.5234C579 36.8831 578.961 37.265 578.961 37.6689ZM584.78 36.8223L583.75 37.1377C583.756 36.6452 583.836 36.172 583.991 35.7183C584.152 35.2645 584.381 34.8605 584.68 34.5063C584.985 34.1522 585.358 33.8727 585.801 33.668C586.243 33.4577 586.75 33.3525 587.32 33.3525C587.801 33.3525 588.227 33.4162 588.598 33.5435C588.974 33.6707 589.29 33.8672 589.544 34.1328C589.805 34.3929 590.001 34.7277 590.134 35.1372C590.267 35.5467 590.333 36.0337 590.333 36.5981V42.5H588.789V36.5815C588.789 36.078 588.709 35.6878 588.548 35.4111C588.393 35.1289 588.172 34.9325 587.884 34.8218C587.602 34.7056 587.264 34.6475 586.872 34.6475C586.534 34.6475 586.235 34.7056 585.975 34.8218C585.715 34.938 585.496 35.0985 585.319 35.3032C585.142 35.5024 585.007 35.7321 584.913 35.9922C584.824 36.2523 584.78 36.529 584.78 36.8223ZM594.326 33.5186V42.5H592.782V33.5186H594.326ZM592.666 31.1362C592.666 30.8872 592.74 30.6769 592.89 30.5054C593.045 30.3338 593.271 30.248 593.57 30.248C593.864 30.248 594.088 30.3338 594.243 30.5054C594.403 30.6769 594.483 30.8872 594.483 31.1362C594.483 31.3742 594.403 31.5789 594.243 31.7505C594.088 31.9165 593.864 31.9995 593.57 31.9995C593.271 31.9995 593.045 31.9165 592.89 31.7505C592.74 31.5789 592.666 31.3742 592.666 31.1362ZM598.327 35.436V42.5H596.791V33.5186H598.244L598.327 35.436ZM597.961 37.6689L597.322 37.644C597.328 37.0298 597.419 36.4626 597.596 35.9424C597.773 35.4167 598.022 34.9601 598.343 34.5728C598.664 34.1854 599.046 33.8866 599.489 33.6763C599.937 33.4604 600.432 33.3525 600.975 33.3525C601.417 33.3525 601.816 33.4134 602.17 33.5352C602.524 33.6514 602.826 33.8395 603.075 34.0996C603.329 34.3597 603.523 34.6973 603.656 35.1123C603.789 35.5218 603.855 36.0226 603.855 36.6147V42.5H602.311V36.5981C602.311 36.1278 602.242 35.7515 602.104 35.4692C601.965 35.1815 601.763 34.974 601.498 34.8467C601.232 34.7139 600.905 34.6475 600.518 34.6475C600.136 34.6475 599.788 34.7277 599.472 34.8882C599.162 35.0487 598.894 35.27 598.667 35.5522C598.446 35.8345 598.271 36.1582 598.144 36.5234C598.022 36.8831 597.961 37.265 597.961 37.6689ZM612.006 33.5186H613.401V42.3091C613.401 43.1004 613.24 43.7756 612.919 44.3345C612.598 44.8934 612.15 45.3167 611.575 45.6045C611.005 45.8978 610.346 46.0444 609.599 46.0444C609.289 46.0444 608.924 45.9946 608.503 45.895C608.088 45.8009 607.679 45.6377 607.275 45.4053C606.876 45.1784 606.542 44.8713 606.271 44.4839L607.076 43.5708C607.452 44.0246 607.845 44.34 608.254 44.5171C608.669 44.6942 609.079 44.7827 609.483 44.7827C609.97 44.7827 610.39 44.6914 610.745 44.5088C611.099 44.3262 611.373 44.055 611.566 43.6953C611.766 43.3411 611.865 42.904 611.865 42.3838V35.4941L612.006 33.5186ZM605.822 38.1089V37.9346C605.822 37.2484 605.903 36.6258 606.063 36.0669C606.229 35.5024 606.464 35.0182 606.769 34.6143C607.078 34.2103 607.452 33.9004 607.889 33.6846C608.326 33.4632 608.819 33.3525 609.367 33.3525C609.931 33.3525 610.424 33.4521 610.844 33.6514C611.27 33.8451 611.63 34.13 611.923 34.5063C612.222 34.8771 612.457 35.3254 612.629 35.8511C612.8 36.3768 612.919 36.9717 612.986 37.6357V38.3994C612.925 39.0579 612.806 39.6501 612.629 40.1758C612.457 40.7015 612.222 41.1497 611.923 41.5205C611.63 41.8913 611.27 42.1763 610.844 42.3755C610.418 42.5692 609.92 42.666 609.35 42.666C608.813 42.666 608.326 42.5526 607.889 42.3257C607.458 42.0988 607.087 41.7806 606.777 41.3711C606.467 40.9616 606.229 40.4801 606.063 39.9268C605.903 39.3678 605.822 38.7619 605.822 38.1089ZM607.358 37.9346V38.1089C607.358 38.5571 607.402 38.9777 607.491 39.3706C607.585 39.7635 607.726 40.1094 607.914 40.4082C608.108 40.707 608.354 40.9422 608.653 41.1138C608.952 41.2798 609.309 41.3628 609.724 41.3628C610.233 41.3628 610.653 41.2549 610.985 41.0391C611.317 40.8232 611.58 40.5382 611.774 40.1841C611.973 39.8299 612.128 39.4453 612.239 39.0303V37.0298C612.178 36.7254 612.084 36.4321 611.957 36.1499C611.835 35.8621 611.674 35.6076 611.475 35.3862C611.281 35.1593 611.041 34.9795 610.753 34.8467C610.465 34.7139 610.128 34.6475 609.74 34.6475C609.32 34.6475 608.957 34.736 608.653 34.9131C608.354 35.0846 608.108 35.3226 607.914 35.627C607.726 35.9258 607.585 36.2744 607.491 36.6729C607.402 37.0658 607.358 37.4863 607.358 37.9346ZM625.18 40.1177C625.18 39.8963 625.13 39.6916 625.03 39.5034C624.936 39.3097 624.74 39.1354 624.441 38.9805C624.148 38.82 623.705 38.6816 623.113 38.5654C622.615 38.4603 622.164 38.3358 621.76 38.1919C621.361 38.048 621.021 37.8737 620.739 37.6689C620.462 37.4642 620.249 37.2235 620.1 36.9468C619.95 36.6701 619.875 36.3464 619.875 35.9756C619.875 35.6214 619.953 35.2866 620.108 34.9712C620.268 34.6558 620.493 34.3763 620.78 34.1328C621.074 33.8893 621.425 33.6984 621.834 33.5601C622.244 33.4217 622.701 33.3525 623.204 33.3525C623.924 33.3525 624.538 33.4798 625.047 33.7344C625.556 33.9889 625.946 34.3293 626.217 34.7554C626.488 35.1759 626.624 35.6436 626.624 36.1582H625.088C625.088 35.9092 625.014 35.6685 624.864 35.436C624.72 35.1981 624.507 35.0016 624.225 34.8467C623.948 34.6917 623.608 34.6143 623.204 34.6143C622.778 34.6143 622.432 34.6807 622.167 34.8135C621.906 34.9408 621.715 35.104 621.594 35.3032C621.478 35.5024 621.419 35.7127 621.419 35.9341C621.419 36.1001 621.447 36.2495 621.502 36.3823C621.563 36.5096 621.668 36.6286 621.818 36.7393C621.967 36.8444 622.178 36.944 622.449 37.0381C622.72 37.1322 623.066 37.2262 623.486 37.3203C624.222 37.4863 624.828 37.6855 625.304 37.918C625.78 38.1504 626.134 38.4354 626.367 38.7729C626.599 39.1105 626.715 39.52 626.715 40.0015C626.715 40.3944 626.632 40.7541 626.466 41.0806C626.306 41.4071 626.071 41.6893 625.761 41.9272C625.456 42.1597 625.091 42.3423 624.665 42.4751C624.244 42.6024 623.771 42.666 623.246 42.666C622.454 42.666 621.785 42.5249 621.237 42.2427C620.689 41.9604 620.274 41.5952 619.992 41.147C619.709 40.6987 619.568 40.2256 619.568 39.7275H621.112C621.134 40.1481 621.256 40.4829 621.478 40.7319C621.699 40.9754 621.97 41.1497 622.291 41.2549C622.612 41.3545 622.93 41.4043 623.246 41.4043C623.666 41.4043 624.018 41.349 624.3 41.2383C624.588 41.1276 624.806 40.9754 624.956 40.7817C625.105 40.5881 625.18 40.3667 625.18 40.1177ZM628.326 38.1089V37.918C628.326 37.2705 628.42 36.6701 628.608 36.1167C628.796 35.5578 629.067 35.0736 629.421 34.6641C629.776 34.249 630.204 33.9281 630.708 33.7012C631.212 33.4688 631.776 33.3525 632.401 33.3525C633.032 33.3525 633.599 33.4688 634.103 33.7012C634.612 33.9281 635.044 34.249 635.398 34.6641C635.758 35.0736 636.032 35.5578 636.22 36.1167C636.408 36.6701 636.502 37.2705 636.502 37.918V38.1089C636.502 38.7563 636.408 39.3568 636.22 39.9102C636.032 40.4635 635.758 40.9478 635.398 41.3628C635.044 41.7723 634.615 42.0933 634.111 42.3257C633.613 42.5526 633.049 42.666 632.418 42.666C631.787 42.666 631.22 42.5526 630.716 42.3257C630.213 42.0933 629.781 41.7723 629.421 41.3628C629.067 40.9478 628.796 40.4635 628.608 39.9102C628.42 39.3568 628.326 38.7563 628.326 38.1089ZM629.861 37.918V38.1089C629.861 38.5571 629.914 38.9805 630.019 39.3789C630.124 39.7718 630.282 40.1204 630.492 40.4248C630.708 40.7292 630.976 40.9699 631.297 41.147C631.618 41.3185 631.992 41.4043 632.418 41.4043C632.839 41.4043 633.207 41.3185 633.522 41.147C633.843 40.9699 634.109 40.7292 634.319 40.4248C634.529 40.1204 634.687 39.7718 634.792 39.3789C634.903 38.9805 634.958 38.5571 634.958 38.1089V37.918C634.958 37.4753 634.903 37.0575 634.792 36.6646C634.687 36.2661 634.526 35.9147 634.311 35.6104C634.1 35.3005 633.835 35.057 633.514 34.8799C633.198 34.7028 632.827 34.6143 632.401 34.6143C631.981 34.6143 631.61 34.7028 631.289 34.8799C630.974 35.057 630.708 35.3005 630.492 35.6104C630.282 35.9147 630.124 36.2661 630.019 36.6646C629.914 37.0575 629.861 37.4753 629.861 37.918ZM638.021 38.1089V37.918C638.021 37.2705 638.115 36.6701 638.303 36.1167C638.491 35.5578 638.763 35.0736 639.117 34.6641C639.471 34.249 639.9 33.9281 640.403 33.7012C640.907 33.4688 641.471 33.3525 642.097 33.3525C642.728 33.3525 643.295 33.4688 643.798 33.7012C644.307 33.9281 644.739 34.249 645.093 34.6641C645.453 35.0736 645.727 35.5578 645.915 36.1167C646.103 36.6701 646.197 37.2705 646.197 37.918V38.1089C646.197 38.7563 646.103 39.3568 645.915 39.9102C645.727 40.4635 645.453 40.9478 645.093 41.3628C644.739 41.7723 644.31 42.0933 643.807 42.3257C643.309 42.5526 642.744 42.666 642.113 42.666C641.482 42.666 640.915 42.5526 640.412 42.3257C639.908 42.0933 639.476 41.7723 639.117 41.3628C638.763 40.9478 638.491 40.4635 638.303 39.9102C638.115 39.3568 638.021 38.7563 638.021 38.1089ZM639.557 37.918V38.1089C639.557 38.5571 639.609 38.9805 639.714 39.3789C639.819 39.7718 639.977 40.1204 640.188 40.4248C640.403 40.7292 640.672 40.9699 640.993 41.147C641.314 41.3185 641.687 41.4043 642.113 41.4043C642.534 41.4043 642.902 41.3185 643.217 41.147C643.538 40.9699 643.804 40.7292 644.014 40.4248C644.224 40.1204 644.382 39.7718 644.487 39.3789C644.598 38.9805 644.653 38.5571 644.653 38.1089V37.918C644.653 37.4753 644.598 37.0575 644.487 36.6646C644.382 36.2661 644.222 35.9147 644.006 35.6104C643.796 35.3005 643.53 35.057 643.209 34.8799C642.894 34.7028 642.523 34.6143 642.097 34.6143C641.676 34.6143 641.305 34.7028 640.984 34.8799C640.669 35.057 640.403 35.3005 640.188 35.6104C639.977 35.9147 639.819 36.2661 639.714 36.6646C639.609 37.0575 639.557 37.4753 639.557 37.918ZM649.659 35.436V42.5H648.123V33.5186H649.576L649.659 35.436ZM649.293 37.6689L648.654 37.644C648.66 37.0298 648.751 36.4626 648.928 35.9424C649.105 35.4167 649.354 34.9601 649.675 34.5728C649.996 34.1854 650.378 33.8866 650.821 33.6763C651.269 33.4604 651.764 33.3525 652.307 33.3525C652.749 33.3525 653.148 33.4134 653.502 33.5352C653.856 33.6514 654.158 33.8395 654.407 34.0996C654.661 34.3597 654.855 34.6973 654.988 35.1123C655.121 35.5218 655.187 36.0226 655.187 36.6147V42.5H653.643V36.5981C653.643 36.1278 653.574 35.7515 653.436 35.4692C653.297 35.1815 653.095 34.974 652.83 34.8467C652.564 34.7139 652.237 34.6475 651.85 34.6475C651.468 34.6475 651.12 34.7277 650.804 34.8882C650.494 35.0487 650.226 35.27 649.999 35.5522C649.778 35.8345 649.603 36.1582 649.476 36.5234C649.354 36.8831 649.293 37.265 649.293 37.6689Z" fill="#20294C"/>
</svg>
