<svg width="712" height="665" viewBox="0 0 712 665" fill="none" xmlns="http://www.w3.org/2000/svg">
<mask id="path-1-inside-1_1_24089" fill="white">
<path d="M0 0H688V664.55H0V0Z"/>
</mask>
<path d="M688 0H687V664.55H688H689V0H688Z" fill="#F0F1F5" mask="url(#path-1-inside-1_1_24089)"/>
<g clip-path="url(#clip0_1_24089)">
<path opacity="0.3" d="M49.0554 228.631H213.055" stroke="#B1B4C0" stroke-width="1.93316" stroke-miterlimit="10" stroke-linecap="round" stroke-linejoin="round"/>
<g opacity="0.3">
<path d="M104.79 229.268L70.1963 316.395H163.732V361.244" fill="white" fill-opacity="0.3"/>
<path d="M104.79 229.268L70.1963 316.395H163.732V361.244" stroke="#B1B4C0" stroke-width="1.93316" stroke-miterlimit="10" stroke-linecap="round" stroke-linejoin="round"/>
</g>
<g opacity="0.3">
<path d="M177.825 430.838L213.057 390.474V184.834H311.716L307.608 219.612L288.276 229.277V324.969L308.574 358.799V389.73" fill="white" fill-opacity="0.3"/>
<path d="M177.825 430.838L213.057 390.474V184.834H311.716L307.608 219.612L288.276 229.277V324.969L308.574 358.799V389.73" stroke="#B1B4C0" stroke-width="1.93316" stroke-miterlimit="10" stroke-linecap="round" stroke-linejoin="round"/>
</g>
<path opacity="0.3" d="M213.056 390.474H350.136M227.96 184.332V95.4062M288.275 324.969L406.198 224.445" stroke="#B1B4C0" stroke-width="1.93316" stroke-miterlimit="10" stroke-linecap="round" stroke-linejoin="round"/>
<g opacity="0.3">
<path d="M406.198 19.0469V279.057L385.899 327.869V450.141" fill="white" fill-opacity="0.3"/>
<path d="M406.198 19.0469V279.057L385.899 327.869V450.141" stroke="#B1B4C0" stroke-width="1.93316" stroke-miterlimit="10" stroke-linecap="round" stroke-linejoin="round"/>
</g>
<g opacity="0.3">
<path d="M405.755 122.035L652.677 122.392V70.7578" fill="white" fill-opacity="0.3"/>
<path d="M405.755 122.035L652.677 122.392V70.7578" stroke="#B1B4C0" stroke-width="1.93316" stroke-miterlimit="10" stroke-linecap="round" stroke-linejoin="round"/>
</g>
<g opacity="0.3">
<path d="M510.591 405.196V175.15L572.452 125.854V77.5254" fill="white" fill-opacity="0.3"/>
<path d="M510.591 405.196V175.15L572.452 125.854V77.5254" stroke="#B1B4C0" stroke-width="1.93316" stroke-miterlimit="10" stroke-linecap="round" stroke-linejoin="round"/>
</g>
<path opacity="0.3" d="M386.384 375.435H510.464M510.464 247.527H685.54M597.166 121.969V247.16" stroke="#B1B4C0" stroke-width="1.93316" stroke-miterlimit="10" stroke-linecap="round" stroke-linejoin="round"/>
<path fill-rule="evenodd" clip-rule="evenodd" d="M249.14 380.547C249.14 380.547 259.68 365.645 260.639 357.406C261.597 349.166 255.49 344.784 249.14 344.784C242.789 344.784 236.683 349.166 237.64 357.406C238.599 365.645 249.14 380.547 249.14 380.547ZM249.14 362.665C252.315 362.665 254.889 359.997 254.889 356.705C254.889 353.413 252.315 350.745 249.14 350.745C245.965 350.745 243.391 353.413 243.391 356.705C243.391 359.997 245.965 362.665 249.14 362.665ZM105.12 220.095C105.12 220.095 115.66 205.193 116.619 196.954C117.577 188.714 111.47 184.332 105.12 184.332C98.7691 184.332 92.6623 188.714 93.6202 196.954C94.579 205.193 105.12 220.095 105.12 220.095ZM105.12 202.213C108.295 202.213 110.869 199.545 110.869 196.252C110.869 192.961 108.295 190.292 105.12 190.292C101.944 190.292 99.3703 192.961 99.3703 196.252C99.3703 199.545 101.944 202.213 105.12 202.213ZM255.906 175.632C255.906 175.632 266.446 160.731 267.405 152.491C268.363 144.251 262.256 139.869 255.906 139.869C249.556 139.869 243.449 144.251 244.407 152.491C245.365 160.731 255.906 175.632 255.906 175.632ZM255.906 157.751C259.081 157.751 261.655 155.082 261.655 151.79C261.655 148.499 259.081 145.83 255.906 145.83C252.731 145.83 250.157 148.499 250.157 151.79C250.157 155.082 252.731 157.751 255.906 157.751ZM431.823 113.771C431.823 113.771 442.364 98.8695 443.323 90.6304C444.281 82.3903 438.174 78.0078 431.823 78.0078C425.473 78.0078 419.366 82.3903 420.324 90.6304C421.283 98.8695 431.823 113.771 431.823 113.771ZM431.823 95.8895C434.999 95.8895 437.573 93.2218 437.573 89.9286C437.573 86.6374 434.999 83.9687 431.823 83.9687C428.648 83.9687 426.074 86.6365 426.074 89.9286C426.074 93.2208 428.648 95.8895 431.823 95.8895ZM358.363 252.959C358.363 252.959 368.904 238.057 369.863 229.818C370.821 221.578 364.714 217.195 358.363 217.195C352.013 217.195 345.906 221.578 346.864 229.818C347.823 238.057 358.363 252.959 358.363 252.959ZM358.363 235.077C361.539 235.077 364.113 232.408 364.113 229.116C364.113 225.825 361.539 223.156 358.363 223.156C355.188 223.156 352.614 225.825 352.614 229.116C352.614 232.408 355.188 235.077 358.363 235.077ZM443.422 369.915C443.422 369.915 453.963 355.013 454.922 346.774C455.88 338.534 449.773 334.151 443.422 334.151C437.072 334.151 430.965 338.534 431.923 346.774C432.882 355.013 443.422 369.915 443.422 369.915ZM443.422 352.033C446.598 352.033 449.172 349.364 449.172 346.072C449.172 342.781 446.598 340.112 443.422 340.112C440.247 340.112 437.673 342.781 437.673 346.072C437.673 349.364 440.247 352.033 443.422 352.033ZM625.139 175.632C625.139 175.632 635.68 160.731 636.639 152.491C637.596 144.251 631.49 139.869 625.139 139.869C618.789 139.869 612.682 144.251 613.64 152.491C614.599 160.731 625.139 175.632 625.139 175.632ZM625.139 157.751C628.314 157.751 630.888 155.082 630.888 151.79C630.888 148.499 628.314 145.83 625.139 145.83C621.964 145.83 619.39 148.499 619.39 151.79C619.39 155.082 621.964 157.751 625.139 157.751Z" fill="#B0B3BF"/>
</g>
<g filter="url(#filter0_d_1_24089)">
<g clip-path="url(#clip1_1_24089)">
<path d="M444 187.25C444 180.623 449.373 175.25 456 175.25H687V341.3H456C449.373 341.3 444 335.927 444 329.3V187.25Z" fill="white"/>
<mask id="path-18-inside-2_1_24089" fill="white">
<path d="M444 175.25H687V241.4H444V175.25Z"/>
</mask>
<path d="M687 240.4H444V242.4H687V240.4Z" fill="#F0F1F5" mask="url(#path-18-inside-2_1_24089)"/>
<path d="M476.971 198.484H479.122V209.522C479.122 210.747 478.85 211.767 478.304 212.581C477.759 213.396 477.034 214.008 476.13 214.419C475.234 214.823 474.259 215.024 473.206 215.024C472.1 215.024 471.099 214.823 470.202 214.419C469.313 214.008 468.607 213.396 468.084 212.581C467.569 211.767 467.311 210.747 467.311 209.522V198.484H469.452V209.522C469.452 210.374 469.608 211.076 469.922 211.629C470.236 212.182 470.673 212.593 471.233 212.862C471.801 213.131 472.459 213.265 473.206 213.265C473.96 213.265 474.618 213.131 475.178 212.862C475.746 212.593 476.186 212.182 476.5 211.629C476.814 211.076 476.971 210.374 476.971 209.522V198.484ZM482.193 197.588H484.277V212.447L484.098 214.8H482.193V197.588ZM492.469 208.637V208.872C492.469 209.754 492.364 210.572 492.155 211.326C491.946 212.073 491.64 212.723 491.236 213.276C490.833 213.829 490.34 214.259 489.757 214.565C489.174 214.871 488.506 215.024 487.751 215.024C486.982 215.024 486.306 214.894 485.723 214.632C485.148 214.363 484.662 213.979 484.266 213.478C483.87 212.977 483.553 212.372 483.314 211.663C483.082 210.953 482.921 210.154 482.832 209.265V208.234C482.921 207.337 483.082 206.534 483.314 205.824C483.553 205.115 483.87 204.509 484.266 204.009C484.662 203.501 485.148 203.116 485.723 202.855C486.298 202.586 486.967 202.451 487.729 202.451C488.491 202.451 489.167 202.601 489.757 202.899C490.347 203.191 490.84 203.609 491.236 204.155C491.64 204.7 491.946 205.354 492.155 206.116C492.364 206.87 492.469 207.711 492.469 208.637ZM490.385 208.872V208.637C490.385 208.032 490.328 207.464 490.216 206.934C490.104 206.396 489.925 205.925 489.679 205.522C489.432 205.111 489.107 204.79 488.704 204.558C488.3 204.319 487.803 204.199 487.213 204.199C486.69 204.199 486.235 204.289 485.846 204.468C485.465 204.648 485.14 204.89 484.871 205.197C484.602 205.496 484.382 205.839 484.21 206.228C484.046 206.609 483.922 207.005 483.84 207.416V210.116C483.96 210.639 484.154 211.143 484.423 211.629C484.699 212.107 485.065 212.499 485.521 212.806C485.984 213.112 486.556 213.265 487.236 213.265C487.796 213.265 488.274 213.153 488.67 212.929C489.073 212.697 489.398 212.38 489.645 211.976C489.899 211.573 490.086 211.106 490.205 210.576C490.325 210.045 490.385 209.477 490.385 208.872ZM500.123 215.024C499.278 215.024 498.513 214.882 497.825 214.599C497.146 214.307 496.559 213.9 496.066 213.377C495.58 212.854 495.207 212.234 494.945 211.517C494.684 210.8 494.553 210.015 494.553 209.164V208.693C494.553 207.707 494.699 206.829 494.99 206.06C495.282 205.283 495.678 204.625 496.178 204.087C496.679 203.549 497.246 203.142 497.881 202.866C498.516 202.589 499.174 202.451 499.854 202.451C500.72 202.451 501.467 202.601 502.095 202.899C502.73 203.198 503.249 203.617 503.652 204.155C504.056 204.685 504.355 205.312 504.549 206.037C504.743 206.754 504.84 207.539 504.84 208.39V209.321H495.786V207.628H502.767V207.472C502.737 206.934 502.625 206.411 502.431 205.903C502.244 205.395 501.945 204.976 501.535 204.648C501.124 204.319 500.563 204.155 499.854 204.155C499.383 204.155 498.95 204.255 498.554 204.457C498.158 204.651 497.818 204.943 497.534 205.331C497.25 205.72 497.03 206.194 496.873 206.754C496.716 207.315 496.638 207.961 496.638 208.693V209.164C496.638 209.739 496.716 210.281 496.873 210.789C497.037 211.289 497.273 211.73 497.579 212.111C497.893 212.492 498.27 212.791 498.711 213.007C499.159 213.224 499.667 213.332 500.235 213.332C500.967 213.332 501.587 213.183 502.095 212.884C502.603 212.585 503.047 212.186 503.428 211.685L504.683 212.682C504.422 213.078 504.09 213.456 503.686 213.814C503.283 214.173 502.786 214.464 502.196 214.688C501.613 214.912 500.922 215.024 500.123 215.024ZM509.334 204.58V214.8H507.261V202.675H509.278L509.334 204.58ZM513.122 202.608L513.11 204.536C512.939 204.498 512.774 204.476 512.617 204.468C512.468 204.453 512.296 204.446 512.102 204.446C511.624 204.446 511.202 204.521 510.836 204.67C510.47 204.819 510.159 205.029 509.905 205.298C509.651 205.567 509.45 205.888 509.3 206.261C509.158 206.627 509.065 207.031 509.02 207.472L508.437 207.808C508.437 207.076 508.508 206.388 508.65 205.746C508.8 205.103 509.028 204.536 509.334 204.042C509.64 203.542 510.029 203.153 510.499 202.877C510.978 202.593 511.545 202.451 512.203 202.451C512.352 202.451 512.524 202.47 512.718 202.507C512.912 202.537 513.047 202.571 513.122 202.608Z" fill="#676B89"/>
<path d="M475.729 290.052V293.089H467.36V290.052H475.729Z" fill="#979DB5"/>
<path d="M495.448 285.133L494.933 286.903H484.533L485.049 285.133H495.448ZM490.786 297.459L484.858 290.534L484.847 289.145H487.581C488.373 289.145 489.027 289.014 489.542 288.752C490.065 288.483 490.458 288.121 490.719 287.665C490.981 287.21 491.111 286.698 491.111 286.13C491.111 285.495 490.988 284.939 490.742 284.46C490.495 283.975 490.107 283.598 489.576 283.329C489.053 283.052 488.366 282.914 487.514 282.914H484.556L485.082 281.143H487.514C488.814 281.143 489.886 281.341 490.73 281.737C491.582 282.126 492.217 282.694 492.635 283.441C493.054 284.188 493.263 285.092 493.263 286.153C493.263 287.064 493.087 287.882 492.736 288.607C492.393 289.324 491.821 289.888 491.022 290.299C490.23 290.71 489.161 290.915 487.817 290.915L493.33 297.325V297.459H490.786ZM495.448 281.143L494.933 282.914H486.55L487.066 281.143H495.448Z" fill="#20294C"/>
<path d="M502.976 288.168H505.255C506.141 288.168 506.874 288.015 507.454 287.709C508.044 287.403 508.482 286.982 508.767 286.444C509.051 285.906 509.194 285.289 509.194 284.593C509.194 283.865 509.062 283.243 508.798 282.726C508.545 282.199 508.155 281.792 507.628 281.508C507.111 281.223 506.452 281.081 505.65 281.081C504.975 281.081 504.363 281.218 503.815 281.492C503.277 281.756 502.85 282.135 502.533 282.631C502.217 283.116 502.059 283.696 502.059 284.371H498.23C498.23 283.148 498.552 282.061 499.195 281.112C499.839 280.163 500.714 279.419 501.822 278.882C502.94 278.333 504.195 278.059 505.587 278.059C507.074 278.059 508.371 278.307 509.479 278.802C510.597 279.288 511.467 280.015 512.089 280.986C512.711 281.956 513.022 283.158 513.022 284.593C513.022 285.247 512.869 285.911 512.564 286.586C512.258 287.261 511.804 287.878 511.203 288.437C510.602 288.985 509.853 289.434 508.957 289.782C508.06 290.119 507.021 290.288 505.84 290.288H502.976V288.168ZM502.976 291.142V289.054H505.84C507.19 289.054 508.34 289.212 509.289 289.529C510.249 289.845 511.029 290.283 511.63 290.842C512.231 291.39 512.669 292.018 512.943 292.724C513.228 293.431 513.37 294.18 513.37 294.971C513.37 296.047 513.175 297.006 512.785 297.85C512.405 298.683 511.862 299.39 511.156 299.97C510.449 300.55 509.621 300.988 508.672 301.283C507.733 301.578 506.71 301.726 505.603 301.726C504.611 301.726 503.662 301.589 502.755 301.315C501.848 301.041 501.036 300.634 500.319 300.097C499.601 299.548 499.032 298.868 498.61 298.056C498.199 297.233 497.993 296.284 497.993 295.208H501.806C501.806 295.894 501.964 296.5 502.28 297.027C502.607 297.544 503.061 297.95 503.641 298.246C504.232 298.541 504.907 298.689 505.666 298.689C506.467 298.689 507.158 298.546 507.738 298.261C508.318 297.977 508.761 297.555 509.067 296.996C509.384 296.437 509.542 295.762 509.542 294.971C509.542 294.074 509.368 293.347 509.02 292.788C508.672 292.229 508.176 291.817 507.533 291.554C506.889 291.279 506.13 291.142 505.255 291.142H502.976ZM531.975 295.129C531.975 296.563 531.643 297.771 530.978 298.752C530.314 299.733 529.407 300.476 528.257 300.983C527.118 301.478 525.832 301.726 524.397 301.726C522.963 301.726 521.671 301.478 520.521 300.983C519.372 300.476 518.465 299.733 517.8 298.752C517.136 297.771 516.803 296.563 516.803 295.129C516.803 294.18 516.988 293.32 517.357 292.55C517.726 291.77 518.248 291.1 518.923 290.541C519.609 289.972 520.41 289.534 521.328 289.228C522.256 288.922 523.269 288.769 524.366 288.769C525.821 288.769 527.124 289.038 528.273 289.576C529.423 290.114 530.325 290.858 530.978 291.807C531.643 292.756 531.975 293.863 531.975 295.129ZM528.147 294.939C528.147 294.169 527.988 293.494 527.672 292.914C527.356 292.334 526.913 291.886 526.343 291.569C525.774 291.253 525.114 291.095 524.366 291.095C523.606 291.095 522.947 291.253 522.388 291.569C521.829 291.886 521.391 292.334 521.075 292.914C520.769 293.494 520.616 294.169 520.616 294.939C520.616 295.72 520.769 296.395 521.075 296.964C521.381 297.523 521.818 297.95 522.388 298.246C522.958 298.541 523.627 298.689 524.397 298.689C525.167 298.689 525.832 298.541 526.391 298.246C526.95 297.95 527.382 297.523 527.688 296.964C527.994 296.395 528.147 295.72 528.147 294.939ZM531.453 284.434C531.453 285.584 531.147 286.607 530.535 287.504C529.934 288.4 529.101 289.107 528.036 289.624C526.971 290.13 525.758 290.383 524.397 290.383C523.026 290.383 521.803 290.13 520.727 289.624C519.662 289.107 518.823 288.4 518.211 287.504C517.61 286.607 517.31 285.584 517.31 284.434C517.31 283.063 517.61 281.908 518.211 280.97C518.823 280.021 519.662 279.298 520.727 278.802C521.792 278.307 523.01 278.059 524.381 278.059C525.752 278.059 526.971 278.307 528.036 278.802C529.101 279.298 529.934 280.021 530.535 280.97C531.147 281.908 531.453 283.063 531.453 284.434ZM527.64 284.561C527.64 283.875 527.503 283.274 527.229 282.758C526.965 282.23 526.591 281.819 526.106 281.524C525.621 281.228 525.046 281.081 524.381 281.081C523.717 281.081 523.142 281.223 522.657 281.508C522.172 281.792 521.797 282.193 521.534 282.71C521.27 283.227 521.138 283.844 521.138 284.561C521.138 285.268 521.27 285.885 521.534 286.412C521.797 286.929 522.172 287.335 522.657 287.63C523.153 287.925 523.733 288.073 524.397 288.073C525.062 288.073 525.636 287.925 526.122 287.63C526.607 287.335 526.981 286.929 527.245 286.412C527.508 285.885 527.64 285.268 527.64 284.561ZM539.332 290.699L536.294 289.956L537.544 278.375H549.963V281.603H540.708L540.075 287.25C540.434 287.04 540.929 286.834 541.562 286.633C542.195 286.423 542.917 286.317 543.73 286.317C544.816 286.317 545.786 286.496 546.641 286.855C547.505 287.203 548.238 287.715 548.84 288.39C549.441 289.054 549.9 289.866 550.216 290.826C550.532 291.775 550.691 292.846 550.691 294.037C550.691 295.103 550.532 296.099 550.216 297.027C549.91 297.956 549.446 298.773 548.824 299.48C548.201 300.186 547.416 300.74 546.467 301.141C545.528 301.531 544.415 301.726 543.128 301.726C542.169 301.726 541.246 301.589 540.36 301.315C539.484 301.03 538.699 300.613 538.003 300.065C537.307 299.506 536.748 298.82 536.326 298.008C535.904 297.186 535.661 296.242 535.598 295.176H539.332C539.426 295.925 539.632 296.563 539.949 297.091C540.275 297.608 540.708 298.003 541.246 298.277C541.784 298.551 542.406 298.689 543.113 298.689C543.756 298.689 544.31 298.578 544.774 298.356C545.238 298.124 545.623 297.797 545.929 297.375C546.245 296.943 546.477 296.437 546.625 295.857C546.783 295.277 546.862 294.633 546.862 293.927C546.862 293.252 546.772 292.635 546.593 292.076C546.424 291.517 546.166 291.032 545.818 290.62C545.48 290.209 545.053 289.892 544.536 289.671C544.02 289.439 543.424 289.323 542.749 289.323C541.842 289.323 541.146 289.455 540.66 289.718C540.186 289.982 539.743 290.309 539.332 290.699Z" fill="#20294C"/>
</g>
</g>
<path fill-rule="evenodd" clip-rule="evenodd" d="M657 495.12H659C659.424 495.12 659.831 495.288 660.131 495.588C660.431 495.888 660.6 496.295 660.6 496.72C660.6 497.144 660.431 497.551 660.131 497.851C659.831 498.151 659.424 498.32 659 498.32H635C634.576 498.32 634.169 498.151 633.869 497.851C633.568 497.551 633.4 497.144 633.4 496.72C633.4 496.295 633.568 495.888 633.869 495.588C634.169 495.288 634.576 495.12 635 495.12H637V484.105C638.305 484.281 639.627 483.935 640.68 483.143L642.024 482.124C642.146 482.035 642.293 481.987 642.443 481.987C642.594 481.987 642.741 482.035 642.863 482.124L644.009 482.994C644.879 483.647 645.937 484 647.024 484C648.111 484 649.169 483.647 650.039 482.994L651.186 482.124C651.308 482.035 651.455 481.987 651.605 481.987C651.756 481.987 651.903 482.035 652.025 482.124L653.369 483.144C654.407 483.925 655.709 484.272 656.999 484.111L657 495.12ZM642.6 495.12H645V490.95C645 490.419 645.211 489.911 645.586 489.536C645.961 489.16 646.469 488.95 647 488.95C647.53 488.95 648.039 489.16 648.414 489.536C648.789 489.911 649 490.419 649 490.95V495.12H651.4V490.95C651.4 489.783 650.936 488.664 650.111 487.838C649.286 487.013 648.167 486.55 647 486.55C645.833 486.55 644.714 487.013 643.889 487.838C643.063 488.664 642.6 489.783 642.6 490.95V495.12Z" fill="#20294C"/>
<path d="M635.54 473.638C635.6 473.478 635.666 473.319 635.767 473.178C636.394 472.296 637.514 471.75 638.731 471.75H640.6V480.494L640.303 480.697C639.123 481.507 637.467 481.569 636.209 480.85L635.664 480.538C633.293 479.181 634.318 476.665 635.165 474.587C635.299 474.257 635.429 473.94 635.54 473.638ZM643 479.526V471.75H651V479.526C650.733 479.57 650.479 479.671 650.255 479.823L649.169 480.569C647.901 481.439 646.099 481.439 644.831 480.569L643.745 479.823C643.521 479.671 643.267 479.57 643 479.526ZM653.4 480.494L653.697 480.697C654.877 481.507 656.533 481.569 657.791 480.85L658.336 480.538C660.707 479.181 659.682 476.665 658.835 474.587C658.701 474.257 658.571 473.939 658.46 473.637C658.405 473.474 658.329 473.32 658.233 473.177C657.606 472.297 656.486 471.75 655.269 471.75H653.399L653.4 480.494Z" fill="#20294C"/>
<path d="M412.11 517.487H414.302L419.892 531.397L425.47 517.487H427.673L420.735 534.55H419.024L412.11 517.487ZM411.396 517.487H413.329L413.646 527.894V534.55H411.396V517.487ZM426.442 517.487H428.376V534.55H426.126V527.894L426.442 517.487ZM437.282 534.784C436.399 534.784 435.599 534.636 434.88 534.339C434.169 534.034 433.556 533.608 433.04 533.062C432.532 532.515 432.142 531.866 431.868 531.116C431.595 530.366 431.458 529.546 431.458 528.655V528.163C431.458 527.132 431.61 526.214 431.915 525.409C432.22 524.597 432.634 523.909 433.157 523.347C433.681 522.784 434.274 522.358 434.938 522.069C435.603 521.78 436.29 521.636 437.001 521.636C437.907 521.636 438.688 521.792 439.345 522.104C440.009 522.417 440.552 522.854 440.974 523.417C441.396 523.972 441.708 524.628 441.911 525.386C442.114 526.136 442.216 526.956 442.216 527.847V528.819H432.747V527.05H440.048V526.886C440.017 526.323 439.899 525.776 439.696 525.245C439.501 524.714 439.188 524.276 438.759 523.933C438.329 523.589 437.743 523.417 437.001 523.417C436.509 523.417 436.056 523.522 435.642 523.733C435.228 523.937 434.872 524.241 434.575 524.647C434.278 525.054 434.048 525.55 433.884 526.136C433.72 526.722 433.638 527.397 433.638 528.163V528.655C433.638 529.257 433.72 529.823 433.884 530.354C434.056 530.878 434.302 531.339 434.622 531.737C434.95 532.136 435.345 532.448 435.806 532.675C436.274 532.901 436.806 533.015 437.399 533.015C438.165 533.015 438.813 532.858 439.345 532.546C439.876 532.233 440.341 531.815 440.739 531.292L442.052 532.335C441.778 532.749 441.431 533.144 441.009 533.519C440.587 533.894 440.067 534.198 439.45 534.433C438.841 534.667 438.118 534.784 437.282 534.784ZM446.915 523.862V534.55H444.747V521.87H446.856L446.915 523.862ZM450.876 521.8L450.864 523.815C450.685 523.776 450.513 523.753 450.349 523.745C450.192 523.729 450.013 523.722 449.81 523.722C449.31 523.722 448.868 523.8 448.485 523.956C448.103 524.112 447.778 524.331 447.513 524.612C447.247 524.894 447.036 525.229 446.88 525.62C446.731 526.003 446.634 526.425 446.587 526.886L445.978 527.237C445.978 526.472 446.052 525.753 446.2 525.081C446.356 524.409 446.595 523.815 446.915 523.3C447.235 522.776 447.642 522.37 448.134 522.081C448.634 521.784 449.228 521.636 449.915 521.636C450.071 521.636 450.251 521.655 450.454 521.694C450.657 521.726 450.798 521.761 450.876 521.8ZM457.72 533.003C458.235 533.003 458.712 532.897 459.149 532.687C459.587 532.476 459.946 532.187 460.228 531.819C460.509 531.444 460.669 531.019 460.708 530.542H462.771C462.731 531.292 462.478 531.991 462.009 532.64C461.548 533.28 460.942 533.8 460.192 534.198C459.442 534.589 458.618 534.784 457.72 534.784C456.767 534.784 455.935 534.616 455.224 534.28C454.521 533.944 453.935 533.483 453.466 532.897C453.005 532.312 452.657 531.64 452.423 530.882C452.196 530.116 452.083 529.308 452.083 528.456V527.964C452.083 527.112 452.196 526.308 452.423 525.55C452.657 524.784 453.005 524.108 453.466 523.522C453.935 522.937 454.521 522.476 455.224 522.14C455.935 521.804 456.767 521.636 457.72 521.636C458.712 521.636 459.579 521.839 460.321 522.245C461.063 522.644 461.646 523.19 462.067 523.886C462.497 524.573 462.731 525.354 462.771 526.229H460.708C460.669 525.706 460.521 525.233 460.263 524.812C460.013 524.39 459.669 524.054 459.231 523.804C458.802 523.546 458.298 523.417 457.72 523.417C457.056 523.417 456.497 523.55 456.044 523.815C455.599 524.073 455.243 524.425 454.978 524.87C454.72 525.308 454.532 525.796 454.415 526.335C454.306 526.866 454.251 527.409 454.251 527.964V528.456C454.251 529.011 454.306 529.558 454.415 530.097C454.524 530.636 454.708 531.124 454.966 531.562C455.231 531.999 455.587 532.351 456.032 532.616C456.485 532.874 457.048 533.003 457.72 533.003ZM467.376 516.55V534.55H465.208V516.55H467.376ZM466.86 527.729L465.958 527.694C465.966 526.827 466.095 526.026 466.345 525.292C466.595 524.55 466.946 523.905 467.399 523.358C467.853 522.812 468.392 522.39 469.017 522.093C469.649 521.788 470.349 521.636 471.114 521.636C471.739 521.636 472.302 521.722 472.802 521.894C473.302 522.058 473.728 522.323 474.079 522.69C474.438 523.058 474.712 523.534 474.899 524.12C475.087 524.698 475.181 525.405 475.181 526.241V534.55H473.001V526.218C473.001 525.554 472.903 525.022 472.708 524.624C472.513 524.218 472.228 523.925 471.853 523.745C471.478 523.558 471.017 523.464 470.47 523.464C469.931 523.464 469.438 523.577 468.993 523.804C468.556 524.03 468.177 524.343 467.856 524.741C467.544 525.14 467.298 525.597 467.118 526.112C466.946 526.62 466.86 527.159 466.86 527.729ZM485.903 532.382V525.854C485.903 525.354 485.802 524.921 485.599 524.554C485.403 524.179 485.106 523.89 484.708 523.687C484.31 523.483 483.817 523.382 483.231 523.382C482.685 523.382 482.204 523.476 481.79 523.663C481.384 523.851 481.063 524.097 480.829 524.401C480.603 524.706 480.489 525.034 480.489 525.386H478.321C478.321 524.933 478.438 524.483 478.673 524.038C478.907 523.593 479.243 523.19 479.681 522.831C480.126 522.464 480.657 522.175 481.274 521.964C481.899 521.745 482.595 521.636 483.36 521.636C484.282 521.636 485.095 521.792 485.798 522.104C486.509 522.417 487.063 522.89 487.462 523.522C487.868 524.147 488.071 524.933 488.071 525.878V531.784C488.071 532.206 488.106 532.655 488.177 533.132C488.255 533.608 488.368 534.019 488.517 534.362V534.55H486.255C486.146 534.3 486.06 533.968 485.997 533.554C485.935 533.132 485.903 532.741 485.903 532.382ZM486.278 526.862L486.302 528.386H484.11C483.493 528.386 482.942 528.437 482.458 528.538C481.974 528.632 481.567 528.776 481.239 528.972C480.911 529.167 480.661 529.413 480.489 529.71C480.317 529.999 480.231 530.339 480.231 530.729C480.231 531.128 480.321 531.491 480.501 531.819C480.681 532.147 480.95 532.409 481.31 532.604C481.677 532.792 482.126 532.886 482.657 532.886C483.321 532.886 483.907 532.745 484.415 532.464C484.923 532.183 485.325 531.839 485.622 531.433C485.927 531.026 486.091 530.632 486.114 530.249L487.04 531.292C486.985 531.62 486.837 531.983 486.595 532.382C486.353 532.78 486.028 533.163 485.622 533.53C485.224 533.89 484.747 534.19 484.192 534.433C483.646 534.667 483.028 534.784 482.341 534.784C481.481 534.784 480.728 534.616 480.079 534.28C479.438 533.944 478.938 533.495 478.579 532.933C478.228 532.362 478.052 531.726 478.052 531.022C478.052 530.343 478.185 529.745 478.45 529.229C478.716 528.706 479.099 528.272 479.599 527.929C480.099 527.577 480.7 527.312 481.403 527.132C482.106 526.952 482.892 526.862 483.759 526.862H486.278ZM493.649 524.577V534.55H491.481V521.87H493.532L493.649 524.577ZM493.134 527.729L492.231 527.694C492.239 526.827 492.368 526.026 492.618 525.292C492.868 524.55 493.22 523.905 493.673 523.358C494.126 522.812 494.665 522.39 495.29 522.093C495.923 521.788 496.622 521.636 497.388 521.636C498.013 521.636 498.575 521.722 499.075 521.894C499.575 522.058 500.001 522.323 500.353 522.69C500.712 523.058 500.985 523.534 501.173 524.12C501.36 524.698 501.454 525.405 501.454 526.241V534.55H499.274V526.218C499.274 525.554 499.177 525.022 498.981 524.624C498.786 524.218 498.501 523.925 498.126 523.745C497.751 523.558 497.29 523.464 496.743 523.464C496.204 523.464 495.712 523.577 495.267 523.804C494.829 524.03 494.45 524.343 494.13 524.741C493.817 525.14 493.571 525.597 493.392 526.112C493.22 526.62 493.134 527.159 493.134 527.729ZM510.056 521.87V523.534H503.2V521.87H510.056ZM505.521 518.788H507.688V531.409C507.688 531.839 507.755 532.163 507.888 532.382C508.021 532.601 508.192 532.745 508.403 532.815C508.614 532.886 508.841 532.921 509.083 532.921C509.263 532.921 509.45 532.905 509.646 532.874C509.849 532.835 510.001 532.804 510.103 532.78L510.114 534.55C509.942 534.604 509.716 534.655 509.435 534.702C509.161 534.757 508.829 534.784 508.438 534.784C507.907 534.784 507.419 534.679 506.974 534.468C506.528 534.257 506.173 533.905 505.907 533.413C505.649 532.913 505.521 532.241 505.521 531.397V518.788ZM519.981 531.187C519.981 530.874 519.911 530.585 519.771 530.319C519.638 530.046 519.36 529.8 518.938 529.581C518.524 529.354 517.899 529.159 517.063 528.995C516.36 528.847 515.724 528.671 515.153 528.468C514.591 528.265 514.11 528.019 513.712 527.729C513.321 527.44 513.021 527.101 512.81 526.71C512.599 526.319 512.493 525.862 512.493 525.339C512.493 524.839 512.603 524.366 512.821 523.921C513.048 523.476 513.364 523.081 513.771 522.737C514.185 522.394 514.681 522.124 515.259 521.929C515.837 521.733 516.481 521.636 517.192 521.636C518.208 521.636 519.075 521.815 519.794 522.175C520.513 522.534 521.063 523.015 521.446 523.616C521.829 524.21 522.021 524.87 522.021 525.597H519.853C519.853 525.245 519.747 524.905 519.536 524.577C519.333 524.241 519.032 523.964 518.634 523.745C518.243 523.526 517.763 523.417 517.192 523.417C516.591 523.417 516.103 523.511 515.728 523.698C515.36 523.878 515.091 524.108 514.919 524.39C514.755 524.671 514.673 524.968 514.673 525.28C514.673 525.515 514.712 525.726 514.79 525.913C514.876 526.093 515.024 526.261 515.235 526.417C515.446 526.565 515.743 526.706 516.126 526.839C516.509 526.972 516.997 527.104 517.591 527.237C518.63 527.472 519.485 527.753 520.157 528.081C520.829 528.409 521.329 528.812 521.657 529.288C521.985 529.765 522.149 530.343 522.149 531.022C522.149 531.577 522.032 532.085 521.798 532.546C521.571 533.007 521.239 533.405 520.802 533.741C520.372 534.069 519.856 534.327 519.255 534.515C518.661 534.694 517.993 534.784 517.251 534.784C516.134 534.784 515.188 534.585 514.415 534.187C513.642 533.788 513.056 533.272 512.657 532.64C512.259 532.007 512.06 531.339 512.06 530.636H514.239C514.271 531.229 514.442 531.702 514.755 532.054C515.067 532.397 515.45 532.644 515.903 532.792C516.356 532.933 516.806 533.003 517.251 533.003C517.845 533.003 518.341 532.925 518.739 532.769C519.146 532.612 519.454 532.397 519.665 532.124C519.876 531.851 519.981 531.538 519.981 531.187ZM538.427 532.382V525.854C538.427 525.354 538.325 524.921 538.122 524.554C537.927 524.179 537.63 523.89 537.231 523.687C536.833 523.483 536.341 523.382 535.755 523.382C535.208 523.382 534.728 523.476 534.313 523.663C533.907 523.851 533.587 524.097 533.353 524.401C533.126 524.706 533.013 525.034 533.013 525.386H530.845C530.845 524.933 530.962 524.483 531.196 524.038C531.431 523.593 531.767 523.19 532.204 522.831C532.649 522.464 533.181 522.175 533.798 521.964C534.423 521.745 535.118 521.636 535.884 521.636C536.806 521.636 537.618 521.792 538.321 522.104C539.032 522.417 539.587 522.89 539.985 523.522C540.392 524.147 540.595 524.933 540.595 525.878V531.784C540.595 532.206 540.63 532.655 540.7 533.132C540.778 533.608 540.892 534.019 541.04 534.362V534.55H538.778C538.669 534.3 538.583 533.968 538.521 533.554C538.458 533.132 538.427 532.741 538.427 532.382ZM538.802 526.862L538.825 528.386H536.634C536.017 528.386 535.466 528.437 534.981 528.538C534.497 528.632 534.091 528.776 533.763 528.972C533.435 529.167 533.185 529.413 533.013 529.71C532.841 529.999 532.755 530.339 532.755 530.729C532.755 531.128 532.845 531.491 533.024 531.819C533.204 532.147 533.474 532.409 533.833 532.604C534.2 532.792 534.649 532.886 535.181 532.886C535.845 532.886 536.431 532.745 536.938 532.464C537.446 532.183 537.849 531.839 538.146 531.433C538.45 531.026 538.614 530.632 538.638 530.249L539.563 531.292C539.509 531.62 539.36 531.983 539.118 532.382C538.876 532.78 538.552 533.163 538.146 533.53C537.747 533.89 537.271 534.19 536.716 534.433C536.169 534.667 535.552 534.784 534.864 534.784C534.005 534.784 533.251 534.616 532.603 534.28C531.962 533.944 531.462 533.495 531.103 532.933C530.751 532.362 530.575 531.726 530.575 531.022C530.575 530.343 530.708 529.745 530.974 529.229C531.239 528.706 531.622 528.272 532.122 527.929C532.622 527.577 533.224 527.312 533.927 527.132C534.63 526.952 535.415 526.862 536.282 526.862H538.802ZM546.173 523.862V534.55H544.005V521.87H546.114L546.173 523.862ZM550.134 521.8L550.122 523.815C549.942 523.776 549.771 523.753 549.606 523.745C549.45 523.729 549.271 523.722 549.067 523.722C548.567 523.722 548.126 523.8 547.743 523.956C547.36 524.112 547.036 524.331 546.771 524.612C546.505 524.894 546.294 525.229 546.138 525.62C545.989 526.003 545.892 526.425 545.845 526.886L545.235 527.237C545.235 526.472 545.31 525.753 545.458 525.081C545.614 524.409 545.853 523.815 546.173 523.3C546.493 522.776 546.899 522.37 547.392 522.081C547.892 521.784 548.485 521.636 549.173 521.636C549.329 521.636 549.509 521.655 549.712 521.694C549.915 521.726 550.056 521.761 550.134 521.8ZM557.165 534.784C556.282 534.784 555.481 534.636 554.763 534.339C554.052 534.034 553.438 533.608 552.923 533.062C552.415 532.515 552.024 531.866 551.751 531.116C551.478 530.366 551.341 529.546 551.341 528.655V528.163C551.341 527.132 551.493 526.214 551.798 525.409C552.103 524.597 552.517 523.909 553.04 523.347C553.563 522.784 554.157 522.358 554.821 522.069C555.485 521.78 556.173 521.636 556.884 521.636C557.79 521.636 558.571 521.792 559.228 522.104C559.892 522.417 560.435 522.854 560.856 523.417C561.278 523.972 561.591 524.628 561.794 525.386C561.997 526.136 562.099 526.956 562.099 527.847V528.819H552.63V527.05H559.931V526.886C559.899 526.323 559.782 525.776 559.579 525.245C559.384 524.714 559.071 524.276 558.642 523.933C558.212 523.589 557.626 523.417 556.884 523.417C556.392 523.417 555.938 523.522 555.524 523.733C555.11 523.937 554.755 524.241 554.458 524.647C554.161 525.054 553.931 525.55 553.767 526.136C553.603 526.722 553.521 527.397 553.521 528.163V528.655C553.521 529.257 553.603 529.823 553.767 530.354C553.938 530.878 554.185 531.339 554.505 531.737C554.833 532.136 555.228 532.448 555.688 532.675C556.157 532.901 556.688 533.015 557.282 533.015C558.048 533.015 558.696 532.858 559.228 532.546C559.759 532.233 560.224 531.815 560.622 531.292L561.935 532.335C561.661 532.749 561.313 533.144 560.892 533.519C560.47 533.894 559.95 534.198 559.333 534.433C558.724 534.667 558.001 534.784 557.165 534.784ZM578.575 532.089V516.55H580.755V534.55H578.763L578.575 532.089ZM570.044 528.351V528.104C570.044 527.136 570.161 526.257 570.396 525.468C570.638 524.671 570.978 523.987 571.415 523.417C571.86 522.847 572.388 522.409 572.997 522.104C573.614 521.792 574.302 521.636 575.06 521.636C575.856 521.636 576.552 521.776 577.146 522.058C577.747 522.331 578.255 522.733 578.669 523.265C579.091 523.788 579.423 524.421 579.665 525.163C579.907 525.905 580.075 526.745 580.169 527.683V528.761C580.083 529.69 579.915 530.526 579.665 531.269C579.423 532.011 579.091 532.644 578.669 533.167C578.255 533.69 577.747 534.093 577.146 534.374C576.544 534.647 575.841 534.784 575.036 534.784C574.294 534.784 573.614 534.624 572.997 534.304C572.388 533.983 571.86 533.534 571.415 532.956C570.978 532.378 570.638 531.698 570.396 530.917C570.161 530.128 570.044 529.272 570.044 528.351ZM572.224 528.104V528.351C572.224 528.983 572.286 529.577 572.411 530.132C572.544 530.687 572.747 531.175 573.021 531.597C573.294 532.019 573.642 532.351 574.063 532.593C574.485 532.827 574.989 532.944 575.575 532.944C576.294 532.944 576.884 532.792 577.345 532.487C577.813 532.183 578.188 531.78 578.47 531.28C578.751 530.78 578.97 530.237 579.126 529.651V526.827C579.032 526.397 578.896 525.983 578.716 525.585C578.544 525.179 578.317 524.819 578.036 524.507C577.763 524.187 577.423 523.933 577.017 523.745C576.618 523.558 576.146 523.464 575.599 523.464C575.005 523.464 574.493 523.589 574.063 523.839C573.642 524.081 573.294 524.417 573.021 524.847C572.747 525.269 572.544 525.761 572.411 526.323C572.286 526.878 572.224 527.472 572.224 528.104ZM589.392 534.784C588.509 534.784 587.708 534.636 586.989 534.339C586.278 534.034 585.665 533.608 585.149 533.062C584.642 532.515 584.251 531.866 583.978 531.116C583.704 530.366 583.567 529.546 583.567 528.655V528.163C583.567 527.132 583.72 526.214 584.024 525.409C584.329 524.597 584.743 523.909 585.267 523.347C585.79 522.784 586.384 522.358 587.048 522.069C587.712 521.78 588.399 521.636 589.11 521.636C590.017 521.636 590.798 521.792 591.454 522.104C592.118 522.417 592.661 522.854 593.083 523.417C593.505 523.972 593.817 524.628 594.021 525.386C594.224 526.136 594.325 526.956 594.325 527.847V528.819H584.856V527.05H592.157V526.886C592.126 526.323 592.009 525.776 591.806 525.245C591.61 524.714 591.298 524.276 590.868 523.933C590.438 523.589 589.853 523.417 589.11 523.417C588.618 523.417 588.165 523.522 587.751 523.733C587.337 523.937 586.981 524.241 586.685 524.647C586.388 525.054 586.157 525.55 585.993 526.136C585.829 526.722 585.747 527.397 585.747 528.163V528.655C585.747 529.257 585.829 529.823 585.993 530.354C586.165 530.878 586.411 531.339 586.731 531.737C587.06 532.136 587.454 532.448 587.915 532.675C588.384 532.901 588.915 533.015 589.509 533.015C590.274 533.015 590.923 532.858 591.454 532.546C591.985 532.233 592.45 531.815 592.849 531.292L594.161 532.335C593.888 532.749 593.54 533.144 593.118 533.519C592.696 533.894 592.177 534.198 591.56 534.433C590.95 534.667 590.228 534.784 589.392 534.784ZM602.165 521.87V523.534H595.31V521.87H602.165ZM597.63 518.788H599.798V531.409C599.798 531.839 599.864 532.163 599.997 532.382C600.13 532.601 600.302 532.745 600.513 532.815C600.724 532.886 600.95 532.921 601.192 532.921C601.372 532.921 601.56 532.905 601.755 532.874C601.958 532.835 602.11 532.804 602.212 532.78L602.224 534.55C602.052 534.604 601.825 534.655 601.544 534.702C601.271 534.757 600.938 534.784 600.548 534.784C600.017 534.784 599.528 534.679 599.083 534.468C598.638 534.257 598.282 533.905 598.017 533.413C597.759 532.913 597.63 532.241 597.63 531.397V518.788ZM609.97 534.784C609.087 534.784 608.286 534.636 607.567 534.339C606.856 534.034 606.243 533.608 605.728 533.062C605.22 532.515 604.829 531.866 604.556 531.116C604.282 530.366 604.146 529.546 604.146 528.655V528.163C604.146 527.132 604.298 526.214 604.603 525.409C604.907 524.597 605.321 523.909 605.845 523.347C606.368 522.784 606.962 522.358 607.626 522.069C608.29 521.78 608.978 521.636 609.688 521.636C610.595 521.636 611.376 521.792 612.032 522.104C612.696 522.417 613.239 522.854 613.661 523.417C614.083 523.972 614.396 524.628 614.599 525.386C614.802 526.136 614.903 526.956 614.903 527.847V528.819H605.435V527.05H612.735V526.886C612.704 526.323 612.587 525.776 612.384 525.245C612.188 524.714 611.876 524.276 611.446 523.933C611.017 523.589 610.431 523.417 609.688 523.417C609.196 523.417 608.743 523.522 608.329 523.733C607.915 523.937 607.56 524.241 607.263 524.647C606.966 525.054 606.735 525.55 606.571 526.136C606.407 526.722 606.325 527.397 606.325 528.163V528.655C606.325 529.257 606.407 529.823 606.571 530.354C606.743 530.878 606.989 531.339 607.31 531.737C607.638 532.136 608.032 532.448 608.493 532.675C608.962 532.901 609.493 533.015 610.087 533.015C610.853 533.015 611.501 532.858 612.032 532.546C612.563 532.233 613.028 531.815 613.427 531.292L614.739 532.335C614.466 532.749 614.118 533.144 613.696 533.519C613.274 533.894 612.755 534.198 612.138 534.433C611.528 534.667 610.806 534.784 609.97 534.784ZM622.509 533.003C623.024 533.003 623.501 532.897 623.938 532.687C624.376 532.476 624.735 532.187 625.017 531.819C625.298 531.444 625.458 531.019 625.497 530.542H627.56C627.521 531.292 627.267 531.991 626.798 532.64C626.337 533.28 625.731 533.8 624.981 534.198C624.231 534.589 623.407 534.784 622.509 534.784C621.556 534.784 620.724 534.616 620.013 534.28C619.31 533.944 618.724 533.483 618.255 532.897C617.794 532.312 617.446 531.64 617.212 530.882C616.985 530.116 616.872 529.308 616.872 528.456V527.964C616.872 527.112 616.985 526.308 617.212 525.55C617.446 524.784 617.794 524.108 618.255 523.522C618.724 522.937 619.31 522.476 620.013 522.14C620.724 521.804 621.556 521.636 622.509 521.636C623.501 521.636 624.368 521.839 625.11 522.245C625.853 522.644 626.435 523.19 626.856 523.886C627.286 524.573 627.521 525.354 627.56 526.229H625.497C625.458 525.706 625.31 525.233 625.052 524.812C624.802 524.39 624.458 524.054 624.021 523.804C623.591 523.546 623.087 523.417 622.509 523.417C621.845 523.417 621.286 523.55 620.833 523.815C620.388 524.073 620.032 524.425 619.767 524.87C619.509 525.308 619.321 525.796 619.204 526.335C619.095 526.866 619.04 527.409 619.04 527.964V528.456C619.04 529.011 619.095 529.558 619.204 530.097C619.313 530.636 619.497 531.124 619.755 531.562C620.021 531.999 620.376 532.351 620.821 532.616C621.274 532.874 621.837 533.003 622.509 533.003ZM635.306 521.87V523.534H628.45V521.87H635.306ZM630.771 518.788H632.938V531.409C632.938 531.839 633.005 532.163 633.138 532.382C633.271 532.601 633.442 532.745 633.653 532.815C633.864 532.886 634.091 532.921 634.333 532.921C634.513 532.921 634.7 532.905 634.896 532.874C635.099 532.835 635.251 532.804 635.353 532.78L635.364 534.55C635.192 534.604 634.966 534.655 634.685 534.702C634.411 534.757 634.079 534.784 633.688 534.784C633.157 534.784 632.669 534.679 632.224 534.468C631.778 534.257 631.423 533.905 631.157 533.413C630.899 532.913 630.771 532.241 630.771 531.397V518.788ZM643.11 534.784C642.228 534.784 641.427 534.636 640.708 534.339C639.997 534.034 639.384 533.608 638.868 533.062C638.36 532.515 637.97 531.866 637.696 531.116C637.423 530.366 637.286 529.546 637.286 528.655V528.163C637.286 527.132 637.438 526.214 637.743 525.409C638.048 524.597 638.462 523.909 638.985 523.347C639.509 522.784 640.103 522.358 640.767 522.069C641.431 521.78 642.118 521.636 642.829 521.636C643.735 521.636 644.517 521.792 645.173 522.104C645.837 522.417 646.38 522.854 646.802 523.417C647.224 523.972 647.536 524.628 647.739 525.386C647.942 526.136 648.044 526.956 648.044 527.847V528.819H638.575V527.05H645.876V526.886C645.845 526.323 645.728 525.776 645.524 525.245C645.329 524.714 645.017 524.276 644.587 523.933C644.157 523.589 643.571 523.417 642.829 523.417C642.337 523.417 641.884 523.522 641.47 523.733C641.056 523.937 640.7 524.241 640.403 524.647C640.106 525.054 639.876 525.55 639.712 526.136C639.548 526.722 639.466 527.397 639.466 528.163V528.655C639.466 529.257 639.548 529.823 639.712 530.354C639.884 530.878 640.13 531.339 640.45 531.737C640.778 532.136 641.173 532.448 641.634 532.675C642.103 532.901 642.634 533.015 643.228 533.015C643.993 533.015 644.642 532.858 645.173 532.546C645.704 532.233 646.169 531.815 646.567 531.292L647.88 532.335C647.606 532.749 647.259 533.144 646.837 533.519C646.415 533.894 645.896 534.198 645.278 534.433C644.669 534.667 643.946 534.784 643.11 534.784ZM658.567 532.089V516.55H660.747V534.55H658.755L658.567 532.089ZM650.036 528.351V528.104C650.036 527.136 650.153 526.257 650.388 525.468C650.63 524.671 650.97 523.987 651.407 523.417C651.853 522.847 652.38 522.409 652.989 522.104C653.606 521.792 654.294 521.636 655.052 521.636C655.849 521.636 656.544 521.776 657.138 522.058C657.739 522.331 658.247 522.733 658.661 523.265C659.083 523.788 659.415 524.421 659.657 525.163C659.899 525.905 660.067 526.745 660.161 527.683V528.761C660.075 529.69 659.907 530.526 659.657 531.269C659.415 532.011 659.083 532.644 658.661 533.167C658.247 533.69 657.739 534.093 657.138 534.374C656.536 534.647 655.833 534.784 655.028 534.784C654.286 534.784 653.606 534.624 652.989 534.304C652.38 533.983 651.853 533.534 651.407 532.956C650.97 532.378 650.63 531.698 650.388 530.917C650.153 530.128 650.036 529.272 650.036 528.351ZM652.216 528.104V528.351C652.216 528.983 652.278 529.577 652.403 530.132C652.536 530.687 652.739 531.175 653.013 531.597C653.286 532.019 653.634 532.351 654.056 532.593C654.478 532.827 654.981 532.944 655.567 532.944C656.286 532.944 656.876 532.792 657.337 532.487C657.806 532.183 658.181 531.78 658.462 531.28C658.743 530.78 658.962 530.237 659.118 529.651V526.827C659.024 526.397 658.888 525.983 658.708 525.585C658.536 525.179 658.31 524.819 658.028 524.507C657.755 524.187 657.415 523.933 657.009 523.745C656.61 523.558 656.138 523.464 655.591 523.464C654.997 523.464 654.485 523.589 654.056 523.839C653.634 524.081 653.286 524.417 653.013 524.847C652.739 525.269 652.536 525.761 652.403 526.323C652.278 526.878 652.216 527.472 652.216 528.104ZM352.919 568.382V561.854C352.919 561.354 352.817 560.921 352.614 560.554C352.419 560.179 352.122 559.89 351.724 559.687C351.325 559.483 350.833 559.382 350.247 559.382C349.7 559.382 349.22 559.476 348.806 559.663C348.399 559.851 348.079 560.097 347.845 560.401C347.618 560.706 347.505 561.034 347.505 561.386H345.337C345.337 560.933 345.454 560.483 345.688 560.038C345.923 559.593 346.259 559.19 346.696 558.831C347.142 558.464 347.673 558.175 348.29 557.964C348.915 557.745 349.61 557.636 350.376 557.636C351.298 557.636 352.11 557.792 352.813 558.104C353.524 558.417 354.079 558.89 354.478 559.522C354.884 560.147 355.087 560.933 355.087 561.878V567.784C355.087 568.206 355.122 568.655 355.192 569.132C355.271 569.608 355.384 570.019 355.532 570.362V570.55H353.271C353.161 570.3 353.075 569.968 353.013 569.554C352.95 569.132 352.919 568.741 352.919 568.382ZM353.294 562.862L353.317 564.386H351.126C350.509 564.386 349.958 564.437 349.474 564.538C348.989 564.632 348.583 564.776 348.255 564.972C347.927 565.167 347.677 565.413 347.505 565.71C347.333 565.999 347.247 566.339 347.247 566.729C347.247 567.128 347.337 567.491 347.517 567.819C347.696 568.147 347.966 568.409 348.325 568.604C348.692 568.792 349.142 568.886 349.673 568.886C350.337 568.886 350.923 568.745 351.431 568.464C351.938 568.183 352.341 567.839 352.638 567.433C352.942 567.026 353.106 566.632 353.13 566.249L354.056 567.292C354.001 567.62 353.853 567.983 353.61 568.382C353.368 568.78 353.044 569.163 352.638 569.53C352.239 569.89 351.763 570.19 351.208 570.433C350.661 570.667 350.044 570.784 349.356 570.784C348.497 570.784 347.743 570.616 347.095 570.28C346.454 569.944 345.954 569.495 345.595 568.933C345.243 568.362 345.067 567.726 345.067 567.022C345.067 566.343 345.2 565.745 345.466 565.229C345.731 564.706 346.114 564.272 346.614 563.929C347.114 563.577 347.716 563.312 348.419 563.132C349.122 562.952 349.907 562.862 350.774 562.862H353.294ZM366.255 567.62V557.87H368.435V570.55H366.36L366.255 567.62ZM366.665 564.948L367.567 564.925C367.567 565.769 367.478 566.55 367.298 567.269C367.126 567.979 366.845 568.597 366.454 569.12C366.063 569.644 365.552 570.054 364.919 570.351C364.286 570.64 363.517 570.784 362.61 570.784C361.993 570.784 361.427 570.694 360.911 570.515C360.403 570.335 359.966 570.058 359.599 569.683C359.231 569.308 358.946 568.819 358.743 568.218C358.548 567.616 358.45 566.894 358.45 566.05V557.87H360.618V566.073C360.618 566.644 360.681 567.116 360.806 567.491C360.938 567.858 361.114 568.151 361.333 568.37C361.56 568.581 361.81 568.729 362.083 568.815C362.364 568.901 362.653 568.944 362.95 568.944C363.872 568.944 364.603 568.769 365.142 568.417C365.681 568.058 366.067 567.577 366.302 566.976C366.544 566.366 366.665 565.69 366.665 564.948ZM377.048 557.87V559.534H370.192V557.87H377.048ZM372.513 554.788H374.681V567.409C374.681 567.839 374.747 568.163 374.88 568.382C375.013 568.601 375.185 568.745 375.396 568.815C375.606 568.886 375.833 568.921 376.075 568.921C376.255 568.921 376.442 568.905 376.638 568.874C376.841 568.835 376.993 568.804 377.095 568.78L377.106 570.55C376.935 570.604 376.708 570.655 376.427 570.702C376.153 570.757 375.821 570.784 375.431 570.784C374.899 570.784 374.411 570.679 373.966 570.468C373.521 570.257 373.165 569.905 372.899 569.413C372.642 568.913 372.513 568.241 372.513 567.397V554.788ZM378.782 564.351V564.081C378.782 563.167 378.915 562.319 379.181 561.538C379.446 560.749 379.829 560.065 380.329 559.487C380.829 558.901 381.435 558.448 382.146 558.128C382.856 557.8 383.653 557.636 384.536 557.636C385.427 557.636 386.228 557.8 386.938 558.128C387.657 558.448 388.267 558.901 388.767 559.487C389.274 560.065 389.661 560.749 389.927 561.538C390.192 562.319 390.325 563.167 390.325 564.081V564.351C390.325 565.265 390.192 566.112 389.927 566.894C389.661 567.675 389.274 568.358 388.767 568.944C388.267 569.522 387.661 569.976 386.95 570.304C386.247 570.624 385.45 570.784 384.56 570.784C383.669 570.784 382.868 570.624 382.157 570.304C381.446 569.976 380.837 569.522 380.329 568.944C379.829 568.358 379.446 567.675 379.181 566.894C378.915 566.112 378.782 565.265 378.782 564.351ZM380.95 564.081V564.351C380.95 564.983 381.024 565.581 381.173 566.144C381.321 566.698 381.544 567.19 381.841 567.62C382.146 568.05 382.524 568.39 382.978 568.64C383.431 568.882 383.958 569.003 384.56 569.003C385.153 569.003 385.673 568.882 386.118 568.64C386.571 568.39 386.946 568.05 387.243 567.62C387.54 567.19 387.763 566.698 387.911 566.144C388.067 565.581 388.146 564.983 388.146 564.351V564.081C388.146 563.456 388.067 562.866 387.911 562.312C387.763 561.749 387.536 561.253 387.231 560.823C386.935 560.386 386.56 560.042 386.106 559.792C385.661 559.542 385.138 559.417 384.536 559.417C383.942 559.417 383.419 559.542 382.966 559.792C382.521 560.042 382.146 560.386 381.841 560.823C381.544 561.253 381.321 561.749 381.173 562.312C381.024 562.866 380.95 563.456 380.95 564.081ZM395.2 560.39V570.55H393.021V557.87H395.083L395.2 560.39ZM394.755 563.729L393.747 563.694C393.755 562.827 393.868 562.026 394.087 561.292C394.306 560.55 394.63 559.905 395.06 559.358C395.489 558.812 396.024 558.39 396.665 558.093C397.306 557.788 398.048 557.636 398.892 557.636C399.485 557.636 400.032 557.722 400.532 557.894C401.032 558.058 401.466 558.319 401.833 558.679C402.2 559.038 402.485 559.499 402.688 560.062C402.892 560.624 402.993 561.304 402.993 562.101V570.55H400.825V562.206C400.825 561.542 400.712 561.011 400.485 560.612C400.267 560.214 399.954 559.925 399.548 559.745C399.142 559.558 398.665 559.464 398.118 559.464C397.478 559.464 396.942 559.577 396.513 559.804C396.083 560.03 395.739 560.343 395.481 560.741C395.224 561.14 395.036 561.597 394.919 562.112C394.81 562.62 394.755 563.159 394.755 563.729ZM402.97 562.534L401.517 562.979C401.524 562.284 401.638 561.616 401.856 560.976C402.083 560.335 402.407 559.765 402.829 559.265C403.259 558.765 403.786 558.37 404.411 558.081C405.036 557.784 405.751 557.636 406.556 557.636C407.235 557.636 407.837 557.726 408.36 557.905C408.892 558.085 409.337 558.362 409.696 558.737C410.063 559.104 410.341 559.577 410.528 560.155C410.716 560.733 410.81 561.421 410.81 562.218V570.55H408.63V562.194C408.63 561.483 408.517 560.933 408.29 560.542C408.071 560.144 407.759 559.866 407.353 559.71C406.954 559.546 406.478 559.464 405.923 559.464C405.446 559.464 405.024 559.546 404.657 559.71C404.29 559.874 403.981 560.101 403.731 560.39C403.481 560.671 403.29 560.995 403.157 561.362C403.032 561.729 402.97 562.12 402.97 562.534ZM421.567 568.382V561.854C421.567 561.354 421.466 560.921 421.263 560.554C421.067 560.179 420.771 559.89 420.372 559.687C419.974 559.483 419.481 559.382 418.896 559.382C418.349 559.382 417.868 559.476 417.454 559.663C417.048 559.851 416.728 560.097 416.493 560.401C416.267 560.706 416.153 561.034 416.153 561.386H413.985C413.985 560.933 414.103 560.483 414.337 560.038C414.571 559.593 414.907 559.19 415.345 558.831C415.79 558.464 416.321 558.175 416.938 557.964C417.563 557.745 418.259 557.636 419.024 557.636C419.946 557.636 420.759 557.792 421.462 558.104C422.173 558.417 422.728 558.89 423.126 559.522C423.532 560.147 423.735 560.933 423.735 561.878V567.784C423.735 568.206 423.771 568.655 423.841 569.132C423.919 569.608 424.032 570.019 424.181 570.362V570.55H421.919C421.81 570.3 421.724 569.968 421.661 569.554C421.599 569.132 421.567 568.741 421.567 568.382ZM421.942 562.862L421.966 564.386H419.774C419.157 564.386 418.606 564.437 418.122 564.538C417.638 564.632 417.231 564.776 416.903 564.972C416.575 565.167 416.325 565.413 416.153 565.71C415.981 565.999 415.896 566.339 415.896 566.729C415.896 567.128 415.985 567.491 416.165 567.819C416.345 568.147 416.614 568.409 416.974 568.604C417.341 568.792 417.79 568.886 418.321 568.886C418.985 568.886 419.571 568.745 420.079 568.464C420.587 568.183 420.989 567.839 421.286 567.433C421.591 567.026 421.755 566.632 421.778 566.249L422.704 567.292C422.649 567.62 422.501 567.983 422.259 568.382C422.017 568.78 421.692 569.163 421.286 569.53C420.888 569.89 420.411 570.19 419.856 570.433C419.31 570.667 418.692 570.784 418.005 570.784C417.146 570.784 416.392 570.616 415.743 570.28C415.103 569.944 414.603 569.495 414.243 568.933C413.892 568.362 413.716 567.726 413.716 567.022C413.716 566.343 413.849 565.745 414.114 565.229C414.38 564.706 414.763 564.272 415.263 563.929C415.763 563.577 416.364 563.312 417.067 563.132C417.771 562.952 418.556 562.862 419.423 562.862H421.942ZM432.454 557.87V559.534H425.599V557.87H432.454ZM427.919 554.788H430.087V567.409C430.087 567.839 430.153 568.163 430.286 568.382C430.419 568.601 430.591 568.745 430.802 568.815C431.013 568.886 431.239 568.921 431.481 568.921C431.661 568.921 431.849 568.905 432.044 568.874C432.247 568.835 432.399 568.804 432.501 568.78L432.513 570.55C432.341 570.604 432.114 570.655 431.833 570.702C431.56 570.757 431.228 570.784 430.837 570.784C430.306 570.784 429.817 570.679 429.372 570.468C428.927 570.257 428.571 569.905 428.306 569.413C428.048 568.913 427.919 568.241 427.919 567.397V554.788ZM437.353 557.87V570.55H435.173V557.87H437.353ZM435.009 554.507C435.009 554.155 435.114 553.858 435.325 553.616C435.544 553.374 435.864 553.253 436.286 553.253C436.7 553.253 437.017 553.374 437.235 553.616C437.462 553.858 437.575 554.155 437.575 554.507C437.575 554.843 437.462 555.132 437.235 555.374C437.017 555.608 436.7 555.726 436.286 555.726C435.864 555.726 435.544 555.608 435.325 555.374C435.114 555.132 435.009 554.843 435.009 554.507ZM445.907 569.003C446.423 569.003 446.899 568.897 447.337 568.687C447.774 568.476 448.134 568.187 448.415 567.819C448.696 567.444 448.856 567.019 448.896 566.542H450.958C450.919 567.292 450.665 567.991 450.196 568.64C449.735 569.28 449.13 569.8 448.38 570.198C447.63 570.589 446.806 570.784 445.907 570.784C444.954 570.784 444.122 570.616 443.411 570.28C442.708 569.944 442.122 569.483 441.653 568.897C441.192 568.312 440.845 567.64 440.61 566.882C440.384 566.116 440.271 565.308 440.271 564.456V563.964C440.271 563.112 440.384 562.308 440.61 561.55C440.845 560.784 441.192 560.108 441.653 559.522C442.122 558.937 442.708 558.476 443.411 558.14C444.122 557.804 444.954 557.636 445.907 557.636C446.899 557.636 447.767 557.839 448.509 558.245C449.251 558.644 449.833 559.19 450.255 559.886C450.685 560.573 450.919 561.354 450.958 562.229H448.896C448.856 561.706 448.708 561.233 448.45 560.812C448.2 560.39 447.856 560.054 447.419 559.804C446.989 559.546 446.485 559.417 445.907 559.417C445.243 559.417 444.685 559.55 444.231 559.815C443.786 560.073 443.431 560.425 443.165 560.87C442.907 561.308 442.72 561.796 442.603 562.335C442.493 562.866 442.438 563.409 442.438 563.964V564.456C442.438 565.011 442.493 565.558 442.603 566.097C442.712 566.636 442.896 567.124 443.153 567.562C443.419 567.999 443.774 568.351 444.22 568.616C444.673 568.874 445.235 569.003 445.907 569.003ZM460.872 568.382V561.854C460.872 561.354 460.771 560.921 460.567 560.554C460.372 560.179 460.075 559.89 459.677 559.687C459.278 559.483 458.786 559.382 458.2 559.382C457.653 559.382 457.173 559.476 456.759 559.663C456.353 559.851 456.032 560.097 455.798 560.401C455.571 560.706 455.458 561.034 455.458 561.386H453.29C453.29 560.933 453.407 560.483 453.642 560.038C453.876 559.593 454.212 559.19 454.649 558.831C455.095 558.464 455.626 558.175 456.243 557.964C456.868 557.745 457.563 557.636 458.329 557.636C459.251 557.636 460.063 557.792 460.767 558.104C461.478 558.417 462.032 558.89 462.431 559.522C462.837 560.147 463.04 560.933 463.04 561.878V567.784C463.04 568.206 463.075 568.655 463.146 569.132C463.224 569.608 463.337 570.019 463.485 570.362V570.55H461.224C461.114 570.3 461.028 569.968 460.966 569.554C460.903 569.132 460.872 568.741 460.872 568.382ZM461.247 562.862L461.271 564.386H459.079C458.462 564.386 457.911 564.437 457.427 564.538C456.942 564.632 456.536 564.776 456.208 564.972C455.88 565.167 455.63 565.413 455.458 565.71C455.286 565.999 455.2 566.339 455.2 566.729C455.2 567.128 455.29 567.491 455.47 567.819C455.649 568.147 455.919 568.409 456.278 568.604C456.646 568.792 457.095 568.886 457.626 568.886C458.29 568.886 458.876 568.745 459.384 568.464C459.892 568.183 460.294 567.839 460.591 567.433C460.896 567.026 461.06 566.632 461.083 566.249L462.009 567.292C461.954 567.62 461.806 567.983 461.563 568.382C461.321 568.78 460.997 569.163 460.591 569.53C460.192 569.89 459.716 570.19 459.161 570.433C458.614 570.667 457.997 570.784 457.31 570.784C456.45 570.784 455.696 570.616 455.048 570.28C454.407 569.944 453.907 569.495 453.548 568.933C453.196 568.362 453.021 567.726 453.021 567.022C453.021 566.343 453.153 565.745 453.419 565.229C453.685 564.706 454.067 564.272 454.567 563.929C455.067 563.577 455.669 563.312 456.372 563.132C457.075 562.952 457.86 562.862 458.728 562.862H461.247ZM468.806 552.55V570.55H466.626V552.55H468.806ZM474.642 552.55V570.55H472.462V552.55H474.642ZM481.685 569.237L485.212 557.87H487.532L482.446 572.507C482.329 572.819 482.173 573.155 481.978 573.515C481.79 573.882 481.548 574.229 481.251 574.558C480.954 574.886 480.595 575.151 480.173 575.354C479.759 575.565 479.263 575.671 478.685 575.671C478.513 575.671 478.294 575.647 478.028 575.601C477.763 575.554 477.575 575.515 477.466 575.483L477.454 573.726C477.517 573.733 477.614 573.741 477.747 573.749C477.888 573.765 477.985 573.772 478.04 573.772C478.532 573.772 478.95 573.706 479.294 573.573C479.638 573.448 479.927 573.233 480.161 572.929C480.403 572.632 480.61 572.222 480.782 571.698L481.685 569.237ZM479.095 557.87L482.388 567.714L482.95 569.999L481.392 570.796L476.728 557.87H479.095ZM495.431 552.55H497.61V568.089L497.423 570.55H495.431V552.55ZM506.177 564.104V564.351C506.177 565.272 506.067 566.128 505.849 566.917C505.63 567.698 505.31 568.378 504.888 568.956C504.466 569.534 503.95 569.983 503.341 570.304C502.731 570.624 502.032 570.784 501.243 570.784C500.438 570.784 499.731 570.647 499.122 570.374C498.521 570.093 498.013 569.69 497.599 569.167C497.185 568.644 496.853 568.011 496.603 567.269C496.36 566.526 496.192 565.69 496.099 564.761V563.683C496.192 562.745 496.36 561.905 496.603 561.163C496.853 560.421 497.185 559.788 497.599 559.265C498.013 558.733 498.521 558.331 499.122 558.058C499.724 557.776 500.423 557.636 501.22 557.636C502.017 557.636 502.724 557.792 503.341 558.104C503.958 558.409 504.474 558.847 504.888 559.417C505.31 559.987 505.63 560.671 505.849 561.468C506.067 562.257 506.177 563.136 506.177 564.104ZM503.997 564.351V564.104C503.997 563.472 503.938 562.878 503.821 562.323C503.704 561.761 503.517 561.269 503.259 560.847C503.001 560.417 502.661 560.081 502.239 559.839C501.817 559.589 501.298 559.464 500.681 559.464C500.134 559.464 499.657 559.558 499.251 559.745C498.853 559.933 498.513 560.187 498.231 560.507C497.95 560.819 497.72 561.179 497.54 561.585C497.368 561.983 497.239 562.397 497.153 562.827V565.651C497.278 566.198 497.481 566.726 497.763 567.233C498.052 567.733 498.435 568.144 498.911 568.464C499.396 568.784 499.993 568.944 500.704 568.944C501.29 568.944 501.79 568.827 502.204 568.593C502.626 568.351 502.966 568.019 503.224 567.597C503.489 567.175 503.685 566.687 503.81 566.132C503.935 565.577 503.997 564.983 503.997 564.351ZM516.396 568.382V561.854C516.396 561.354 516.294 560.921 516.091 560.554C515.896 560.179 515.599 559.89 515.2 559.687C514.802 559.483 514.31 559.382 513.724 559.382C513.177 559.382 512.696 559.476 512.282 559.663C511.876 559.851 511.556 560.097 511.321 560.401C511.095 560.706 510.981 561.034 510.981 561.386H508.813C508.813 560.933 508.931 560.483 509.165 560.038C509.399 559.593 509.735 559.19 510.173 558.831C510.618 558.464 511.149 558.175 511.767 557.964C512.392 557.745 513.087 557.636 513.853 557.636C514.774 557.636 515.587 557.792 516.29 558.104C517.001 558.417 517.556 558.89 517.954 559.522C518.36 560.147 518.563 560.933 518.563 561.878V567.784C518.563 568.206 518.599 568.655 518.669 569.132C518.747 569.608 518.86 570.019 519.009 570.362V570.55H516.747C516.638 570.3 516.552 569.968 516.489 569.554C516.427 569.132 516.396 568.741 516.396 568.382ZM516.771 562.862L516.794 564.386H514.603C513.985 564.386 513.435 564.437 512.95 564.538C512.466 564.632 512.06 564.776 511.731 564.972C511.403 565.167 511.153 565.413 510.981 565.71C510.81 565.999 510.724 566.339 510.724 566.729C510.724 567.128 510.813 567.491 510.993 567.819C511.173 568.147 511.442 568.409 511.802 568.604C512.169 568.792 512.618 568.886 513.149 568.886C513.813 568.886 514.399 568.745 514.907 568.464C515.415 568.183 515.817 567.839 516.114 567.433C516.419 567.026 516.583 566.632 516.606 566.249L517.532 567.292C517.478 567.62 517.329 567.983 517.087 568.382C516.845 568.78 516.521 569.163 516.114 569.53C515.716 569.89 515.239 570.19 514.685 570.433C514.138 570.667 513.521 570.784 512.833 570.784C511.974 570.784 511.22 570.616 510.571 570.28C509.931 569.944 509.431 569.495 509.071 568.933C508.72 568.362 508.544 567.726 508.544 567.022C508.544 566.343 508.677 565.745 508.942 565.229C509.208 564.706 509.591 564.272 510.091 563.929C510.591 563.577 511.192 563.312 511.896 563.132C512.599 562.952 513.384 562.862 514.251 562.862H516.771ZM529.356 567.187C529.356 566.874 529.286 566.585 529.146 566.319C529.013 566.046 528.735 565.8 528.313 565.581C527.899 565.354 527.274 565.159 526.438 564.995C525.735 564.847 525.099 564.671 524.528 564.468C523.966 564.265 523.485 564.019 523.087 563.729C522.696 563.44 522.396 563.101 522.185 562.71C521.974 562.319 521.868 561.862 521.868 561.339C521.868 560.839 521.978 560.366 522.196 559.921C522.423 559.476 522.739 559.081 523.146 558.737C523.56 558.394 524.056 558.124 524.634 557.929C525.212 557.733 525.856 557.636 526.567 557.636C527.583 557.636 528.45 557.815 529.169 558.175C529.888 558.534 530.438 559.015 530.821 559.616C531.204 560.21 531.396 560.87 531.396 561.597H529.228C529.228 561.245 529.122 560.905 528.911 560.577C528.708 560.241 528.407 559.964 528.009 559.745C527.618 559.526 527.138 559.417 526.567 559.417C525.966 559.417 525.478 559.511 525.103 559.698C524.735 559.878 524.466 560.108 524.294 560.39C524.13 560.671 524.048 560.968 524.048 561.28C524.048 561.515 524.087 561.726 524.165 561.913C524.251 562.093 524.399 562.261 524.61 562.417C524.821 562.565 525.118 562.706 525.501 562.839C525.884 562.972 526.372 563.104 526.966 563.237C528.005 563.472 528.86 563.753 529.532 564.081C530.204 564.409 530.704 564.812 531.032 565.288C531.36 565.765 531.524 566.343 531.524 567.022C531.524 567.577 531.407 568.085 531.173 568.546C530.946 569.007 530.614 569.405 530.177 569.741C529.747 570.069 529.231 570.327 528.63 570.515C528.036 570.694 527.368 570.784 526.626 570.784C525.509 570.784 524.563 570.585 523.79 570.187C523.017 569.788 522.431 569.272 522.032 568.64C521.634 568.007 521.435 567.339 521.435 566.636H523.614C523.646 567.229 523.817 567.702 524.13 568.054C524.442 568.397 524.825 568.644 525.278 568.792C525.731 568.933 526.181 569.003 526.626 569.003C527.22 569.003 527.716 568.925 528.114 568.769C528.521 568.612 528.829 568.397 529.04 568.124C529.251 567.851 529.356 567.538 529.356 567.187ZM539.634 570.784C538.751 570.784 537.95 570.636 537.231 570.339C536.521 570.034 535.907 569.608 535.392 569.062C534.884 568.515 534.493 567.866 534.22 567.116C533.946 566.366 533.81 565.546 533.81 564.655V564.163C533.81 563.132 533.962 562.214 534.267 561.409C534.571 560.597 534.985 559.909 535.509 559.347C536.032 558.784 536.626 558.358 537.29 558.069C537.954 557.78 538.642 557.636 539.353 557.636C540.259 557.636 541.04 557.792 541.696 558.104C542.36 558.417 542.903 558.854 543.325 559.417C543.747 559.972 544.06 560.628 544.263 561.386C544.466 562.136 544.567 562.956 544.567 563.847V564.819H535.099V563.05H542.399V562.886C542.368 562.323 542.251 561.776 542.048 561.245C541.853 560.714 541.54 560.276 541.11 559.933C540.681 559.589 540.095 559.417 539.353 559.417C538.86 559.417 538.407 559.522 537.993 559.733C537.579 559.937 537.224 560.241 536.927 560.647C536.63 561.054 536.399 561.55 536.235 562.136C536.071 562.722 535.989 563.397 535.989 564.163V564.655C535.989 565.257 536.071 565.823 536.235 566.354C536.407 566.878 536.653 567.339 536.974 567.737C537.302 568.136 537.696 568.448 538.157 568.675C538.626 568.901 539.157 569.015 539.751 569.015C540.517 569.015 541.165 568.858 541.696 568.546C542.228 568.233 542.692 567.815 543.091 567.292L544.403 568.335C544.13 568.749 543.782 569.144 543.36 569.519C542.938 569.894 542.419 570.198 541.802 570.433C541.192 570.667 540.47 570.784 539.634 570.784ZM555.091 568.089V552.55H557.271V570.55H555.278L555.091 568.089ZM546.56 564.351V564.104C546.56 563.136 546.677 562.257 546.911 561.468C547.153 560.671 547.493 559.987 547.931 559.417C548.376 558.847 548.903 558.409 549.513 558.104C550.13 557.792 550.817 557.636 551.575 557.636C552.372 557.636 553.067 557.776 553.661 558.058C554.263 558.331 554.771 558.733 555.185 559.265C555.606 559.788 555.938 560.421 556.181 561.163C556.423 561.905 556.591 562.745 556.685 563.683V564.761C556.599 565.69 556.431 566.526 556.181 567.269C555.938 568.011 555.606 568.644 555.185 569.167C554.771 569.69 554.263 570.093 553.661 570.374C553.06 570.647 552.356 570.784 551.552 570.784C550.81 570.784 550.13 570.624 549.513 570.304C548.903 569.983 548.376 569.534 547.931 568.956C547.493 568.378 547.153 567.698 546.911 566.917C546.677 566.128 546.56 565.272 546.56 564.351ZM548.739 564.104V564.351C548.739 564.983 548.802 565.577 548.927 566.132C549.06 566.687 549.263 567.175 549.536 567.597C549.81 568.019 550.157 568.351 550.579 568.593C551.001 568.827 551.505 568.944 552.091 568.944C552.81 568.944 553.399 568.792 553.86 568.487C554.329 568.183 554.704 567.78 554.985 567.28C555.267 566.78 555.485 566.237 555.642 565.651V562.827C555.548 562.397 555.411 561.983 555.231 561.585C555.06 561.179 554.833 560.819 554.552 560.507C554.278 560.187 553.938 559.933 553.532 559.745C553.134 559.558 552.661 559.464 552.114 559.464C551.521 559.464 551.009 559.589 550.579 559.839C550.157 560.081 549.81 560.417 549.536 560.847C549.263 561.269 549.06 561.761 548.927 562.323C548.802 562.878 548.739 563.472 548.739 564.104ZM566.024 564.351V564.081C566.024 563.167 566.157 562.319 566.423 561.538C566.688 560.749 567.071 560.065 567.571 559.487C568.071 558.901 568.677 558.448 569.388 558.128C570.099 557.8 570.896 557.636 571.778 557.636C572.669 557.636 573.47 557.8 574.181 558.128C574.899 558.448 575.509 558.901 576.009 559.487C576.517 560.065 576.903 560.749 577.169 561.538C577.435 562.319 577.567 563.167 577.567 564.081V564.351C577.567 565.265 577.435 566.112 577.169 566.894C576.903 567.675 576.517 568.358 576.009 568.944C575.509 569.522 574.903 569.976 574.192 570.304C573.489 570.624 572.692 570.784 571.802 570.784C570.911 570.784 570.11 570.624 569.399 570.304C568.688 569.976 568.079 569.522 567.571 568.944C567.071 568.358 566.688 567.675 566.423 566.894C566.157 566.112 566.024 565.265 566.024 564.351ZM568.192 564.081V564.351C568.192 564.983 568.267 565.581 568.415 566.144C568.563 566.698 568.786 567.19 569.083 567.62C569.388 568.05 569.767 568.39 570.22 568.64C570.673 568.882 571.2 569.003 571.802 569.003C572.396 569.003 572.915 568.882 573.36 568.64C573.813 568.39 574.188 568.05 574.485 567.62C574.782 567.19 575.005 566.698 575.153 566.144C575.31 565.581 575.388 564.983 575.388 564.351V564.081C575.388 563.456 575.31 562.866 575.153 562.312C575.005 561.749 574.778 561.253 574.474 560.823C574.177 560.386 573.802 560.042 573.349 559.792C572.903 559.542 572.38 559.417 571.778 559.417C571.185 559.417 570.661 559.542 570.208 559.792C569.763 560.042 569.388 560.386 569.083 560.823C568.786 561.253 568.563 561.749 568.415 562.312C568.267 562.866 568.192 563.456 568.192 564.081ZM582.454 560.577V570.55H580.286V557.87H582.337L582.454 560.577ZM581.938 563.729L581.036 563.694C581.044 562.827 581.173 562.026 581.423 561.292C581.673 560.55 582.024 559.905 582.478 559.358C582.931 558.812 583.47 558.39 584.095 558.093C584.728 557.788 585.427 557.636 586.192 557.636C586.817 557.636 587.38 557.722 587.88 557.894C588.38 558.058 588.806 558.323 589.157 558.69C589.517 559.058 589.79 559.534 589.978 560.12C590.165 560.698 590.259 561.405 590.259 562.241V570.55H588.079V562.218C588.079 561.554 587.981 561.022 587.786 560.624C587.591 560.218 587.306 559.925 586.931 559.745C586.556 559.558 586.095 559.464 585.548 559.464C585.009 559.464 584.517 559.577 584.071 559.804C583.634 560.03 583.255 560.343 582.935 560.741C582.622 561.14 582.376 561.597 582.196 562.112C582.024 562.62 581.938 563.159 581.938 563.729ZM602.716 568.3L605.974 557.87H607.403L607.122 559.944L603.806 570.55H602.411L602.716 568.3ZM600.524 557.87L603.302 568.417L603.501 570.55H602.036L598.356 557.87H600.524ZM610.521 568.335L613.169 557.87H615.325L611.646 570.55H610.192L610.521 568.335ZM607.72 557.87L610.907 568.124L611.271 570.55H609.888L606.478 559.921L606.196 557.87H607.72ZM619.72 552.55V570.55H617.552V552.55H619.72ZM619.204 563.729L618.302 563.694C618.31 562.827 618.438 562.026 618.688 561.292C618.938 560.55 619.29 559.905 619.743 559.358C620.196 558.812 620.735 558.39 621.36 558.093C621.993 557.788 622.692 557.636 623.458 557.636C624.083 557.636 624.646 557.722 625.146 557.894C625.646 558.058 626.071 558.323 626.423 558.69C626.782 559.058 627.056 559.534 627.243 560.12C627.431 560.698 627.524 561.405 627.524 562.241V570.55H625.345V562.218C625.345 561.554 625.247 561.022 625.052 560.624C624.856 560.218 624.571 559.925 624.196 559.745C623.821 559.558 623.36 559.464 622.813 559.464C622.274 559.464 621.782 559.577 621.337 559.804C620.899 560.03 620.521 560.343 620.2 560.741C619.888 561.14 619.642 561.597 619.462 562.112C619.29 562.62 619.204 563.159 619.204 563.729ZM636.032 570.784C635.149 570.784 634.349 570.636 633.63 570.339C632.919 570.034 632.306 569.608 631.79 569.062C631.282 568.515 630.892 567.866 630.618 567.116C630.345 566.366 630.208 565.546 630.208 564.655V564.163C630.208 563.132 630.36 562.214 630.665 561.409C630.97 560.597 631.384 559.909 631.907 559.347C632.431 558.784 633.024 558.358 633.688 558.069C634.353 557.78 635.04 557.636 635.751 557.636C636.657 557.636 637.438 557.792 638.095 558.104C638.759 558.417 639.302 558.854 639.724 559.417C640.146 559.972 640.458 560.628 640.661 561.386C640.864 562.136 640.966 562.956 640.966 563.847V564.819H631.497V563.05H638.798V562.886C638.767 562.323 638.649 561.776 638.446 561.245C638.251 560.714 637.938 560.276 637.509 559.933C637.079 559.589 636.493 559.417 635.751 559.417C635.259 559.417 634.806 559.522 634.392 559.733C633.978 559.937 633.622 560.241 633.325 560.647C633.028 561.054 632.798 561.55 632.634 562.136C632.47 562.722 632.388 563.397 632.388 564.163V564.655C632.388 565.257 632.47 565.823 632.634 566.354C632.806 566.878 633.052 567.339 633.372 567.737C633.7 568.136 634.095 568.448 634.556 568.675C635.024 568.901 635.556 569.015 636.149 569.015C636.915 569.015 637.563 568.858 638.095 568.546C638.626 568.233 639.091 567.815 639.489 567.292L640.802 568.335C640.528 568.749 640.181 569.144 639.759 569.519C639.337 569.894 638.817 570.198 638.2 570.433C637.591 570.667 636.868 570.784 636.032 570.784ZM645.665 559.862V570.55H643.497V557.87H645.606L645.665 559.862ZM649.626 557.8L649.614 559.815C649.435 559.776 649.263 559.753 649.099 559.745C648.942 559.729 648.763 559.722 648.56 559.722C648.06 559.722 647.618 559.8 647.235 559.956C646.853 560.112 646.528 560.331 646.263 560.612C645.997 560.894 645.786 561.229 645.63 561.62C645.481 562.003 645.384 562.425 645.337 562.886L644.728 563.237C644.728 562.472 644.802 561.753 644.95 561.081C645.106 560.409 645.345 559.815 645.665 559.3C645.985 558.776 646.392 558.37 646.884 558.081C647.384 557.784 647.978 557.636 648.665 557.636C648.821 557.636 649.001 557.655 649.204 557.694C649.407 557.726 649.548 557.761 649.626 557.8ZM656.657 570.784C655.774 570.784 654.974 570.636 654.255 570.339C653.544 570.034 652.931 569.608 652.415 569.062C651.907 568.515 651.517 567.866 651.243 567.116C650.97 566.366 650.833 565.546 650.833 564.655V564.163C650.833 563.132 650.985 562.214 651.29 561.409C651.595 560.597 652.009 559.909 652.532 559.347C653.056 558.784 653.649 558.358 654.313 558.069C654.978 557.78 655.665 557.636 656.376 557.636C657.282 557.636 658.063 557.792 658.72 558.104C659.384 558.417 659.927 558.854 660.349 559.417C660.771 559.972 661.083 560.628 661.286 561.386C661.489 562.136 661.591 562.956 661.591 563.847V564.819H652.122V563.05H659.423V562.886C659.392 562.323 659.274 561.776 659.071 561.245C658.876 560.714 658.563 560.276 658.134 559.933C657.704 559.589 657.118 559.417 656.376 559.417C655.884 559.417 655.431 559.522 655.017 559.733C654.603 559.937 654.247 560.241 653.95 560.647C653.653 561.054 653.423 561.55 653.259 562.136C653.095 562.722 653.013 563.397 653.013 564.163V564.655C653.013 565.257 653.095 565.823 653.259 566.354C653.431 566.878 653.677 567.339 653.997 567.737C654.325 568.136 654.72 568.448 655.181 568.675C655.649 568.901 656.181 569.015 656.774 569.015C657.54 569.015 658.188 568.858 658.72 568.546C659.251 568.233 659.716 567.815 660.114 567.292L661.427 568.335C661.153 568.749 660.806 569.144 660.384 569.519C659.962 569.894 659.442 570.198 658.825 570.433C658.216 570.667 657.493 570.784 656.657 570.784ZM400.192 605.237L403.72 593.87H406.04L400.954 608.507C400.837 608.819 400.681 609.155 400.485 609.515C400.298 609.882 400.056 610.229 399.759 610.558C399.462 610.886 399.103 611.151 398.681 611.354C398.267 611.565 397.771 611.671 397.192 611.671C397.021 611.671 396.802 611.647 396.536 611.601C396.271 611.554 396.083 611.515 395.974 611.483L395.962 609.726C396.024 609.733 396.122 609.741 396.255 609.749C396.396 609.765 396.493 609.772 396.548 609.772C397.04 609.772 397.458 609.706 397.802 609.573C398.146 609.448 398.435 609.233 398.669 608.929C398.911 608.632 399.118 608.222 399.29 607.698L400.192 605.237ZM397.603 593.87L400.896 603.714L401.458 605.999L399.899 606.796L395.235 593.87H397.603ZM407.235 600.351V600.081C407.235 599.167 407.368 598.319 407.634 597.538C407.899 596.749 408.282 596.065 408.782 595.487C409.282 594.901 409.888 594.448 410.599 594.128C411.31 593.8 412.106 593.636 412.989 593.636C413.88 593.636 414.681 593.8 415.392 594.128C416.11 594.448 416.72 594.901 417.22 595.487C417.728 596.065 418.114 596.749 418.38 597.538C418.646 598.319 418.778 599.167 418.778 600.081V600.351C418.778 601.265 418.646 602.112 418.38 602.894C418.114 603.675 417.728 604.358 417.22 604.944C416.72 605.522 416.114 605.976 415.403 606.304C414.7 606.624 413.903 606.784 413.013 606.784C412.122 606.784 411.321 606.624 410.61 606.304C409.899 605.976 409.29 605.522 408.782 604.944C408.282 604.358 407.899 603.675 407.634 602.894C407.368 602.112 407.235 601.265 407.235 600.351ZM409.403 600.081V600.351C409.403 600.983 409.478 601.581 409.626 602.144C409.774 602.698 409.997 603.19 410.294 603.62C410.599 604.05 410.978 604.39 411.431 604.64C411.884 604.882 412.411 605.003 413.013 605.003C413.606 605.003 414.126 604.882 414.571 604.64C415.024 604.39 415.399 604.05 415.696 603.62C415.993 603.19 416.216 602.698 416.364 602.144C416.521 601.581 416.599 600.983 416.599 600.351V600.081C416.599 599.456 416.521 598.866 416.364 598.312C416.216 597.749 415.989 597.253 415.685 596.823C415.388 596.386 415.013 596.042 414.56 595.792C414.114 595.542 413.591 595.417 412.989 595.417C412.396 595.417 411.872 595.542 411.419 595.792C410.974 596.042 410.599 596.386 410.294 596.823C409.997 597.253 409.774 597.749 409.626 598.312C409.478 598.866 409.403 599.456 409.403 600.081ZM429.255 603.62V593.87H431.435V606.55H429.36L429.255 603.62ZM429.665 600.948L430.567 600.925C430.567 601.769 430.478 602.55 430.298 603.269C430.126 603.979 429.845 604.597 429.454 605.12C429.063 605.644 428.552 606.054 427.919 606.351C427.286 606.64 426.517 606.784 425.61 606.784C424.993 606.784 424.427 606.694 423.911 606.515C423.403 606.335 422.966 606.058 422.599 605.683C422.231 605.308 421.946 604.819 421.743 604.218C421.548 603.616 421.45 602.894 421.45 602.05V593.87H423.618V602.073C423.618 602.644 423.681 603.116 423.806 603.491C423.938 603.858 424.114 604.151 424.333 604.37C424.56 604.581 424.81 604.729 425.083 604.815C425.364 604.901 425.653 604.944 425.95 604.944C426.872 604.944 427.603 604.769 428.142 604.417C428.681 604.058 429.067 603.577 429.302 602.976C429.544 602.366 429.665 601.69 429.665 600.948ZM442.849 596.39V606.55H440.669V593.87H442.731L442.849 596.39ZM442.403 599.729L441.396 599.694C441.403 598.827 441.517 598.026 441.735 597.292C441.954 596.55 442.278 595.905 442.708 595.358C443.138 594.812 443.673 594.39 444.313 594.093C444.954 593.788 445.696 593.636 446.54 593.636C447.134 593.636 447.681 593.722 448.181 593.894C448.681 594.058 449.114 594.319 449.481 594.679C449.849 595.038 450.134 595.499 450.337 596.062C450.54 596.624 450.642 597.304 450.642 598.101V606.55H448.474V598.206C448.474 597.542 448.36 597.011 448.134 596.612C447.915 596.214 447.603 595.925 447.196 595.745C446.79 595.558 446.313 595.464 445.767 595.464C445.126 595.464 444.591 595.577 444.161 595.804C443.731 596.03 443.388 596.343 443.13 596.741C442.872 597.14 442.685 597.597 442.567 598.112C442.458 598.62 442.403 599.159 442.403 599.729ZM450.618 598.534L449.165 598.979C449.173 598.284 449.286 597.616 449.505 596.976C449.731 596.335 450.056 595.765 450.478 595.265C450.907 594.765 451.435 594.37 452.06 594.081C452.685 593.784 453.399 593.636 454.204 593.636C454.884 593.636 455.485 593.726 456.009 593.905C456.54 594.085 456.985 594.362 457.345 594.737C457.712 595.104 457.989 595.577 458.177 596.155C458.364 596.733 458.458 597.421 458.458 598.218V606.55H456.278V598.194C456.278 597.483 456.165 596.933 455.938 596.542C455.72 596.144 455.407 595.866 455.001 595.71C454.603 595.546 454.126 595.464 453.571 595.464C453.095 595.464 452.673 595.546 452.306 595.71C451.938 595.874 451.63 596.101 451.38 596.39C451.13 596.671 450.938 596.995 450.806 597.362C450.681 597.729 450.618 598.12 450.618 598.534ZM469.216 604.382V597.854C469.216 597.354 469.114 596.921 468.911 596.554C468.716 596.179 468.419 595.89 468.021 595.687C467.622 595.483 467.13 595.382 466.544 595.382C465.997 595.382 465.517 595.476 465.103 595.663C464.696 595.851 464.376 596.097 464.142 596.401C463.915 596.706 463.802 597.034 463.802 597.386H461.634C461.634 596.933 461.751 596.483 461.985 596.038C462.22 595.593 462.556 595.19 462.993 594.831C463.438 594.464 463.97 594.175 464.587 593.964C465.212 593.745 465.907 593.636 466.673 593.636C467.595 593.636 468.407 593.792 469.11 594.104C469.821 594.417 470.376 594.89 470.774 595.522C471.181 596.147 471.384 596.933 471.384 597.878V603.784C471.384 604.206 471.419 604.655 471.489 605.132C471.567 605.608 471.681 606.019 471.829 606.362V606.55H469.567C469.458 606.3 469.372 605.968 469.31 605.554C469.247 605.132 469.216 604.741 469.216 604.382ZM469.591 598.862L469.614 600.386H467.423C466.806 600.386 466.255 600.437 465.771 600.538C465.286 600.632 464.88 600.776 464.552 600.972C464.224 601.167 463.974 601.413 463.802 601.71C463.63 601.999 463.544 602.339 463.544 602.729C463.544 603.128 463.634 603.491 463.813 603.819C463.993 604.147 464.263 604.409 464.622 604.604C464.989 604.792 465.438 604.886 465.97 604.886C466.634 604.886 467.22 604.745 467.728 604.464C468.235 604.183 468.638 603.839 468.935 603.433C469.239 603.026 469.403 602.632 469.427 602.249L470.353 603.292C470.298 603.62 470.149 603.983 469.907 604.382C469.665 604.78 469.341 605.163 468.935 605.53C468.536 605.89 468.06 606.19 467.505 606.433C466.958 606.667 466.341 606.784 465.653 606.784C464.794 606.784 464.04 606.616 463.392 606.28C462.751 605.944 462.251 605.495 461.892 604.933C461.54 604.362 461.364 603.726 461.364 603.022C461.364 602.343 461.497 601.745 461.763 601.229C462.028 600.706 462.411 600.272 462.911 599.929C463.411 599.577 464.013 599.312 464.716 599.132C465.419 598.952 466.204 598.862 467.071 598.862H469.591ZM482.786 604.089V588.55H484.966V606.55H482.974L482.786 604.089ZM474.255 600.351V600.104C474.255 599.136 474.372 598.257 474.606 597.468C474.849 596.671 475.188 595.987 475.626 595.417C476.071 594.847 476.599 594.409 477.208 594.104C477.825 593.792 478.513 593.636 479.271 593.636C480.067 593.636 480.763 593.776 481.356 594.058C481.958 594.331 482.466 594.733 482.88 595.265C483.302 595.788 483.634 596.421 483.876 597.163C484.118 597.905 484.286 598.745 484.38 599.683V600.761C484.294 601.69 484.126 602.526 483.876 603.269C483.634 604.011 483.302 604.644 482.88 605.167C482.466 605.69 481.958 606.093 481.356 606.374C480.755 606.647 480.052 606.784 479.247 606.784C478.505 606.784 477.825 606.624 477.208 606.304C476.599 605.983 476.071 605.534 475.626 604.956C475.188 604.378 474.849 603.698 474.606 602.917C474.372 602.128 474.255 601.272 474.255 600.351ZM476.435 600.104V600.351C476.435 600.983 476.497 601.577 476.622 602.132C476.755 602.687 476.958 603.175 477.231 603.597C477.505 604.019 477.853 604.351 478.274 604.593C478.696 604.827 479.2 604.944 479.786 604.944C480.505 604.944 481.095 604.792 481.556 604.487C482.024 604.183 482.399 603.78 482.681 603.28C482.962 602.78 483.181 602.237 483.337 601.651V598.827C483.243 598.397 483.106 597.983 482.927 597.585C482.755 597.179 482.528 596.819 482.247 596.507C481.974 596.187 481.634 595.933 481.228 595.745C480.829 595.558 480.356 595.464 479.81 595.464C479.216 595.464 478.704 595.589 478.274 595.839C477.853 596.081 477.505 596.417 477.231 596.847C476.958 597.269 476.755 597.761 476.622 598.323C476.497 598.878 476.435 599.472 476.435 600.104ZM493.603 606.784C492.72 606.784 491.919 606.636 491.2 606.339C490.489 606.034 489.876 605.608 489.36 605.062C488.853 604.515 488.462 603.866 488.188 603.116C487.915 602.366 487.778 601.546 487.778 600.655V600.163C487.778 599.132 487.931 598.214 488.235 597.409C488.54 596.597 488.954 595.909 489.478 595.347C490.001 594.784 490.595 594.358 491.259 594.069C491.923 593.78 492.61 593.636 493.321 593.636C494.228 593.636 495.009 593.792 495.665 594.104C496.329 594.417 496.872 594.854 497.294 595.417C497.716 595.972 498.028 596.628 498.231 597.386C498.435 598.136 498.536 598.956 498.536 599.847V600.819H489.067V599.05H496.368V598.886C496.337 598.323 496.22 597.776 496.017 597.245C495.821 596.714 495.509 596.276 495.079 595.933C494.649 595.589 494.063 595.417 493.321 595.417C492.829 595.417 492.376 595.522 491.962 595.733C491.548 595.937 491.192 596.241 490.896 596.647C490.599 597.054 490.368 597.55 490.204 598.136C490.04 598.722 489.958 599.397 489.958 600.163V600.655C489.958 601.257 490.04 601.823 490.204 602.354C490.376 602.878 490.622 603.339 490.942 603.737C491.271 604.136 491.665 604.448 492.126 604.675C492.595 604.901 493.126 605.015 493.72 605.015C494.485 605.015 495.134 604.858 495.665 604.546C496.196 604.233 496.661 603.815 497.06 603.292L498.372 604.335C498.099 604.749 497.751 605.144 497.329 605.519C496.907 605.894 496.388 606.198 495.771 606.433C495.161 606.667 494.438 606.784 493.603 606.784ZM510.583 605.237L514.11 593.87H516.431L511.345 608.507C511.228 608.819 511.071 609.155 510.876 609.515C510.688 609.882 510.446 610.229 510.149 610.558C509.853 610.886 509.493 611.151 509.071 611.354C508.657 611.565 508.161 611.671 507.583 611.671C507.411 611.671 507.192 611.647 506.927 611.601C506.661 611.554 506.474 611.515 506.364 611.483L506.353 609.726C506.415 609.733 506.513 609.741 506.646 609.749C506.786 609.765 506.884 609.772 506.938 609.772C507.431 609.772 507.849 609.706 508.192 609.573C508.536 609.448 508.825 609.233 509.06 608.929C509.302 608.632 509.509 608.222 509.681 607.698L510.583 605.237ZM507.993 593.87L511.286 603.714L511.849 605.999L510.29 606.796L505.626 593.87H507.993ZM517.626 600.351V600.081C517.626 599.167 517.759 598.319 518.024 597.538C518.29 596.749 518.673 596.065 519.173 595.487C519.673 594.901 520.278 594.448 520.989 594.128C521.7 593.8 522.497 593.636 523.38 593.636C524.271 593.636 525.071 593.8 525.782 594.128C526.501 594.448 527.11 594.901 527.61 595.487C528.118 596.065 528.505 596.749 528.771 597.538C529.036 598.319 529.169 599.167 529.169 600.081V600.351C529.169 601.265 529.036 602.112 528.771 602.894C528.505 603.675 528.118 604.358 527.61 604.944C527.11 605.522 526.505 605.976 525.794 606.304C525.091 606.624 524.294 606.784 523.403 606.784C522.513 606.784 521.712 606.624 521.001 606.304C520.29 605.976 519.681 605.522 519.173 604.944C518.673 604.358 518.29 603.675 518.024 602.894C517.759 602.112 517.626 601.265 517.626 600.351ZM519.794 600.081V600.351C519.794 600.983 519.868 601.581 520.017 602.144C520.165 602.698 520.388 603.19 520.685 603.62C520.989 604.05 521.368 604.39 521.821 604.64C522.274 604.882 522.802 605.003 523.403 605.003C523.997 605.003 524.517 604.882 524.962 604.64C525.415 604.39 525.79 604.05 526.087 603.62C526.384 603.19 526.606 602.698 526.755 602.144C526.911 601.581 526.989 600.983 526.989 600.351V600.081C526.989 599.456 526.911 598.866 526.755 598.312C526.606 597.749 526.38 597.253 526.075 596.823C525.778 596.386 525.403 596.042 524.95 595.792C524.505 595.542 523.981 595.417 523.38 595.417C522.786 595.417 522.263 595.542 521.81 595.792C521.364 596.042 520.989 596.386 520.685 596.823C520.388 597.253 520.165 597.749 520.017 598.312C519.868 598.866 519.794 599.456 519.794 600.081ZM539.646 603.62V593.87H541.825V606.55H539.751L539.646 603.62ZM540.056 600.948L540.958 600.925C540.958 601.769 540.868 602.55 540.688 603.269C540.517 603.979 540.235 604.597 539.845 605.12C539.454 605.644 538.942 606.054 538.31 606.351C537.677 606.64 536.907 606.784 536.001 606.784C535.384 606.784 534.817 606.694 534.302 606.515C533.794 606.335 533.356 606.058 532.989 605.683C532.622 605.308 532.337 604.819 532.134 604.218C531.938 603.616 531.841 602.894 531.841 602.05V593.87H534.009V602.073C534.009 602.644 534.071 603.116 534.196 603.491C534.329 603.858 534.505 604.151 534.724 604.37C534.95 604.581 535.2 604.729 535.474 604.815C535.755 604.901 536.044 604.944 536.341 604.944C537.263 604.944 537.993 604.769 538.532 604.417C539.071 604.058 539.458 603.577 539.692 602.976C539.935 602.366 540.056 601.69 540.056 600.948ZM547.298 595.862V606.55H545.13V593.87H547.239L547.298 595.862ZM551.259 593.8L551.247 595.815C551.067 595.776 550.896 595.753 550.731 595.745C550.575 595.729 550.396 595.722 550.192 595.722C549.692 595.722 549.251 595.8 548.868 595.956C548.485 596.112 548.161 596.331 547.896 596.612C547.63 596.894 547.419 597.229 547.263 597.62C547.114 598.003 547.017 598.425 546.97 598.886L546.36 599.237C546.36 598.472 546.435 597.753 546.583 597.081C546.739 596.409 546.978 595.815 547.298 595.3C547.618 594.776 548.024 594.37 548.517 594.081C549.017 593.784 549.61 593.636 550.298 593.636C550.454 593.636 550.634 593.655 550.837 593.694C551.04 593.726 551.181 593.761 551.259 593.8ZM561.384 596.308V611.425H559.204V593.87H561.196L561.384 596.308ZM569.927 600.104V600.351C569.927 601.272 569.817 602.128 569.599 602.917C569.38 603.698 569.06 604.378 568.638 604.956C568.224 605.534 567.712 605.983 567.103 606.304C566.493 606.624 565.794 606.784 565.005 606.784C564.2 606.784 563.489 606.651 562.872 606.386C562.255 606.12 561.731 605.733 561.302 605.226C560.872 604.718 560.528 604.108 560.271 603.397C560.021 602.687 559.849 601.886 559.755 600.995V599.683C559.849 598.745 560.024 597.905 560.282 597.163C560.54 596.421 560.88 595.788 561.302 595.265C561.731 594.733 562.251 594.331 562.86 594.058C563.47 593.776 564.173 593.636 564.97 593.636C565.767 593.636 566.474 593.792 567.091 594.104C567.708 594.409 568.228 594.847 568.649 595.417C569.071 595.987 569.388 596.671 569.599 597.468C569.817 598.257 569.927 599.136 569.927 600.104ZM567.747 600.351V600.104C567.747 599.472 567.681 598.878 567.548 598.323C567.415 597.761 567.208 597.269 566.927 596.847C566.653 596.417 566.302 596.081 565.872 595.839C565.442 595.589 564.931 595.464 564.337 595.464C563.79 595.464 563.313 595.558 562.907 595.745C562.509 595.933 562.169 596.187 561.888 596.507C561.606 596.819 561.376 597.179 561.196 597.585C561.024 597.983 560.896 598.397 560.81 598.827V601.862C560.966 602.409 561.185 602.925 561.466 603.409C561.747 603.886 562.122 604.272 562.591 604.569C563.06 604.858 563.649 605.003 564.36 605.003C564.946 605.003 565.45 604.882 565.872 604.64C566.302 604.39 566.653 604.05 566.927 603.62C567.208 603.19 567.415 602.698 567.548 602.144C567.681 601.581 567.747 600.983 567.747 600.351ZM580.45 603.62V593.87H582.63V606.55H580.556L580.45 603.62ZM580.86 600.948L581.763 600.925C581.763 601.769 581.673 602.55 581.493 603.269C581.321 603.979 581.04 604.597 580.649 605.12C580.259 605.644 579.747 606.054 579.114 606.351C578.481 606.64 577.712 606.784 576.806 606.784C576.188 606.784 575.622 606.694 575.106 606.515C574.599 606.335 574.161 606.058 573.794 605.683C573.427 605.308 573.142 604.819 572.938 604.218C572.743 603.616 572.646 602.894 572.646 602.05V593.87H574.813V602.073C574.813 602.644 574.876 603.116 575.001 603.491C575.134 603.858 575.31 604.151 575.528 604.37C575.755 604.581 576.005 604.729 576.278 604.815C576.56 604.901 576.849 604.944 577.146 604.944C578.067 604.944 578.798 604.769 579.337 604.417C579.876 604.058 580.263 603.577 580.497 602.976C580.739 602.366 580.86 601.69 580.86 600.948ZM588.103 595.862V606.55H585.935V593.87H588.044L588.103 595.862ZM592.063 593.8L592.052 595.815C591.872 595.776 591.7 595.753 591.536 595.745C591.38 595.729 591.2 595.722 590.997 595.722C590.497 595.722 590.056 595.8 589.673 595.956C589.29 596.112 588.966 596.331 588.7 596.612C588.435 596.894 588.224 597.229 588.067 597.62C587.919 598.003 587.821 598.425 587.774 598.886L587.165 599.237C587.165 598.472 587.239 597.753 587.388 597.081C587.544 596.409 587.782 595.815 588.103 595.3C588.423 594.776 588.829 594.37 589.321 594.081C589.821 593.784 590.415 593.636 591.103 593.636C591.259 593.636 591.438 593.655 591.642 593.694C591.845 593.726 591.985 593.761 592.063 593.8ZM598.907 605.003C599.423 605.003 599.899 604.897 600.337 604.687C600.774 604.476 601.134 604.187 601.415 603.819C601.696 603.444 601.856 603.019 601.896 602.542H603.958C603.919 603.292 603.665 603.991 603.196 604.64C602.735 605.28 602.13 605.8 601.38 606.198C600.63 606.589 599.806 606.784 598.907 606.784C597.954 606.784 597.122 606.616 596.411 606.28C595.708 605.944 595.122 605.483 594.653 604.897C594.192 604.312 593.845 603.64 593.61 602.882C593.384 602.116 593.271 601.308 593.271 600.456V599.964C593.271 599.112 593.384 598.308 593.61 597.55C593.845 596.784 594.192 596.108 594.653 595.522C595.122 594.937 595.708 594.476 596.411 594.14C597.122 593.804 597.954 593.636 598.907 593.636C599.899 593.636 600.767 593.839 601.509 594.245C602.251 594.644 602.833 595.19 603.255 595.886C603.685 596.573 603.919 597.354 603.958 598.229H601.896C601.856 597.706 601.708 597.233 601.45 596.812C601.2 596.39 600.856 596.054 600.419 595.804C599.989 595.546 599.485 595.417 598.907 595.417C598.243 595.417 597.685 595.55 597.231 595.815C596.786 596.073 596.431 596.425 596.165 596.87C595.907 597.308 595.72 597.796 595.603 598.335C595.493 598.866 595.438 599.409 595.438 599.964V600.456C595.438 601.011 595.493 601.558 595.603 602.097C595.712 602.636 595.896 603.124 596.153 603.562C596.419 603.999 596.774 604.351 597.22 604.616C597.673 604.874 598.235 605.003 598.907 605.003ZM608.563 588.55V606.55H606.396V588.55H608.563ZM608.048 599.729L607.146 599.694C607.153 598.827 607.282 598.026 607.532 597.292C607.782 596.55 608.134 595.905 608.587 595.358C609.04 594.812 609.579 594.39 610.204 594.093C610.837 593.788 611.536 593.636 612.302 593.636C612.927 593.636 613.489 593.722 613.989 593.894C614.489 594.058 614.915 594.323 615.267 594.69C615.626 595.058 615.899 595.534 616.087 596.12C616.274 596.698 616.368 597.405 616.368 598.241V606.55H614.188V598.218C614.188 597.554 614.091 597.022 613.896 596.624C613.7 596.218 613.415 595.925 613.04 595.745C612.665 595.558 612.204 595.464 611.657 595.464C611.118 595.464 610.626 595.577 610.181 595.804C609.743 596.03 609.364 596.343 609.044 596.741C608.731 597.14 608.485 597.597 608.306 598.112C608.134 598.62 608.048 599.159 608.048 599.729ZM627.091 604.382V597.854C627.091 597.354 626.989 596.921 626.786 596.554C626.591 596.179 626.294 595.89 625.896 595.687C625.497 595.483 625.005 595.382 624.419 595.382C623.872 595.382 623.392 595.476 622.978 595.663C622.571 595.851 622.251 596.097 622.017 596.401C621.79 596.706 621.677 597.034 621.677 597.386H619.509C619.509 596.933 619.626 596.483 619.86 596.038C620.095 595.593 620.431 595.19 620.868 594.831C621.313 594.464 621.845 594.175 622.462 593.964C623.087 593.745 623.782 593.636 624.548 593.636C625.47 593.636 626.282 593.792 626.985 594.104C627.696 594.417 628.251 594.89 628.649 595.522C629.056 596.147 629.259 596.933 629.259 597.878V603.784C629.259 604.206 629.294 604.655 629.364 605.132C629.442 605.608 629.556 606.019 629.704 606.362V606.55H627.442C627.333 606.3 627.247 605.968 627.185 605.554C627.122 605.132 627.091 604.741 627.091 604.382ZM627.466 598.862L627.489 600.386H625.298C624.681 600.386 624.13 600.437 623.646 600.538C623.161 600.632 622.755 600.776 622.427 600.972C622.099 601.167 621.849 601.413 621.677 601.71C621.505 601.999 621.419 602.339 621.419 602.729C621.419 603.128 621.509 603.491 621.688 603.819C621.868 604.147 622.138 604.409 622.497 604.604C622.864 604.792 623.313 604.886 623.845 604.886C624.509 604.886 625.095 604.745 625.603 604.464C626.11 604.183 626.513 603.839 626.81 603.433C627.114 603.026 627.278 602.632 627.302 602.249L628.228 603.292C628.173 603.62 628.024 603.983 627.782 604.382C627.54 604.78 627.216 605.163 626.81 605.53C626.411 605.89 625.935 606.19 625.38 606.433C624.833 606.667 624.216 606.784 623.528 606.784C622.669 606.784 621.915 606.616 621.267 606.28C620.626 605.944 620.126 605.495 619.767 604.933C619.415 604.362 619.239 603.726 619.239 603.022C619.239 602.343 619.372 601.745 619.638 601.229C619.903 600.706 620.286 600.272 620.786 599.929C621.286 599.577 621.888 599.312 622.591 599.132C623.294 598.952 624.079 598.862 624.946 598.862H627.466ZM640.052 603.187C640.052 602.874 639.981 602.585 639.841 602.319C639.708 602.046 639.431 601.8 639.009 601.581C638.595 601.354 637.97 601.159 637.134 600.995C636.431 600.847 635.794 600.671 635.224 600.468C634.661 600.265 634.181 600.019 633.782 599.729C633.392 599.44 633.091 599.101 632.88 598.71C632.669 598.319 632.563 597.862 632.563 597.339C632.563 596.839 632.673 596.366 632.892 595.921C633.118 595.476 633.435 595.081 633.841 594.737C634.255 594.394 634.751 594.124 635.329 593.929C635.907 593.733 636.552 593.636 637.263 593.636C638.278 593.636 639.146 593.815 639.864 594.175C640.583 594.534 641.134 595.015 641.517 595.616C641.899 596.21 642.091 596.87 642.091 597.597H639.923C639.923 597.245 639.817 596.905 639.606 596.577C639.403 596.241 639.103 595.964 638.704 595.745C638.313 595.526 637.833 595.417 637.263 595.417C636.661 595.417 636.173 595.511 635.798 595.698C635.431 595.878 635.161 596.108 634.989 596.39C634.825 596.671 634.743 596.968 634.743 597.28C634.743 597.515 634.782 597.726 634.86 597.913C634.946 598.093 635.095 598.261 635.306 598.417C635.517 598.565 635.813 598.706 636.196 598.839C636.579 598.972 637.067 599.104 637.661 599.237C638.7 599.472 639.556 599.753 640.228 600.081C640.899 600.409 641.399 600.812 641.728 601.288C642.056 601.765 642.22 602.343 642.22 603.022C642.22 603.577 642.103 604.085 641.868 604.546C641.642 605.007 641.31 605.405 640.872 605.741C640.442 606.069 639.927 606.327 639.325 606.515C638.731 606.694 638.063 606.784 637.321 606.784C636.204 606.784 635.259 606.585 634.485 606.187C633.712 605.788 633.126 605.272 632.728 604.64C632.329 604.007 632.13 603.339 632.13 602.636H634.31C634.341 603.229 634.513 603.702 634.825 604.054C635.138 604.397 635.521 604.644 635.974 604.792C636.427 604.933 636.876 605.003 637.321 605.003C637.915 605.003 638.411 604.925 638.81 604.769C639.216 604.612 639.524 604.397 639.735 604.124C639.946 603.851 640.052 603.538 640.052 603.187ZM650.329 606.784C649.446 606.784 648.646 606.636 647.927 606.339C647.216 606.034 646.603 605.608 646.087 605.062C645.579 604.515 645.188 603.866 644.915 603.116C644.642 602.366 644.505 601.546 644.505 600.655V600.163C644.505 599.132 644.657 598.214 644.962 597.409C645.267 596.597 645.681 595.909 646.204 595.347C646.728 594.784 647.321 594.358 647.985 594.069C648.649 593.78 649.337 593.636 650.048 593.636C650.954 593.636 651.735 593.792 652.392 594.104C653.056 594.417 653.599 594.854 654.021 595.417C654.442 595.972 654.755 596.628 654.958 597.386C655.161 598.136 655.263 598.956 655.263 599.847V600.819H645.794V599.05H653.095V598.886C653.063 598.323 652.946 597.776 652.743 597.245C652.548 596.714 652.235 596.276 651.806 595.933C651.376 595.589 650.79 595.417 650.048 595.417C649.556 595.417 649.103 595.522 648.688 595.733C648.274 595.937 647.919 596.241 647.622 596.647C647.325 597.054 647.095 597.55 646.931 598.136C646.767 598.722 646.685 599.397 646.685 600.163V600.655C646.685 601.257 646.767 601.823 646.931 602.354C647.103 602.878 647.349 603.339 647.669 603.737C647.997 604.136 648.392 604.448 648.853 604.675C649.321 604.901 649.853 605.015 650.446 605.015C651.212 605.015 651.86 604.858 652.392 604.546C652.923 604.233 653.388 603.815 653.786 603.292L655.099 604.335C654.825 604.749 654.478 605.144 654.056 605.519C653.634 605.894 653.114 606.198 652.497 606.433C651.888 606.667 651.165 606.784 650.329 606.784ZM657.829 605.401C657.829 605.034 657.942 604.726 658.169 604.476C658.403 604.218 658.739 604.089 659.177 604.089C659.614 604.089 659.946 604.218 660.173 604.476C660.407 604.726 660.524 605.034 660.524 605.401C660.524 605.761 660.407 606.065 660.173 606.315C659.946 606.565 659.614 606.69 659.177 606.69C658.739 606.69 658.403 606.565 658.169 606.315C657.942 606.065 657.829 605.761 657.829 605.401Z" fill="#676B89"/>
<defs>
<filter id="filter0_d_1_24089" x="419" y="159.25" width="293" height="216.05" filterUnits="userSpaceOnUse" color-interpolation-filters="sRGB">
<feFlood flood-opacity="0" result="BackgroundImageFix"/>
<feColorMatrix in="SourceAlpha" type="matrix" values="0 0 0 0 0 0 0 0 0 0 0 0 0 0 0 0 0 0 127 0" result="hardAlpha"/>
<feOffset dy="9"/>
<feGaussianBlur stdDeviation="12.5"/>
<feComposite in2="hardAlpha" operator="out"/>
<feColorMatrix type="matrix" values="0 0 0 0 0.12549 0 0 0 0 0.160784 0 0 0 0 0.298039 0 0 0 0.12 0"/>
<feBlend mode="normal" in2="BackgroundImageFix" result="effect1_dropShadow_1_24089"/>
<feBlend mode="normal" in="SourceGraphic" in2="effect1_dropShadow_1_24089" result="shape"/>
</filter>
<clipPath id="clip0_1_24089">
<rect width="638.909" height="480.39" fill="white" transform="translate(48.0906 18.0801)"/>
</clipPath>
<clipPath id="clip1_1_24089">
<path d="M444 187.25C444 180.623 449.373 175.25 456 175.25H687V341.3H456C449.373 341.3 444 335.927 444 329.3V187.25Z" fill="white"/>
</clipPath>
</defs>
</svg>
