<svg width="32" height="32" viewBox="0 0 32 32" fill="none" xmlns="http://www.w3.org/2000/svg">
<path d="M18.7735 3.29C17.8895 3.1 16.9725 3 16.0305 3C10.1065 3 5.11045 6.961 3.54245 12.378C2.76245 15.071 2.94245 17.842 3.80745 20.433L3.81145 20.447L3.81645 20.46C5.63645 25.442 10.4165 29 16.0305 29C19.1785 29 22.0645 27.881 24.3145 26.02C23.6721 26.058 23.0275 26.0086 22.3985 25.873C20.6955 25.519 19.3945 24.71 18.4785 23.586C17.5735 22.476 17.0905 21.114 16.9115 19.712C16.5545 16.933 17.3615 13.812 18.7395 11.547C18.9805 11.143 19.2235 10.755 19.4595 10.377C20.0935 9.362 20.6785 8.427 21.0495 7.497C21.5295 6.289 21.5205 5.4 20.8705 4.607C20.3575 3.981 19.6285 3.557 18.7725 3.29H18.7735Z" fill="#20294C"/>
<path d="M28.3155 20.2742L28.3205 20.2572L28.3335 20.2172L28.3355 20.2112C28.7875 18.8912 29.0325 17.4742 29.0325 16.0002C29.037 12.669 27.7585 9.46387 25.4625 7.05023C24.8189 6.37242 24.1045 5.76561 23.3315 5.24023C23.5165 6.26323 23.2955 7.29323 22.9185 8.24023C22.4745 9.35423 21.7445 10.5212 21.0805 11.5832C20.8635 11.9292 20.6545 12.2632 20.4645 12.5822L20.4605 12.5882C20.4175 12.6582 20.3755 12.7312 20.3335 12.8032C20.5405 13.0582 20.7265 13.3192 20.8905 13.6102C21.2685 14.2812 21.5495 15.1552 21.5495 16.5002C21.5495 17.7842 21.1865 18.6892 20.6495 19.4242C20.2675 19.9472 19.7865 20.4012 19.2305 20.8492C19.4136 21.3815 19.6873 21.8781 20.0395 22.3172C20.6445 23.0592 21.5295 23.6392 22.8095 23.9052C24.9165 24.3432 26.2325 23.4802 27.0855 22.4692C27.6354 21.8262 28.0503 21.079 28.3055 20.2722L28.3155 20.2742Z" fill="#20294C"/>
</svg>
