<svg width="75" height="75" viewBox="0 0 75 75" fill="none" xmlns="http://www.w3.org/2000/svg">
<g clip-path="url(#clip0_1_24288)">
<mask id="mask0_1_24288" style="mask-type:luminance" maskUnits="userSpaceOnUse" x="5" y="4" width="66" height="66">
<path d="M54.0001 4.99023H21.5443C12.5819 4.99023 5.31641 12.2557 5.31641 21.2181V53.674C5.31641 62.6364 12.5819 69.9019 21.5443 69.9019H54.0001C62.9626 69.9019 70.2281 62.6364 70.2281 53.674V21.2181C70.2281 12.2557 62.9626 4.99023 54.0001 4.99023Z" fill="white"/>
</mask>
<g mask="url(#mask0_1_24288)">
<path d="M54.0001 4.99023H21.5443C12.5819 4.99023 5.31641 12.2557 5.31641 21.2181V53.674C5.31641 62.6364 12.5819 69.9019 21.5443 69.9019H54.0001C62.9626 69.9019 70.2281 62.6364 70.2281 53.674V21.2181C70.2281 12.2557 62.9626 4.99023 54.0001 4.99023Z" fill="#3B9DFB"/>
<g filter="url(#filter0_i_1_24288)">
<path d="M54.0001 4.99023H21.5443C12.5819 4.99023 5.31641 12.2557 5.31641 21.2181V53.674C5.31641 62.6364 12.5819 69.9019 21.5443 69.9019H54.0001C62.9626 69.9019 70.2281 62.6364 70.2281 53.674V21.2181C70.2281 12.2557 62.9626 4.99023 54.0001 4.99023Z" fill="#3B9DFB"/>
</g>
<g opacity="0.4">
<path d="M15.056 9.86C15.5939 9.86 16.0299 9.42395 16.0299 8.88606C16.0299 8.34816 15.5939 7.91211 15.056 7.91211C14.5181 7.91211 14.082 8.34816 14.082 8.88606C14.082 9.42395 14.5181 9.86 15.056 9.86Z" fill="#EDEEF3"/>
<path d="M36.4818 9.86C37.0197 9.86 37.4557 9.42395 37.4557 8.88606C37.4557 8.34816 37.0197 7.91211 36.4818 7.91211C35.9439 7.91211 35.5078 8.34816 35.5078 8.88606C35.5078 9.42395 35.9439 9.86 36.4818 9.86Z" fill="#EDEEF3"/>
<path d="M57.9114 9.86C58.4493 9.86 58.8854 9.42395 58.8854 8.88606C58.8854 8.34816 58.4493 7.91211 57.9114 7.91211C57.3736 7.91211 56.9375 8.34816 56.9375 8.88606C56.9375 9.42395 57.3736 9.86 57.9114 9.86Z" fill="#EDEEF3"/>
<path d="M15.056 23.4948C15.5939 23.4948 16.0299 23.0587 16.0299 22.5208C16.0299 21.9829 15.5939 21.5469 15.056 21.5469C14.5181 21.5469 14.082 21.9829 14.082 22.5208C14.082 23.0587 14.5181 23.4948 15.056 23.4948Z" fill="#EDEEF3"/>
<path d="M36.4818 23.4948C37.0197 23.4948 37.4557 23.0587 37.4557 22.5208C37.4557 21.9829 37.0197 21.5469 36.4818 21.5469C35.9439 21.5469 35.5078 21.9829 35.5078 22.5208C35.5078 23.0587 35.9439 23.4948 36.4818 23.4948Z" fill="#EDEEF3"/>
<path d="M57.9114 23.4948C58.4493 23.4948 58.8854 23.0587 58.8854 22.5208C58.8854 21.9829 58.4493 21.5469 57.9114 21.5469C57.3736 21.5469 56.9375 21.9829 56.9375 22.5208C56.9375 23.0587 57.3736 23.4948 57.9114 23.4948Z" fill="#EDEEF3"/>
<path d="M15.056 37.1315C15.5939 37.1315 16.0299 36.6954 16.0299 36.1575C16.0299 35.6196 15.5939 35.1836 15.056 35.1836C14.5181 35.1836 14.082 35.6196 14.082 36.1575C14.082 36.6954 14.5181 37.1315 15.056 37.1315Z" fill="#EDEEF3"/>
<path d="M36.4818 37.1315C37.0197 37.1315 37.4557 36.6954 37.4557 36.1575C37.4557 35.6196 37.0197 35.1836 36.4818 35.1836C35.9439 35.1836 35.5078 35.6196 35.5078 36.1575C35.5078 36.6954 35.9439 37.1315 36.4818 37.1315Z" fill="#EDEEF3"/>
<path d="M57.9114 37.1315C58.4493 37.1315 58.8854 36.6954 58.8854 36.1575C58.8854 35.6196 58.4493 35.1836 57.9114 35.1836C57.3736 35.1836 56.9375 35.6196 56.9375 36.1575C56.9375 36.6954 57.3736 37.1315 57.9114 37.1315Z" fill="#EDEEF3"/>
<path d="M15.056 50.7663C15.5939 50.7663 16.0299 50.3302 16.0299 49.7923C16.0299 49.2544 15.5939 48.8184 15.056 48.8184C14.5181 48.8184 14.082 49.2544 14.082 49.7923C14.082 50.3302 14.5181 50.7663 15.056 50.7663Z" fill="#EDEEF3"/>
<path d="M36.4818 50.7663C37.0197 50.7663 37.4557 50.3302 37.4557 49.7923C37.4557 49.2544 37.0197 48.8184 36.4818 48.8184C35.9439 48.8184 35.5078 49.2544 35.5078 49.7923C35.5078 50.3302 35.9439 50.7663 36.4818 50.7663Z" fill="#EDEEF3"/>
<path d="M57.9114 50.7663C58.4493 50.7663 58.8854 50.3302 58.8854 49.7923C58.8854 49.2544 58.4493 48.8184 57.9114 48.8184C57.3736 48.8184 56.9375 49.2544 56.9375 49.7923C56.9375 50.3302 57.3736 50.7663 57.9114 50.7663Z" fill="#EDEEF3"/>
<path d="M15.056 64.401C15.5939 64.401 16.0299 63.965 16.0299 63.4271C16.0299 62.8892 15.5939 62.4531 15.056 62.4531C14.5181 62.4531 14.082 62.8892 14.082 63.4271C14.082 63.965 14.5181 64.401 15.056 64.401Z" fill="#EDEEF3"/>
<path d="M36.4818 64.401C37.0197 64.401 37.4557 63.965 37.4557 63.4271C37.4557 62.8892 37.0197 62.4531 36.4818 62.4531C35.9439 62.4531 35.5078 62.8892 35.5078 63.4271C35.5078 63.965 35.9439 64.401 36.4818 64.401Z" fill="#EDEEF3"/>
<path d="M57.9114 64.401C58.4493 64.401 58.8854 63.965 58.8854 63.4271C58.8854 62.8892 58.4493 62.4531 57.9114 62.4531C57.3736 62.4531 56.9375 62.8892 56.9375 63.4271C56.9375 63.965 57.3736 64.401 57.9114 64.401Z" fill="#EDEEF3"/>
</g>
<path opacity="0.3" d="M36.758 56.7172C47.9613 56.7172 57.0434 47.6352 57.0434 36.4319C57.0434 25.2286 47.9613 16.1465 36.758 16.1465C25.5547 16.1465 16.4727 25.2286 16.4727 36.4319C16.4727 47.6352 25.5547 56.7172 36.758 56.7172Z" fill="white"/>
<g filter="url(#filter1_ddd_1_24288)">
<path fill-rule="evenodd" clip-rule="evenodd" d="M79.2288 72.3343L79.2171 72.3226L57.9149 52.1931C61.0452 47.8763 62.7265 42.6785 62.7175 37.3462C62.7175 23.4013 51.4616 12.0898 37.5672 12.0898C23.6729 12.0898 12.418 23.4013 12.418 37.3462C12.418 51.2903 23.6729 62.6026 37.5672 62.6026C43.11 62.6026 48.2359 60.8008 52.3927 57.7495L73.7065 77.8907C74.0697 78.2529 74.5007 78.54 74.9749 78.7355C75.4491 78.9309 75.9572 79.031 76.4701 79.0299C76.983 79.0288 77.4907 78.9266 77.964 78.7291C78.4374 78.5316 78.8672 78.2428 79.2288 77.879C79.9614 77.1421 80.3726 76.1453 80.3726 75.1062C80.3726 74.0671 79.9614 73.0712 79.2288 72.3343ZM20.2388 37.3453C20.2388 27.7256 28.0011 19.935 37.5672 19.935C47.1333 19.935 54.8967 27.7256 54.8967 37.3453C54.8967 46.964 47.1343 54.7546 37.5672 54.7546C28.0011 54.7546 20.2388 46.964 20.2388 37.3453Z" fill="#9AE97F"/>
</g>
</g>
<path d="M53.9976 2.96094H21.5418C11.4589 2.96094 3.28516 11.1347 3.28516 21.2176V53.6734C3.28516 63.7563 11.4589 71.93 21.5418 71.93H53.9976C64.0805 71.93 72.2543 63.7563 72.2543 53.6734V21.2176C72.2543 11.1347 64.0805 2.96094 53.9976 2.96094Z" stroke="#C7CBDB" stroke-opacity="0.4" stroke-width="4.05746"/>
</g>
<defs>
<filter id="filter0_i_1_24288" x="5.31641" y="4.99023" width="64.9116" height="64.9116" filterUnits="userSpaceOnUse" color-interpolation-filters="sRGB">
<feFlood flood-opacity="0" result="BackgroundImageFix"/>
<feBlend mode="normal" in="SourceGraphic" in2="BackgroundImageFix" result="shape"/>
<feColorMatrix in="SourceAlpha" type="matrix" values="0 0 0 0 0 0 0 0 0 0 0 0 0 0 0 0 0 0 127 0" result="hardAlpha"/>
<feOffset/>
<feGaussianBlur stdDeviation="5.07134"/>
<feComposite in2="hardAlpha" operator="arithmetic" k2="-1" k3="1"/>
<feColorMatrix type="matrix" values="0 0 0 0 0.222656 0 0 0 0 0.587524 0 0 0 0 0.9375 0 0 0 1 0"/>
<feBlend mode="normal" in2="shape" result="effect1_innerShadow_1_24288"/>
</filter>
<filter id="filter1_ddd_1_24288" x="8.3605" y="10.0611" width="76.0695" height="77.0836" filterUnits="userSpaceOnUse" color-interpolation-filters="sRGB">
<feFlood flood-opacity="0" result="BackgroundImageFix"/>
<feColorMatrix in="SourceAlpha" type="matrix" values="0 0 0 0 0 0 0 0 0 0 0 0 0 0 0 0 0 0 127 0" result="hardAlpha"/>
<feOffset dy="1.01388"/>
<feGaussianBlur stdDeviation="1.52131"/>
<feColorMatrix type="matrix" values="0 0 0 0 0.12549 0 0 0 0 0.160784 0 0 0 0 0.298039 0 0 0 0.12 0"/>
<feBlend mode="normal" in2="BackgroundImageFix" result="effect1_dropShadow_1_24288"/>
<feColorMatrix in="SourceAlpha" type="matrix" values="0 0 0 0 0 0 0 0 0 0 0 0 0 0 0 0 0 0 127 0" result="hardAlpha"/>
<feOffset dy="4.05746"/>
<feGaussianBlur stdDeviation="2.02873"/>
<feComposite in2="hardAlpha" operator="out"/>
<feColorMatrix type="matrix" values="0 0 0 0 0 0 0 0 0 0 0 0 0 0 0 0 0 0 0.25 0"/>
<feBlend mode="normal" in2="effect1_dropShadow_1_24288" result="effect2_dropShadow_1_24288"/>
<feColorMatrix in="SourceAlpha" type="matrix" values="0 0 0 0 0 0 0 0 0 0 0 0 0 0 0 0 0 0 127 0" result="hardAlpha"/>
<feOffset dy="1.01388"/>
<feComposite in2="hardAlpha" operator="out"/>
<feColorMatrix type="matrix" values="0 0 0 0 1 0 0 0 0 1 0 0 0 0 1 0 0 0 0.2 0"/>
<feBlend mode="normal" in2="effect2_dropShadow_1_24288" result="effect3_dropShadow_1_24288"/>
<feBlend mode="normal" in="SourceGraphic" in2="effect3_dropShadow_1_24288" result="shape"/>
</filter>
<clipPath id="clip0_1_24288">
<rect width="74.9939" height="74.02" fill="white"/>
</clipPath>
</defs>
</svg>
