<svg width="1400" height="1227" viewBox="0 0 1400 1227" fill="none" xmlns="http://www.w3.org/2000/svg">
<path d="M7.35938 95.9238V1226.7" stroke="#F0F1F5"/>
<path d="M113.859 95.9238V1226.7" stroke="#F0F1F5"/>
<path d="M220.359 95.9238V1226.7" stroke="#F0F1F5"/>
<path d="M326.859 95.9238V1226.7" stroke="#F0F1F5"/>
<path d="M433.359 95.9238V1226.7" stroke="#F0F1F5"/>
<path d="M539.859 95.9238V1226.7" stroke="#F0F1F5"/>
<path d="M646.359 95.9238V1226.7" stroke="#F0F1F5"/>
<path d="M752.859 95.9238V1226.7" stroke="#F0F1F5"/>
<path d="M859.359 95.9238V1226.7" stroke="#F0F1F5"/>
<path d="M965.859 95.9238V1226.7" stroke="#F0F1F5"/>
<path d="M1072.36 95.9238V1226.7" stroke="#F0F1F5"/>
<path d="M1178.86 95.9238V1226.7" stroke="#F0F1F5"/>
<path d="M1285.36 95.9238V1226.7" stroke="#F0F1F5"/>
<path d="M1391.86 95.9238V1226.7" stroke="#F0F1F5"/>
<path d="M7.35938 1175.42H1392.36" stroke="#F0F1F5"/>
<path d="M7.35938 1123.92H1392.36" stroke="#F0F1F5"/>
<path d="M7.35938 1072.42H1392.36" stroke="#F0F1F5"/>
<path d="M7.35938 1020.92L1392.36 1020.92" stroke="#F0F1F5"/>
<path d="M7.35938 969.424L1392.36 969.424" stroke="#F0F1F5"/>
<path d="M7.35938 917.924L1392.36 917.924" stroke="#F0F1F5"/>
<path d="M7.35938 866.424L1392.36 866.424" stroke="#F0F1F5"/>
<path d="M7.35938 814.924L1392.36 814.924" stroke="#F0F1F5"/>
<path d="M7.35938 763.424L1392.36 763.424" stroke="#F0F1F5"/>
<path d="M7.35938 711.924L1392.36 711.924" stroke="#F0F1F5"/>
<path d="M7.35938 660.424L1392.36 660.424" stroke="#F0F1F5"/>
<path d="M7.35938 608.924L1392.36 608.924" stroke="#F0F1F5"/>
<path d="M7.35938 557.424L1392.36 557.424" stroke="#F0F1F5"/>
<path d="M7.35938 505.924L1392.36 505.924" stroke="#F0F1F5"/>
<path d="M7.35938 454.424L1392.36 454.424" stroke="#F0F1F5"/>
<path d="M7.35938 402.924L1392.36 402.924" stroke="#F0F1F5"/>
<path d="M7.35938 351.424L1392.36 351.424" stroke="#F0F1F5"/>
<path d="M7.35938 299.924L1392.36 299.924" stroke="#F0F1F5"/>
<path d="M7.35938 248.424L1392.36 248.424" stroke="#F0F1F5"/>
<path d="M7.35938 196.924L1392.36 196.924" stroke="#F0F1F5"/>
<path d="M7.35938 145.424L1392.36 145.424" stroke="#F0F1F5"/>
<g clip-path="url(#clip0_1_23087)">
<path d="M0 0H1400" stroke="white" stroke-width="2"/>
</g>
<defs>
<clipPath id="clip0_1_23087">
<rect width="1400" height="1144" fill="white"/>
</clipPath>
</defs>
</svg>
